<svg width="135" height="192" viewBox="0 0 135 192" fill="none" xmlns="http://www.w3.org/2000/svg">
<path d="M3.49507 141.636C3.49507 141.842 3.49507 142.047 3.70064 142.253C10.0732 165.893 30.2188 192 66.3987 192C66.6043 192 67.0154 192 67.221 192C67.4266 192 67.8377 192 68.0433 192C104.223 192 124.369 165.687 130.741 142.253C130.741 142.253 131.358 139.786 131.769 137.319C131.769 137.113 131.769 136.908 131.975 136.497C133.003 131.563 133.619 126.63 134.03 121.49C134.236 118.201 134.236 114.707 134.236 111.418C134.236 108.128 134.03 105.045 133.825 101.756C133.619 96.8223 132.797 92.0942 131.769 87.3661C129.713 76.6766 126.219 65.3704 120.874 53.6531C118.818 48.925 116.352 44.197 113.885 39.6745C108.951 30.8351 103.195 22.4068 96.206 15.212C92.9169 11.7173 89.4223 8.63381 85.3109 6.16701C79.7606 2.46679 73.7991 0.205549 66.8098 0.411117C63.5208 0.411117 60.2317 1.02782 56.9426 2.05566C52.6257 3.7002 48.7199 5.96144 45.0197 8.83938C40.0861 12.7452 35.9747 17.2676 32.069 21.9957C26.1075 29.3961 21.1739 37.6188 16.857 46.0471C9.45653 60.8479 4.11178 76.4711 1.4394 92.9165C0.822696 96.4111 0.411562 99.9058 0.411562 103.4C0.411562 105.456 0.205994 107.512 0.205994 109.362C0.00042659 115.323 0.205994 121.079 0.822696 127.041C1.23383 131.974 2.26167 136.908 3.49507 141.636ZM96.8227 91.8886C96.8227 92.0942 96.8227 92.0942 96.8227 91.8886C96.6171 92.0942 96.6171 92.0942 96.8227 91.8886C96.6171 91.8886 96.6171 91.8886 96.8227 91.8886ZM78.7328 181.31C78.7328 181.516 78.7328 181.516 78.7328 181.31C78.7328 181.516 78.7328 181.516 78.7328 181.31C78.7328 181.516 78.7328 181.516 78.7328 181.31C78.7328 181.516 78.5272 181.516 78.7328 181.31Z" fill="url(#paint0_linear_393_973)"/>
<path d="M4.11177 141.019C4.11177 141.225 4.11177 141.43 4.11177 141.636C10.2788 164.865 30.4244 190.767 65.9876 190.767C66.1931 190.767 66.6043 190.767 66.8098 190.767C67.0154 190.767 67.221 190.767 67.6321 190.767C103.401 190.767 123.341 164.865 129.508 141.636C129.508 141.636 130.125 139.169 130.536 136.702C130.536 136.497 130.536 136.291 130.741 136.086C131.769 131.152 132.386 126.218 132.591 121.285C132.797 117.996 132.797 114.707 132.797 111.212C132.797 108.128 132.591 104.839 132.386 101.756C132.18 97.0278 131.358 92.2997 130.33 87.5717C128.275 77.0878 124.78 65.9871 119.641 54.2698C117.585 49.5417 115.324 45.0192 112.651 40.4968C107.718 31.6574 102.167 23.4347 95.1782 16.2398C91.8891 12.9507 88.3944 9.86721 84.4886 7.19484C78.9383 3.49462 72.9769 1.23338 66.1931 1.43895C62.9041 1.43895 59.615 2.05565 56.5315 3.08349C52.2146 4.72803 48.3088 6.98927 44.8141 9.86721C40.0861 13.5674 35.7692 18.0899 32.0689 22.818C26.1075 30.2184 21.3794 38.2355 17.0625 46.6638C9.6621 61.4646 4.31734 76.8822 1.85053 93.122C1.23383 96.6167 0.822694 99.9057 0.822694 103.4C0.822694 105.456 0.617127 107.306 0.617127 109.362C0.411559 115.118 0.617127 121.079 1.23383 126.835C2.0561 131.563 2.87837 136.291 4.11177 141.019ZM96.4116 91.8886C96.4116 91.8886 96.4116 92.0942 96.4116 91.8886C96.4116 92.0942 96.4116 92.0942 96.4116 91.8886C96.206 92.0942 96.206 92.0942 96.4116 91.8886C96.4116 91.8886 96.206 91.8886 96.4116 91.8886ZM78.5272 180.283C78.5272 180.283 78.5272 180.488 78.5272 180.283C78.5272 180.488 78.5272 180.488 78.5272 180.283C78.5272 180.488 78.5272 180.488 78.5272 180.283C78.5272 180.283 78.5272 180.488 78.5272 180.283Z" fill="url(#paint1_radial_393_973)"/>
<path d="M11.3066 135.88C11.3066 136.086 11.3066 136.086 11.3066 136.497C16.8569 157.054 34.5357 180.077 66.1931 180.077C66.3987 180.077 66.6042 180.077 66.8098 180.077C67.0154 180.077 67.2209 180.077 67.4265 180.077C99.0839 180.077 116.763 157.054 122.313 136.497C122.313 136.497 122.724 134.441 123.341 132.18C123.341 131.974 123.341 131.769 123.546 131.563C124.369 127.246 124.985 122.929 125.191 118.407C125.397 115.529 125.397 112.445 125.397 109.567C125.397 106.69 125.191 104.017 125.191 101.139C124.985 96.8223 124.369 92.7109 123.546 88.5996C121.696 79.349 118.613 69.4818 114.09 58.9979C112.24 54.8865 110.185 50.7752 107.923 46.6638C103.606 38.8523 98.6728 31.6574 92.3002 25.0792C89.4222 21.9957 86.3387 19.3233 82.8441 17.0621C77.9105 13.773 72.7713 11.9229 66.6042 11.9229C63.7263 11.9229 60.8484 12.334 57.9704 13.3619C54.0646 14.8009 50.7756 16.8565 47.4865 19.3233C43.1696 22.6124 39.4693 26.7238 36.1803 30.8351C31.0411 37.4133 26.7242 44.4026 22.8184 52.0086C16.2402 65.1649 11.5122 78.7323 9.25092 93.3276C8.83979 96.4111 8.42865 99.4946 8.22308 102.373C8.22308 104.223 8.22309 105.867 8.01752 107.717C7.81195 112.857 8.01752 117.996 8.63422 123.135C9.45649 127.452 10.2788 131.769 11.3066 135.88ZM92.9169 92.5054C93.1224 92.5054 93.1224 92.5054 92.9169 92.5054C93.1224 92.5054 93.1224 92.5054 92.9169 92.5054ZM77.2937 170.827C77.2937 170.827 77.0882 170.827 77.2937 170.827C77.0882 170.827 77.2937 170.827 77.2937 170.827Z" fill="url(#paint2_linear_393_973)"/>
<path d="M92.916 89.4218C93.1216 89.6274 93.1216 89.4218 92.916 89.4218C93.1216 89.4218 93.1216 89.4218 92.916 89.4218Z" fill="white"/>
<path d="M125.396 115.323C125.191 119.64 124.574 124.163 123.752 128.48C123.752 128.685 123.752 128.891 123.546 129.096C123.135 131.358 122.518 133.413 122.518 133.413C116.968 153.97 99.289 176.994 67.6316 176.994C67.4261 176.994 67.2205 176.994 67.0149 176.994C66.8094 176.994 66.6038 176.994 66.3982 176.994C34.7409 176.994 17.0621 153.97 11.5117 133.413C11.5117 133.208 11.5117 133.002 11.5117 132.797C10.4839 128.685 9.66163 124.368 9.25049 120.051C8.83936 116.557 8.63379 113.268 8.63379 109.773C8.63379 114.295 8.83936 118.612 9.25049 123.135C9.45606 127.452 10.2783 131.769 11.3062 135.88C11.3062 136.086 11.3062 136.086 11.3062 136.497C16.8565 157.054 34.5353 180.077 66.1927 180.077C66.3982 180.077 66.6038 180.077 66.8094 180.077C67.0149 180.077 67.2205 180.077 67.4261 180.077C99.0835 180.077 116.762 157.054 122.313 136.497C122.313 136.497 122.724 134.441 123.34 132.18C123.34 131.974 123.34 131.769 123.546 131.563C124.368 127.246 124.985 122.929 125.191 118.407C125.396 115.529 125.396 112.445 125.396 109.567C125.396 109.362 125.396 108.951 125.396 108.745C125.602 110.801 125.602 113.062 125.396 115.323Z" fill="white"/>
<path d="M77.2935 167.743C77.2935 167.743 77.0879 167.743 77.2935 167.743C77.0879 167.949 77.2935 167.949 77.2935 167.743C77.2935 167.949 77.2935 167.949 77.2935 167.743Z" fill="white"/>
<path d="M8.42871 111.829C8.42871 109.979 8.42871 108.128 8.63428 106.278C8.83985 103.195 9.04541 99.9058 9.66212 96.8223C11.9234 81.8158 16.6514 67.8373 23.2296 54.2698C26.9298 46.6638 31.2467 39.2634 36.5914 32.4797C39.8805 28.1627 43.5807 24.0514 47.8977 20.5567C51.1867 17.8844 54.4758 15.8287 58.3816 14.3897C61.2595 13.3619 64.1375 12.9507 67.0154 12.9507C72.9769 12.7452 78.3216 15.0064 83.2553 18.2955C86.7499 20.5567 89.8334 23.4347 92.7114 26.5182C98.8784 33.0964 103.812 40.7024 108.334 48.7195C110.596 52.8308 112.651 57.1477 114.502 61.4647C119.024 72.1542 122.108 82.4326 123.958 92.0942C124.78 96.4111 125.397 100.728 125.602 105.045C125.808 107.512 125.808 109.979 125.808 112.445C125.808 111.418 125.808 110.595 125.808 109.567C125.808 106.69 125.602 104.017 125.602 101.139C125.397 96.8223 124.78 92.7109 123.958 88.5996C122.108 79.349 119.024 69.4818 114.502 58.9979C112.651 54.8865 110.596 50.7752 108.334 46.6638C104.018 38.8523 99.0839 31.6574 92.7114 25.0792C89.8334 21.9957 86.7499 19.3233 83.2553 17.0621C78.3216 13.773 73.1824 11.9229 67.0154 11.9229C64.1375 11.9229 61.2595 12.334 58.3816 13.3619C54.4758 14.8009 51.1867 16.8565 47.8977 19.3233C43.5807 22.6124 39.8805 26.7238 36.5914 30.8351C31.4523 37.4133 27.1353 44.4026 23.2296 52.0086C16.6514 65.1649 11.9234 78.7323 9.66212 93.3276C9.25098 96.4111 8.83985 99.4946 8.63428 102.373C8.63428 104.223 8.63428 105.867 8.42871 107.717C8.42871 109.567 8.42871 111.418 8.42871 113.268C8.42871 112.857 8.42871 112.445 8.42871 111.829Z" fill="white"/>
<path d="M92.917 96.2056C93.1226 96.2056 93.1226 96.2056 92.917 96.2056C93.1226 96 93.1226 96 92.917 96.2056C92.917 96 92.917 96 92.917 96.2056Z" fill="white"/>
<path fill-rule="evenodd" clip-rule="evenodd" d="M93.9448 26.9293L8.42871 112.445C8.42871 115.94 8.63428 119.64 9.04541 123.135C9.04541 123.957 9.25098 124.779 9.45655 125.602L100.523 34.5353C98.4673 32.0685 96.206 29.3961 93.9448 26.9293Z" fill="url(#paint3_radial_393_973)"/>
<path fill-rule="evenodd" clip-rule="evenodd" d="M87.7777 20.5567C86.3388 19.3233 84.6942 18.0899 83.0497 17.0621C78.1161 13.773 72.9769 11.9229 66.8099 11.9229C65.1653 11.9229 63.7264 12.1285 62.0818 12.334L23.8463 50.7752C23.6407 51.1863 23.4351 51.5974 23.2296 52.2141C16.6514 65.3704 11.9234 78.9379 9.66211 93.5332C9.25098 95.5889 9.04541 97.6445 8.83984 99.7002L87.7777 20.5567Z" fill="url(#paint4_radial_393_973)"/>
<path opacity="0.3" fill-rule="evenodd" clip-rule="evenodd" d="M66.399 180.077C66.6046 180.077 66.8101 180.077 67.0157 180.077C67.2213 180.077 67.4268 180.077 67.6324 180.077C72.7716 180.077 77.7052 179.46 82.2277 178.227L122.108 138.347C122.313 137.73 122.519 136.908 122.724 136.291C122.724 136.291 123.136 134.236 123.752 131.974C123.752 131.769 123.752 131.563 123.958 131.358C124.78 127.041 125.397 122.724 125.602 118.201C125.808 115.323 125.808 112.24 125.808 109.362C125.808 108.128 125.808 106.689 125.808 105.456L52.626 178.638C56.9429 179.46 61.4654 180.077 66.399 180.077ZM77.2941 170.827C77.2941 170.827 77.0885 170.827 77.2941 170.827C77.0885 170.827 77.2941 170.827 77.2941 170.827Z" fill="url(#paint5_radial_393_973)"/>
<path opacity="0.5" d="M84.4882 117.996C84.4882 120.051 84.4882 121.696 84.4882 123.546C84.4882 124.985 83.6659 125.807 82.227 125.807C79.349 125.807 76.4711 125.807 73.5931 125.807C72.1542 125.807 71.3319 124.985 71.3319 123.546C71.3319 120.874 71.3319 118.201 71.3319 115.734C71.3319 115.529 71.3319 115.323 71.3319 115.118C69.0707 115.118 67.015 115.118 64.7537 115.118C64.7537 115.323 64.7537 115.529 64.7537 115.734C64.7537 118.407 64.7537 121.079 64.7537 123.752C64.7537 125.191 63.9315 126.013 62.4925 126.013C59.6146 126.013 56.7366 126.013 53.8587 126.013C52.4197 126.013 51.5974 125.191 51.5974 123.752C51.5974 120.668 51.5974 117.79 51.5974 114.707C51.5974 114.295 51.3919 114.09 51.1863 113.884C50.1585 113.268 49.3362 112.857 48.5139 112.24C46.4582 110.801 45.2248 108.54 44.197 106.278C42.9636 103.195 42.5525 100.111 42.1413 97.0278C41.5246 92.0942 41.5246 87.1606 41.5246 82.227C41.5246 82.0214 41.5246 81.8158 41.5246 81.8158C40.2912 81.6103 39.0578 81.6103 37.8244 81.1991C35.3576 80.5824 33.5075 79.1434 32.4797 76.8822C31.4518 74.4154 32.2741 71.5375 34.7409 69.6873C37.6188 67.4261 40.7023 66.1927 44.197 65.576C48.5139 64.7537 53.4475 67.2205 55.0921 71.5374C55.5032 72.7709 55.5032 74.0043 55.7088 75.2377C55.9143 78.3212 55.7088 81.1991 55.9143 84.2826C55.9143 86.955 56.1199 89.6274 56.7366 92.2998C57.1477 94.1499 57.97 94.7666 60.2313 94.561C61.8758 94.3554 63.5203 94.1499 65.1649 93.9443C67.8373 93.5332 70.7152 93.5332 73.3876 93.9443C76.2655 94.3554 78.9379 94.9721 81.6103 96C84.4882 97.0278 86.7495 98.8779 88.394 101.345C89.833 103.4 91.0664 105.456 92.2998 107.717C93.9443 110.39 95.5888 113.268 97.8501 115.529C98.8779 116.557 100.111 117.585 101.55 118.612C102.373 119.229 102.784 120.051 102.578 121.079C102.373 121.901 101.756 122.518 100.934 122.724C98.4668 123.546 96 123.752 93.5332 123.135C90.4497 122.518 87.7773 121.079 85.3105 119.229C84.8993 118.407 84.6938 118.201 84.4882 117.996Z" fill="white"/>
<path d="M84.4882 116.557C84.4882 118.612 84.4882 120.257 84.4882 122.107C84.4882 123.546 83.6659 124.368 82.227 124.368C79.349 124.368 76.4711 124.368 73.5931 124.368C72.1542 124.368 71.3319 123.546 71.3319 122.107C71.3319 119.435 71.3319 116.762 71.3319 114.295C71.3319 114.09 71.3319 113.884 71.3319 113.679C69.0707 113.679 67.015 113.679 64.7537 113.679C64.7537 113.884 64.7537 114.09 64.7537 114.295C64.7537 116.968 64.7537 119.64 64.7537 122.313C64.7537 123.752 63.9315 124.574 62.4925 124.574C59.6146 124.574 56.7366 124.574 53.8587 124.574C52.4197 124.574 51.5974 123.752 51.5974 122.313C51.5974 119.229 51.5974 116.351 51.5974 113.268C51.5974 112.857 51.3919 112.651 51.1863 112.445C50.1585 111.829 49.3362 111.418 48.5139 110.801C46.4582 109.362 45.2248 107.101 44.197 104.839C42.9636 101.756 42.5525 98.6724 42.1413 95.5888C41.5246 90.6552 41.5246 85.7216 41.5246 80.788C41.5246 80.5824 41.5246 80.3769 41.5246 80.3769C40.2912 80.1713 39.0578 80.1713 37.8244 79.7602C35.3576 79.1434 33.5075 77.7045 32.4797 75.4432C31.4518 72.9764 32.2741 70.0985 34.7409 68.2484C37.6188 65.9871 40.7023 64.7537 44.197 64.137C48.5139 63.3148 53.4475 65.7816 55.0921 70.0985C55.5032 71.3319 55.5032 72.5653 55.7088 73.7987C55.5032 76.0599 55.5032 79.1435 55.5032 82.227C55.5032 84.8993 55.7088 87.5717 56.3255 90.2441C56.7366 92.0942 57.5589 92.7109 59.8201 92.5053C61.4647 92.2998 63.1092 92.0942 64.7537 91.8886C67.4261 91.4775 70.3041 91.4775 72.9764 91.8886C75.8544 92.2998 78.5268 92.9165 81.1991 93.9443C84.0771 94.9721 86.3383 96.8223 87.9829 99.2891C89.4218 101.345 90.6552 103.4 91.8886 105.662C93.5332 108.334 95.1777 111.212 97.439 113.473C98.4668 114.501 99.7002 115.529 101.139 116.557C101.961 117.173 102.373 117.996 102.167 119.024C101.961 119.846 101.345 120.463 100.522 120.668C98.0557 121.49 95.5889 121.696 93.1221 121.079C90.0385 120.463 87.3662 119.024 84.8994 117.173C84.8994 116.762 84.6938 116.762 84.4882 116.557Z" fill="#C14691"/>
<path d="M84.2832 123.34C84.2832 123.546 84.0776 123.752 83.8721 123.957C84.0776 123.546 84.2832 123.546 84.2832 123.34Z" fill="#982E74"/>
<path d="M84.4888 122.313C84.4888 122.518 84.4888 122.929 84.2832 123.135C84.4888 122.724 84.4888 122.518 84.4888 122.313Z" fill="#982E74"/>
<path d="M83.8716 123.957C83.666 124.163 83.4605 124.163 83.2549 124.368C83.4605 124.163 83.666 124.163 83.8716 123.957Z" fill="#982E74"/>
<path d="M63.3154 124.368C63.1099 124.368 62.6987 124.574 62.4932 124.574C62.9043 124.368 63.1099 124.368 63.3154 124.368Z" fill="#982E74"/>
<path d="M83.2549 124.368C83.0493 124.368 82.6382 124.574 82.4326 124.574C82.6382 124.574 82.8438 124.368 83.2549 124.368Z" fill="#982E74"/>
<path d="M64.1372 123.957C63.9316 124.163 63.7261 124.163 63.5205 124.368C63.7261 124.163 63.9316 123.957 64.1372 123.957Z" fill="#982E74"/>
<path d="M100.934 116.351C99.7006 115.323 98.4672 114.295 97.2338 113.268C94.9726 111.006 93.328 108.128 91.6835 105.456C90.4501 103.4 89.2167 101.139 87.7777 99.0835C86.1332 96.6167 83.8719 94.7666 80.994 93.7387C78.3216 92.9165 75.6492 92.0942 72.7713 91.6831C70.0989 91.2719 67.2209 91.2719 64.5486 91.6831C62.904 91.8886 61.2595 92.0942 59.6149 92.2998C57.3537 92.5053 56.5314 92.0942 56.1203 90.0385C55.7092 87.5717 55.5036 84.8993 55.5036 82.227C55.5036 79.1435 55.5036 76.2655 55.298 73.182C55.298 71.9486 55.0925 70.7152 54.6813 69.4818C53.2424 65.1649 48.3087 62.6981 43.7863 63.5203C40.2916 64.137 37.0025 65.3704 34.3302 67.6317C32.48 69.0707 31.4522 71.3319 31.6578 73.3876C31.8633 71.743 32.6856 70.3041 34.3302 69.0706C37.2081 66.8094 40.2916 65.7816 43.7863 64.9593C48.1032 64.137 53.0368 66.6038 54.6813 70.7152C55.0925 71.743 55.0925 73.182 55.298 74.4154C55.5036 77.2934 55.298 80.3769 55.5036 83.2548C55.5036 85.9272 55.7092 88.394 56.3259 91.0664C56.737 92.9165 57.5593 93.5332 59.8205 93.122C61.4651 92.9165 63.1096 92.7109 64.7541 92.5053C67.4265 92.0942 70.3045 92.0942 72.9768 92.5053C75.8548 92.9165 78.5272 93.5332 81.1995 94.561C84.0775 95.5889 86.3387 97.2334 87.9833 99.7002C89.4222 101.756 90.6556 103.812 91.889 105.867C93.5336 108.54 95.1781 111.212 97.4394 113.473C98.4672 114.501 99.7006 115.529 100.934 116.351C101.551 116.968 101.962 117.585 101.962 118.201C101.962 117.379 101.756 116.762 100.934 116.351Z" fill="#982E74"/>
<path d="M64.7544 122.313C64.7544 122.518 64.7544 122.929 64.5488 123.135C64.7544 122.724 64.7544 122.518 64.7544 122.313Z" fill="#982E74"/>
<path d="M64.5488 123.34C64.5488 123.546 64.3433 123.752 64.1377 123.752C64.3433 123.546 64.5488 123.546 64.5488 123.34Z" fill="#982E74"/>
<path d="M53.8589 124.368C52.4199 124.368 51.5977 123.546 51.5977 122.107C51.5977 123.546 52.4199 124.368 53.8589 124.368C56.7368 124.368 59.6148 124.368 62.4927 124.368C59.6148 124.574 56.7368 124.574 53.8589 124.368Z" fill="#982E74"/>
<path d="M64.7539 113.679C67.0151 113.884 69.0708 113.884 71.3321 113.884V113.679C69.2764 113.679 67.0151 113.679 64.7539 113.679Z" fill="#982E74"/>
<path d="M73.5933 124.574C72.1543 124.574 71.332 123.752 71.332 122.313C71.332 123.546 72.3599 124.574 73.5933 124.574C76.4712 124.574 79.3492 124.574 82.2271 124.574C79.3492 124.574 76.4712 124.574 73.5933 124.574Z" fill="#982E74"/>
<path d="M101.962 118.818C101.756 119.64 101.14 120.257 100.317 120.463C97.8507 121.285 95.3838 121.49 92.917 120.874C89.8335 120.257 87.1611 118.818 84.6943 116.968C84.6943 116.762 84.4888 116.762 84.2832 116.557V116.762C84.4888 116.968 84.4888 116.968 84.6943 117.173C87.1611 119.024 89.8335 120.463 92.917 121.079C95.3838 121.49 97.8507 121.49 100.317 120.668C101.345 120.257 101.962 119.846 101.962 118.818C101.962 118.612 101.962 118.407 101.962 118.201C102.168 118.407 102.168 118.612 101.962 118.818Z" fill="#982E74"/>
<g opacity="0.5">
<path opacity="0.5" d="M47.4868 157.465C47.4868 157.876 47.4868 158.081 47.2813 158.492C47.2813 158.698 47.0757 159.109 46.8701 159.315C46.6646 159.52 46.459 159.726 46.2534 159.931C46.0479 160.137 45.8423 160.137 45.4312 160.343C45.2256 160.548 44.8145 160.548 44.6089 160.548C44.1978 160.548 43.9922 160.548 43.5811 160.548C43.3755 160.548 43.3755 160.548 43.1699 160.548C42.9644 160.548 42.9644 160.548 42.7588 160.548L42.9644 155.203C43.1699 155.203 43.5811 154.998 43.7866 154.998C43.9922 154.998 44.4033 154.998 44.8145 154.998C45.2256 154.998 45.6367 154.998 45.8423 155.203C46.2534 155.409 46.459 155.409 46.6646 155.615C46.8701 155.82 47.0757 156.026 47.2813 156.437C47.4868 156.848 47.4868 157.054 47.4868 157.465ZM44.8145 159.109C45.02 159.109 45.2256 159.109 45.2256 158.904C45.4312 158.904 45.4312 158.698 45.6367 158.698C45.6367 158.492 45.8423 158.492 45.8423 158.287C45.8423 158.081 45.8423 158.081 45.8423 157.876C45.8423 157.67 45.8423 157.67 45.8423 157.465C45.8423 157.259 45.8423 157.259 45.6367 157.054L45.4312 156.848C45.2256 156.848 45.2256 156.848 45.02 156.848L44.8145 159.109Z" fill="white"/>
<path opacity="0.5" d="M49.9541 154.998L49.7485 160.548H48.104L47.8984 154.998H49.9541Z" fill="white"/>
<path opacity="0.5" d="M55.0933 158.698C55.0933 158.904 55.0933 159.315 55.0933 159.52C55.0933 159.726 55.0933 160.137 55.0933 160.343H52.832C52.832 159.931 53.0376 159.315 53.0376 158.904C53.0376 158.492 53.0376 157.876 53.0376 157.465C53.0376 157.465 53.0376 157.465 53.0376 157.259C53.0376 157.054 53.0376 157.054 53.0376 157.054V156.848V156.642V156.437C53.0376 156.437 53.0376 156.437 52.832 156.437H52.6265L52.4209 156.642V156.848C52.4209 157.054 52.4209 157.054 52.4209 157.259C52.4209 157.465 52.4209 157.465 52.4209 157.465V157.67C52.4209 158.081 52.4209 158.698 52.4209 159.109C52.4209 159.52 52.4209 160.137 52.4209 160.548H50.3652C50.3652 159.52 50.5708 158.698 50.5708 157.67C50.5708 156.642 50.5708 155.82 50.7764 154.792H52.6265V155.409L52.832 155.203L53.0376 154.998C53.0376 154.998 53.2432 154.792 53.4487 154.792C53.6543 154.792 53.6543 154.792 53.8599 154.792C54.0655 154.792 54.271 154.792 54.4766 154.998C54.6822 155.203 54.8877 155.203 54.8877 155.203C54.8877 155.203 55.0933 155.409 55.2989 155.615C55.2989 155.82 55.5044 156.026 55.5044 156.231C55.5044 156.437 55.5044 156.642 55.71 156.848C55.71 157.054 55.71 157.259 55.71 157.465C55.71 157.67 55.71 157.876 55.71 158.081C55.0933 158.287 55.0933 158.492 55.0933 158.698Z" fill="white"/>
<path opacity="0.5" d="M60.6431 157.67C60.6431 157.876 60.6431 158.081 60.6431 158.287C60.6431 158.492 60.4375 158.698 60.4375 158.904C60.232 159.109 60.232 159.315 60.0264 159.52C59.8208 159.726 59.6153 159.726 59.6153 159.931C59.4097 160.137 59.2041 160.137 58.9986 160.137C58.793 160.137 58.5874 160.137 58.3818 160.137C58.1763 160.137 57.9707 160.137 57.7651 160.137C57.5596 160.137 57.354 159.931 57.1484 159.931C56.9429 159.726 56.7373 159.726 56.5317 159.52C56.3262 159.315 56.3262 159.109 56.1206 158.904C55.915 158.698 55.915 158.492 55.915 158.287C55.915 158.081 55.915 157.876 55.915 157.67C55.915 157.465 55.915 157.259 55.915 157.054C55.915 156.848 56.1206 156.642 56.1206 156.437C56.1206 156.231 56.3262 156.026 56.5317 155.82C56.7373 155.615 56.9429 155.409 56.9429 155.409C57.1484 155.203 57.354 155.203 57.5596 155.203C57.7651 155.203 57.9707 155.203 58.1763 155.203C58.5874 155.203 58.9985 155.203 59.2041 155.409C59.6153 155.615 59.8208 155.615 60.0264 156.026C60.232 156.231 60.4375 156.437 60.6431 156.848C60.4375 156.848 60.6431 157.259 60.6431 157.67ZM58.793 157.67C58.793 157.465 58.793 157.465 58.793 157.259C58.793 157.054 58.793 157.054 58.5874 157.054L58.3818 156.848C58.3818 156.848 58.1763 156.848 57.9707 156.848C57.7651 156.848 57.7651 156.848 57.5596 156.848L57.354 157.054L57.1484 157.259C57.1484 157.465 57.1484 157.465 57.1484 157.67C57.1484 157.876 57.1484 157.876 57.1484 158.081C57.1484 158.287 57.1484 158.287 57.354 158.287L57.5596 158.492C57.5596 158.492 57.7651 158.492 57.9707 158.492C58.1763 158.492 58.1763 158.492 58.3818 158.492L58.5874 158.287L58.793 158.081C58.793 157.876 58.793 157.876 58.793 157.67Z" fill="white"/>
<path opacity="0.5" d="M66.8106 154.998V156.642H65.5772L65.3716 160.343H63.7271L63.5215 156.642H62.2881V154.792L66.8106 154.998Z" fill="white"/>
<path opacity="0.5" d="M71.9497 157.67C71.9497 157.876 71.9497 158.081 71.9497 158.287C71.9497 158.492 71.7442 158.698 71.7442 158.904C71.5386 159.109 71.5386 159.315 71.333 159.52C71.1275 159.726 70.9219 159.726 70.9219 159.931C70.9219 160.137 70.5108 160.137 70.3052 160.137C70.0996 160.137 69.8941 160.137 69.6885 160.137C69.4829 160.137 69.2773 160.137 69.0718 160.137C68.8662 160.137 68.6606 159.931 68.4551 159.931C68.2495 159.726 68.0439 159.726 67.8384 159.52C67.6328 159.315 67.6328 159.109 67.4272 158.904C67.2217 158.698 67.2217 158.492 67.2217 158.287C67.2217 158.081 67.2217 157.876 67.2217 157.67C67.2217 157.465 67.2217 157.259 67.2217 157.054C67.2217 156.848 67.4272 156.642 67.4272 156.437C67.4272 156.231 67.6328 156.026 67.8384 155.82C68.0439 155.615 68.2495 155.409 68.2495 155.409C68.4551 155.203 68.6607 155.203 68.8662 155.203C69.0718 155.203 69.2774 155.203 69.4829 155.203C69.8941 155.203 70.3052 155.203 70.5108 155.409C70.9219 155.615 71.1275 155.615 71.333 156.026C71.5386 156.231 71.7442 156.437 71.9497 156.848C71.7442 156.848 71.9497 157.259 71.9497 157.67ZM70.0996 157.67C70.0996 157.465 70.0996 157.465 70.0996 157.259C70.0996 157.054 70.0996 157.054 69.8941 157.054L69.6885 156.848C69.6885 156.848 69.4829 156.848 69.2774 156.848C69.0718 156.848 69.0718 156.848 68.8662 156.848L68.6607 157.054L68.4551 157.259C68.4551 157.465 68.4551 157.465 68.4551 157.67C68.4551 157.876 68.4551 157.876 68.4551 158.081C68.4551 158.287 68.4551 158.287 68.6607 158.287L68.8662 158.492C68.8662 158.492 69.0718 158.492 69.2774 158.492C69.4829 158.492 69.4829 158.492 69.6885 158.492L69.8941 158.287L70.0996 158.081C70.0996 157.876 70.0996 157.876 70.0996 157.67Z" fill="white"/>
<path opacity="0.5" d="M77.0889 155.409L75.2388 157.465L76.8833 160.137L75.0332 160.548L73.7998 158.904V160.548H72.1553L72.3608 154.792L74.2109 154.998L74.0054 156.642L75.2388 154.998L77.0889 155.409Z" fill="white"/>
<path opacity="0.5" d="M81.1997 157.465C81.1997 157.67 81.1997 157.876 81.1997 158.081C80.7886 158.081 80.3775 158.081 79.7608 158.287C79.3496 158.287 78.9385 158.492 78.3218 158.492C78.3218 158.698 78.5274 158.904 78.7329 158.904C78.9385 159.109 79.1441 159.109 79.3496 159.109C79.5552 159.109 79.5552 159.109 79.7608 159.109C79.9663 159.109 79.9663 159.109 80.1719 158.904C80.3775 158.904 80.3775 158.698 80.583 158.698C80.7886 158.698 80.7886 158.492 80.7886 158.492L80.583 160.343C80.3775 160.343 80.3775 160.548 80.1719 160.548C79.9663 160.548 79.9663 160.548 79.7608 160.754C79.5552 160.754 79.5552 160.754 79.3496 160.754C79.1441 160.754 79.1441 160.754 78.9385 160.754C78.7329 160.754 78.5274 160.754 78.1162 160.548C77.9107 160.548 77.7051 160.343 77.4995 160.343C77.2939 160.137 77.0884 160.137 77.0884 159.931C76.8828 159.726 76.8828 159.52 76.6772 159.315C76.6772 159.109 76.4717 158.904 76.4717 158.698C76.4717 158.492 76.4717 158.287 76.4717 158.081C76.4717 157.876 76.4717 157.67 76.4717 157.259C76.4717 157.054 76.6772 156.848 76.6772 156.437C76.6772 156.231 76.8828 156.026 77.0884 155.82C77.2939 155.615 77.2939 155.409 77.4995 155.203C77.7051 154.998 77.9107 154.998 78.1162 154.792C78.3218 154.587 78.5274 154.587 78.9385 154.587C79.1441 154.587 79.3496 154.587 79.5552 154.587C79.7608 154.587 79.9663 154.792 80.1719 154.792C80.3775 154.998 80.3775 154.998 80.583 155.203C80.7886 155.409 80.7886 155.615 80.7886 155.82C80.7886 156.026 80.9942 156.231 80.9942 156.437C81.1997 157.054 81.1997 157.259 81.1997 157.465ZM79.5552 157.259V156.848C79.5552 156.848 79.5552 156.642 79.3496 156.642H79.1441C78.9385 156.642 78.9385 156.642 78.9385 156.642L78.7329 156.848L78.5274 157.054V157.259H79.5552V157.259Z" fill="white"/>
<path opacity="0.5" d="M86.5445 158.698C86.5445 158.904 86.5445 159.315 86.5445 159.52C86.5445 159.726 86.5445 160.137 86.5445 160.343H84.2832C84.2832 159.931 84.4888 159.315 84.4888 158.904C84.4888 158.492 84.4888 157.876 84.4888 157.465C84.4888 157.465 84.4888 157.465 84.4888 157.259C84.4888 157.054 84.4888 157.054 84.4888 157.054V156.848V156.642V156.437C84.4888 156.437 84.4888 156.437 84.2832 156.437H84.0777L83.8721 156.642V156.848C83.8721 156.848 83.8721 157.054 83.8721 157.259C83.8721 157.465 83.8721 157.465 83.8721 157.465V157.67C83.8721 158.081 83.8721 158.698 83.8721 159.109C83.8721 159.52 83.8721 160.137 83.8721 160.548H81.8164C81.8164 159.52 82.022 158.698 82.022 157.67C82.022 156.642 82.022 155.82 82.2275 154.792H84.0777V155.409L84.2832 155.203L84.4888 154.998C84.4888 154.998 84.6944 154.792 84.8999 154.792C85.1055 154.792 85.1055 154.792 85.3111 154.792C85.5166 154.792 85.7222 154.792 85.9278 154.998C86.1333 155.203 86.3389 155.203 86.3389 155.203C86.3389 155.203 86.5445 155.409 86.75 155.615C86.75 155.82 86.9556 156.026 86.9556 156.231C86.9556 156.437 86.9556 156.642 87.1612 156.848C87.1612 157.054 87.1612 157.259 87.1612 157.465C87.1612 157.67 87.1612 157.876 87.1612 158.081C86.5445 158.287 86.5445 158.492 86.5445 158.698Z" fill="white"/>
<path opacity="0.5" d="M91.0674 158.698C91.0674 159.109 91.0674 159.315 90.8618 159.726C90.6563 159.931 90.6563 160.137 90.2451 160.343C90.0396 160.548 89.834 160.548 89.4229 160.754C89.2173 160.754 88.8062 160.959 88.395 160.959C88.1895 160.959 88.1895 160.959 87.9839 160.959C87.7783 160.959 87.5728 160.959 87.5728 160.754C87.3672 160.754 87.1616 160.548 87.1616 160.548C86.9561 160.548 86.9561 160.343 86.7505 160.343L86.9561 158.698C87.1616 158.904 87.3672 158.904 87.7783 159.109C87.9839 159.109 88.395 159.315 88.6006 159.315H88.8062H89.0117H89.2173C89.2173 159.315 89.2173 159.315 89.2173 159.109C89.2173 159.109 89.2173 159.109 89.2173 158.904C89.2173 158.904 89.2173 158.904 89.0117 158.904H88.8062H88.6006H88.395C88.395 158.904 88.395 158.904 88.1895 158.904C87.9839 158.904 87.7783 158.904 87.5728 158.698C87.3672 158.698 87.1616 158.492 87.1616 158.492C86.9561 158.287 86.9561 158.287 86.7505 158.081C86.7505 157.876 86.5449 157.67 86.5449 157.465C86.5449 157.054 86.5449 156.848 86.7505 156.642C86.9561 156.437 86.9561 156.231 87.1616 156.026C87.3672 155.82 87.5728 155.615 87.9839 155.615C88.395 155.615 88.6006 155.409 88.8062 155.409C89.0117 155.409 89.0117 155.409 89.2173 155.409C89.4229 155.409 89.4229 155.409 89.6284 155.409C89.834 155.409 89.834 155.409 90.0396 155.409C90.2451 155.409 90.2451 155.409 90.4507 155.615L90.2451 157.259C90.0396 157.259 89.834 157.054 89.6284 157.054C89.4229 157.054 89.2173 157.054 89.0117 157.054C89.0117 157.054 89.0117 157.054 88.8062 157.054H88.6006H88.395H88.1895C88.1895 157.054 88.1895 157.054 87.9839 157.054C87.7783 157.054 87.9839 157.054 87.9839 157.259V157.465C87.9839 157.465 87.9839 157.465 88.1895 157.465H88.395H88.6006H88.8062H89.0117C89.2173 157.465 89.4229 157.465 89.6284 157.67C89.834 157.876 90.0396 157.876 90.0396 158.081C90.2451 158.287 90.2451 158.287 90.2451 158.492C91.0674 158.287 91.0674 158.492 91.0674 158.698Z" fill="white"/>
</g>
<path d="M47.4868 156.642C47.4868 157.054 47.4868 157.259 47.2813 157.67C47.2813 157.876 47.0757 158.287 46.8701 158.492C46.6646 158.698 46.459 158.904 46.2534 159.109C46.0479 159.315 45.8423 159.315 45.4312 159.52C45.2256 159.726 44.8145 159.726 44.6089 159.726C44.1978 159.726 43.9922 159.726 43.5811 159.726C43.3755 159.726 43.3755 159.726 43.1699 159.726C42.9644 159.726 42.9644 159.726 42.7588 159.726L42.9644 154.381C43.1699 154.381 43.5811 154.176 43.7866 154.176C43.9922 154.176 44.4033 154.176 44.8145 154.176C45.2256 154.176 45.6367 154.176 45.8423 154.381C46.0479 154.587 46.459 154.587 46.6646 154.792C46.8701 154.998 47.0757 155.203 47.2813 155.615C47.4868 155.82 47.4868 156.231 47.4868 156.642ZM44.8145 158.081C45.02 158.081 45.2256 158.081 45.2256 157.876C45.4312 157.876 45.4312 157.67 45.6367 157.67C45.6367 157.465 45.8423 157.465 45.8423 157.259C45.8423 157.054 45.8423 157.054 45.8423 156.848C45.8423 156.642 45.8423 156.642 45.8423 156.437C45.8423 156.231 45.8423 156.231 45.6367 156.026L45.4312 155.82C45.2256 155.82 45.2256 155.82 45.02 155.82L44.8145 158.081Z" fill="#C14691"/>
<path d="M49.9536 154.176L49.7481 159.726H48.1035L47.6924 154.176H49.9536Z" fill="#C14691"/>
<path d="M55.0933 157.67C55.0933 157.876 55.0933 158.287 55.0933 158.492C55.0933 158.698 55.0933 159.109 55.0933 159.315H52.832C52.832 158.904 53.0376 158.287 53.0376 157.876C53.0376 157.465 53.0376 156.848 53.0376 156.437C53.0376 156.437 53.0376 156.437 53.0376 156.231V156.026V155.82V155.615V155.409C53.0376 155.409 53.0376 155.409 52.832 155.409H52.6265L52.4209 155.615V155.82C52.4209 156.026 52.4209 156.026 52.4209 156.231C52.4209 156.437 52.4209 156.437 52.4209 156.437V156.642C52.4209 157.054 52.4209 157.67 52.4209 158.081C52.4209 158.492 52.4209 159.109 52.4209 159.52H50.3652C50.3652 158.492 50.5708 157.67 50.5708 156.642C50.5708 155.615 50.5708 154.792 50.7764 153.764H52.6265V154.381L52.832 154.176L53.0376 153.97C53.0376 153.97 53.2432 153.764 53.4487 153.764C53.6543 153.764 53.6543 153.764 53.8599 153.764C54.0655 153.764 54.271 153.764 54.4766 153.97C54.6822 153.97 54.8877 154.176 54.8877 154.176C55.0933 154.381 55.0933 154.381 55.2989 154.587C55.2989 154.792 55.5044 154.998 55.5044 155.203C55.5044 155.409 55.5044 155.615 55.71 155.82C55.71 156.026 55.71 156.231 55.71 156.437C55.71 156.642 55.71 156.848 55.71 157.054C55.71 157.259 55.0933 157.465 55.0933 157.67Z" fill="#C14691"/>
<path d="M60.6431 156.642C60.6431 156.848 60.6431 157.054 60.6431 157.259C60.6431 157.465 60.4375 157.67 60.4375 157.876C60.4375 158.081 60.232 158.287 60.0264 158.492C59.8208 158.698 59.6153 158.698 59.6153 158.904C59.4097 159.109 59.2041 159.109 58.9986 159.109C58.793 159.109 58.5874 159.109 58.3818 159.109C58.1763 159.109 57.9707 159.109 57.7651 159.109C57.5596 159.109 57.354 158.904 57.1484 158.904C56.9429 158.698 56.7373 158.698 56.5317 158.492C56.3262 158.287 56.3262 158.081 56.1206 157.876C55.915 157.67 55.915 157.465 55.915 157.259C55.915 157.054 55.915 156.848 55.915 156.642C55.915 156.437 55.915 156.231 55.915 156.026C55.915 155.82 56.1206 155.615 56.1206 155.409C56.3262 155.203 56.3262 154.998 56.5317 154.792C56.7373 154.587 56.9429 154.381 56.9429 154.381C57.1484 154.176 57.354 154.176 57.5596 154.176C57.7651 154.176 57.9707 154.176 58.1763 154.176C58.5874 154.176 58.9985 154.176 59.2041 154.381C59.6153 154.587 59.8208 154.587 60.0264 154.998C60.232 155.203 60.4375 155.409 60.6431 155.82C60.4375 155.82 60.6431 156.231 60.6431 156.642ZM58.793 156.848C58.793 156.642 58.793 156.642 58.793 156.437C58.793 156.231 58.793 156.231 58.5874 156.231L58.3818 156.026C58.3818 156.026 58.1763 156.026 57.9707 156.026C57.7651 156.026 57.7651 156.026 57.5596 156.026L57.354 156.231L57.1484 156.437C57.1484 156.642 57.1484 156.642 57.1484 156.848C57.1484 157.054 57.1484 157.054 57.1484 157.259C57.1484 157.465 57.1484 157.465 57.354 157.465L57.5596 157.67C57.5596 157.67 57.7651 157.67 57.9707 157.67C58.1763 157.67 58.1763 157.67 58.3818 157.67L58.5874 157.465L58.793 157.259C58.793 157.054 58.793 156.848 58.793 156.848Z" fill="#C14691"/>
<path d="M66.8106 153.97V155.615H65.5772L65.3716 159.315H63.7271L63.5215 155.615H62.2881V153.764L66.8106 153.97Z" fill="#C14691"/>
<path d="M71.9497 156.642C71.9497 156.848 71.9497 157.054 71.9497 157.259C71.9497 157.465 71.7442 157.67 71.7442 157.876C71.7442 158.081 71.5386 158.287 71.333 158.492C71.1275 158.698 70.9219 158.698 70.9219 158.904C70.9219 159.109 70.5108 159.109 70.3052 159.109C70.0996 159.109 69.8941 159.109 69.6885 159.109C69.4829 159.109 69.2773 159.109 69.0718 159.109C68.8662 159.109 68.6606 158.904 68.4551 158.904C68.2495 158.698 68.0439 158.698 67.8384 158.492C67.6328 158.287 67.6328 158.081 67.4272 157.876C67.2217 157.67 67.2217 157.465 67.2217 157.259C67.2217 157.054 67.2217 156.848 67.2217 156.642C67.2217 156.437 67.2217 156.231 67.2217 156.026C67.2217 155.82 67.4272 155.615 67.4272 155.409C67.6328 155.203 67.6328 154.998 67.8384 154.792C68.0439 154.587 68.2495 154.381 68.2495 154.381C68.4551 154.176 68.6607 154.176 68.8662 154.176C69.0718 154.176 69.2774 154.176 69.4829 154.176C69.8941 154.176 70.3052 154.176 70.5108 154.381C70.9219 154.587 71.1275 154.587 71.333 154.998C71.5386 155.203 71.7442 155.409 71.9497 155.82C71.7442 155.82 71.9497 156.231 71.9497 156.642ZM70.0996 156.848C70.0996 156.642 70.0996 156.642 70.0996 156.437C69.8941 156.231 69.8941 156.231 69.8941 156.231L69.6885 156.026C69.6885 156.026 69.4829 156.026 69.2774 156.026C69.0718 156.026 69.0718 156.026 68.8662 156.026L68.6607 156.231L68.4551 156.437C68.4551 156.642 68.4551 156.642 68.4551 156.848C68.4551 157.054 68.4551 157.054 68.4551 157.259C68.4551 157.465 68.4551 157.465 68.6607 157.465L68.8662 157.67C68.8662 157.67 69.0718 157.67 69.2774 157.67C69.4829 157.67 69.4829 157.67 69.6885 157.67L69.8941 157.465L70.0996 157.259C70.0996 157.054 70.0996 156.848 70.0996 156.848Z" fill="#C14691"/>
<path d="M77.0889 154.587L75.2388 156.642L76.8833 159.315L75.0332 159.726L73.7998 158.081V159.726H72.1553L72.3608 153.97L74.0054 154.176V155.82L75.2388 154.176L77.0889 154.587Z" fill="#C14691"/>
<path d="M81.1997 156.437C81.1997 156.642 81.1997 156.848 81.1997 157.054C80.7886 157.054 80.3775 157.054 79.7608 157.259C79.3496 157.259 78.9385 157.465 78.3218 157.465C78.3218 157.67 78.5274 157.876 78.7329 157.876C78.9385 158.081 79.1441 158.081 79.3496 158.081C79.5552 158.081 79.5552 158.081 79.7608 158.081C79.9663 158.081 79.9663 158.081 80.1719 157.876C80.3775 157.876 80.3775 157.67 80.583 157.67C80.7886 157.67 80.7886 157.465 80.7886 157.465L80.583 159.315C80.3775 159.315 80.3775 159.52 80.1719 159.52C79.9663 159.52 79.9663 159.52 79.7608 159.726C79.5552 159.726 79.5552 159.726 79.3496 159.726C79.1441 159.726 79.1441 159.726 78.9385 159.726C78.7329 159.726 78.5274 159.726 78.1162 159.52C77.7051 159.315 77.7051 159.315 77.4995 159.315C77.2939 159.109 77.0884 159.109 77.0884 158.904C76.8828 158.698 76.8828 158.492 76.6772 158.287C76.6772 158.081 76.4717 157.876 76.4717 157.67C76.4717 157.465 76.4717 157.259 76.4717 157.054C76.4717 156.848 76.4717 156.642 76.4717 156.231C76.4717 156.026 76.6772 155.82 76.6772 155.409C76.6772 154.998 76.8828 154.998 77.0884 154.792C77.2939 154.587 77.2939 154.381 77.4995 154.176C77.7051 153.97 77.9107 153.97 78.1162 153.764C78.3218 153.764 78.5274 153.559 78.9385 153.559C79.1441 153.559 79.3496 153.559 79.5552 153.559C79.7608 153.559 79.9663 153.764 80.1719 153.764C80.3775 153.97 80.3775 153.97 80.583 154.176C80.7886 154.381 80.7886 154.587 80.7886 154.792C80.7886 154.998 80.9942 155.203 80.9942 155.409C81.1997 156.026 81.1997 156.231 81.1997 156.437ZM79.5552 156.231V155.82C79.5552 155.82 79.5552 155.615 79.3496 155.615H79.1441C78.9385 155.615 78.9385 155.615 78.9385 155.615L78.7329 155.82L78.5274 156.026V156.231H79.5552Z" fill="#C14691"/>
<path d="M86.5445 157.67C86.5445 157.876 86.5445 158.287 86.5445 158.492C86.5445 158.698 86.5445 159.109 86.5445 159.315H84.2832C84.2832 158.904 84.4888 158.287 84.4888 157.876C84.4888 157.465 84.4888 156.848 84.4888 156.437C84.4888 156.437 84.4888 156.437 84.4888 156.231V156.026V155.82V155.615V155.409C84.4888 155.409 84.4888 155.409 84.2832 155.409H84.0777L83.8721 155.615V155.82C83.8721 156.026 83.8721 156.026 83.8721 156.231C83.8721 156.437 83.8721 156.437 83.8721 156.437V156.642C83.8721 157.054 83.8721 157.67 83.8721 158.081C83.8721 158.492 83.8721 159.109 83.8721 159.52H81.8164C81.8164 158.492 82.022 157.67 82.022 156.642C82.022 155.615 82.022 154.792 82.2275 153.764H84.0777V154.381L84.2832 154.176L84.4888 153.97C84.4888 153.97 84.6944 153.764 84.8999 153.764C85.1055 153.764 85.1055 153.764 85.3111 153.764C85.5166 153.764 85.7222 153.764 85.9278 153.97C86.1333 153.97 86.3389 154.176 86.3389 154.176C86.5445 154.381 86.5445 154.381 86.75 154.587C86.75 154.792 86.9556 154.998 86.9556 155.203C86.9556 155.409 86.9556 155.615 87.1612 155.82C87.1612 156.026 87.1612 156.231 87.1612 156.437C87.1612 156.642 87.1612 156.848 87.1612 157.054C87.1612 157.259 86.5445 157.465 86.5445 157.67Z" fill="#C14691"/>
<path d="M91.0674 157.67C91.0674 158.081 91.0674 158.287 90.8618 158.698C90.6563 158.904 90.6563 159.109 90.2451 159.315C90.0396 159.52 89.834 159.52 89.4229 159.726C89.2173 159.726 88.8062 159.931 88.395 159.931C88.1895 159.931 88.1895 159.931 87.9839 159.931C87.7783 159.931 87.5728 159.931 87.5728 159.726C87.3672 159.726 87.1616 159.52 87.1616 159.52C86.9561 159.52 86.9561 159.315 86.7505 159.315L86.9561 157.67C87.1616 157.876 87.3672 157.876 87.7783 158.081C87.9839 158.081 88.395 158.287 88.6006 158.287H88.8062H89.0117H89.2173C89.2173 158.287 89.2173 158.287 89.2173 158.081C89.2173 158.081 89.2173 158.081 89.2173 157.876C89.2173 157.876 89.2173 157.876 89.0117 157.876H88.8062H88.6006H88.395C88.395 157.876 88.395 157.876 88.1895 157.876C87.9839 157.876 87.7783 157.876 87.5728 157.67C87.3672 157.67 87.1616 157.465 87.1616 157.465C86.9561 157.259 86.9561 157.259 86.7505 157.054C86.7505 156.848 86.5449 156.642 86.5449 156.437C86.5449 156.026 86.5449 155.82 86.7505 155.615C86.9561 155.409 86.9561 155.203 87.1616 154.998C87.3672 154.792 87.5728 154.587 87.9839 154.587C88.395 154.587 88.6006 154.381 88.8062 154.381C89.0117 154.381 89.0117 154.381 89.2173 154.381C89.4229 154.381 89.4229 154.381 89.6284 154.381C89.834 154.381 89.834 154.381 90.0396 154.381C90.2451 154.381 90.2451 154.381 90.4507 154.587L90.2451 156.231C90.0396 156.231 89.834 156.026 89.6284 156.026C89.4229 156.026 89.2173 156.026 89.0117 156.026C89.0117 156.026 89.0117 156.026 88.8062 156.026H88.6006H88.395H88.1895C88.1895 156.026 88.1895 156.026 87.9839 156.026C87.9839 156.026 87.9839 156.026 87.9839 156.231V156.437C87.9839 156.437 87.9839 156.437 88.1895 156.437H88.395H88.6006H88.8062H89.0117C89.2173 156.437 89.4229 156.437 89.6284 156.642C89.834 156.642 90.0396 156.848 90.0396 157.054C90.2451 157.259 90.2451 157.259 90.2451 157.465C91.0674 157.259 91.0674 157.465 91.0674 157.67Z" fill="#C14691"/>
<path d="M47.4868 156.848C47.4868 157.259 47.4868 157.465 47.2813 157.876C47.2813 158.081 47.0757 158.492 46.8701 158.698C46.6646 158.904 46.459 159.109 46.2534 159.315C46.0479 159.52 45.8423 159.52 45.4312 159.726C45.2256 159.931 44.8145 159.931 44.6089 159.931C44.1978 159.931 43.9922 159.931 43.5811 159.931C43.3755 159.931 43.3755 159.931 43.1699 159.931C42.9644 159.931 42.9644 159.931 42.7588 159.931L42.9644 154.587C43.1699 154.587 43.5811 154.381 43.7866 154.381C44.1978 154.381 44.4033 154.381 44.8145 154.381C45.2256 154.381 45.6367 154.381 45.8423 154.587C46.2534 154.792 46.459 154.792 46.6646 154.998C46.8701 155.203 47.0757 155.409 47.2813 155.82C47.4868 156.026 47.4868 156.437 47.4868 156.848ZM44.8145 158.287C45.02 158.287 45.2256 158.287 45.2256 158.081C45.4312 158.081 45.4312 157.876 45.6367 157.876C45.6367 157.67 45.8423 157.67 45.8423 157.465C45.8423 157.259 45.8423 157.259 45.8423 157.054C45.8423 156.848 45.8423 156.848 45.8423 156.642C45.8423 156.437 45.8423 156.437 45.6367 156.231L45.4312 156.026C45.2256 156.026 45.2256 156.026 45.02 156.026L44.8145 158.287Z" fill="#C14691"/>
<path d="M49.9541 154.381L49.7485 159.931H48.104L47.8984 154.381H49.9541Z" fill="#C14691"/>
<path d="M55.0933 157.876C55.0933 158.081 55.0933 158.492 55.0933 158.698C55.0933 158.904 55.0933 159.315 55.0933 159.52H52.832C52.832 159.109 53.0376 158.492 53.0376 158.081C53.0376 157.67 53.0376 157.054 53.0376 156.642C53.0376 156.642 53.0376 156.642 53.0376 156.437C53.0376 156.231 53.0376 156.231 53.0376 156.231V156.026V155.82V155.615C53.0376 155.615 53.0376 155.615 52.832 155.615H52.6265L52.4209 155.82V156.026C52.4209 156.231 52.4209 156.231 52.4209 156.437C52.4209 156.642 52.4209 156.642 52.4209 156.642V156.848C52.4209 157.259 52.4209 157.876 52.4209 158.287C52.4209 158.698 52.4209 159.315 52.4209 159.726H50.3652C50.3652 158.698 50.5708 157.876 50.5708 156.848C50.5708 155.82 50.5708 154.998 50.7764 153.97H52.6265V154.587L52.832 154.381L53.0376 154.176C53.0376 154.176 53.2432 153.97 53.4487 153.97C53.6543 153.97 53.6543 153.97 53.8599 153.97C54.0655 153.97 54.271 153.97 54.4766 154.176C54.6822 154.381 54.8877 154.381 54.8877 154.381C54.8877 154.381 55.0933 154.587 55.2989 154.792C55.2989 154.998 55.5044 155.203 55.5044 155.409C55.5044 155.615 55.5044 155.82 55.71 156.026C55.71 156.231 55.71 156.437 55.71 156.642C55.71 156.848 55.71 157.054 55.71 157.259C55.0933 157.67 55.0933 157.67 55.0933 157.876Z" fill="#C14691"/>
<path d="M60.6431 156.848C60.6431 157.054 60.6431 157.259 60.6431 157.465C60.6431 157.67 60.4375 157.876 60.4375 158.081C60.232 158.287 60.232 158.492 60.0264 158.698C59.8208 158.904 59.6153 158.904 59.6153 159.109C59.4097 159.315 59.2041 159.315 58.9986 159.315C58.793 159.315 58.5874 159.315 58.3818 159.315C58.1763 159.315 57.9707 159.315 57.7651 159.315C57.5596 159.315 57.354 159.109 57.1484 159.109C56.9429 158.904 56.7373 158.904 56.5317 158.698C56.3262 158.492 56.3262 158.287 56.1206 158.081C55.915 157.876 55.915 157.67 55.915 157.465C55.915 157.259 55.915 157.054 55.915 156.848C55.915 156.642 55.915 156.437 55.915 156.231C55.915 156.026 56.1206 155.82 56.1206 155.615C56.1206 155.409 56.3262 155.203 56.5317 154.998C56.7373 154.792 56.9429 154.587 56.9429 154.587C57.1484 154.381 57.354 154.381 57.5596 154.381C57.7651 154.381 57.9707 154.381 58.1763 154.381C58.5874 154.381 58.9985 154.381 59.2041 154.587C59.6153 154.792 59.8208 154.792 60.0264 155.203C60.232 155.409 60.4375 155.615 60.6431 156.026C60.4375 156.231 60.6431 156.437 60.6431 156.848ZM58.793 157.054C58.793 156.848 58.793 156.848 58.793 156.642C58.793 156.437 58.793 156.437 58.5874 156.437L58.3818 156.231C58.3818 156.231 58.1763 156.231 57.9707 156.231C57.7651 156.231 57.7651 156.231 57.5596 156.231L57.354 156.437L57.1484 156.642C57.1484 156.848 57.1484 156.848 57.1484 157.054C57.1484 157.259 57.1484 157.259 57.1484 157.465C57.1484 157.67 57.1484 157.67 57.354 157.67L57.5596 157.876C57.5596 157.876 57.7651 157.876 57.9707 157.876C58.1763 157.876 58.1763 157.876 58.3818 157.876L58.5874 157.67L58.793 157.465C58.793 157.259 58.793 157.054 58.793 157.054Z" fill="#C14691"/>
<path d="M66.8106 154.381V156.026H65.5772L65.3716 159.726H63.7271L63.5215 156.026H62.2881V154.176L66.8106 154.381Z" fill="#C14691"/>
<path d="M71.9497 156.848C71.9497 157.054 71.9497 157.259 71.9497 157.465C71.9497 157.67 71.7442 157.876 71.7442 158.081C71.5386 158.287 71.5386 158.492 71.333 158.698C71.1275 158.904 70.9219 158.904 70.9219 159.109C70.9219 159.315 70.5108 159.315 70.3052 159.315C70.0996 159.315 69.8941 159.315 69.6885 159.315C69.4829 159.315 69.2773 159.315 69.0718 159.315C68.8662 159.315 68.6606 159.109 68.4551 159.109C68.2495 158.904 68.0439 158.904 67.8384 158.698C67.6328 158.492 67.6328 158.287 67.4272 158.081C67.2217 157.876 67.2217 157.67 67.2217 157.465C67.2217 157.259 67.2217 157.054 67.2217 156.848C67.2217 156.642 67.2217 156.437 67.2217 156.231C67.2217 156.026 67.4272 155.82 67.4272 155.615C67.4272 155.409 67.6328 155.203 67.8384 154.998C68.0439 154.792 68.2495 154.587 68.2495 154.587C68.4551 154.381 68.6607 154.381 68.8662 154.381C69.0718 154.381 69.2774 154.381 69.4829 154.381C69.8941 154.381 70.3052 154.381 70.5108 154.587C70.9219 154.792 71.1275 154.792 71.333 155.203C71.5386 155.409 71.7442 155.615 71.9497 156.026C71.7442 156.231 71.9497 156.437 71.9497 156.848ZM70.0996 157.054C70.0996 156.848 70.0996 156.848 70.0996 156.642C70.0996 156.437 70.0996 156.437 69.8941 156.437L69.6885 156.231C69.6885 156.231 69.4829 156.231 69.2774 156.231C69.0718 156.231 69.0718 156.231 68.8662 156.231L68.6607 156.437L68.4551 156.642C68.4551 156.848 68.4551 156.848 68.4551 157.054C68.4551 157.259 68.4551 157.259 68.4551 157.465C68.4551 157.67 68.4551 157.67 68.6607 157.67L68.8662 157.876C68.8662 157.876 69.0718 157.876 69.2774 157.876C69.4829 157.876 69.4829 157.876 69.6885 157.876L69.8941 157.67L70.0996 157.465C70.0996 157.259 70.0996 157.054 70.0996 157.054Z" fill="#C14691"/>
<path d="M77.0889 154.792L75.2388 156.848L76.8833 159.52L75.0332 159.931L73.7998 158.287V159.931H72.1553L72.3608 154.176L74.2109 154.381L74.0054 156.026L75.2388 154.381L77.0889 154.792Z" fill="#C14691"/>
<path d="M81.1997 156.642C81.1997 156.848 81.1997 157.054 81.1997 157.259C80.7886 157.259 80.3775 157.259 79.7608 157.465C79.3496 157.465 78.9385 157.67 78.3218 157.67C78.3218 157.876 78.5274 158.081 78.7329 158.081C78.9385 158.287 79.1441 158.287 79.3496 158.287C79.5552 158.287 79.5552 158.287 79.7608 158.287C79.9663 158.287 79.9663 158.287 80.1719 158.081C80.3775 158.081 80.3775 157.876 80.583 157.876C80.7886 157.876 80.7886 157.67 80.7886 157.67L80.583 159.52C80.3775 159.52 80.3775 159.726 80.1719 159.726C79.9663 159.726 79.9663 159.726 79.7608 159.931C79.5552 159.931 79.5552 159.931 79.3496 159.931C79.1441 159.931 79.1441 159.931 78.9385 159.931C78.7329 159.931 78.5274 159.931 78.1162 159.726C77.9107 159.726 77.7051 159.52 77.4995 159.52C77.2939 159.315 77.0884 159.315 77.0884 159.109C76.8828 158.904 76.8828 158.698 76.6772 158.492C76.6772 158.287 76.4717 158.081 76.4717 157.876C76.4717 157.67 76.4717 157.465 76.4717 157.259C76.4717 157.054 76.4717 156.848 76.4717 156.437C76.4717 156.231 76.6772 156.026 76.6772 155.615C76.6772 155.409 76.8828 155.203 77.0884 154.998C77.2939 154.792 77.2939 154.587 77.4995 154.381C77.7051 154.176 77.9107 154.176 78.1162 153.97C78.3218 153.764 78.5274 153.764 78.9385 153.764C79.1441 153.764 79.3496 153.764 79.5552 153.764C79.7608 153.764 79.9663 153.97 80.1719 153.97C80.3775 154.176 80.3775 154.176 80.583 154.381C80.7886 154.587 80.7886 154.792 80.7886 154.998C80.7886 155.203 80.9942 155.409 80.9942 155.615C81.1997 156.231 81.1997 156.437 81.1997 156.642ZM79.5552 156.437V156.026C79.5552 156.026 79.5552 155.82 79.3496 155.82H79.1441C78.9385 155.82 78.9385 155.82 78.9385 155.82L78.7329 156.026L78.5274 156.231V156.437H79.5552Z" fill="#C14691"/>
<path d="M86.5445 157.876C86.5445 158.081 86.5445 158.492 86.5445 158.698C86.5445 158.904 86.5445 159.315 86.5445 159.52H84.2832C84.2832 159.109 84.4888 158.492 84.4888 158.081C84.4888 157.67 84.4888 157.054 84.4888 156.642C84.4888 156.642 84.4888 156.642 84.4888 156.437C84.4888 156.231 84.4888 156.231 84.4888 156.231V156.026V155.82V155.615C84.4888 155.615 84.4888 155.615 84.2832 155.615H84.0777L83.8721 155.82V156.026C83.8721 156.026 83.8721 156.231 83.8721 156.437C83.8721 156.642 83.8721 156.642 83.8721 156.642V156.848C83.8721 157.259 83.8721 157.876 83.8721 158.287C83.8721 158.698 83.8721 159.315 83.8721 159.726H81.8164C81.8164 158.698 82.022 157.876 82.022 156.848C82.022 155.82 82.022 154.998 82.2275 153.97H84.0777V154.587L84.2832 154.381L84.4888 154.176C84.4888 154.176 84.6944 153.97 84.8999 153.97C85.1055 153.97 85.1055 153.97 85.3111 153.97C85.5166 153.97 85.7222 153.97 85.9278 154.176C86.1333 154.381 86.3389 154.381 86.3389 154.381C86.3389 154.381 86.5445 154.587 86.75 154.792C86.75 154.998 86.9556 155.203 86.9556 155.409C86.9556 155.615 86.9556 155.82 87.1612 156.026C87.1612 156.231 87.1612 156.437 87.1612 156.642C87.1612 156.848 87.1612 157.054 87.1612 157.259C86.5445 157.67 86.5445 157.67 86.5445 157.876Z" fill="#C14691"/>
<path d="M91.0674 157.876C91.0674 158.287 91.0674 158.492 90.8618 158.904C90.6563 159.109 90.6563 159.315 90.2451 159.52C90.0396 159.726 89.834 159.726 89.4229 159.931C89.2173 159.931 88.8062 160.137 88.395 160.137C88.1895 160.137 88.1895 160.137 87.9839 160.137C87.7783 160.137 87.5728 160.137 87.5728 159.931C87.3672 159.931 87.1616 159.726 87.1616 159.726C86.9561 159.726 86.9561 159.52 86.7505 159.52L86.9561 157.876C87.1616 158.081 87.3672 158.081 87.7783 158.287C87.9839 158.287 88.395 158.492 88.6006 158.492H88.8062H89.0117H89.2173C89.2173 158.492 89.2173 158.492 89.2173 158.287C89.2173 158.287 89.2173 158.287 89.2173 158.081C89.2173 158.081 89.2173 158.081 89.0117 158.081H88.8062H88.6006H88.395C88.395 158.081 88.395 158.081 88.1895 158.081C87.9839 158.081 87.7783 158.081 87.5728 157.876C87.3672 157.876 87.1616 157.67 87.1616 157.67C86.9561 157.465 86.9561 157.465 86.7505 157.259C86.7505 157.054 86.5449 156.848 86.5449 156.642C86.5449 156.231 86.5449 156.026 86.7505 155.82C86.9561 155.615 86.9561 155.409 87.1616 155.203C87.3672 154.998 87.5728 154.792 87.9839 154.792C88.395 154.792 88.6006 154.587 88.8062 154.587C89.0117 154.587 89.0117 154.587 89.2173 154.587C89.4229 154.587 89.4229 154.587 89.6284 154.587C89.834 154.587 89.834 154.587 90.0396 154.587C90.2451 154.587 90.2451 154.587 90.4507 154.792L90.2451 156.437C90.0396 156.437 89.834 156.231 89.6284 156.231C89.4229 156.231 89.2173 156.231 89.0117 156.231C89.0117 156.231 89.0117 156.231 88.8062 156.231H88.6006H88.395H88.1895C88.1895 156.231 88.1895 156.231 87.9839 156.231C87.9839 156.231 87.9839 156.231 87.9839 156.437V156.642C87.9839 156.642 87.9839 156.642 88.1895 156.642H88.395H88.6006H88.8062H89.0117C89.2173 156.642 89.4229 156.642 89.6284 156.848C89.834 157.054 90.0396 157.054 90.0396 157.259C90.2451 157.465 90.2451 157.465 90.2451 157.67C91.0674 157.465 91.0674 157.67 91.0674 157.876Z" fill="#C14691"/>
<path d="M48.7203 143.897C48.7203 144.925 48.5147 145.747 48.1036 146.364C47.6924 146.981 47.2813 147.597 46.6646 148.214C46.0479 148.625 45.4312 149.036 44.6089 149.242C43.7867 149.448 42.9644 149.653 41.9365 149.653C41.5254 149.653 41.1143 149.653 40.7031 149.653C40.292 149.653 39.8809 149.448 39.4697 149.448C39.0586 149.242 38.6475 149.242 38.2363 149.036C37.8252 148.831 37.4141 148.831 37.0029 148.625L37.4141 144.103C37.6196 144.308 38.0308 144.308 38.2363 144.514C38.4419 144.719 38.853 144.719 39.2642 144.925C39.6753 145.131 39.8809 145.131 40.292 145.131C40.7031 145.131 40.9087 145.131 41.3198 145.131C41.5254 145.131 41.731 145.131 41.9365 145.131C42.1421 145.131 42.5532 145.131 42.7588 144.925C42.9644 144.719 43.17 144.719 43.3755 144.514C43.5811 144.308 43.5811 144.103 43.5811 143.897C43.5811 143.692 43.5811 143.486 43.3755 143.28C43.17 143.075 42.9644 142.869 42.7588 142.869C42.5532 142.664 42.3477 142.664 41.9365 142.664C41.731 142.664 41.3198 142.458 41.1143 142.458C40.9087 142.458 40.4976 142.458 40.292 142.458C40.0864 142.458 39.8809 142.458 39.6753 142.458C39.2642 142.458 39.0586 142.458 38.6475 142.458C38.2363 142.458 38.0308 142.458 37.6196 142.664L38.0308 133.619L47.0757 133.413L47.2813 138.141L41.731 137.73L41.5254 139.786C41.9366 139.786 42.1421 139.58 42.5533 139.58C42.9644 139.58 43.17 139.58 43.5811 139.58C44.1978 139.58 44.8145 139.786 45.4312 139.991C46.0479 140.197 46.459 140.608 46.8702 141.019C47.2813 141.43 47.6924 141.842 47.898 142.458C48.5147 142.664 48.7203 143.281 48.7203 143.897Z" fill="#982E74"/>
<path d="M53.6543 147.186C53.6543 147.597 53.6543 148.009 53.4488 148.42C53.2432 148.831 53.0376 149.242 52.8321 149.653C52.6265 150.064 52.2153 150.475 51.8042 150.887C51.3931 151.298 50.9819 151.503 50.5708 151.709C50.5708 151.709 50.5708 151.709 50.5708 151.503C50.5708 151.298 50.5708 151.092 50.5708 150.887C50.5708 150.681 50.5708 150.475 50.5708 150.064C50.5708 149.653 50.5708 149.448 50.5708 149.242C50.1597 149.036 49.7485 148.831 49.543 148.42C49.3374 148.009 49.1318 147.597 49.1318 147.186C49.1318 146.775 49.1318 146.57 49.3374 146.364C49.543 146.158 49.543 145.747 49.7485 145.542C49.9541 145.336 50.1597 145.131 50.5708 145.131C50.9819 145.131 51.1875 144.925 51.3931 144.925C51.8042 144.925 52.0098 144.925 52.2153 145.131C52.4209 145.336 52.832 145.336 53.0376 145.542C53.2432 145.747 53.4488 145.953 53.4488 146.364C53.6543 146.364 53.6543 146.775 53.6543 147.186Z" fill="#982E74"/>
<path d="M67.838 141.636C67.838 142.253 67.838 142.869 67.6324 143.692C67.4268 144.514 67.2213 144.925 67.0157 145.542C66.8101 146.158 66.399 146.775 65.9879 147.186C65.5767 147.803 65.1656 148.214 64.5489 148.625C63.9322 149.036 63.521 149.242 62.9043 149.448C62.2876 149.653 61.6709 149.859 60.8487 149.859C60.232 149.859 59.4097 149.653 58.793 149.448C58.1763 149.242 57.5596 148.831 57.1485 148.625C56.7373 148.42 56.1206 147.803 55.7095 147.186C55.2983 146.57 54.8872 146.158 54.6816 145.542C54.4761 144.925 54.2705 144.308 54.0649 143.692C53.8594 143.075 53.8594 142.458 53.8594 141.636C53.8594 141.019 53.8594 140.403 54.0649 139.58C54.2705 138.964 54.4761 138.347 54.6816 137.73C54.8872 137.113 55.2983 136.497 55.7095 136.086C56.1206 135.469 56.5317 135.058 57.1485 134.647C57.5596 134.236 58.1763 134.03 58.793 133.824C59.4097 133.619 60.0264 133.413 60.8487 133.413C61.4654 133.413 62.2876 133.619 62.9043 133.824C63.521 134.03 64.1377 134.441 64.5489 134.647C65.1656 135.058 65.5767 135.469 65.9879 136.086C66.399 136.702 66.8101 137.113 67.0157 137.73C67.2213 138.347 67.4268 138.964 67.6324 139.58C67.838 140.197 67.838 140.814 67.838 141.636ZM63.1099 141.842C63.1099 141.43 63.1099 141.225 62.9043 140.814C62.9043 140.403 62.6988 139.991 62.4932 139.58C62.2876 139.169 62.0821 138.964 61.8765 138.758C61.6709 138.552 61.2598 138.347 60.8487 138.347C60.4375 138.347 60.0264 138.552 59.8208 138.758C59.6153 138.964 59.2041 139.375 58.9986 139.58C58.793 139.991 58.5874 140.403 58.5874 140.814C58.5874 141.225 58.3819 141.636 58.3819 141.842C58.3819 142.047 58.3819 142.458 58.5874 142.869C58.5874 143.281 58.793 143.692 58.9986 144.103C59.2041 144.514 59.4097 144.719 59.8208 144.925C60.232 145.131 60.4375 145.336 60.8487 145.336C61.2598 145.336 61.6709 145.131 61.8765 144.925C62.0821 144.719 62.4932 144.308 62.4932 144.103C62.4932 143.897 62.9043 143.281 62.9043 142.869C63.1099 142.664 63.1099 142.253 63.1099 141.842Z" fill="#982E74"/>
<path d="M82.4337 141.636C82.4337 142.253 82.4337 142.869 82.2281 143.692C82.0225 144.514 81.817 144.925 81.6114 145.542C81.4058 146.158 80.9947 146.775 80.5836 147.186C80.1724 147.597 79.7613 148.214 79.1446 148.625C78.5279 149.036 78.1168 149.242 77.5 149.448C76.8833 149.653 76.2666 149.859 75.4444 149.859C74.8277 149.859 74.0054 149.653 73.3887 149.448C72.772 149.242 72.1553 148.831 71.7442 148.625C71.333 148.42 70.7163 147.803 70.3052 147.186C69.8941 146.57 69.4829 146.158 69.2774 145.542C69.0718 144.925 68.8662 144.308 68.6607 143.692C68.4551 143.075 68.4551 142.458 68.4551 141.636C68.4551 141.019 68.4551 140.403 68.6607 139.58C68.8662 138.964 69.0718 138.347 69.2774 137.73C69.4829 137.113 69.8941 136.497 70.3052 136.086C70.7163 135.469 71.1275 135.058 71.7442 134.647C72.1553 134.236 72.772 134.03 73.3887 133.824C74.0054 133.619 74.6221 133.413 75.4444 133.413C76.0611 133.413 76.8833 133.619 77.5 133.824C78.1168 134.03 78.7335 134.441 79.1446 134.647C79.7613 135.058 80.1724 135.469 80.5836 136.086C80.9947 136.702 81.4058 137.113 81.6114 137.73C81.817 138.347 82.0225 138.964 82.2281 139.58C82.4337 140.197 82.4337 140.814 82.4337 141.636ZM77.7056 141.842C77.7056 141.43 77.7056 141.225 77.5 140.814C77.5 140.403 77.2945 139.991 77.0889 139.58C76.8833 139.169 76.6778 138.964 76.4722 138.758C76.2666 138.552 75.8555 138.347 75.4444 138.347C75.0332 138.347 74.6221 138.552 74.4165 138.758C74.211 138.964 73.7998 139.375 73.5943 139.58C73.3887 139.991 73.1831 140.403 73.1831 140.814C73.1831 141.225 72.9776 141.636 72.9776 141.842C72.9776 142.047 72.9776 142.458 73.1831 142.869C73.1831 143.281 73.3887 143.692 73.5943 144.103C73.7998 144.514 74.0054 144.719 74.4165 144.925C74.6221 145.131 75.0332 145.336 75.4444 145.336C75.8555 145.336 76.2666 145.131 76.4722 144.925C76.6778 144.719 77.0889 144.308 77.0889 144.103C77.2945 143.692 77.5 143.281 77.5 142.869C77.7056 142.664 77.7056 142.253 77.7056 141.842Z" fill="#982E74"/>
<path d="M97.0284 141.636C97.0284 142.253 97.0284 142.869 96.8228 143.692C96.6173 144.308 96.4117 144.925 96.2061 145.542C96.0005 146.158 95.5894 146.775 95.1783 147.186C94.7671 147.803 94.356 148.214 93.7393 148.625C93.1226 149.036 92.7115 149.242 92.0948 149.448C91.4781 149.653 90.8614 149.859 90.0391 149.859C89.4224 149.859 88.6001 149.653 87.9834 149.448C87.3667 149.242 86.75 148.831 86.3389 148.625C85.9277 148.42 85.311 147.803 84.8999 147.186C84.4888 146.57 84.2832 145.953 83.8721 145.336C83.6665 144.719 83.4609 144.103 83.2554 143.486C83.0498 142.869 83.0498 142.253 83.0498 141.43C83.0498 140.814 83.0498 140.197 83.2554 139.375C83.4609 138.758 83.6665 138.141 83.8721 137.525C84.0776 136.908 84.4888 136.291 84.8999 135.88C85.311 135.263 85.7222 134.852 86.3389 134.441C86.75 134.03 87.3667 133.824 87.9834 133.619C88.6001 133.413 89.2168 133.208 90.0391 133.208C90.6558 133.208 91.4781 133.413 92.0948 133.619C92.7115 133.824 93.3282 134.236 93.7393 134.441C94.356 134.852 94.7671 135.263 95.1783 135.88C95.5894 136.497 96.0005 136.908 96.2061 137.525C96.4117 138.141 96.6173 138.758 96.8228 139.375C96.8228 140.197 97.0284 140.814 97.0284 141.636ZM92.3003 141.842C92.3003 141.43 92.3003 141.225 92.0948 140.814C92.0948 140.403 91.8892 139.991 91.6836 139.58C91.4781 139.169 91.2725 138.964 91.0669 138.758C90.8614 138.552 90.4502 138.347 90.0391 138.347C89.628 138.347 89.2168 138.552 89.0113 138.758C88.8057 138.964 88.3946 139.375 88.189 139.58C87.9834 139.991 87.7779 140.403 87.7779 140.814C87.7779 141.225 87.5723 141.636 87.5723 141.842C87.5723 142.047 87.5723 142.458 87.7779 142.869C87.7779 143.281 87.9834 143.692 88.189 144.103C88.3946 144.514 88.6001 144.719 89.0113 144.925C89.2168 145.131 89.628 145.336 90.0391 145.336C90.4502 145.336 90.8614 145.131 91.0669 144.925C91.2725 144.719 91.6836 144.308 91.6836 144.103C91.8892 143.692 92.0948 143.281 92.0948 142.869C92.0948 142.664 92.3003 142.253 92.3003 141.842Z" fill="#982E74"/>
<g opacity="0.5">
<path opacity="0.5" d="M48.7203 145.336C48.7203 146.364 48.5147 147.186 48.1036 147.803C47.6924 148.42 47.2813 149.036 46.6646 149.653C46.0479 150.27 45.4312 150.475 44.6089 150.681C43.7867 150.887 42.9644 151.092 41.9365 151.092C41.5254 151.092 41.1143 151.092 40.7031 151.092C40.292 151.092 39.8809 150.886 39.4697 150.886C39.0586 150.886 38.6475 150.681 38.2363 150.475C37.8252 150.064 37.4141 150.064 37.0029 149.859L37.4141 145.336C37.6196 145.542 38.0308 145.542 38.2363 145.747C38.4419 145.953 38.853 145.953 39.2642 146.158C39.6753 146.364 39.8809 146.364 40.292 146.364C40.7031 146.364 40.9087 146.364 41.3198 146.364C41.5254 146.364 41.731 146.364 41.9365 146.364C42.1421 146.364 42.5532 146.364 42.7588 146.158C42.9644 145.953 43.17 145.953 43.17 145.747C43.3755 145.542 43.3755 145.336 43.3755 145.131C43.3755 144.925 43.3755 144.719 43.17 144.514C42.9644 144.308 42.7588 144.103 42.5533 144.103C42.3477 143.897 42.1421 143.897 41.731 143.897C41.5254 143.897 41.1143 143.692 40.9087 143.692C40.7031 143.692 40.292 143.692 40.0864 143.692C39.8809 143.692 39.6753 143.692 39.4697 143.692C39.0586 143.692 38.853 143.692 38.4419 143.692C38.0308 143.692 37.8252 143.692 37.4141 143.897L37.8252 134.852L46.8702 134.647L47.0757 139.375L41.5254 138.964L41.3198 141.019C41.731 141.019 41.9365 140.814 42.3477 140.814C42.7588 140.814 42.9644 140.814 43.3755 140.814C43.9922 140.814 44.6089 141.019 45.2256 141.225C45.8423 141.43 46.2535 141.842 46.6646 142.253C47.0757 142.664 47.4869 143.075 47.6924 143.692C48.5147 143.897 48.7203 144.514 48.7203 145.336Z" fill="white"/>
<path opacity="0.5" d="M53.6543 148.42C53.6543 148.831 53.6543 149.242 53.4488 149.653C53.2432 150.064 53.0376 150.475 52.8321 150.887C52.6265 151.298 52.2153 151.709 51.8042 152.12C51.3931 152.531 50.9819 152.737 50.5708 152.942C50.5708 152.942 50.5708 152.942 50.5708 152.737C50.5708 152.531 50.5708 152.325 50.5708 152.12C50.5708 151.914 50.5708 151.709 50.5708 151.298C50.5708 150.886 50.5708 150.681 50.5708 150.475C50.1597 150.27 49.7485 150.064 49.543 149.653C49.3374 149.242 49.1318 148.831 49.1318 148.42C49.1318 148.009 49.1318 147.803 49.3374 147.597C49.543 147.392 49.543 146.981 49.7485 146.775C49.9541 146.57 50.1597 146.364 50.5708 146.364C50.9819 146.364 50.9819 145.953 51.3931 145.953C51.8042 145.953 52.0098 145.953 52.2153 146.158C52.4209 146.364 52.832 146.364 53.0376 146.57C53.2432 146.775 53.4488 146.981 53.4488 147.392C53.4488 147.803 53.6543 148.009 53.6543 148.42Z" fill="white"/>
<path opacity="0.5" d="M67.838 142.869C67.838 143.486 67.838 144.103 67.6324 144.925C67.4268 145.542 67.2213 146.158 67.0157 146.775C66.8101 147.392 66.399 148.009 65.9879 148.42C65.5767 149.036 65.1656 149.448 64.5489 149.859C63.9322 150.27 63.521 150.475 62.9043 150.681C62.2876 150.887 61.6709 151.092 60.8487 151.092C60.232 151.092 59.4097 150.887 58.793 150.681C58.1763 150.475 57.5596 150.064 57.1485 149.859C56.7373 149.448 56.1206 149.036 55.7095 148.42C55.2983 147.803 54.8872 147.392 54.6816 146.775C54.4761 146.158 54.2705 145.542 54.0649 144.925C53.8594 144.308 53.8594 143.692 53.8594 142.869C53.8594 142.047 53.8594 141.636 54.0649 140.814C54.2705 140.197 54.4761 139.58 54.6816 138.964C54.8872 138.347 55.2983 137.73 55.7095 137.319C56.1206 136.702 56.5317 136.291 57.1485 135.88C57.5596 135.469 58.1763 135.263 58.793 135.058C59.4097 134.852 60.0264 134.647 60.8487 134.647C61.4654 134.647 62.2876 134.852 62.9043 135.058C63.521 135.263 64.1377 135.675 64.5489 135.88C65.1656 136.291 65.5767 136.702 65.9879 137.319C66.399 137.936 66.8101 138.347 67.0157 138.964C67.2213 139.58 67.4268 140.197 67.6324 140.814C67.838 141.636 67.838 142.253 67.838 142.869ZM63.1099 143.28C63.1099 142.869 63.1099 142.664 62.9043 142.253C62.9043 141.842 62.6988 141.43 62.4932 141.019C62.2876 140.608 62.0821 140.403 61.8765 140.197C61.6709 139.991 61.2598 139.786 60.8487 139.786C60.4375 139.786 60.0264 139.991 59.8208 140.197C59.6153 140.403 59.2041 140.814 58.9986 141.019C58.793 141.43 58.5874 141.842 58.5874 142.253C58.5874 142.664 58.3819 143.075 58.3819 143.28C58.3819 143.486 58.3819 143.897 58.5874 144.308C58.5874 144.719 58.793 145.131 58.9986 145.542C59.2041 145.953 59.4097 146.158 59.8208 146.364C60.232 146.57 60.4375 146.775 60.8487 146.775C61.2598 146.775 61.6709 146.57 61.8765 146.364C62.0821 146.158 62.4932 145.747 62.4932 145.542C62.6988 145.131 62.9043 144.719 62.9043 144.308C63.1099 143.897 63.1099 143.486 63.1099 143.28Z" fill="white"/>
<path opacity="0.5" d="M82.4337 142.869C82.4337 143.486 82.4337 144.103 82.2281 144.925C82.0225 145.542 81.817 146.158 81.6114 146.775C81.4058 147.392 80.9947 148.009 80.5836 148.42C80.1724 149.036 79.7613 149.448 79.1446 149.859C78.5279 150.27 78.1168 150.475 77.5 150.681C76.8833 150.887 76.2666 151.092 75.4444 151.092C74.8277 151.092 74.0054 150.887 73.3887 150.681C72.772 150.475 72.1553 150.064 71.7442 149.859C71.333 149.448 70.7163 149.036 70.3052 148.42C69.8941 147.803 69.4829 147.392 69.2774 146.775C69.0718 146.158 68.8662 145.542 68.6607 144.925C68.4551 144.308 68.4551 143.692 68.4551 142.869C68.4551 142.047 68.4551 141.636 68.6607 140.814C68.8662 140.197 69.0718 139.58 69.2774 138.964C69.4829 138.347 69.8941 137.73 70.3052 137.319C70.7163 136.702 71.1275 136.291 71.7442 135.88C72.1553 135.469 72.772 135.263 73.3887 135.058C74.0054 134.852 74.6221 134.647 75.4444 134.647C76.0611 134.647 76.8833 134.852 77.5 135.058C78.1168 135.263 78.7335 135.675 79.1446 135.88C79.7613 136.291 80.1724 136.702 80.5836 137.319C80.9947 137.936 81.4058 138.347 81.6114 138.964C81.817 139.58 82.0225 140.197 82.2281 140.814C82.4337 141.636 82.4337 142.253 82.4337 142.869ZM77.7056 143.28C77.7056 142.869 77.7056 142.664 77.5 142.253C77.5 141.842 77.2945 141.43 77.0889 141.019C76.8833 140.608 76.6778 140.403 76.4722 140.197C76.0611 139.786 75.8555 139.786 75.4444 139.786C75.0332 139.786 74.6221 139.991 74.4165 140.197C74.211 140.403 73.7998 140.814 73.5943 141.019C73.3887 141.43 73.1831 141.842 73.1831 142.253C73.1831 142.664 72.9776 143.075 72.9776 143.28C72.9776 143.486 72.9776 143.897 73.1831 144.308C73.1831 144.719 73.3887 145.131 73.5943 145.542C73.7998 145.953 74.0054 146.158 74.4165 146.364C74.6221 146.57 75.0332 146.775 75.4444 146.775C75.8555 146.775 76.2666 146.57 76.4722 146.364C76.6778 146.158 77.0889 145.747 77.0889 145.542C77.2945 145.131 77.5 144.719 77.5 144.308C77.7056 143.897 77.7056 143.486 77.7056 143.28Z" fill="white"/>
<path opacity="0.5" d="M97.0284 142.869C97.0284 143.486 97.0284 144.103 96.8228 144.925C96.6173 145.542 96.4117 146.158 96.2061 146.775C96.0005 147.392 95.5894 148.009 95.1783 148.42C94.7671 149.036 94.356 149.448 93.7393 149.859C93.1226 150.27 92.7115 150.475 92.0948 150.681C91.4781 150.887 90.8614 151.092 90.0391 151.092C89.4224 151.092 88.6001 150.887 87.9834 150.681C87.3667 150.475 86.75 150.064 86.3389 149.859C85.9277 149.448 85.311 149.036 84.8999 148.42C84.4888 147.803 84.0776 147.392 83.8721 146.775C83.6665 146.158 83.4609 145.542 83.2554 144.925C83.0498 144.308 83.0498 143.692 83.0498 142.869C83.0498 142.047 83.0498 141.636 83.2554 140.814C83.4609 140.197 83.6665 139.58 83.8721 138.964C84.0776 138.347 84.4888 137.73 84.8999 137.319C85.311 136.702 85.7222 136.291 86.3389 135.88C86.75 135.469 87.3667 135.263 87.9834 135.058C88.6001 134.852 89.2168 134.647 90.0391 134.647C90.6558 134.647 91.4781 134.852 92.0948 135.058C92.7115 135.263 93.3282 135.675 93.7393 135.88C94.356 136.291 94.7671 136.702 95.1783 137.319C95.5894 137.936 96.0005 138.347 96.2061 138.964C96.4117 139.58 96.6173 140.197 96.8228 140.814C96.8228 141.636 97.0284 142.253 97.0284 142.869ZM92.3003 143.28C92.3003 142.869 92.3003 142.664 92.0948 142.253C92.0948 141.842 91.8892 141.43 91.6836 141.019C91.4781 140.608 91.2725 140.403 91.0669 140.197C90.6558 139.786 90.2447 139.786 89.8335 139.786C89.4224 139.786 89.0113 139.991 88.8057 140.197C88.6001 140.403 88.189 140.814 87.9834 141.019C87.7779 141.43 87.5723 141.842 87.5723 142.253C87.5723 142.664 87.3667 143.075 87.3667 143.28C87.3667 143.486 87.3667 143.897 87.5723 144.308C87.5723 144.719 87.7779 145.131 87.9834 145.542C88.189 145.953 88.3946 146.158 88.8057 146.364C89.0113 146.57 89.4224 146.775 89.8335 146.775C90.2447 146.775 90.6558 146.57 90.8614 146.364C91.0669 146.158 91.4781 145.747 91.4781 145.542C91.6836 145.131 91.8892 144.719 91.8892 144.308C92.0948 143.897 92.3003 143.486 92.3003 143.28Z" fill="white"/>
</g>
<path d="M48.7203 144.308C48.7203 145.336 48.5147 146.158 48.1036 146.775C47.6924 147.392 47.2813 148.009 46.6646 148.625C46.0479 149.036 45.4312 149.448 44.6089 149.653C43.7867 149.859 42.9644 150.064 41.9365 150.064C41.5254 150.064 41.1143 150.064 40.7031 150.064C40.292 150.064 39.8809 149.859 39.4697 149.859C39.0586 149.653 38.6475 149.653 38.2363 149.448C37.8252 149.242 37.4141 149.242 37.0029 149.036L37.4141 144.514C37.6196 144.719 38.0308 144.719 38.2363 144.925C38.4419 145.131 38.853 145.131 39.2642 145.336C39.6753 145.542 39.8809 145.542 40.292 145.542C40.7031 145.542 40.9087 145.542 41.3198 145.542C41.5254 145.542 41.731 145.542 41.9365 145.542C42.1421 145.542 42.5532 145.542 42.7588 145.336C42.9644 145.131 43.17 145.131 43.3755 144.925C43.5811 144.719 43.5811 144.514 43.5811 144.308C43.5811 144.103 43.5811 143.897 43.3755 143.692C43.17 143.486 42.9644 143.281 42.7588 143.281C42.5532 143.075 42.3477 143.075 41.9365 143.075C41.5254 143.075 41.3198 142.869 41.1143 142.869C40.9087 142.869 40.4976 142.869 40.292 142.869C40.0864 142.869 39.8809 142.869 39.6753 142.869C39.2642 142.869 39.0586 142.869 38.6475 142.869C38.2363 142.869 38.0308 142.869 37.6196 143.075L38.0308 134.03L47.0757 133.824L47.2813 138.552L41.731 138.141L41.5254 140.197C41.9366 140.197 42.1421 139.991 42.5533 139.991C42.9644 139.991 43.17 139.991 43.5811 139.991C44.1978 139.991 44.8145 140.197 45.4312 140.403C46.0479 140.608 46.459 141.019 46.8702 141.43C47.2813 141.842 47.6924 142.253 47.898 142.869C48.5147 142.869 48.7203 143.486 48.7203 144.308Z" fill="#C14691"/>
<path d="M53.6543 147.392C53.6543 147.803 53.6543 148.214 53.4488 148.625C53.2432 149.036 53.0376 149.448 52.8321 149.859C52.6265 150.27 52.2153 150.681 51.8042 151.092C51.3931 151.503 50.9819 151.709 50.5708 151.914C50.5708 151.914 50.5708 151.914 50.5708 151.709C50.5708 151.503 50.5708 151.298 50.5708 151.092C50.5708 150.887 50.5708 150.681 50.5708 150.27C50.5708 150.064 50.5708 149.653 50.5708 149.448C50.1597 149.242 49.7485 149.036 49.543 148.625C49.3374 148.214 49.1318 147.803 49.1318 147.392C49.1318 146.981 49.1318 146.775 49.3374 146.57C49.543 146.364 49.543 145.953 49.7485 145.747C49.9541 145.542 50.1597 145.336 50.5708 145.336C50.7764 145.131 51.1875 145.131 51.3931 145.131C51.8042 145.131 52.0098 145.131 52.2153 145.336C52.4209 145.542 52.832 145.542 53.0376 145.747C53.2432 145.953 53.4488 146.158 53.4488 146.57C53.6543 146.775 53.6543 146.981 53.6543 147.392Z" fill="#C14691"/>
<path d="M67.838 141.842C67.838 142.458 67.838 143.075 67.6324 143.897C67.4268 144.514 67.2213 145.131 67.0157 145.747C66.8101 146.364 66.399 146.981 65.9879 147.392C65.5767 148.009 65.1656 148.42 64.5489 148.831C63.9322 149.242 63.521 149.448 62.9043 149.653C62.2876 149.859 61.6709 150.064 60.8487 150.064C60.232 150.064 59.4097 149.859 58.793 149.653C58.1763 149.448 57.5596 149.036 57.1485 148.831C56.7373 148.42 56.1206 148.009 55.7095 147.392C55.2983 146.775 54.8872 146.364 54.6816 145.747C54.4761 145.131 54.2705 144.514 54.0649 143.897C53.8594 143.281 53.8594 142.664 53.8594 141.842C53.8594 141.019 53.8594 140.608 54.0649 139.786C54.2705 139.169 54.4761 138.552 54.6816 137.936C54.8872 137.319 55.2983 136.702 55.7095 136.291C56.1206 135.88 56.5317 135.263 57.1485 134.852C57.7652 134.441 58.1763 134.236 58.793 134.03C59.4097 133.824 60.0264 133.619 60.8487 133.619C61.4654 133.619 62.2876 133.824 62.9043 134.03C63.521 134.236 64.1377 134.647 64.5489 134.852C64.96 135.058 65.5767 135.675 65.9879 136.291C66.399 136.908 66.8101 137.319 67.0157 137.936C67.2213 138.552 67.4268 139.169 67.6324 139.786C67.838 140.403 67.838 141.225 67.838 141.842ZM63.1099 142.253C63.1099 141.842 63.1099 141.636 62.9043 141.225C62.9043 140.814 62.6988 140.403 62.4932 139.991C62.2876 139.58 62.0821 139.375 61.8765 139.169C61.6709 138.964 61.2598 138.758 60.8487 138.758C60.4375 138.758 60.0264 138.964 59.8208 139.169C59.6153 139.375 59.2041 139.786 58.9986 139.991C58.793 140.403 58.5874 140.814 58.5874 141.225C58.5874 141.636 58.3819 142.047 58.3819 142.253C58.3819 142.458 58.3819 142.869 58.5874 143.28C58.5874 143.692 58.793 144.103 58.9986 144.514C59.2041 144.925 59.4097 145.131 59.8208 145.336C60.232 145.542 60.4375 145.747 60.8487 145.747C61.2598 145.747 61.6709 145.542 61.8765 145.336C62.0821 145.131 62.4932 144.719 62.4932 144.514C62.6988 144.103 62.9043 143.692 62.9043 143.28C63.1099 142.869 63.1099 142.664 63.1099 142.253Z" fill="#C14691"/>
<path d="M82.4337 141.842C82.4337 142.458 82.4337 143.075 82.2281 143.897C82.0225 144.514 81.817 145.131 81.6114 145.747C81.4058 146.364 80.9947 146.981 80.5836 147.392C80.1724 148.009 79.7613 148.42 79.1446 148.831C78.5279 149.242 78.1168 149.448 77.5 149.653C76.8833 149.859 76.2666 150.064 75.4444 150.064C74.8277 150.064 74.0054 149.859 73.3887 149.653C72.772 149.448 72.1553 149.036 71.7442 148.831C71.333 148.42 70.7163 148.009 70.3052 147.392C69.8941 146.775 69.4829 146.364 69.2774 145.747C69.0718 145.131 68.8662 144.514 68.6607 143.897C68.4551 143.281 68.4551 142.664 68.4551 141.842C68.4551 141.019 68.4551 140.608 68.6607 139.786C68.8662 139.169 69.0718 138.552 69.2774 137.936C69.4829 137.319 69.8941 136.702 70.3052 136.291C70.7163 135.88 71.1275 135.263 71.7442 134.852C72.3609 134.441 72.772 134.236 73.3887 134.03C74.0054 133.824 74.6221 133.619 75.4444 133.619C76.0611 133.619 76.8833 133.824 77.5 134.03C78.1168 134.236 78.7335 134.647 79.1446 134.852C79.7613 135.263 80.1724 135.675 80.5836 136.291C80.9947 136.908 81.4058 137.319 81.6114 137.936C81.817 138.552 82.0225 139.169 82.2281 139.786C82.4337 140.403 82.4337 141.225 82.4337 141.842ZM77.7056 142.253C77.7056 141.842 77.7056 141.636 77.5 141.225C77.5 140.814 77.2945 140.403 77.0889 139.991C76.8833 139.58 76.6778 139.375 76.4722 139.169C76.2666 138.964 75.8555 138.758 75.4444 138.758C75.0332 138.758 74.6221 138.964 74.4165 139.169C74.211 139.375 73.7998 139.786 73.5943 139.991C73.3887 140.403 73.1831 140.814 73.1831 141.225C73.1831 141.636 72.9776 142.047 72.9776 142.253C72.9776 142.458 72.9776 142.869 73.1831 143.28C73.1831 143.692 73.3887 144.103 73.5943 144.514C73.7998 144.925 74.0054 145.131 74.4165 145.336C74.6221 145.542 75.0332 145.747 75.4444 145.747C75.8555 145.747 76.2666 145.542 76.4722 145.336C76.6778 145.131 77.0889 144.719 77.0889 144.514C77.2945 144.103 77.5 143.692 77.5 143.28C77.7056 142.869 77.7056 142.664 77.7056 142.253Z" fill="#C14691"/>
<path d="M97.0284 141.842C97.0284 142.458 97.0284 143.075 96.8228 143.897C96.6173 144.514 96.4117 145.131 96.2061 145.747C96.0005 146.364 95.5894 146.981 95.1783 147.392C94.7671 148.009 94.356 148.42 93.7393 148.831C93.1226 149.242 92.7115 149.448 92.0948 149.653C91.4781 149.859 90.8614 150.064 90.0391 150.064C89.4224 150.064 88.6001 149.859 87.9834 149.653C87.3667 149.448 86.75 149.036 86.3389 148.831C85.9277 148.42 85.311 148.009 84.8999 147.392C84.4888 146.775 84.0776 146.364 83.8721 145.747C83.6665 145.131 83.4609 144.514 83.2554 143.897C83.0498 143.281 83.0498 142.664 83.0498 141.842C83.0498 141.019 83.0498 140.608 83.2554 139.786C83.4609 139.169 83.6665 138.552 83.8721 137.936C84.0776 137.319 84.4888 136.702 84.8999 136.291C85.311 135.88 85.7222 135.263 86.3389 134.852C86.9556 134.441 87.3667 134.236 87.9834 134.03C88.6001 133.824 89.2168 133.619 90.0391 133.619C90.6558 133.619 91.4781 133.824 92.0948 134.03C92.7115 134.236 93.3282 134.647 93.7393 134.852C94.356 135.263 94.7671 135.675 95.1783 136.291C95.5894 136.908 96.0005 137.319 96.2061 137.936C96.4117 138.552 96.6173 139.169 96.8228 139.786C96.8228 140.608 97.0284 141.225 97.0284 141.842ZM92.3003 142.253C92.3003 141.842 92.3003 141.636 92.0948 141.225C92.0948 140.814 91.8892 140.403 91.6836 139.991C91.4781 139.58 91.2725 139.375 91.0669 139.169C90.8614 138.964 90.4502 138.758 90.0391 138.758C89.628 138.758 89.2168 138.964 89.0113 139.169C88.8057 139.375 88.3946 139.786 88.189 139.991C87.9834 140.403 87.7779 140.814 87.7779 141.225C87.7779 141.636 87.5723 142.047 87.5723 142.253C87.5723 142.458 87.5723 142.869 87.7779 143.28C87.7779 143.692 87.9834 144.103 88.189 144.514C88.3946 144.925 88.6001 145.131 89.0113 145.336C89.2168 145.542 89.628 145.747 90.0391 145.747C90.4502 145.747 90.8614 145.542 91.0669 145.336C91.2725 145.131 91.6836 144.719 91.6836 144.514C91.8892 144.103 92.0948 143.692 92.0948 143.28C92.0948 142.869 92.3003 142.664 92.3003 142.253Z" fill="#C14691"/>
<g opacity="0.5">
<g opacity="0.5">
<path opacity="0.5" d="M44.1973 42.3469C44.1973 45.6359 44.1973 47.2805 43.9917 50.5696C42.9639 50.7751 42.5527 50.7751 41.5249 50.9807C41.3193 47.6916 41.1138 46.0471 40.9082 42.9636C42.1416 42.5524 42.7583 42.3469 44.1973 42.3469Z" fill="white"/>
<path opacity="0.5" d="M50.5699 41.9357C50.5699 42.9636 50.3643 43.3747 50.3643 44.4026C50.1587 44.4026 50.1587 44.4026 49.9532 44.4026C49.7476 44.4026 49.7476 44.4026 49.542 44.4026C49.3365 44.4026 48.9253 44.4026 48.7198 44.6081C48.5142 44.6081 48.3086 44.8137 48.103 45.0193C47.8975 45.2248 47.6919 45.4304 47.6919 45.636C47.6919 45.8415 47.4863 46.2527 47.4863 46.4582C47.4863 46.6638 47.4863 46.8694 47.6919 47.0749C47.6919 47.2805 47.8975 47.2805 47.8975 47.4861C48.103 47.4861 48.103 47.6916 48.3086 47.6916C48.5142 47.6916 48.7197 47.6916 48.9253 47.6916C49.1309 47.6916 49.1309 47.6916 49.3365 47.6916C49.542 47.6916 49.7476 47.6916 49.7476 47.4861C49.9532 47.4861 49.9532 47.2805 50.1587 47.2805C50.3643 47.2805 50.3643 47.0749 50.5699 47.0749C50.5699 48.1028 50.5699 48.7195 50.3643 49.9529C50.1587 49.9529 49.9532 50.1584 49.9532 50.1584C49.7476 50.1584 49.542 50.364 49.3365 50.364C49.1309 50.364 48.9253 50.364 48.7198 50.5696C48.5142 50.5696 48.3086 50.5696 48.103 50.5696C47.6919 50.5696 47.0752 50.5696 46.6641 50.364C46.2529 50.1584 45.8418 49.9529 45.4307 49.7473C45.0195 49.5417 44.814 49.1306 44.6084 48.7195C44.4028 48.3083 44.1973 47.8972 44.1973 47.2805C44.1973 46.6638 44.1973 46.0471 44.4028 45.4304C44.6084 44.8137 44.814 44.197 45.2251 43.7859C45.6362 43.3747 46.0474 42.9636 46.6641 42.5525C47.2808 42.3469 47.8975 42.1413 48.7198 42.1413C48.9253 42.1413 49.3365 42.1413 49.542 42.1413C49.9532 41.7302 50.3643 41.7302 50.5699 41.9357Z" fill="white"/>
<path opacity="0.5" d="M60.437 45.2248C60.437 45.8415 60.437 46.2527 60.2315 46.6638C60.0259 47.0749 59.8203 47.4861 59.6148 47.8972C59.4092 48.3083 58.9981 48.5139 58.7925 48.7195C58.3814 48.925 57.9702 49.1306 57.5591 49.3362C57.148 49.5417 56.7368 49.5417 56.1201 49.7473C55.709 49.7473 55.0923 49.9529 54.6812 49.9529C54.4756 49.9529 54.27 49.9529 54.0645 49.9529C53.8589 49.9529 53.6533 49.9529 53.4478 49.9529C53.4478 46.6638 53.4478 45.2248 53.2422 41.9357C53.6533 41.7302 54.0645 41.7302 54.6812 41.5246C55.0923 41.5246 55.709 41.319 56.1201 41.319C56.7368 41.319 57.148 41.319 57.7647 41.5246C58.1758 41.7302 58.5869 41.9357 58.9981 42.1413C59.4092 42.5524 59.6148 42.758 59.8203 43.3747C60.2315 44.197 60.437 44.6081 60.437 45.2248ZM57.9702 45.6359C57.9702 45.4304 57.9702 45.2248 57.9702 45.0192C57.9702 44.8137 57.7647 44.6081 57.7647 44.4025C57.5591 44.197 57.5591 44.197 57.3535 43.9914C57.148 43.9914 56.9424 43.7858 56.7368 43.7858C56.7368 45.2248 56.7368 46.0471 56.5313 47.4861C56.7368 47.4861 56.9424 47.2805 57.148 47.2805C57.3535 47.0749 57.5591 47.0749 57.5591 46.8693C57.7647 46.6638 57.7647 46.4582 57.9702 46.2526C57.9702 46.2526 57.9702 46.0471 57.9702 45.6359C57.9702 45.8415 57.9702 45.8415 57.9702 45.6359Z" fill="white"/>
<path opacity="0.5" d="M64.1372 41.5246C63.9317 44.8137 63.7261 46.4582 63.5205 49.7473C62.4927 49.7473 62.0815 49.7473 61.0537 49.9529C61.0537 46.6638 61.0537 45.0192 61.0537 41.9357C62.0815 41.7302 62.6983 41.7302 64.1372 41.5246Z" fill="white"/>
<path opacity="0.5" d="M72.9771 41.5246C72.7715 44.8137 72.566 46.4582 72.3604 49.5417C71.127 49.5417 70.5103 49.7473 69.2769 49.7473C68.6602 48.1028 68.249 47.0749 67.6323 45.4304C67.4268 47.2805 67.4268 48.1028 67.2212 49.7473C66.1934 49.7473 65.5767 49.7473 64.5488 49.7473C64.5488 46.4582 64.7544 44.6081 64.7544 41.319C65.9878 41.319 66.6045 41.319 67.8379 41.1135C68.6602 42.758 69.0713 43.7858 69.8936 45.4304C69.8936 43.7858 70.0991 42.9636 70.0991 41.319C71.127 41.5246 71.7437 41.5246 72.9771 41.5246Z" fill="white"/>
<path opacity="0.5" d="M80.5826 46.2526C80.5826 46.6638 80.5826 46.8693 80.377 47.2805C80.1714 47.6916 80.1714 47.8972 79.9659 48.3083C79.7603 48.5139 79.5547 48.925 79.3492 49.1306C79.1436 49.3362 78.938 49.5417 78.5269 49.7473C78.3213 49.9529 77.9102 49.9529 77.4991 50.1584C77.0879 50.1584 76.8823 50.364 76.4712 50.1584C76.0601 50.1584 75.8545 50.1584 75.4434 49.9529C75.0322 49.7473 74.8267 49.7473 74.6211 49.5417C74.4155 49.3362 74.0044 49.1306 73.7988 48.925C73.5933 48.7195 73.3877 48.5139 73.1821 48.1028C72.9766 47.8972 72.9766 47.4861 72.771 47.0749C72.771 46.6638 72.5654 46.4582 72.5654 46.0471C72.5654 45.6359 72.5654 45.4304 72.771 45.0192C72.771 44.6081 72.9766 44.4025 73.1821 43.9914C73.3877 43.7858 73.5933 43.3747 73.7988 43.1691C74.0044 42.9636 74.21 42.758 74.6211 42.5524C74.8267 42.3469 75.2378 42.3469 75.6489 42.1413C76.0601 42.1413 76.2656 41.9357 76.6768 41.9357C77.2935 41.9357 77.7046 42.1413 78.3213 42.3469C78.7325 42.5524 79.1436 42.758 79.5547 43.1691C79.9659 43.5803 80.1714 43.9914 80.377 44.4025C80.5826 45.2248 80.7881 45.6359 80.5826 46.2526ZM77.9102 46.2526C77.9102 46.0471 77.9102 45.8415 77.9102 45.8415C77.9102 45.6359 77.7046 45.4304 77.7046 45.4304C77.7046 45.2248 77.499 45.2248 77.2935 45.0192C77.0879 45.0192 77.0879 44.8137 76.8824 44.8137C76.6768 44.8137 76.4712 44.8137 76.2656 44.8137C76.0601 44.8137 76.0601 45.0192 75.8545 45.0192C75.6489 45.2248 75.6489 45.2248 75.6489 45.4304C75.6489 45.6359 75.6489 45.8415 75.4434 45.8415C75.4434 46.0471 75.4434 46.2526 75.4434 46.2526C75.4434 46.4582 75.6489 46.6638 75.6489 46.6638C75.6489 46.8694 75.8545 46.8693 76.0601 47.0749C76.2656 47.0749 76.2656 47.2805 76.4712 47.2805C76.6768 47.2805 76.8823 47.2805 77.0879 47.2805C77.2935 47.2805 77.2935 47.0749 77.4991 47.0749C77.7046 46.8693 77.7046 46.8694 77.7046 46.6638C77.9102 46.6638 77.9102 46.4582 77.9102 46.2526Z" fill="white"/>
<path opacity="0.5" d="M87.1607 47.8972C87.1607 48.5139 86.9551 48.925 86.7495 49.3362C86.544 49.7473 86.3384 49.9529 85.9273 50.1584C85.5161 50.364 85.105 50.5696 84.6939 50.5696C84.2827 50.5696 83.8716 50.7751 83.2549 50.5696C83.0493 50.5696 82.8438 50.5696 82.6382 50.364C82.4326 50.364 82.2271 50.1584 82.0215 50.1584C81.8159 50.1584 81.6104 49.9529 81.4048 49.9529C81.1992 49.9529 80.9937 49.7473 80.7881 49.7473C80.9937 48.7195 80.9937 48.3083 81.1992 47.4861C81.6104 47.6916 81.8159 47.8972 82.2271 48.1028C82.6382 48.3083 83.0493 48.3083 83.4605 48.3083H83.666C83.8716 48.3083 83.8716 48.3083 84.0772 48.3083C84.0772 48.3083 84.2827 48.3083 84.2827 48.1028L84.4883 47.8972V47.6916L84.2827 47.4861H84.0772H83.8716H83.666H83.4605C83.0493 47.4861 82.8438 47.486 82.4326 47.2805C82.2271 47.0749 82.0215 47.0749 81.8159 46.8693C81.6104 46.6638 81.4048 46.4582 81.4048 46.0471C81.4048 45.8415 81.1992 45.4304 81.1992 45.0192C81.1992 44.6081 81.4048 44.197 81.6104 43.7858C81.8159 43.3747 82.0215 43.1691 82.4326 42.9636C82.8438 42.758 83.2549 42.5524 83.666 42.3469C84.0772 42.1413 84.4883 42.1413 84.8994 42.1413C85.105 42.1413 85.3106 42.1413 85.5161 42.1413C85.7217 42.1413 85.9273 42.1413 86.1328 42.3469C86.3384 42.3469 86.544 42.5524 86.7495 42.5524C86.9551 42.5524 87.1607 42.758 87.3662 42.758C87.1607 43.7858 87.1607 44.197 86.9551 45.2248C86.7495 45.0192 86.3384 45.0192 86.1328 45.0192C85.9273 45.0192 85.5161 44.8137 85.3106 44.8137H85.105H84.8994H84.6939H84.4883C84.4883 44.8137 84.2827 44.8137 84.2827 45.0192V45.2248V45.4304C84.2827 45.4304 84.4883 45.4304 84.4883 45.6359C84.4883 45.6359 84.6939 45.6359 84.8994 45.6359C85.105 45.6359 85.105 45.6359 85.3106 45.6359C85.5161 45.6359 85.5161 45.6359 85.7217 45.6359H85.9273C86.3384 45.6359 86.544 45.8415 86.7495 45.8415C86.9551 46.0471 87.1607 46.0471 87.3662 46.2526C87.5718 46.4582 87.5718 46.6638 87.7774 46.8693C87.1607 47.2805 87.1607 47.486 87.1607 47.8972Z" fill="white"/>
</g>
</g>
<path d="M44.1973 41.319C44.1973 44.6081 44.1973 46.2526 43.9917 49.5417C42.9639 49.7473 42.5527 49.7473 41.5249 49.9529C41.3193 46.6638 41.1138 45.0192 40.9082 41.9357C42.1416 41.5246 42.7583 41.319 44.1973 41.319Z" fill="#982E74"/>
<path d="M50.5699 40.9079C50.5699 41.9358 50.3643 42.3469 50.3643 43.3747C50.1587 43.3747 50.1587 43.3747 49.9532 43.3747C49.7476 43.3747 49.7476 43.3747 49.542 43.3747C49.3365 43.3747 48.9253 43.3747 48.7198 43.5803C48.5142 43.5803 48.3086 43.7859 48.103 43.9914C47.8975 44.197 47.6919 44.4026 47.6919 44.6081C47.6919 44.8137 47.4863 45.2248 47.4863 45.4304C47.4863 45.636 47.4863 45.8415 47.6919 46.0471C47.6919 46.2527 47.8975 46.2527 47.8975 46.4582C48.103 46.4582 48.103 46.6638 48.3086 46.6638C48.5142 46.6638 48.7197 46.6638 48.9253 46.6638C49.1309 46.6638 49.1309 46.6638 49.3365 46.6638C49.542 46.6638 49.7476 46.6638 49.7476 46.4582C49.9532 46.4582 49.9532 46.2527 50.1587 46.2527C50.3643 46.2527 50.3643 46.0471 50.5699 46.0471C50.5699 47.0749 50.5699 47.6916 50.3643 48.925C50.1587 48.925 49.9532 49.1306 49.9532 49.1306C49.7476 49.1306 49.542 49.3362 49.3365 49.3362C49.1309 49.3362 48.9253 49.3362 48.7198 49.5418C48.5142 49.5418 48.3086 49.5418 48.103 49.5418C47.6919 49.5418 47.0752 49.5417 46.6641 49.3362C46.2529 49.1306 45.8418 48.925 45.4307 48.7195C45.0195 48.5139 44.814 48.1028 44.6084 47.6916C44.4028 47.2805 44.1973 46.8694 44.1973 46.2527C44.1973 45.636 44.1973 45.0193 44.4028 44.4026C44.6084 43.7859 44.814 43.1692 45.2251 42.758C45.6362 42.3469 46.0474 41.9358 46.6641 41.5246C47.2808 41.3191 47.8975 41.1135 48.7198 41.1135C48.9253 41.1135 49.3365 41.1135 49.542 41.1135C49.9532 40.7023 50.3643 40.7023 50.5699 40.9079Z" fill="#982E74"/>
<path d="M60.437 44.197C60.437 44.8137 60.437 45.2248 60.2315 45.636C60.0259 46.0471 59.8203 46.4582 59.6148 46.8694C59.4092 47.2805 58.9981 47.4861 58.7925 47.6916C58.3814 47.8972 57.9702 48.1028 57.5591 48.3083C57.148 48.5139 56.7368 48.5139 56.1201 48.7195C55.709 48.7195 55.0923 48.925 54.6812 48.925C54.4756 48.925 54.27 48.925 54.0645 48.925C53.8589 48.925 53.6533 48.925 53.4478 48.925C53.4478 45.636 53.4478 44.197 53.2422 40.9079C53.6533 40.7023 54.0645 40.7023 54.6812 40.4968C55.0923 40.4968 55.709 40.2912 56.1201 40.2912C56.7368 40.2912 57.148 40.2912 57.7647 40.4968C58.1758 40.7023 58.5869 40.9079 58.9981 41.1135C59.4092 41.5246 59.6148 41.7302 59.8203 42.3469C60.2315 43.1691 60.437 43.5803 60.437 44.197ZM57.9702 44.6081C57.9702 44.4025 57.9702 44.197 57.9702 43.9914C57.9702 43.7858 57.7647 43.5803 57.7647 43.3747C57.5591 43.3747 57.3535 43.1691 57.148 43.1691C56.9424 43.1691 56.7368 42.9636 56.5313 42.9636C56.5313 44.4025 56.5313 45.2248 56.3257 46.6638C56.5313 46.6638 56.7368 46.4582 56.9424 46.4582C57.148 46.2527 57.3535 46.2527 57.3535 46.0471C57.5591 45.8415 57.5591 45.636 57.7647 45.4304C57.9702 45.2248 57.9702 45.0193 57.9702 44.6081C57.9702 44.6081 57.9702 44.8137 57.9702 44.6081Z" fill="#982E74"/>
<path d="M64.1372 40.4968C63.9317 43.7858 63.7261 45.4304 63.5205 48.7195C62.4927 48.7195 62.0815 48.7195 61.0537 48.925C61.0537 45.6359 61.0537 43.9914 61.0537 40.9079C62.0815 40.7023 62.6983 40.7023 64.1372 40.4968Z" fill="#982E74"/>
<path d="M72.9771 40.4968C72.7715 43.7858 72.566 45.4304 72.3604 48.5139C71.127 48.5139 70.5103 48.7195 69.2769 48.7195C68.6602 47.0749 68.249 46.0471 67.6323 44.4025C67.4268 46.2527 67.4268 47.0749 67.2212 48.7195C66.1934 48.7195 65.5767 48.7195 64.5488 48.7195C64.5488 45.4304 64.7544 43.5803 64.7544 40.2912C65.9878 40.2912 66.6045 40.2912 67.8379 40.0856C68.6602 41.7302 69.0713 42.758 69.8936 44.4025C69.8936 42.758 70.0991 41.9357 70.0991 40.2912C71.127 40.4968 71.7437 40.4968 72.9771 40.4968Z" fill="#982E74"/>
<path d="M80.5826 45.2248C80.5826 45.6359 80.5826 45.8415 80.377 46.2527C80.1714 46.6638 80.1714 46.8694 79.9659 47.2805C79.7603 47.4861 79.5547 47.8972 79.3492 48.1028C79.1436 48.3083 78.938 48.5139 78.5269 48.7195C78.3213 48.925 77.9102 48.925 77.4991 49.1306C77.0879 49.1306 76.8823 49.3362 76.4712 49.1306C76.0601 49.1306 75.8545 49.1306 75.4434 48.925C75.0322 48.7195 74.8267 48.7195 74.6211 48.5139C74.4155 48.3083 74.0044 48.1028 73.7988 47.8972C73.5933 47.6916 73.3877 47.4861 73.1821 47.0749C72.9766 46.8694 72.9766 46.4582 72.771 46.0471C72.771 45.6359 72.5654 45.4304 72.5654 45.0192C72.5654 44.6081 72.5654 44.4025 72.771 43.9914C72.771 43.5803 72.9766 43.3747 73.1821 42.9636C73.3877 42.758 73.5933 42.3469 73.7988 42.1413C74.0044 41.9357 74.21 41.7302 74.6211 41.5246C74.8267 41.319 75.2378 41.319 75.6489 41.1135C76.0601 41.1135 76.2656 40.9079 76.6768 40.9079C77.2935 40.9079 77.7046 41.1135 78.3213 41.319C78.7325 41.5246 79.1436 41.7302 79.5547 42.1413C79.9659 42.5524 80.1714 42.9636 80.377 43.3747C80.5826 43.9914 80.7881 44.6081 80.5826 45.2248ZM77.9102 45.2248C77.9102 45.0192 77.9102 44.8137 77.9102 44.8137C77.9102 44.6081 77.7046 44.4025 77.7046 44.4025C77.7046 44.197 77.499 44.197 77.2935 43.9914C77.0879 43.9914 77.0879 43.7858 76.8824 43.7858C76.6768 43.7858 76.4712 43.7858 76.2656 43.7858C76.0601 43.7858 76.0601 43.9914 75.8545 43.9914C75.6489 44.197 75.6489 44.197 75.6489 44.4025C75.6489 44.6081 75.6489 44.8137 75.4434 44.8137C75.4434 45.0192 75.4434 45.2248 75.4434 45.2248C75.4434 45.4304 75.6489 45.636 75.6489 45.636C75.6489 45.8415 75.8545 45.8415 76.0601 46.0471C76.2656 46.0471 76.2656 46.2527 76.4712 46.2527C76.6768 46.2527 76.8823 46.2527 77.0879 46.2527C77.2935 46.2527 77.2935 46.0471 77.4991 46.0471C77.7046 45.8415 77.7046 45.8415 77.7046 45.636C77.9102 45.636 77.9102 45.4304 77.9102 45.2248Z" fill="#982E74"/>
<path d="M87.1607 46.8694C87.1607 47.4861 86.9551 47.8972 86.7495 48.3083C86.544 48.7195 86.3384 48.925 85.9273 49.1306C85.5161 49.3362 85.105 49.5417 84.6939 49.5417C84.2827 49.5417 83.8716 49.7473 83.2549 49.5417C83.0493 49.5417 82.8438 49.5417 82.6382 49.3362C82.4326 49.3362 82.2271 49.1306 82.0215 49.1306C81.8159 49.1306 81.6104 48.925 81.4048 48.925C81.1992 48.925 80.9937 48.7195 80.7881 48.7195C80.9937 47.6916 80.9937 47.2805 81.1992 46.4582C81.6104 46.6638 81.8159 46.8694 82.2271 47.0749C82.6382 47.2805 83.0493 47.2805 83.4605 47.2805H83.666C83.8716 47.2805 83.8716 47.2805 84.0772 47.2805C84.0772 47.2805 84.2827 47.2805 84.2827 47.0749L84.4883 46.8694V46.6638L84.2827 46.4582H84.0772H83.8716H83.666H83.4605C83.0493 46.4582 82.8438 46.4582 82.4326 46.2527C82.2271 46.0471 82.0215 46.0471 81.8159 45.8415C81.6104 45.6359 81.4048 45.4304 81.4048 45.0192C81.4048 44.8137 81.1992 44.4025 81.1992 43.9914C81.1992 43.5803 81.4048 43.1691 81.6104 42.758C81.8159 42.3469 82.0215 42.1413 82.4326 41.9357C82.8438 41.7302 83.2549 41.5246 83.666 41.319C83.8716 41.1135 84.2827 41.1135 84.6939 41.1135C84.8994 41.1135 85.105 41.1135 85.3106 41.1135C85.5161 41.1135 85.7217 41.1135 85.9273 41.319C86.1328 41.319 86.3384 41.5246 86.544 41.5246C86.7495 41.5246 86.9551 41.7302 87.1607 41.7302C86.9551 42.758 86.9551 43.1691 86.7495 44.197C86.544 43.9914 86.1328 43.9914 85.9273 43.9914C85.7217 43.9914 85.3106 43.7858 85.105 43.7858H84.8994H84.6939H84.4883H84.2827C84.2827 43.7858 84.0772 43.7858 84.0772 43.9914V44.197V44.4025C84.0772 44.4025 84.2827 44.4025 84.2827 44.6081C84.2827 44.6081 84.4883 44.6081 84.6939 44.6081C84.8994 44.6081 84.8994 44.6081 85.105 44.6081C85.3106 44.6081 85.3106 44.6081 85.5161 44.6081H85.7217C86.1328 44.6081 86.3384 44.8137 86.544 44.8137C86.7495 45.0192 86.9551 45.0192 87.1607 45.2248C87.3662 45.4304 87.3662 45.6359 87.5718 45.8415C87.1607 46.2526 87.1607 46.4582 87.1607 46.8694Z" fill="#982E74"/>
<path d="M44.1973 41.7302C44.1973 45.0192 44.1973 46.6638 43.9917 49.9529C42.9639 50.1584 42.5527 50.1584 41.5249 50.364C41.3193 47.0749 41.1138 45.4304 40.9082 42.3469C42.1416 41.9357 42.7583 41.9357 44.1973 41.7302Z" fill="#C14691"/>
<path d="M50.5699 41.319C50.5699 42.3469 50.3643 42.758 50.3643 43.7858C50.1587 43.7858 50.1587 43.7858 49.9532 43.7858C49.7476 43.7858 49.7476 43.7858 49.542 43.7858C49.3365 43.7858 48.9253 43.7858 48.7198 43.9914C48.5142 43.9914 48.3086 44.197 48.103 44.4025C47.8975 44.6081 47.6919 44.8137 47.6919 45.0192C47.4863 45.2248 47.4863 45.6359 47.4863 45.8415C47.4863 46.0471 47.4863 46.2526 47.6919 46.4582C47.6919 46.6638 47.8975 46.6638 47.8975 46.8693C48.103 46.8693 48.103 47.0749 48.3086 47.0749C48.5142 47.0749 48.7197 47.0749 48.9253 47.0749C49.1309 47.0749 49.1309 47.0749 49.3365 47.0749C49.542 47.0749 49.7476 47.0749 49.7476 46.8693C49.9532 46.8693 49.9532 46.6638 50.1587 46.6638C50.3643 46.6638 50.3643 46.4582 50.5699 46.4582C50.5699 47.4861 50.5699 48.1028 50.3643 49.3362C50.1587 49.3362 49.9532 49.5417 49.9532 49.5417C49.7476 49.5417 49.542 49.7473 49.3365 49.7473C49.1309 49.7473 48.9253 49.7473 48.7198 49.9529C48.5142 49.9529 48.3086 49.9529 48.103 49.9529C47.6919 49.9529 47.0752 49.9529 46.6641 49.7473C46.2529 49.5417 45.8418 49.3362 45.4307 49.1306C45.0195 48.925 44.814 48.5139 44.6084 48.1028C44.4028 47.6916 44.1973 47.2805 44.1973 46.6638C44.1973 46.0471 44.1973 45.4304 44.4028 44.8137C44.6084 44.197 44.814 43.5803 45.2251 43.1691C45.6362 42.758 46.0474 42.3469 46.6641 41.9357C47.2808 41.7302 47.8975 41.5246 48.7198 41.5246C48.9253 41.5246 49.3365 41.5246 49.542 41.5246C49.9532 41.1135 50.3643 41.319 50.5699 41.319Z" fill="#C14691"/>
<path d="M60.437 44.8137C60.437 45.4304 60.437 45.8415 60.2315 46.2527C60.0259 46.6638 59.8203 47.0749 59.6148 47.4861C59.4092 47.8972 58.9981 48.1028 58.7925 48.3083C58.3814 48.5139 57.9702 48.7195 57.5591 48.925C57.148 49.1306 56.7368 49.1306 56.1201 49.3362C55.709 49.3362 55.0923 49.5417 54.6812 49.5417C54.4756 49.5417 54.27 49.5417 54.0645 49.5417C53.8589 49.5417 53.6533 49.5417 53.4478 49.5417C53.4478 46.2527 53.4478 44.8137 53.2422 41.5246C53.6533 41.319 54.0645 41.319 54.6812 41.1135C55.0923 41.1135 55.709 40.9079 56.1201 40.9079C56.7368 40.9079 57.148 40.9079 57.7647 41.1135C58.1758 41.319 58.5869 41.5246 58.9981 41.7302C59.4092 42.1413 59.6148 42.3469 59.8203 42.9636C60.2315 43.5803 60.437 44.197 60.437 44.8137ZM57.9702 45.2248C57.9702 45.0192 57.9702 44.8137 57.9702 44.6081C57.9702 44.4025 57.7647 44.197 57.7647 43.9914C57.5591 43.7858 57.5591 43.7858 57.3535 43.5803C57.148 43.5803 56.9424 43.3747 56.7368 43.3747C56.7368 44.8137 56.7368 45.6359 56.5313 47.0749C56.7368 47.0749 56.9424 46.8694 57.148 46.8694C57.3535 46.6638 57.5591 46.6638 57.5591 46.4582C57.7647 46.2527 57.7647 46.0471 57.9702 45.8415C57.9702 45.6359 57.9702 45.4304 57.9702 45.2248Z" fill="#C14691"/>
<path d="M64.1372 41.1135C63.9317 44.4025 63.7261 46.0471 63.5205 49.3362C62.4927 49.3362 62.0815 49.3362 61.0537 49.5417C61.0537 46.2527 61.0537 44.6081 61.0537 41.5246C62.0815 41.1135 62.6983 41.1135 64.1372 41.1135Z" fill="#C14691"/>
<path d="M72.9771 40.9079C72.7715 44.197 72.566 45.8415 72.3604 48.925C71.127 48.925 70.5103 49.1306 69.2769 49.1306C68.6602 47.4861 68.249 46.4582 67.6323 44.8137C67.4268 46.6638 67.4268 47.4861 67.2212 49.1306C66.1934 49.1306 65.5767 49.1306 64.5488 49.1306C64.5488 45.8415 64.7544 43.9914 64.7544 40.7023C65.9878 40.7023 66.6045 40.7023 67.8379 40.4968C68.6602 42.1413 69.0713 43.1691 69.8936 44.8137C69.8936 43.1691 70.0991 42.3469 70.0991 40.7023C71.127 41.1135 71.7437 40.9079 72.9771 40.9079Z" fill="#C14691"/>
<path d="M80.583 45.6359C80.583 46.0471 80.583 46.2527 80.3775 46.6638C80.1719 47.0749 80.1719 47.2805 79.9663 47.6916C79.7608 47.8972 79.5552 48.3083 79.3496 48.5139C79.1441 48.7195 78.9385 48.925 78.5274 49.1306C78.3218 49.1306 78.1162 49.3362 77.7051 49.3362C77.294 49.3362 77.0884 49.5417 76.6773 49.3362C76.2661 49.3362 76.0606 49.3362 75.6494 49.1306C75.2383 48.925 75.0327 48.925 74.8272 48.7195C74.6216 48.5139 74.2105 48.3083 74.0049 48.1028C73.7993 47.8972 73.5938 47.6916 73.3882 47.2805C73.1826 47.0749 73.1826 46.6638 72.977 46.2527C72.977 45.8415 72.7715 45.6359 72.7715 45.2248C72.7715 44.8137 72.7715 44.6081 72.977 44.197C72.977 43.7858 73.1826 43.5803 73.3882 43.1691C73.5938 42.9636 73.7993 42.5524 74.0049 42.3469C74.2105 42.1413 74.416 41.9357 74.8272 41.7302C75.0327 41.5246 75.4439 41.5246 75.855 41.319C76.2661 41.319 76.4717 41.1135 76.8828 41.1135C77.4995 41.1135 77.9107 41.319 78.5274 41.5246C78.9385 41.7302 79.3496 41.9357 79.7608 42.3469C80.1719 42.758 80.3775 43.1691 80.583 43.5803C80.583 44.6081 80.7886 45.0192 80.583 45.6359ZM77.9107 45.6359C77.9107 45.4304 77.9107 45.2248 77.9107 45.2248C77.9107 45.0192 77.7051 44.8137 77.7051 44.8137C77.7051 44.6081 77.4995 44.6081 77.294 44.4025C77.0884 44.4025 77.0884 44.197 76.8828 44.197C76.6773 44.197 76.4717 44.197 76.2661 44.197C76.0606 44.197 76.0606 44.4025 75.855 44.4025C75.6494 44.6081 75.6494 44.6081 75.6494 44.8137C75.6494 45.0192 75.6494 45.2248 75.4439 45.2248C75.4439 45.4304 75.4439 45.6359 75.4439 45.6359C75.4439 45.8415 75.6494 46.0471 75.6494 46.0471C75.6494 46.2526 75.855 46.2527 76.0606 46.4582C76.2661 46.4582 76.2661 46.6638 76.4717 46.6638C76.6773 46.6638 76.8828 46.6638 77.0884 46.6638C77.294 46.6638 77.294 46.4582 77.4995 46.4582C77.7051 46.2527 77.7051 46.2526 77.7051 46.0471C77.9107 46.0471 77.9107 45.8415 77.9107 45.6359Z" fill="#C14691"/>
<path d="M87.1607 47.2805C87.1607 47.8972 86.9551 48.3083 86.7495 48.7195C86.544 49.1306 86.3384 49.3362 85.9273 49.5417C85.5161 49.7473 85.105 49.9529 84.6939 49.9529C84.2827 49.9529 83.8716 50.1584 83.2549 49.9529C83.0493 49.9529 82.8438 49.9529 82.6382 49.7473C82.4326 49.7473 82.2271 49.5417 82.0215 49.5417C81.8159 49.5417 81.6104 49.3362 81.4048 49.3362C81.1992 49.3362 80.9937 49.1306 80.7881 49.1306C80.9937 48.1028 80.9937 47.6916 81.1992 46.8693C81.6104 47.0749 81.8159 47.2805 82.2271 47.4861C82.6382 47.6916 83.0493 47.6916 83.4605 47.6916H83.666C83.8716 47.6916 83.8716 47.6916 84.0772 47.6916C84.0772 47.6916 84.2827 47.6916 84.2827 47.4861L84.4883 47.2805V47.0749L84.2827 46.8693H84.0772H83.8716H83.666H83.4605C83.0493 46.8693 82.8438 46.8694 82.4326 46.6638C82.2271 46.4582 82.0215 46.4582 81.8159 46.2526C81.6104 46.0471 81.4048 45.8415 81.4048 45.4304C81.4048 45.2248 81.1992 44.8137 81.1992 44.4025C81.1992 43.9914 81.4048 43.5803 81.6104 43.1691C81.8159 42.758 82.0215 42.5524 82.4326 42.3469C82.8438 42.1413 83.2549 41.9357 83.666 41.7302C84.0772 41.5246 84.4883 41.5246 84.8994 41.5246C85.105 41.5246 85.3106 41.5246 85.5161 41.5246C85.7217 41.5246 85.9273 41.5246 86.1328 41.7302C86.3384 41.7302 86.544 41.9357 86.7495 41.9357C86.9551 41.9357 87.1607 42.1413 87.3662 42.1413C87.1607 43.1691 87.1607 43.5803 86.9551 44.6081C86.7495 44.4025 86.3384 44.4025 86.1328 44.4025C85.9273 44.4025 85.5161 44.197 85.3106 44.197H85.105H84.8994H84.6939H84.4883C84.4883 44.197 84.2827 44.197 84.2827 44.4025V44.6081V44.8137C84.2827 44.8137 84.4883 44.8137 84.4883 45.0192C84.4883 45.0192 84.6939 45.0192 84.8994 45.0192C85.105 45.0192 85.105 45.0192 85.3106 45.0192C85.5161 45.0192 85.5161 45.0192 85.7217 45.0192H85.9273C86.3384 45.0192 86.544 45.2248 86.7495 45.2248C86.9551 45.4304 87.1607 45.4304 87.3662 45.6359C87.5718 45.8415 87.5718 46.0471 87.7774 46.2526C87.1607 46.6638 87.1607 46.8693 87.1607 47.2805Z" fill="#C14691"/>
<defs>
<linearGradient id="paint0_linear_393_973" x1="67.1826" y1="192" x2="67.1826" y2="-0.0503839" gradientUnits="userSpaceOnUse">
<stop stop-color="#B42EB2"/>
<stop offset="1" stop-color="#C340A4"/>
</linearGradient>
<radialGradient id="paint1_radial_393_973" cx="0" cy="0" r="1" gradientUnits="userSpaceOnUse" gradientTransform="translate(66.9729 96.0964) rotate(-90) scale(95.8853 71.866)">
<stop offset="0.5119" stop-color="#FF7C98"/>
<stop offset="1" stop-color="#E859A9"/>
</radialGradient>
<linearGradient id="paint2_linear_393_973" x1="17.7104" y1="44.5882" x2="113.622" y2="158.891" gradientUnits="userSpaceOnUse">
<stop stop-color="#FFB8FF"/>
<stop offset="1" stop-color="#FF82C0"/>
</linearGradient>
<radialGradient id="paint3_radial_393_973" cx="0" cy="0" r="1" gradientUnits="userSpaceOnUse" gradientTransform="translate(35.6331 -0.537573) scale(111.825)">
<stop stop-color="white" stop-opacity="0.5"/>
<stop offset="1" stop-color="white" stop-opacity="0.25"/>
</radialGradient>
<radialGradient id="paint4_radial_393_973" cx="0" cy="0" r="1" gradientUnits="userSpaceOnUse" gradientTransform="translate(28.9324 -24.7287) scale(123.467)">
<stop stop-color="white" stop-opacity="0.5"/>
<stop offset="1" stop-color="white" stop-opacity="0.25"/>
</radialGradient>
<radialGradient id="paint5_radial_393_973" cx="0" cy="0" r="1" gradientUnits="userSpaceOnUse" gradientTransform="translate(22.6627 72.5371) scale(129.399)">
<stop stop-color="white"/>
<stop offset="0.9987" stop-color="white" stop-opacity="0.5"/>
</radialGradient>
</defs>
</svg>
