<svg width="135" height="194" viewBox="0 0 135 194" fill="none" xmlns="http://www.w3.org/2000/svg">
<path d="M3.51944 143.111C3.51944 143.319 3.51944 143.527 3.72649 143.734C10.1452 167.621 30.4366 194 66.8783 194C67.0854 194 67.4995 194 67.7066 194C67.9136 194 68.3277 194 68.5348 194C104.976 194 125.268 167.413 131.687 143.734C131.687 143.734 132.308 141.242 132.722 138.749C132.722 138.542 132.722 138.334 132.929 137.919C133.964 132.934 134.585 127.949 134.999 122.756C135.207 119.433 135.207 115.902 135.207 112.578C135.207 109.255 134.999 106.139 134.792 102.816C134.585 97.8308 133.757 93.0536 132.722 88.2762C130.651 77.4754 127.131 66.0514 121.748 54.212C119.677 49.4347 117.193 44.6574 114.708 40.0878C109.739 31.1563 103.941 22.6403 96.9013 15.3705C93.5884 11.8394 90.0685 8.72378 85.9274 6.23128C80.3369 2.49252 74.3323 0.207723 67.2924 0.415432C63.9796 0.415432 60.6667 1.03856 57.3538 2.0771C53.0056 3.73877 49.0716 6.02357 45.3446 8.93149C40.3753 12.878 36.2342 17.4476 32.3001 22.2249C26.2955 29.7024 21.3262 38.0107 16.978 46.5268C9.52404 61.4818 4.1406 77.2677 1.44888 93.8844C0.827718 97.4154 0.413607 100.946 0.413607 104.478C0.413607 106.555 0.206552 108.632 0.206552 110.501C-0.000503257 116.525 0.206552 122.34 0.827718 128.364C1.24183 133.349 2.2771 138.334 3.51944 143.111ZM97.5225 92.8458C97.5225 93.0536 97.5225 93.0536 97.5225 92.8458C97.3154 93.0536 97.3154 93.0536 97.5225 92.8458C97.3154 92.8458 97.3154 92.8458 97.5225 92.8458ZM79.3016 183.199C79.3016 183.407 79.3016 183.407 79.3016 183.199C79.3016 183.407 79.3016 183.407 79.3016 183.199C79.3016 183.407 79.3016 183.407 79.3016 183.199C79.0946 183.407 79.3016 183.407 79.3016 183.199Z" fill="url(#paint0_linear_393_1097)"/>
<path d="M4.14055 142.488C4.14055 142.696 4.14055 142.904 4.14055 143.111C10.3522 166.582 30.6436 192.754 66.4642 192.754C66.6712 192.754 67.0853 192.754 67.2924 192.754C67.4994 192.754 67.7065 192.754 68.1206 192.754C104.148 192.754 124.233 166.582 130.444 143.111C130.444 143.111 131.065 140.619 131.48 138.126C131.48 137.919 131.48 137.711 131.687 137.503C132.722 132.518 133.343 127.533 133.55 122.548C133.757 119.225 133.757 115.901 133.757 112.37C133.757 109.255 133.55 105.931 133.343 102.816C133.136 98.0386 132.308 93.2612 131.272 88.4839C129.202 77.8908 125.682 66.6745 120.506 54.8351C118.435 50.0578 116.157 45.4882 113.466 40.9186C108.496 31.9872 102.906 23.6788 95.866 16.409C92.5531 13.0857 89.0332 9.97003 85.0991 7.26982C79.5086 3.53106 73.5041 1.24627 66.6712 1.45398C63.3583 1.45398 60.0455 2.0771 56.9396 3.11565C52.5915 4.77732 48.6574 7.06211 45.1375 9.97004C40.3752 13.7088 36.0271 18.2784 32.3001 23.0557C26.2955 30.5332 21.5332 38.6338 17.185 47.1499C9.73104 62.1049 4.34761 77.6831 1.86295 94.0921C1.24178 97.6231 0.82767 100.946 0.82767 104.478C0.82767 106.555 0.620614 108.424 0.620614 110.501C0.413559 116.317 0.620614 122.34 1.24178 128.156C2.07 132.934 2.89822 137.711 4.14055 142.488ZM97.1083 92.8458C97.1083 92.8458 97.1083 93.0535 97.1083 92.8458C97.1083 93.0535 97.1083 93.0535 97.1083 92.8458C96.9013 93.0535 96.9013 93.0535 97.1083 92.8458C96.9013 92.8458 97.1083 92.8458 97.1083 92.8458ZM79.0945 182.161C79.0945 182.161 79.0945 182.368 79.0945 182.161C79.0945 182.368 79.0945 182.368 79.0945 182.161C79.0945 182.368 79.0945 182.368 79.0945 182.161C79.0945 182.368 79.0945 182.161 79.0945 182.161Z" fill="url(#paint1_radial_393_1097)"/>
<path d="M11.3876 137.296C11.3876 137.503 11.3876 137.503 11.3876 137.919C16.9781 158.69 34.7848 181.953 66.6714 181.953C66.8784 181.953 67.0855 181.953 67.2925 181.953C67.4996 181.953 67.7066 181.953 67.9137 181.953C99.8002 181.953 117.607 158.69 123.197 137.919C123.197 137.919 123.612 135.842 124.233 133.557C124.233 133.349 124.233 133.141 124.44 132.934C125.268 128.572 125.889 124.21 126.096 119.64C126.303 116.732 126.303 113.617 126.303 110.709C126.303 107.801 126.096 105.101 126.096 102.193C125.889 97.8308 125.268 93.6767 124.44 89.5225C122.576 80.1756 119.47 70.2056 114.915 59.6124C113.052 55.4583 110.981 51.3041 108.704 47.1499C104.355 39.257 99.3861 31.9872 92.9674 25.3405C90.0686 22.2248 86.9628 19.5246 83.4428 17.2398C78.4735 13.9165 73.2971 12.0471 67.0855 12.0471C64.1867 12.0471 61.2879 12.4625 58.3891 13.5011C54.4551 14.955 51.1422 17.0321 47.8293 19.5246C43.4812 22.848 39.7542 27.0021 36.4413 31.1563C31.2649 37.803 26.9167 44.8651 22.9827 52.5503C16.3569 65.8437 11.5947 79.5525 9.31705 94.2998C8.90294 97.4154 8.48883 100.531 8.28177 103.439C8.28177 105.308 8.28177 106.97 8.07472 108.839C7.86766 114.032 8.07472 119.225 8.69588 124.418C9.5241 128.779 10.3523 133.141 11.3876 137.296ZM93.5885 93.469C93.7956 93.469 93.7956 93.469 93.5885 93.469C93.7956 93.469 93.7956 93.469 93.5885 93.469ZM77.8523 172.606C77.8523 172.606 77.6453 172.606 77.8523 172.606C77.6453 172.606 77.8523 172.606 77.8523 172.606Z" fill="url(#paint2_linear_393_1097)"/>
<g opacity="0.7">
<path opacity="0.7" d="M93.5889 90.3533C93.7959 90.561 93.7959 90.3533 93.5889 90.3533C93.7959 90.3533 93.7959 90.3533 93.5889 90.3533Z" fill="white"/>
<path opacity="0.7" d="M126.304 116.525C126.097 120.887 125.475 125.456 124.647 129.818C124.647 130.026 124.647 130.233 124.44 130.441C124.026 132.726 123.405 134.803 123.405 134.803C117.814 155.574 100.008 178.837 68.1211 178.837C67.9141 178.837 67.707 178.837 67.5 178.837C67.2929 178.837 67.0859 178.837 66.8788 178.837C34.9923 178.837 17.1856 155.574 11.5951 134.803C11.5951 134.595 11.5951 134.388 11.5951 134.18C10.5598 130.026 9.73157 125.664 9.31746 121.302C8.90334 117.771 8.69629 114.448 8.69629 110.917C8.69629 115.486 8.90334 119.848 9.31746 124.418C9.52451 128.779 10.3527 133.141 11.388 137.296C11.388 137.503 11.388 137.503 11.388 137.919C16.9785 158.69 34.7852 181.953 66.6717 181.953C66.8788 181.953 67.0859 181.953 67.2929 181.953C67.5 181.953 67.707 181.953 67.9141 181.953C99.8006 181.953 117.607 158.69 123.198 137.919C123.198 137.919 123.612 135.842 124.233 133.557C124.233 133.349 124.233 133.141 124.44 132.934C125.268 128.572 125.89 124.21 126.097 119.64C126.304 116.732 126.304 113.617 126.304 110.709C126.304 110.501 126.304 110.086 126.304 109.878C126.511 111.955 126.511 114.24 126.304 116.525Z" fill="white"/>
<path opacity="0.7" d="M77.8528 169.49C77.8528 169.49 77.6457 169.49 77.8528 169.49C77.6457 169.698 77.8528 169.698 77.8528 169.49C77.8528 169.698 77.8528 169.698 77.8528 169.49Z" fill="white"/>
</g>
<g opacity="0.7">
<path opacity="0.7" d="M8.48828 112.994C8.48828 111.124 8.48828 109.255 8.69534 107.385C8.90239 104.27 9.10945 100.946 9.73061 97.8308C12.0082 82.6681 16.7705 68.5439 23.3963 54.8351C27.1233 47.1499 31.4714 39.6724 36.8548 32.818C40.1677 28.4561 43.8947 24.3019 48.2429 20.7709C51.5558 18.0707 54.8687 15.9936 58.8027 14.5396C61.7015 13.5011 64.6002 13.0857 67.499 13.0857C73.5036 12.878 78.8871 15.1627 83.8564 18.4861C87.3763 20.7709 90.4822 23.6788 93.3809 26.7944C99.5926 33.4411 104.562 41.1264 109.117 49.227C111.395 53.3812 113.465 57.743 115.329 62.1049C119.884 72.9058 122.99 83.2912 124.853 93.0535C125.682 97.4154 126.303 101.777 126.51 106.139C126.717 108.632 126.717 111.124 126.717 113.617C126.717 112.578 126.717 111.747 126.717 110.709C126.717 107.801 126.51 105.101 126.51 102.193C126.303 97.8308 125.682 93.6767 124.853 89.5225C122.99 80.1756 119.884 70.2056 115.329 59.6124C113.465 55.4583 111.395 51.3041 109.117 47.1499C104.769 39.257 99.7996 31.9872 93.3809 25.3405C90.4822 22.2248 87.3763 19.5246 83.8564 17.2398C78.8871 13.9165 73.7107 12.0471 67.499 12.0471C64.6002 12.0471 61.7015 12.4625 58.8027 13.5011C54.8687 14.955 51.5558 17.0321 48.2429 19.5246C43.8947 22.848 40.1677 27.0022 36.8548 31.1563C31.6785 37.803 27.3303 44.8651 23.3963 52.5503C16.7705 65.8437 12.0082 79.5525 9.73061 94.2998C9.3165 97.4154 8.90239 100.531 8.69534 103.439C8.69534 105.308 8.69534 106.97 8.48828 108.839C8.48828 110.709 8.48828 112.578 8.48828 114.448C8.48828 114.032 8.48828 113.617 8.48828 112.994Z" fill="white"/>
<path opacity="0.7" d="M93.5879 97.2077C93.7949 97.2077 93.7949 97.2077 93.5879 97.2077C93.7949 97 93.7949 97 93.5879 97.2077C93.5879 97 93.5879 97 93.5879 97.2077Z" fill="white"/>
</g>
<path fill-rule="evenodd" clip-rule="evenodd" d="M94.6233 27.2099L8.48828 113.617C8.48828 117.148 8.69534 120.887 9.10945 124.418C9.10945 125.248 9.3165 126.079 9.52356 126.91L101.249 34.8951C99.1785 32.4026 96.9009 29.7024 94.6233 27.2099Z" fill="url(#paint3_radial_393_1097)"/>
<path fill-rule="evenodd" clip-rule="evenodd" d="M88.4125 20.7709C86.9631 19.5246 85.3067 18.2784 83.6503 17.2398C78.6809 13.9165 73.5045 12.0471 67.2929 12.0471C65.6364 12.0471 64.1871 12.2548 62.5306 12.4625L24.0184 51.3041C23.8113 51.7195 23.6042 52.1349 23.3972 52.758C16.7714 66.0514 12.0091 79.7602 9.73154 94.5075C9.31743 96.5846 9.11038 98.6617 8.90332 100.739L88.4125 20.7709Z" fill="url(#paint4_radial_393_1097)"/>
<path opacity="0.3" fill-rule="evenodd" clip-rule="evenodd" d="M66.8786 181.953C67.0856 181.953 67.2927 181.953 67.4997 181.953C67.7068 181.953 67.9138 181.953 68.1209 181.953C73.2973 181.953 78.2666 181.33 82.8218 180.084L122.991 139.788C123.198 139.165 123.405 138.334 123.612 137.711C123.612 137.711 124.026 135.634 124.647 133.349C124.647 133.141 124.647 132.934 124.854 132.726C125.682 128.364 126.303 124.002 126.51 119.433C126.718 116.525 126.718 113.409 126.718 110.501C126.718 109.255 126.718 107.801 126.718 106.555L53.0059 180.499C57.354 181.33 61.9092 181.953 66.8786 181.953ZM77.8525 172.606C77.8525 172.606 77.6454 172.606 77.8525 172.606C77.6454 172.606 77.8525 172.606 77.8525 172.606Z" fill="url(#paint5_radial_393_1097)"/>
<path d="M54.6617 158.482C54.6617 158.897 54.6617 159.313 54.4546 159.52C54.4546 159.728 54.2476 160.143 54.0405 160.351C53.8335 160.559 53.6264 160.767 53.4194 160.974C53.2123 161.182 53.0052 161.182 52.5911 161.39C52.3841 161.597 51.97 161.597 51.7629 161.597C51.3488 161.597 51.1417 161.597 50.7276 161.597C50.5206 161.597 50.5206 161.597 50.3135 161.597C50.1065 161.597 50.1065 161.597 49.8994 161.597L50.1065 156.197C50.3135 156.197 50.7276 155.989 51.1417 155.989C51.5559 155.989 51.7629 155.989 52.177 155.989C52.5911 155.989 53.0052 155.989 53.2123 156.197C53.6264 156.405 53.8335 156.405 54.0405 156.612C54.2476 156.82 54.4546 157.028 54.6617 157.443C54.6617 157.651 54.6617 158.066 54.6617 158.482ZM51.97 159.936C52.177 159.936 52.3841 159.936 52.3841 159.728C52.5911 159.728 52.5911 159.52 52.7982 159.52C53.0052 159.52 53.0052 159.313 53.0052 159.105C53.0052 158.897 53.0052 158.897 53.0052 158.69C53.0052 158.482 53.0052 158.482 53.0052 158.274C53.0052 158.066 53.0052 158.066 52.7982 157.859L52.5911 157.651C52.3841 157.651 52.3841 157.651 52.177 157.651L51.97 159.936Z" fill="#810069"/>
<path d="M57.1467 155.989L56.9397 161.597H55.2832L55.0762 155.989H57.1467Z" fill="#810069"/>
<path d="M62.5299 159.52C62.5299 159.728 62.5299 160.143 62.5299 160.351C62.5299 160.559 62.5299 160.974 62.5299 161.182H60.2522C60.2522 160.767 60.4593 160.143 60.4593 159.728C60.4593 159.313 60.4593 158.69 60.4593 158.274C60.4593 158.274 60.4593 158.274 60.4593 158.066V157.859V157.651C60.4593 157.443 60.4593 157.443 60.4593 157.443V157.236C60.4593 157.236 60.4593 157.236 60.2522 157.236H60.0452L59.8381 157.443V157.651C59.8381 157.859 59.8381 157.859 59.8381 158.066C59.8381 158.274 59.8381 158.274 59.8381 158.274V158.482C59.8381 158.897 59.8381 159.52 59.8381 159.936C59.8381 160.351 59.8381 160.974 59.8381 161.39H57.7676C57.7676 160.351 57.9746 159.52 57.9746 158.482C57.9746 157.443 57.9746 156.612 58.1817 155.574H60.0452V156.197L60.2522 155.989L60.4593 155.782C60.4593 155.782 60.6664 155.574 60.8734 155.574C61.0805 155.574 61.0805 155.574 61.2875 155.574C61.4946 155.574 61.7016 155.574 61.9087 155.782C62.1157 155.782 62.3228 155.989 62.3228 156.197C62.5299 156.405 62.5298 156.405 62.7369 156.612C62.7369 156.82 62.944 157.028 62.944 157.236C62.944 157.443 62.944 157.651 63.151 157.859C63.151 158.066 63.151 158.274 63.151 158.482C63.151 158.69 63.151 158.897 63.151 159.105C63.151 159.313 62.5299 159.52 62.5299 159.52Z" fill="#810069"/>
<path d="M68.1207 158.482C68.1207 158.69 68.1207 158.897 68.1207 159.105C68.1207 159.313 67.9136 159.52 67.9136 159.728C67.7066 159.936 67.7066 160.143 67.4995 160.351C67.2925 160.559 67.0854 160.767 66.8784 160.767C66.6713 160.767 66.4643 160.974 66.2572 160.974C66.0501 160.974 65.8431 160.974 65.636 160.974C65.429 160.974 65.2219 160.974 65.0149 160.974C64.8078 160.974 64.6008 160.767 64.3937 160.767C64.1866 160.559 63.9796 160.559 63.7725 160.351C63.5655 160.143 63.5655 159.936 63.3584 159.728C63.1514 159.52 63.1514 159.313 63.1514 159.105C63.1514 158.897 63.1514 158.69 63.1514 158.482C63.1514 158.274 63.1514 158.066 63.1514 157.859C63.1514 157.651 63.3584 157.443 63.3584 157.236C63.5655 157.028 63.5655 156.82 63.7725 156.612C63.9796 156.405 64.1866 156.197 64.1866 156.197C64.3937 155.989 64.6008 155.989 64.8078 155.989C65.0149 155.989 65.2219 155.989 65.429 155.989C65.8431 155.989 66.2572 155.989 66.4642 156.197C66.8784 156.405 67.0854 156.405 67.2925 156.82C67.4995 157.028 67.7066 157.236 67.9136 157.651C67.9136 157.859 68.1207 158.066 68.1207 158.482ZM66.2572 158.69C66.2572 158.482 66.2572 158.482 66.2572 158.274C66.2572 158.066 66.2572 158.066 66.0501 158.066L65.8431 157.859C65.8431 157.859 65.636 157.859 65.429 157.859C65.2219 157.859 65.2219 157.859 65.0149 157.859L64.8078 158.066L64.6008 158.274C64.6008 158.482 64.6008 158.482 64.6008 158.69C64.6008 158.897 64.6008 158.897 64.6008 159.105C64.6008 159.313 64.6008 159.313 64.8078 159.52L65.0149 159.728C65.0149 159.728 65.2219 159.728 65.429 159.728C65.636 159.728 65.636 159.728 65.8431 159.728L66.0501 159.52L66.2572 159.313C66.2572 158.897 66.2572 158.69 66.2572 158.69Z" fill="#810069"/>
<path d="M72.054 155.989L71.8469 161.597H70.1905L69.9834 155.989H72.054Z" fill="#810069"/>
<path d="M76.8169 155.782V157.443H75.5746L75.3675 161.182H73.7111L73.504 157.859H72.2617V155.989L76.8169 155.782Z" fill="#810069"/>
<path d="M81.5787 158.274C81.5787 158.482 81.5787 158.69 81.5787 158.897C81.1646 158.897 80.5434 158.897 80.1293 159.105C79.7152 159.105 79.3011 159.313 78.6799 159.313C78.6799 159.52 78.887 159.728 79.094 159.728C79.3011 159.728 79.5081 159.936 79.7152 159.936C79.9223 159.936 79.9223 159.936 80.1293 159.936C80.3364 159.936 80.3364 159.936 80.5434 159.728C80.7505 159.728 80.7505 159.52 80.9575 159.52C81.1646 159.52 81.1646 159.313 81.1646 159.313L80.7505 161.39C80.5434 161.39 80.5434 161.597 80.3364 161.597C80.1293 161.597 80.1293 161.805 79.9223 161.805C79.7152 161.805 79.7152 161.805 79.5082 161.805C79.3011 161.805 79.3011 161.805 79.094 161.805C78.887 161.805 78.4729 161.805 78.2658 161.597C78.0588 161.597 77.8517 161.39 77.6447 161.182C77.4376 160.974 77.2305 160.974 77.2305 160.767C77.0235 160.559 77.0235 160.351 76.8164 160.143C76.8164 159.936 76.6094 159.728 76.6094 159.52C76.6094 159.313 76.6094 159.105 76.6094 158.897C76.6094 158.69 76.6094 158.482 76.6094 158.066C76.6094 157.859 76.8164 157.651 76.8164 157.236C76.8164 157.028 77.0235 156.82 77.2305 156.612C77.4376 156.405 77.6447 156.197 77.6447 155.989C77.8517 155.782 78.0588 155.782 78.2658 155.574C78.4729 155.574 78.6799 155.366 79.094 155.366C79.3011 155.366 79.5081 155.366 79.7152 155.366C79.9223 155.366 80.1293 155.574 80.3364 155.574C80.5434 155.782 80.5434 155.782 80.7505 155.989C80.9575 156.197 80.9575 156.405 80.9575 156.612C80.9575 156.82 81.1646 157.028 81.1646 157.236C81.5787 157.859 81.5787 158.066 81.5787 158.274ZM79.9223 158.066V157.651C79.9223 157.651 79.9223 157.443 79.7152 157.443H79.5082C79.3011 157.443 79.3011 157.443 79.3011 157.443L79.094 157.651L78.887 157.859C78.887 158.066 78.887 158.066 78.887 158.066H79.9223Z" fill="#810069"/>
<path d="M89.033 158.897C89.033 159.313 89.033 159.728 89.033 160.143C89.033 160.559 89.033 160.974 89.033 161.39H86.9625C86.9625 160.974 87.1695 160.351 87.1695 159.936C87.1695 159.52 87.1695 158.897 87.1695 158.482C87.1695 158.482 87.1695 158.482 87.1695 158.274V158.066V157.859V157.651V157.443C87.1695 157.443 87.1695 157.443 86.9625 157.443C86.9625 157.443 86.7554 157.443 86.7554 157.651C86.7554 157.651 86.7554 157.859 86.5484 157.859C86.5484 157.859 86.5484 158.066 86.5484 158.274C86.5484 158.482 86.5484 158.482 86.5484 158.482C86.5484 158.69 86.5484 158.69 86.5484 158.897C86.5484 159.105 86.5484 159.105 86.5484 159.313C86.5484 159.728 86.5484 160.143 86.5484 160.559C86.5484 160.974 86.5484 161.39 86.5484 161.805H84.6849C84.6849 161.39 84.8919 160.767 84.8919 160.351C84.8919 159.936 84.8919 159.313 84.8919 158.897C84.8919 158.897 84.8919 158.897 84.8919 158.69V158.482V158.274C84.8919 158.066 84.8919 158.066 84.8919 158.066V157.859C84.8919 157.859 84.8919 157.859 84.6849 157.859H84.4778C84.4778 157.859 84.4778 158.066 84.2707 158.066V158.274V158.482V158.69V158.897V162.013H82.2002C82.2002 161.597 82.2002 161.182 82.4072 160.559C82.4072 160.143 82.4073 159.52 82.6143 159.105C82.6143 158.69 82.6143 158.274 82.6143 157.651C82.6143 157.236 82.6143 156.612 82.6143 156.197H84.4778V156.612L84.6849 156.405L84.8919 156.197L85.099 155.989H85.306C85.5131 155.989 85.5131 155.989 85.7201 155.989C85.9272 155.989 85.9272 155.989 85.9272 156.197C85.9272 156.405 86.1342 156.405 86.1342 156.405C86.1342 156.405 86.3413 156.612 86.3413 156.82L86.5484 156.612L86.7554 156.405C86.7554 156.405 86.7554 155.782 86.9625 155.782C87.1695 155.782 87.1695 155.782 87.3766 155.782C87.5836 155.782 87.7907 155.782 87.9977 155.989C88.2048 155.989 88.4119 156.197 88.4119 156.405C88.6189 156.612 88.6189 156.82 88.6189 157.028C88.6189 157.236 88.826 157.443 88.826 157.651C88.826 157.859 88.826 158.066 88.826 158.274C89.033 158.482 89.033 158.69 89.033 158.897Z" fill="#810069"/>
<g opacity="0.5">
<path opacity="0.5" d="M54.6617 159.105C54.6617 159.52 54.6617 159.936 54.4546 160.143C54.4546 160.351 54.2476 160.767 54.0405 160.974C53.8335 161.182 53.6264 161.39 53.4194 161.597C53.2123 161.805 53.0052 161.805 52.5911 162.013C52.3841 162.013 52.177 162.013 51.7629 162.221C51.3488 162.221 51.1417 162.221 50.7276 162.221C50.5206 162.221 50.5206 162.221 50.3135 162.221C50.1065 162.221 50.1065 162.221 49.8994 162.221L50.1065 156.82C50.3135 156.82 50.7276 156.612 51.1417 156.612C51.5559 156.612 51.7629 156.612 52.177 156.612C52.5911 156.612 53.0052 156.612 53.2123 156.82C53.6264 157.028 53.8335 157.028 54.0405 157.236C54.2476 157.443 54.4546 157.651 54.6617 158.066C54.6617 158.274 54.6617 158.69 54.6617 159.105ZM51.97 160.559C52.177 160.559 52.3841 160.559 52.3841 160.351C52.3841 160.143 52.5911 160.143 52.7982 160.143C53.0052 160.143 53.0052 159.936 53.0052 159.728C53.0052 159.52 53.0052 159.52 53.0052 159.313C53.0052 159.105 53.0052 159.105 53.0052 158.897C53.0052 158.69 53.0052 158.69 52.7982 158.482L52.5911 158.274C52.3841 158.274 52.3841 158.274 52.177 158.274L51.97 160.559Z" fill="white"/>
<path opacity="0.5" d="M57.1467 156.612L56.9397 162.221H55.2832L55.0762 156.612H57.1467Z" fill="white"/>
<path opacity="0.5" d="M62.5299 160.351C62.5299 160.559 62.5299 160.974 62.5299 161.182C62.5299 161.39 62.5299 161.805 62.5299 162.013H60.0452C60.0452 161.597 60.2523 160.974 60.2523 160.559C60.2523 160.143 60.2523 159.52 60.2523 159.105C60.2523 159.105 60.2523 159.105 60.2523 158.897V158.69V158.482C60.2523 158.274 60.2523 158.274 60.2523 158.274V158.066C60.2523 158.066 60.2523 158.066 60.0452 158.066H59.8382L59.6311 158.274V158.482C59.6311 158.69 59.6311 158.69 59.6311 158.897C59.6311 159.105 59.6311 159.105 59.6311 159.105V159.313C59.6311 159.728 59.6311 160.351 59.6311 160.767C59.6311 161.182 59.6311 161.805 59.6311 162.221H57.5605C57.5605 161.182 57.7676 160.351 57.7676 159.313C57.7676 158.274 57.7676 157.443 57.9747 156.405H59.8382V157.028L60.0452 156.82L60.2523 156.612C60.2523 156.612 60.4593 156.405 60.6664 156.405C60.8734 156.405 60.8734 156.405 61.0805 156.405C61.2875 156.405 61.4946 156.405 61.7017 156.612C61.9087 156.612 62.1158 156.82 62.1158 157.028C62.3228 157.236 62.3228 157.236 62.5299 157.443C62.5299 157.651 62.7369 157.859 62.7369 158.066C62.7369 158.274 62.7369 158.482 62.944 158.69C62.944 158.897 62.944 159.105 62.944 159.313C62.944 159.52 62.944 159.728 62.944 159.936C62.944 160.143 62.5299 160.143 62.5299 160.351Z" fill="white"/>
<path opacity="0.5" d="M68.1207 159.105C68.1207 159.313 68.1207 159.52 68.1207 159.728C68.1207 159.936 67.9136 160.143 67.9136 160.351C67.7066 160.559 67.7066 160.767 67.4995 160.974C67.2925 161.182 67.0854 161.39 66.8784 161.39C66.6713 161.597 66.4643 161.597 66.2572 161.597C66.0501 161.597 65.8431 161.597 65.636 161.597C65.429 161.597 65.2219 161.597 65.0149 161.597C64.8078 161.597 64.6008 161.39 64.3937 161.39C64.1866 161.182 63.9796 161.182 63.7725 160.974C63.5655 160.767 63.5655 160.559 63.3584 160.351C63.1514 160.143 63.1514 159.936 63.1514 159.728C63.1514 159.52 63.1514 159.313 63.1514 159.105C63.1514 158.897 63.1514 158.69 63.1514 158.482C63.1514 158.274 63.3584 158.066 63.3584 157.859C63.5655 157.651 63.5655 157.443 63.7725 157.236C63.9796 157.028 64.1866 156.82 64.1866 156.82C64.3937 156.612 64.6008 156.612 64.8078 156.612C65.0149 156.612 65.2219 156.612 65.429 156.612C65.8431 156.612 66.2572 156.612 66.4642 156.82C66.8784 157.028 67.0854 157.028 67.2925 157.443C67.4995 157.651 67.7066 157.859 67.9136 158.274C67.9136 158.482 68.1207 158.69 68.1207 159.105ZM66.2572 159.313C66.2572 159.105 66.2572 159.105 66.2572 158.897C66.2572 158.69 66.2572 158.69 66.0501 158.69L65.8431 158.482C65.8431 158.482 65.636 158.482 65.429 158.482C65.2219 158.482 65.2219 158.482 65.0149 158.482L64.8078 158.69L64.6008 158.897C64.6008 159.105 64.6008 159.105 64.6008 159.313C64.6008 159.52 64.6008 159.52 64.6008 159.728C64.6008 159.936 64.6008 159.936 64.8078 160.143L65.0149 160.351C65.0149 160.351 65.2219 160.351 65.429 160.351C65.636 160.351 65.636 160.351 65.8431 160.351L66.0501 160.143L66.2572 159.936C66.2572 159.52 66.2572 159.313 66.2572 159.313Z" fill="white"/>
<path opacity="0.5" d="M72.054 156.612L71.8469 162.221H70.1905L69.9834 156.612H72.054Z" fill="white"/>
<path opacity="0.5" d="M76.8169 156.612V158.274H75.5746L75.3675 162.013H73.7111L73.504 158.274H72.2617V156.405L76.8169 156.612Z" fill="white"/>
<path opacity="0.5" d="M81.5787 159.105C81.5787 159.313 81.5787 159.52 81.5787 159.728C81.1646 159.728 80.5434 159.728 80.1293 159.936C79.7152 159.936 79.3011 160.143 78.6799 160.143C78.6799 160.351 78.887 160.559 79.094 160.559C79.3011 160.559 79.5081 160.767 79.7152 160.767C79.9223 160.767 79.9223 160.767 80.1293 160.767C80.3364 160.767 80.3364 160.767 80.5434 160.559C80.7505 160.559 80.7505 160.351 80.9575 160.351C81.1646 160.351 81.1646 160.143 81.1646 160.143L80.7505 162.013C80.5434 162.013 80.5434 162.221 80.3364 162.221C80.1293 162.221 80.1293 162.428 79.9223 162.428C79.7152 162.428 79.7152 162.428 79.5082 162.428C79.3011 162.428 79.3011 162.428 79.094 162.428C78.887 162.428 78.4729 162.428 78.2658 162.221C78.0588 162.221 77.8517 162.013 77.6447 161.805C77.4376 161.597 77.2305 161.597 77.2305 161.39C77.0235 161.182 77.0235 160.974 76.8164 160.767C76.8164 160.559 76.6094 160.351 76.6094 160.143C76.6094 159.936 76.6094 159.728 76.6094 159.52C76.6094 159.313 76.6094 159.105 76.6094 158.69C76.6094 158.482 76.8164 158.274 76.8164 157.859C76.8164 157.651 77.0235 157.443 77.2305 157.236C77.4376 157.028 77.6447 156.82 77.6447 156.612C77.8517 156.405 78.0588 156.405 78.2658 156.197C78.4729 156.197 78.6799 155.989 79.094 155.989C79.3011 155.989 79.5081 155.989 79.7152 155.989C79.9223 155.989 80.1293 156.197 80.3364 156.197C80.5434 156.405 80.5434 156.405 80.7505 156.612C80.9575 156.82 80.9575 157.028 80.9575 157.236C80.9575 157.443 81.1646 157.651 81.1646 157.859C81.5787 158.482 81.5787 158.69 81.5787 159.105ZM79.9223 158.69V158.274C79.9223 158.274 79.9223 158.066 79.7152 158.066H79.5082C79.3011 158.066 79.3011 158.066 79.3011 158.066L79.094 158.274L78.887 158.482C78.887 158.69 78.887 158.69 78.887 158.69H79.9223Z" fill="white"/>
<path opacity="0.5" d="M89.033 159.52C89.033 159.936 89.033 160.351 89.033 160.767C89.033 161.182 89.033 161.597 89.033 162.013H86.9625C86.9625 161.597 87.1695 160.974 87.1695 160.559C87.1695 160.143 87.1695 159.52 87.1695 159.105C87.1695 159.105 87.1695 159.105 87.1695 158.897V158.69V158.482V158.274V158.066C87.1695 158.066 87.1695 158.066 86.9625 158.066C86.9625 158.066 86.7554 158.066 86.7554 158.274C86.7554 158.274 86.7554 158.482 86.5484 158.482C86.5484 158.482 86.5484 158.69 86.5484 158.897C86.5484 159.105 86.5484 159.105 86.5484 159.105C86.5484 159.313 86.5484 159.313 86.5484 159.52C86.5484 159.728 86.5484 159.728 86.5484 159.936C86.5484 160.351 86.5484 160.767 86.5484 161.182C86.5484 161.597 86.5484 162.013 86.5484 162.428H84.6849C84.6849 162.013 84.8919 161.39 84.8919 160.974C84.8919 160.559 84.8919 159.936 84.8919 159.52C84.8919 159.52 84.8919 159.52 84.8919 159.313V159.105V158.897C84.8919 158.69 84.8919 158.69 84.8919 158.69V158.482C84.8919 158.482 84.8919 158.482 84.6849 158.482H84.4778C84.4778 158.482 84.4778 158.69 84.2707 158.69V158.897V159.105V159.313V159.52V162.636H82.2002C82.2002 162.221 82.2002 161.805 82.4072 161.182C82.6143 160.559 82.4073 160.143 82.6143 159.728C82.6143 159.313 82.6143 158.897 82.6143 158.274C82.6143 157.859 82.6143 157.236 82.6143 156.82H84.4778V157.236L84.6849 157.028L84.8919 156.82L85.099 156.612H85.306C85.5131 156.612 85.5131 156.612 85.7201 156.612C85.9272 156.612 85.9272 156.612 85.9272 156.82L86.1342 157.028C86.1342 157.028 86.3413 157.236 86.3413 157.443L86.5484 157.236L86.7554 157.028C86.7554 157.028 86.9625 156.82 87.1695 156.82C87.3766 156.82 87.3766 156.82 87.5836 156.82C87.7907 156.82 87.9977 156.82 88.2048 157.028C88.4118 157.028 88.6189 157.236 88.6189 157.443C88.826 157.651 88.826 157.859 88.826 158.066C88.826 158.274 89.033 158.482 89.033 158.69C89.033 158.897 89.033 159.105 89.033 159.52C89.033 159.105 89.033 159.313 89.033 159.52Z" fill="white"/>
</g>
<path d="M54.6617 158.69C54.6617 159.105 54.6617 159.52 54.4546 159.728C54.4546 159.936 54.2476 160.351 54.0405 160.559C53.8335 160.767 53.6264 160.974 53.4194 161.182C53.2123 161.39 53.0052 161.39 52.5911 161.597C52.3841 161.805 51.97 161.805 51.7629 161.805C51.3488 161.805 51.1417 161.805 50.7276 161.805C50.5206 161.805 50.5206 161.805 50.3135 161.805C50.1065 161.805 50.1065 161.805 49.8994 161.805L50.1065 156.405C50.3135 156.405 50.7276 156.197 51.1417 156.197C51.5559 156.197 51.7629 156.197 52.177 156.197C52.5911 156.197 53.0052 156.197 53.2123 156.405C53.6264 156.612 53.8335 156.612 54.0405 156.82C54.2476 157.028 54.4546 157.236 54.6617 157.651C54.6617 157.859 54.6617 158.274 54.6617 158.69ZM51.97 160.351C52.177 160.351 52.3841 160.351 52.3841 160.143C52.3841 159.936 52.5911 159.936 52.7982 159.936C53.0052 159.936 53.0052 159.728 53.0052 159.52C53.0052 159.313 53.0052 159.313 53.0052 159.105C53.0052 158.897 53.0052 158.897 53.0052 158.69C53.0052 158.482 53.0052 158.482 52.7982 158.274L52.5911 158.066C52.3841 158.066 52.3841 158.066 52.177 158.066L51.97 160.351Z" fill="#BD0091"/>
<path d="M57.1467 156.197L56.9397 161.805H55.2832L55.0762 156.197H57.1467Z" fill="#BD0091"/>
<path d="M62.5299 159.936C62.5299 160.143 62.5299 160.559 62.5299 160.767C62.5299 160.974 62.5299 161.39 62.5299 161.597H60.2522C60.2522 161.182 60.4593 160.559 60.4593 160.143C60.4593 159.728 60.4593 159.105 60.4593 158.69C60.4593 158.69 60.4593 158.69 60.4593 158.482V158.274V158.066C60.4593 157.859 60.4593 157.859 60.4593 157.859V157.651C60.4593 157.651 60.4593 157.651 60.2522 157.651H60.0452L59.8381 157.859V158.066C59.8381 158.274 59.8381 158.274 59.8381 158.482C59.8381 158.69 59.8381 158.69 59.8381 158.69V158.897C59.8381 159.313 59.8381 159.936 59.8381 160.351C59.8381 160.767 59.8381 161.39 59.8381 161.805H57.7676C57.7676 160.767 57.9746 159.936 57.9746 158.897C57.9746 157.859 57.9746 157.028 58.1817 155.989H60.0452V156.612L60.2522 156.405L60.4593 156.197C60.4593 156.197 60.6664 155.989 60.8734 155.989C61.0805 155.989 61.0805 155.989 61.2875 155.989C61.4946 155.989 61.7016 155.989 61.9087 156.197C62.1157 156.197 62.3228 156.405 62.3228 156.612C62.5299 156.82 62.5298 156.82 62.7369 157.028C62.7369 157.236 62.944 157.443 62.944 157.651C62.944 157.859 62.944 158.066 63.151 158.274C63.151 158.482 63.151 158.69 63.151 158.897C63.151 159.105 63.151 159.313 63.151 159.52C63.151 159.728 62.5299 159.728 62.5299 159.936Z" fill="#BD0091"/>
<path d="M68.1207 158.69C68.1207 158.897 68.1207 159.105 68.1207 159.313C68.1207 159.52 67.9136 159.728 67.9136 159.936C67.7066 160.143 67.7066 160.351 67.4995 160.559C67.2925 160.767 67.0854 160.974 66.8784 160.974C66.6713 160.974 66.4643 161.182 66.2572 161.182C66.0501 161.182 65.8431 161.182 65.636 161.182C65.429 161.182 65.2219 161.182 65.0149 161.182C64.8078 161.182 64.6008 160.974 64.3937 160.974C64.1866 160.767 63.9796 160.767 63.7725 160.559C63.5655 160.351 63.5655 160.143 63.3584 159.936C63.1514 159.728 63.1514 159.52 63.1514 159.313C63.1514 159.105 63.1514 158.897 63.1514 158.69C63.1514 158.482 63.1514 158.274 63.1514 158.066C63.1514 157.859 63.3584 157.651 63.3584 157.443C63.5655 157.236 63.5655 157.028 63.7725 156.82C63.9796 156.612 64.1866 156.405 64.1866 156.405C64.3937 156.197 64.6008 156.197 64.8078 156.197C65.0149 156.197 65.2219 156.197 65.429 156.197C65.8431 156.197 66.2572 156.197 66.4642 156.405C66.8784 156.612 67.0854 156.612 67.2925 157.028C67.4995 157.236 67.7066 157.443 67.9136 157.859C67.9136 158.066 68.1207 158.274 68.1207 158.69ZM66.2572 158.897C66.2572 158.69 66.2572 158.69 66.2572 158.482C66.2572 158.274 66.2572 158.274 66.0501 158.274L65.8431 158.066C65.8431 158.066 65.636 158.066 65.429 158.066C65.2219 158.066 65.2219 158.066 65.0149 158.066L64.8078 158.274L64.6008 158.482C64.6008 158.69 64.6008 158.69 64.6008 158.897C64.6008 159.105 64.6008 159.105 64.6008 159.313C64.6008 159.52 64.6008 159.52 64.8078 159.728L65.0149 159.936C65.0149 159.936 65.2219 159.936 65.429 159.936C65.636 159.936 65.636 159.936 65.8431 159.936L66.0501 159.728L66.2572 159.52C66.2572 159.105 66.2572 159.105 66.2572 158.897Z" fill="#BD0091"/>
<path d="M72.054 156.197L71.8469 161.805H70.1905L69.9834 156.197H72.054Z" fill="#BD0091"/>
<path d="M76.8169 156.197V157.859H75.5746L75.3675 161.597H73.7111L73.504 157.859H72.2617V155.989L76.8169 156.197Z" fill="#BD0091"/>
<path d="M81.5787 158.69C81.5787 158.897 81.5787 159.105 81.5787 159.313C81.1646 159.313 80.5434 159.313 80.1293 159.52C79.7152 159.52 79.3011 159.728 78.6799 159.728C78.6799 159.936 78.887 160.143 79.094 160.143C79.3011 160.143 79.5081 160.351 79.7152 160.351C79.9223 160.351 79.9223 160.351 80.1293 160.351C80.3364 160.351 80.3364 160.351 80.5434 160.143C80.7505 160.143 80.7505 159.936 80.9575 159.936C81.1646 159.936 81.1646 159.728 81.1646 159.728L80.7505 161.597C80.5434 161.597 80.5434 161.805 80.3364 161.805C80.1293 161.805 80.1293 162.013 79.9223 162.013C79.7152 162.013 79.7152 162.013 79.5082 162.013C79.3011 162.013 79.3011 162.013 79.094 162.013C78.887 162.013 78.4729 162.013 78.2658 161.805C78.0588 161.805 77.8517 161.597 77.6447 161.39C77.4376 161.182 77.2305 161.182 77.2305 160.974C77.0235 160.767 77.0235 160.559 76.8164 160.351C76.8164 160.143 76.6094 159.936 76.6094 159.728C76.6094 159.52 76.6094 159.313 76.6094 159.105C76.6094 158.897 76.6094 158.69 76.6094 158.274C76.6094 158.066 76.8164 157.859 76.8164 157.443C76.8164 157.236 77.0235 157.028 77.2305 156.82C77.4376 156.612 77.6447 156.405 77.6447 156.197C77.8517 155.989 78.0588 155.989 78.2658 155.782C78.4729 155.782 78.6799 155.574 79.094 155.574C79.3011 155.574 79.5081 155.574 79.7152 155.574C79.9223 155.574 80.1293 155.782 80.3364 155.782C80.5434 155.989 80.5434 155.989 80.7505 156.197C80.9575 156.405 80.9575 156.612 80.9575 156.82C80.9575 157.028 81.1646 157.236 81.1646 157.443C81.1646 157.651 81.5787 158.482 81.5787 158.69ZM79.9223 158.482V158.066C79.9223 158.066 79.9223 157.859 79.7152 157.859H79.5082C79.3011 157.859 79.3011 157.859 79.3011 157.859L79.094 158.066L78.887 158.274C78.887 158.482 78.887 158.482 78.887 158.482H79.9223Z" fill="#BD0091"/>
<path d="M89.033 159.105C89.033 159.52 89.033 159.936 89.033 160.351C89.033 160.767 89.033 161.182 89.033 161.597H86.9625C86.9625 161.182 87.1695 160.559 87.1695 160.143C87.1695 159.728 87.1695 159.105 87.1695 158.69C87.1695 158.69 87.1695 158.69 87.1695 158.482V158.274V158.066V157.859V157.651C87.1695 157.651 87.1695 157.651 86.9625 157.651C86.9625 157.651 86.7554 157.651 86.7554 157.859C86.7554 157.859 86.7554 158.066 86.5484 158.066C86.5484 158.066 86.5484 158.274 86.5484 158.482C86.5484 158.69 86.5484 158.69 86.5484 158.69C86.5484 158.897 86.5484 158.897 86.5484 159.105C86.5484 159.313 86.5484 159.313 86.5484 159.52C86.5484 159.936 86.5484 160.351 86.5484 160.767C86.5484 161.182 86.5484 161.597 86.5484 162.013H84.6849C84.6849 161.597 84.8919 160.974 84.8919 160.559C84.8919 160.143 84.8919 159.52 84.8919 159.105C84.8919 159.105 84.8919 159.105 84.8919 158.897V158.69V158.482C84.8919 158.274 84.8919 158.274 84.8919 158.274V158.066C84.8919 158.066 84.8919 158.066 84.6849 158.066H84.4778C84.4778 158.066 84.4778 158.274 84.2707 158.274V158.482V158.69V158.897V159.105V162.221H82.2002C82.2002 161.805 82.2002 161.39 82.4072 160.767C82.6143 160.143 82.4073 159.728 82.6143 159.313C82.6143 158.897 82.6143 158.482 82.6143 157.859C82.6143 157.443 82.6143 156.82 82.6143 156.405H84.4778V156.82L84.6849 156.612L84.8919 156.405L85.099 156.197H85.306C85.5131 156.197 85.5131 156.197 85.7201 156.197C85.9272 156.197 85.9272 156.197 85.9272 156.405L86.1342 156.612C86.1342 156.612 86.3413 156.82 86.3413 157.028L86.5484 156.82L86.7554 156.612C86.7554 156.612 86.9625 156.405 87.1695 156.405C87.3766 156.405 87.3766 156.405 87.5836 156.405C87.7907 156.405 87.9977 156.405 88.2048 156.612C88.4118 156.612 88.6189 156.82 88.6189 157.028C88.826 157.236 88.826 157.443 88.826 157.651C88.826 157.859 89.033 158.066 89.033 158.274C89.033 158.482 89.033 158.69 89.033 159.105C89.033 158.69 89.033 158.897 89.033 159.105Z" fill="#BD0091"/>
<g opacity="0.5">
<path opacity="0.5" d="M46.5867 146.435C46.5867 147.266 46.5867 148.096 46.5867 148.927C46.5867 149.758 46.3797 150.589 46.3797 151.42L41.8244 151.627C42.0315 150.589 42.0315 149.55 42.2386 148.512C42.4456 147.473 42.4456 146.435 42.4456 145.396C42.4456 145.396 42.4456 145.188 42.4456 144.981C42.4456 144.773 42.4456 144.565 42.4456 144.358C42.4456 144.15 42.4456 143.942 42.4456 143.734C42.4456 143.527 42.4456 143.319 42.2386 143.111C42.2386 142.904 42.2385 142.696 42.0315 142.696C41.8244 142.696 41.8244 142.488 41.8244 142.488C41.6174 142.488 41.4103 142.488 41.4103 142.696C41.2033 142.904 41.2033 143.111 41.2033 143.319C41.2033 143.527 41.2033 143.735 41.2033 143.942C41.2033 144.15 41.2033 144.358 41.2033 144.565C41.2033 144.773 41.2033 144.981 41.2033 145.396C41.2033 145.812 41.2033 145.812 41.2033 146.227C41.2033 147.058 41.2033 148.096 41.2033 148.927C41.2033 149.758 41.2033 150.797 40.9962 151.627L36.8551 151.835C37.0622 150.797 37.0622 149.758 37.2692 148.72C37.2692 147.681 37.4763 146.642 37.4763 145.604C37.4763 145.604 37.4763 145.396 37.4763 145.188C37.4763 144.981 37.4763 144.773 37.4763 144.565C37.4763 144.358 37.4763 144.15 37.4763 143.942C37.4763 143.735 37.4763 143.527 37.2692 143.319C37.2692 143.111 37.2692 142.904 37.0622 142.904C37.0622 142.696 36.8551 142.696 36.8551 142.696C36.6481 142.696 36.6481 142.696 36.441 142.904C36.441 143.111 36.234 143.111 36.234 143.319C36.234 143.527 36.0269 143.735 36.0269 143.942C36.0269 144.15 36.0269 144.358 36.0269 144.565C36.0269 144.773 36.0269 144.981 36.0269 145.188C36.0269 145.396 36.0269 145.396 36.0269 145.604L35.8198 152.043H31.4717C31.4717 151.004 31.6787 149.966 31.6787 149.135C31.6787 148.096 31.8858 147.058 31.8858 146.227C31.8858 145.188 32.0928 144.15 32.0928 143.319C32.0928 142.488 32.0928 141.242 32.0928 140.411L36.234 140.203V141.242C36.441 141.034 36.441 140.827 36.6481 140.827C36.8551 140.827 37.0622 140.411 37.2692 140.411C37.4763 140.411 37.6833 140.203 37.8904 139.996C38.0974 139.996 38.3045 139.788 38.5116 139.788C38.7186 139.788 39.1327 139.788 39.3398 139.788C39.5468 139.788 39.7539 139.996 39.9609 139.996C40.168 139.996 40.3751 140.203 40.3751 140.411C40.5821 140.619 40.5821 140.827 40.7892 141.034C40.9962 140.827 41.2033 140.619 41.4103 140.411C41.6174 140.203 41.8244 139.996 42.0315 139.996C42.2385 139.788 42.4456 139.788 42.6527 139.788C42.8597 139.788 43.0668 139.58 43.4809 139.58C44.102 139.58 44.5162 139.788 44.9303 139.996C45.3444 140.203 45.7585 140.411 45.9655 140.827C46.1726 141.242 46.3797 141.657 46.5867 142.073C46.7938 142.488 46.7938 143.111 47.0008 143.527C47.0008 143.942 47.2079 144.565 47.2079 144.981C46.5867 145.604 46.5867 146.019 46.5867 146.435Z" fill="white"/>
<path opacity="0.5" d="M57.7679 140.619L53.6268 147.473L53.8339 152.458H49.2787L49.4857 147.473L46.3799 141.034L50.9351 140.411L52.3845 144.15L53.8339 140.411L57.7679 140.619Z" fill="white"/>
<path opacity="0.5" d="M66.2569 147.889C66.2569 148.72 66.0499 149.343 65.8428 149.966C65.6358 150.589 65.2217 151.004 64.6005 151.42C64.1864 151.835 63.5652 152.043 62.9441 152.251C62.3229 152.458 61.7017 152.458 60.8735 152.458C60.6664 152.458 60.2523 152.458 59.8382 152.251C59.4241 152.043 59.2171 152.043 58.8029 152.043C58.3888 151.835 58.1818 151.835 57.7677 151.627C57.3536 151.42 57.1465 151.42 56.9395 151.212L57.3536 147.681C57.7677 147.889 58.3888 148.304 59.01 148.304C59.6312 148.512 60.2523 148.512 60.8735 148.512C61.0806 148.512 61.0806 148.512 61.2876 148.512C61.4947 148.512 61.4947 148.512 61.7017 148.512C61.9088 148.512 61.9088 148.304 62.1158 148.304C62.1158 148.304 62.3229 148.096 62.3229 147.889C62.3229 147.681 62.3229 147.681 62.1158 147.681C61.9088 147.681 61.9088 147.473 61.9088 147.473C61.7017 147.473 61.7017 147.473 61.4947 147.266C61.2876 147.266 61.2876 147.266 61.0806 147.266C60.8735 147.266 60.8735 147.266 60.6664 147.266C60.4594 147.266 60.4594 147.266 60.4594 147.266C60.0453 147.266 59.4241 147.266 59.01 147.058C58.5959 146.85 58.1818 146.642 57.9747 146.435C57.7677 146.227 57.3536 145.812 57.3536 145.396C57.3536 144.981 57.1465 144.565 57.1465 143.942C57.1465 143.319 57.3536 142.696 57.5606 142.073C57.7677 141.45 58.1818 141.034 58.5959 140.619C59.01 140.203 59.6312 139.996 60.2523 139.788C60.8735 139.58 61.4947 139.58 62.1158 139.58C62.3229 139.58 62.737 139.58 62.9441 139.58C63.1511 139.58 63.5652 139.58 63.7723 139.788C63.9793 139.996 64.3934 139.996 64.6005 139.996C64.8076 139.996 65.2217 140.203 65.4287 140.203L65.0146 143.734C64.6005 143.527 64.1864 143.527 63.7723 143.319C63.3582 143.319 62.9441 143.111 62.5299 143.111H62.3229C62.1158 143.111 62.1158 143.111 61.9088 143.111C61.7017 143.111 61.7017 143.111 61.4947 143.111C61.2876 143.111 61.2876 143.111 61.0806 143.319C60.8735 143.527 60.8735 143.527 60.8735 143.527V143.734C60.8735 143.942 60.8735 143.942 61.0806 143.942C61.0806 143.942 61.2876 144.15 61.4947 144.15C61.7017 144.15 61.7017 144.15 61.9088 144.15C62.1158 144.15 62.3229 144.15 62.3229 144.15C62.5299 144.15 62.737 144.15 62.737 144.15C62.9441 144.15 62.9441 144.15 63.1511 144.15C63.5652 144.15 63.9793 144.358 64.3934 144.358C64.8076 144.565 65.0146 144.773 65.4287 144.981C65.6358 145.188 65.8428 145.604 66.0499 146.019C66.2569 147.058 66.2569 147.473 66.2569 147.889Z" fill="white"/>
<path opacity="0.5" d="M75.9884 139.996V143.734L73.2967 143.942L72.8826 152.043L69.1556 152.251L68.7415 144.15H66.2568L66.4639 139.996H75.9884Z" fill="white"/>
<path opacity="0.5" d="M86.134 145.396C86.134 145.812 86.134 146.435 85.927 146.85C84.8917 146.85 83.8564 147.058 83.0282 147.058C81.9929 147.266 80.9576 147.266 80.1294 147.473C80.3365 147.889 80.5435 148.304 80.7506 148.512C81.1647 148.72 81.3717 148.927 81.9929 148.927C82.2 148.927 82.407 148.927 82.8211 148.72C83.2352 148.512 83.4423 148.512 83.6494 148.304C83.8564 148.096 84.2705 148.096 84.4776 147.889C84.6846 147.681 84.8917 147.681 85.0987 147.473L84.4776 151.627C84.2705 151.835 84.0635 152.043 83.6494 152.043C83.4423 152.251 83.0282 152.251 82.8211 152.251C82.6141 152.251 82.2 152.458 81.9929 152.458C81.7859 152.458 81.3717 152.458 81.1647 152.458C80.5435 152.458 80.1294 152.458 79.5083 152.251C78.8871 152.043 78.68 151.835 78.2659 151.627C77.8518 151.42 77.4377 151.004 77.2306 150.589C77.0236 150.173 76.6095 149.758 76.4024 149.343C76.1954 148.927 75.9883 148.304 75.9883 147.889C75.9883 147.473 75.7812 146.85 75.7812 146.435C75.7812 145.812 75.7813 145.396 75.9883 144.773C75.9883 144.15 76.1954 143.734 76.4024 143.111C76.6095 142.696 76.8165 142.073 77.2306 141.657C77.6447 141.242 77.8518 140.827 78.2659 140.619C78.68 140.411 79.0941 139.996 79.7153 139.788C80.3365 139.58 80.7506 139.58 81.3717 139.58C81.9929 139.58 82.407 139.58 82.8211 139.788C83.2352 139.996 83.6493 140.203 84.0635 140.411C84.4776 140.619 84.6846 141.034 84.8917 141.242C85.0987 141.45 85.3058 142.073 85.5128 142.488C85.7199 142.904 85.7199 143.319 85.927 143.734C86.134 144.358 86.134 144.981 86.134 145.396ZM82.6141 144.981C82.6141 144.773 82.6141 144.565 82.6141 144.565C82.6141 144.358 82.6141 144.15 82.407 144.15C82.407 143.942 82.2 143.942 81.9929 143.734C81.7859 143.734 81.7859 143.527 81.5788 143.527C81.3717 143.527 81.1647 143.527 80.9576 143.734C80.7506 143.942 80.5435 143.942 80.5435 144.15C80.3365 144.358 80.3365 144.565 80.1294 144.773C80.1294 144.981 79.9224 145.188 79.9224 145.396L82.6141 144.981Z" fill="white"/>
<path opacity="0.5" d="M96.9016 143.942C96.9016 144.358 96.9016 144.773 96.6946 145.188C96.4875 145.604 96.4875 145.812 96.2804 146.227C96.0734 146.435 95.8663 146.85 95.6593 147.058C95.4522 147.266 95.0381 147.473 94.624 147.889L96.6946 151.627L92.7605 152.458L91.3111 148.72H90.2758L90.0688 152.458H86.3418C86.3418 151.212 86.3418 149.758 86.3418 148.512C86.3418 147.266 86.3418 145.812 86.3418 144.565C86.3418 143.942 86.3418 143.319 86.3418 142.488C86.3418 141.865 86.3418 141.242 86.3418 140.411C86.7559 140.203 87.17 140.203 87.5841 139.996C87.9982 139.996 88.4124 139.788 88.8265 139.788C89.2406 139.788 89.6547 139.788 90.0688 139.58C90.4829 139.373 90.897 139.58 91.3111 139.58C91.9323 139.58 92.5535 139.58 93.1746 139.788C93.7958 139.996 94.4169 140.203 94.8311 140.619C95.2452 141.034 95.6593 141.45 96.0734 142.073C96.6946 142.696 96.9016 143.319 96.9016 143.942ZM92.9676 144.358C92.9676 144.15 92.9676 143.942 92.9676 143.734C92.9676 143.527 92.7605 143.319 92.7605 143.111C92.5535 142.904 92.5534 142.904 92.3464 142.696C92.1393 142.696 91.9323 142.488 91.7252 142.488C91.5182 142.488 91.5182 142.488 91.3111 142.488C91.1041 142.488 91.1041 142.488 90.897 142.488L90.69 145.812H90.897C91.1041 145.812 91.3111 145.812 91.7252 145.812C91.9323 145.812 92.1393 145.604 92.3464 145.604C92.5534 145.604 92.7605 145.396 92.7605 145.188C92.7605 144.981 92.9676 144.565 92.9676 144.358Z" fill="white"/>
<path opacity="0.5" d="M108.082 140.619L103.941 147.473L104.148 152.458H99.5931L99.8002 147.473L96.6943 141.034L101.25 140.411L102.699 144.15L104.148 140.411L108.082 140.619Z" fill="white"/>
</g>
<path d="M46.5867 144.981C46.5867 145.812 46.5867 146.642 46.5867 147.473C46.5867 148.304 46.3797 149.135 46.3797 149.966L41.8244 150.173C42.0315 149.135 42.0315 148.096 42.2386 147.058C42.4456 146.019 42.4456 144.981 42.4456 143.942C42.4456 143.942 42.4456 143.734 42.4456 143.527C42.4456 143.319 42.4456 143.111 42.4456 142.904C42.4456 142.696 42.4456 142.488 42.4456 142.281C42.4456 142.073 42.4456 141.865 42.2386 141.657C42.2386 141.45 42.2385 141.242 42.0315 141.242C41.8244 141.242 41.8244 141.034 41.8244 141.034C41.6174 141.034 41.4103 141.034 41.4103 141.242C41.2033 141.45 41.2033 141.657 41.2033 141.865C41.2033 142.073 41.2033 142.281 41.2033 142.488C41.2033 142.696 41.2033 142.904 41.2033 143.111C41.2033 143.319 41.2033 143.527 41.2033 143.942C41.2033 144.358 41.2033 144.358 41.2033 144.773C41.2033 145.604 41.2033 146.642 41.2033 147.473C41.2033 148.304 41.2033 149.343 40.9962 150.173L36.8551 150.381C37.0622 149.343 37.0622 148.304 37.2692 147.266C37.2692 146.227 37.4763 145.188 37.4763 144.15C37.4763 144.15 37.4763 143.942 37.4763 143.734C37.4763 143.527 37.4763 143.319 37.4763 143.111C37.4763 142.904 37.4763 142.696 37.4763 142.488C37.4763 142.281 37.4763 142.073 37.2692 141.865C37.2692 141.657 37.2692 141.45 37.0622 141.45C37.0622 141.242 36.8551 141.242 36.8551 141.242C36.6481 141.242 36.6481 141.242 36.441 141.45C36.441 141.657 36.234 141.657 36.234 141.865C36.234 142.073 36.0269 142.281 36.0269 142.488C36.0269 142.696 36.0269 142.904 36.0269 143.111C36.0269 143.319 36.0269 143.527 36.0269 143.734C36.0269 143.942 36.0269 143.942 36.0269 144.15L35.8198 150.589H31.4717C31.4717 149.55 31.6787 148.512 31.6787 147.681C31.6787 146.642 31.8858 145.604 31.8858 144.773C31.8858 143.734 32.0928 142.696 32.0928 141.865C32.0928 141.034 32.0928 139.788 32.0928 138.957L36.234 138.749V139.788C36.441 139.58 36.441 139.373 36.6481 139.373C36.8551 139.373 37.0622 138.957 37.2692 138.957C37.4763 138.957 37.6833 138.749 37.8904 138.542C38.0974 138.542 38.3045 138.334 38.5116 138.334C38.7186 138.334 39.1327 138.334 39.3398 138.334C39.5468 138.334 39.7539 138.542 39.9609 138.542C40.168 138.542 40.3751 138.749 40.3751 138.957C40.5821 139.165 40.5821 139.373 40.7892 139.58C40.9962 139.373 41.2033 139.165 41.4103 138.957C41.6174 138.749 41.8244 138.542 42.0315 138.542C42.2385 138.334 42.4456 138.334 42.6527 138.334C42.8597 138.334 43.0668 138.126 43.4809 138.126C44.102 138.126 44.5162 138.334 44.9303 138.542C45.3444 138.749 45.7585 138.957 45.9655 139.373C46.1726 139.788 46.3797 140.203 46.5867 140.619C46.7938 141.034 46.7938 141.657 47.0008 142.073C47.0008 142.488 47.2079 143.111 47.2079 143.527C46.5867 144.15 46.5867 144.565 46.5867 144.981Z" fill="#810069"/>
<path d="M57.7679 139.165L53.6268 146.019L53.8339 151.004H49.2787L49.4857 146.019L46.3799 139.58L50.9351 138.957L52.3845 142.696L53.8339 138.957L57.7679 139.165Z" fill="#810069"/>
<path d="M66.2569 146.435C66.2569 147.266 66.0499 147.889 65.8428 148.512C65.6358 149.135 65.2217 149.55 64.6005 149.966C64.1864 150.381 63.5652 150.589 62.9441 150.797C62.3229 151.004 61.7017 151.004 60.8735 151.004C60.6664 151.004 60.2523 151.004 59.8382 150.797C59.4241 150.589 59.2171 150.589 58.8029 150.589C58.3888 150.381 58.1818 150.381 57.7677 150.173C57.3536 149.966 57.1465 149.966 56.9395 149.758L57.3536 146.227C57.7677 146.435 58.3888 146.85 59.01 146.85C59.6312 147.058 60.2523 147.058 60.8735 147.058C61.0806 147.058 61.0806 147.058 61.2876 147.058C61.4947 147.058 61.4947 147.058 61.7017 147.058C61.9088 147.058 61.9088 146.85 62.1158 146.85C62.1158 146.85 62.3229 146.642 62.3229 146.435C62.3229 146.227 62.3229 146.227 62.1158 146.227C61.9088 146.227 61.9088 146.019 61.9088 146.019C61.7017 146.019 61.7017 146.019 61.4947 145.812C61.2876 145.812 61.2876 145.812 61.0806 145.812C60.8735 145.812 60.8735 145.812 60.6664 145.812C60.4594 145.812 60.4594 145.812 60.4594 145.812C60.0453 145.812 59.4241 145.812 59.01 145.604C58.5959 145.396 58.1818 145.188 57.9747 144.981C57.7677 144.773 57.3536 144.358 57.3536 143.942C57.3536 143.527 57.1465 143.111 57.1465 142.488C57.1465 141.865 57.3536 141.242 57.5606 140.619C57.7677 139.996 58.1818 139.58 58.5959 139.165C59.01 138.749 59.6312 138.542 60.2523 138.334C60.8735 138.126 61.4947 138.126 62.1158 138.126C62.3229 138.126 62.737 138.126 62.9441 138.126C63.1511 138.126 63.5652 138.126 63.7723 138.334C63.9793 138.542 64.3934 138.542 64.6005 138.542C64.8076 138.542 65.2217 138.749 65.4287 138.749L65.0146 142.281C64.6005 142.073 64.1864 142.073 63.7723 141.865C63.3582 141.865 62.9441 141.657 62.5299 141.657H62.3229C62.1158 141.657 62.1158 141.657 61.9088 141.657C61.7017 141.657 61.7017 141.657 61.4947 141.657C61.2876 141.657 61.2876 141.657 61.0806 141.865C60.8735 142.073 60.8735 142.073 60.8735 142.073V142.281C60.8735 142.488 60.8735 142.488 61.0806 142.488C61.0806 142.488 61.2876 142.696 61.4947 142.696C61.7017 142.696 61.7017 142.696 61.9088 142.696C62.1158 142.696 62.3229 142.696 62.3229 142.696C62.5299 142.696 62.737 142.696 62.737 142.696C62.9441 142.696 62.9441 142.696 63.1511 142.696C63.5652 142.696 63.9793 142.904 64.3934 142.904C64.8076 143.111 65.0146 143.319 65.4287 143.527C65.6358 143.734 65.8428 144.15 66.0499 144.565C66.2569 145.604 66.2569 146.019 66.2569 146.435Z" fill="#810069"/>
<path d="M75.9884 138.542V142.281L73.2967 142.488L72.8826 150.589L69.1556 150.797L68.7415 142.696H66.2568L66.4639 138.542H75.9884Z" fill="#810069"/>
<path d="M86.134 143.942C86.134 144.358 86.134 144.981 85.9269 145.396C84.8917 145.396 83.8564 145.604 83.0282 145.604C81.9929 145.812 80.9576 145.812 80.1294 146.019C80.3364 146.435 80.5435 146.85 80.7506 147.058C81.1647 147.266 81.3717 147.473 81.9929 147.473C82.1999 147.473 82.407 147.473 82.8211 147.266C83.2352 147.058 83.4423 147.058 83.6493 146.85C83.8564 146.642 84.2705 146.642 84.4775 146.435C84.6846 146.227 84.8917 146.227 85.0987 146.019L84.6846 149.966C84.4775 150.173 84.2705 150.381 83.8564 150.381C83.6493 150.589 83.2352 150.589 83.0282 150.589C82.8211 150.589 82.407 150.797 82.1999 150.797C81.9929 150.797 81.5788 150.797 81.3717 150.797C80.7505 150.797 80.3364 150.797 79.7153 150.589C79.0941 150.381 78.8871 150.173 78.4729 149.966C78.0588 149.758 77.6447 149.343 77.4377 148.927C77.2306 148.512 76.8165 148.096 76.6094 147.681C76.4024 147.266 76.1953 146.642 76.1953 146.227C76.1953 145.812 75.9883 145.188 75.9883 144.773C75.9883 144.15 75.9883 143.734 76.1953 143.111C76.1953 142.488 76.4024 142.073 76.6094 141.45C76.8165 141.034 77.0236 140.411 77.4377 139.996C77.8518 139.58 78.0588 139.165 78.4729 138.957C78.8871 138.749 79.3012 138.334 79.9223 138.126C80.5435 137.919 80.9576 137.919 81.5788 137.919C82.1999 137.919 82.614 137.919 83.0282 138.126C83.4423 138.334 83.8564 138.542 84.2705 138.749C84.6846 138.957 84.8917 139.373 85.0987 139.58C85.3058 139.788 85.5128 140.411 85.7199 140.827C85.9269 141.242 85.9269 141.657 86.134 142.073C86.134 142.904 86.134 143.527 86.134 143.942ZM82.6141 143.527C82.6141 143.319 82.6141 143.111 82.6141 143.111C82.6141 142.904 82.614 142.696 82.407 142.696C82.407 142.488 82.1999 142.488 81.9929 142.281C81.7858 142.281 81.7858 142.073 81.5788 142.073C81.3717 142.073 81.1647 142.073 80.9576 142.281C80.7505 142.488 80.5435 142.488 80.5435 142.696C80.3364 142.904 80.3364 143.111 80.1294 143.319C80.1294 143.527 79.9223 143.734 79.9223 143.942L82.6141 143.527Z" fill="#810069"/>
<path d="M96.9016 142.488C96.9016 142.904 96.9016 143.319 96.6946 143.734C96.4875 144.15 96.4875 144.358 96.2804 144.773C96.0734 144.981 95.8663 145.396 95.6593 145.604C95.4522 145.812 95.0381 146.019 94.624 146.435L96.6946 150.173L92.7605 151.004L91.3111 147.266H90.2758L90.0688 151.004H86.3418C86.3418 149.758 86.3418 148.304 86.3418 147.058C86.3418 145.812 86.3418 144.358 86.3418 143.111C86.3418 142.488 86.3418 141.865 86.3418 141.034C86.3418 140.411 86.3418 139.788 86.3418 138.957C86.7559 138.749 87.17 138.749 87.5841 138.542C87.9982 138.542 88.4124 138.334 88.8265 138.334C89.2406 138.334 89.6547 138.334 90.0688 138.126C90.4829 137.919 90.897 138.126 91.3111 138.126C91.9323 138.126 92.5535 138.126 93.1746 138.334C93.7958 138.542 94.4169 138.749 94.8311 139.165C95.2452 139.58 95.6593 139.996 96.0734 140.619C96.6946 141.242 96.9016 141.865 96.9016 142.488ZM92.9676 142.904C92.9676 142.696 92.9676 142.488 92.9676 142.281C92.9676 142.073 92.7605 141.865 92.7605 141.657C92.5535 141.45 92.5534 141.45 92.3464 141.242C92.1393 141.242 91.9323 141.034 91.7252 141.034C91.5182 141.034 91.5182 141.034 91.3111 141.034C91.1041 141.034 91.1041 141.034 90.897 141.034L90.69 144.358H90.897C91.1041 144.358 91.3111 144.358 91.7252 144.358C91.9323 144.358 92.1393 144.15 92.3464 144.15C92.5534 144.15 92.7605 143.942 92.7605 143.734C92.7605 143.527 92.9676 143.111 92.9676 142.904Z" fill="#810069"/>
<path d="M108.082 139.165L103.941 146.019L104.148 151.004H99.5931L99.8002 146.019L96.6943 139.58L101.25 138.957L102.699 142.696L104.148 138.957L108.082 139.165Z" fill="#810069"/>
<path d="M46.5867 145.812C46.5867 146.642 46.5867 147.473 46.5867 148.304C46.5867 149.135 46.3797 149.966 46.3797 150.797L41.8244 151.004C42.0315 149.966 42.0315 148.927 42.2386 147.889C42.4456 146.85 42.4456 145.812 42.4456 144.773C42.4456 144.773 42.4456 144.565 42.4456 144.358C42.4456 144.15 42.4456 143.942 42.4456 143.734C42.4456 143.527 42.4456 143.319 42.4456 143.111C42.4456 142.904 42.4456 142.696 42.2386 142.488C42.2386 142.281 42.2385 142.073 42.0315 142.073C41.8244 142.073 41.8244 141.865 41.8244 141.865C41.6174 141.865 41.4103 141.865 41.4103 142.073C41.2033 142.281 41.2033 142.488 41.2033 142.696C41.2033 142.904 41.2033 143.111 41.2033 143.319C41.2033 143.527 41.2033 143.735 41.2033 143.942C41.2033 144.15 41.2033 144.358 41.2033 144.773C41.2033 145.188 41.2033 145.188 41.2033 145.604C41.2033 146.435 41.2033 147.473 41.2033 148.304C41.2033 149.135 41.2033 150.173 40.9962 151.004L36.8551 151.212C37.0622 150.173 37.0622 149.135 37.2692 148.096C37.2692 147.058 37.4763 146.019 37.4763 144.981C37.4763 144.981 37.4763 144.773 37.4763 144.565C37.4763 144.358 37.4763 144.15 37.4763 143.942C37.4763 143.735 37.4763 143.527 37.4763 143.319C37.4763 143.111 37.4763 142.904 37.2692 142.696C37.2692 142.488 37.2692 142.281 37.0622 142.281C37.0622 142.073 36.8551 142.073 36.8551 142.073C36.6481 142.073 36.6481 142.073 36.441 142.281C36.441 142.488 36.234 142.488 36.234 142.696C36.234 142.904 36.0269 143.111 36.0269 143.319C36.0269 143.527 36.0269 143.735 36.0269 143.942C36.0269 144.15 36.0269 144.358 36.0269 144.565C36.0269 144.773 36.0269 144.773 36.0269 144.981L35.8198 151.42H31.4717C31.4717 150.381 31.6787 149.343 31.6787 148.512C31.6787 147.473 31.8858 146.435 31.8858 145.604C31.8858 144.565 32.0928 143.527 32.0928 142.696C32.0928 141.865 32.0928 140.619 32.0928 139.788L36.234 139.58V140.619C36.441 140.411 36.441 140.203 36.6481 140.203C36.8551 140.203 37.0622 139.788 37.2692 139.788C37.4763 139.788 37.6833 139.58 37.8904 139.373C38.0974 139.373 38.3045 139.165 38.5116 139.165C38.7186 139.165 39.1327 139.165 39.3398 139.165C39.5468 139.165 39.7539 139.373 39.9609 139.373C40.168 139.373 40.3751 139.58 40.3751 139.788C40.5821 139.996 40.5821 140.203 40.7892 140.411C40.9962 140.203 41.2033 139.996 41.4103 139.788C41.6174 139.58 41.8244 139.373 42.0315 139.373C42.2385 139.165 42.4456 139.165 42.6527 139.165C42.8597 139.165 43.0668 138.957 43.4809 138.957C44.102 138.957 44.5162 139.165 44.9303 139.373C45.3444 139.58 45.7585 139.788 45.9655 140.203C46.1726 140.619 46.3797 141.034 46.5867 141.45C46.7938 141.865 46.7938 142.488 47.0008 142.904C47.0008 143.319 47.2079 143.942 47.2079 144.358C46.5867 144.773 46.5867 145.396 46.5867 145.812Z" fill="#BD0091"/>
<path d="M57.7679 139.788L53.6268 146.642L53.8339 151.627H49.2787L49.4857 146.642L46.3799 140.203L50.9351 139.58L52.3845 143.319L53.8339 139.58L57.7679 139.788Z" fill="#BD0091"/>
<path d="M66.2569 147.266C66.2569 148.096 66.0499 148.72 65.8428 149.343C65.6358 149.966 65.2217 150.381 64.6005 150.797C64.1864 151.212 63.5652 151.42 62.9441 151.627C62.3229 151.835 61.7017 151.835 60.8735 151.835C60.6664 151.835 60.2523 151.835 59.8382 151.627C59.4241 151.42 59.2171 151.42 58.8029 151.42C58.3888 151.212 58.1818 151.212 57.7677 151.004C57.3536 150.797 57.1465 150.797 56.9395 150.589L57.3536 147.058C57.7677 147.266 58.3888 147.681 59.01 147.681C59.6312 147.889 60.2523 147.889 60.8735 147.889C61.0806 147.889 61.0806 147.889 61.2876 147.889C61.4947 147.889 61.4947 147.889 61.7017 147.889C61.9088 147.889 61.9088 147.681 62.1158 147.681C62.1158 147.681 62.3229 147.473 62.3229 147.266C62.3229 147.058 62.3229 147.058 62.1158 147.058C61.9088 147.058 61.9088 146.85 61.9088 146.85C61.7017 146.85 61.7017 146.85 61.4947 146.642C61.2876 146.642 61.2876 146.642 61.0806 146.642C60.8735 146.642 60.8735 146.642 60.6664 146.642C60.4594 146.642 60.4594 146.642 60.4594 146.642C60.0453 146.642 59.4241 146.642 59.01 146.435C58.5959 146.227 58.1818 146.019 57.9747 145.812C57.7677 145.604 57.3536 145.188 57.3536 144.773C57.3536 144.358 57.1465 143.942 57.1465 143.319C57.1465 142.696 57.3536 142.073 57.5606 141.45C57.7677 140.827 58.1818 140.411 58.5959 139.996C59.01 139.58 59.6312 139.373 60.2523 139.165C60.8735 138.957 61.4947 138.957 62.1158 138.957C62.3229 138.957 62.737 138.957 62.9441 138.957C63.1511 138.957 63.5652 138.957 63.7723 139.165C63.9793 139.373 64.3934 139.373 64.6005 139.373C64.8076 139.373 65.2217 139.58 65.4287 139.58L65.2217 143.319C64.8076 143.111 64.3934 143.111 63.9793 142.904C63.5652 142.904 63.1511 142.696 62.737 142.696H62.5299C62.3229 142.696 62.3229 142.696 62.1158 142.696C61.9088 142.696 61.9088 142.696 61.7017 142.696C61.4947 142.696 61.4947 142.696 61.2876 142.904C61.0806 143.111 61.0806 143.111 61.0806 143.111V143.319C61.0806 143.527 61.0806 143.527 61.2876 143.527C61.2876 143.527 61.4947 143.734 61.7017 143.734C61.9088 143.734 61.9088 143.734 62.1158 143.734C62.3229 143.734 62.5299 143.734 62.5299 143.734C62.737 143.734 62.9441 143.734 62.9441 143.734C63.1511 143.734 63.1511 143.734 63.3582 143.734C63.7723 143.734 64.1864 143.942 64.6005 143.942C65.0146 144.15 65.2217 144.358 65.6358 144.565C65.8428 144.773 66.0499 145.188 66.2569 145.604C66.2569 146.227 66.2569 146.642 66.2569 147.266Z" fill="#BD0091"/>
<path d="M75.9884 139.373V143.111L73.2967 143.319L72.8826 151.42L69.1556 151.627L68.9486 143.319L66.2568 143.527L66.4639 139.373H75.9884Z" fill="#BD0091"/>
<path d="M86.134 144.565C86.134 144.981 86.134 145.604 85.9269 146.019C84.8917 146.019 83.8564 146.227 83.0282 146.227C81.9929 146.435 80.9576 146.435 80.1294 146.642C80.3364 147.058 80.5435 147.473 80.7506 147.681C81.1647 147.889 81.3717 148.096 81.9929 148.096C82.1999 148.096 82.407 148.096 82.8211 147.889C83.2352 147.681 83.4423 147.681 83.6493 147.473C83.8564 147.266 84.2705 147.266 84.4775 147.058C84.6846 146.85 84.8917 146.85 85.0987 146.642L84.6846 150.589C84.4775 150.797 84.2705 151.004 83.8564 151.004C83.6493 151.212 83.2352 151.212 83.0282 151.212C82.8211 151.212 82.407 151.42 82.1999 151.42C81.9929 151.42 81.5788 151.42 81.3717 151.42C80.7505 151.42 80.3364 151.42 79.7153 151.212C79.0941 151.004 78.8871 150.797 78.4729 150.589C78.0588 150.381 77.6447 149.966 77.4377 149.55C77.2306 149.135 76.8165 148.72 76.6094 148.304C76.4024 147.889 76.1953 147.266 76.1953 146.85C76.1953 146.435 75.9883 145.812 75.9883 145.396C75.9883 144.773 75.9883 144.358 76.1953 143.734C76.1953 143.111 76.4024 142.696 76.6094 142.073C76.8165 141.657 77.0236 141.034 77.4377 140.619C77.8518 140.203 78.0588 139.788 78.4729 139.58C78.8871 139.373 79.3012 138.957 79.9223 138.749C80.5435 138.542 80.9576 138.542 81.5788 138.542C82.1999 138.542 82.614 138.542 83.0282 138.749C83.4423 138.957 83.8564 139.165 84.2705 139.373C84.6846 139.58 84.8917 139.996 85.0987 140.203C85.3058 140.411 85.5128 141.034 85.7199 141.45C85.9269 141.865 85.9269 142.281 86.134 142.696C86.134 143.527 86.134 144.15 86.134 144.565ZM82.6141 144.15C82.6141 143.942 82.6141 143.734 82.6141 143.734C82.6141 143.527 82.614 143.319 82.407 143.319C82.407 143.111 82.1999 143.111 81.9929 142.904C81.7858 142.904 81.7858 142.696 81.5788 142.696C81.3717 142.696 81.1647 142.696 80.9576 142.904C80.7505 143.111 80.5435 143.111 80.5435 143.319C80.3364 143.527 80.3364 143.735 80.1294 143.942C80.1294 144.15 79.9223 144.358 79.9223 144.565L82.6141 144.15Z" fill="#BD0091"/>
<path d="M96.9016 143.111C96.9016 143.527 96.9016 143.942 96.6945 144.358C96.4875 144.773 96.4875 144.981 96.2804 145.396C96.0734 145.604 95.8663 146.019 95.6593 146.227C95.4522 146.435 95.0381 146.642 94.624 147.058L96.6945 150.797L92.9675 151.627L91.5182 147.889H90.4829L90.2758 151.627H86.5488C86.5488 150.381 86.5488 148.927 86.5488 147.681C86.5488 146.435 86.5488 144.981 86.5488 143.734C86.5488 143.111 86.5488 142.488 86.5488 141.657C86.5488 141.034 86.5488 140.411 86.5488 139.58C86.9629 139.373 87.3771 139.373 87.7912 139.165C88.2053 139.165 88.6194 138.957 89.0335 138.957C89.4476 138.957 89.8617 138.957 90.2758 138.749C90.6899 138.542 91.104 138.749 91.5182 138.749C92.1393 138.749 92.7605 138.749 93.3816 138.957C94.0028 139.165 94.624 139.373 95.0381 139.788C95.4522 140.203 95.8663 140.619 96.2804 141.242C96.6945 141.865 96.9016 142.488 96.9016 143.111ZM92.9675 143.527C92.9675 143.319 92.9675 143.111 92.9675 142.904C92.9675 142.696 92.7605 142.488 92.7605 142.281C92.5534 142.073 92.5534 142.073 92.3464 141.865C92.1393 141.865 91.9323 141.657 91.7252 141.657C91.5182 141.657 91.5182 141.657 91.3111 141.657C91.104 141.657 91.104 141.657 90.897 141.657L90.6899 144.981H90.897C91.104 144.981 91.3111 144.981 91.7252 144.981C91.9323 144.981 92.1393 144.773 92.3464 144.773C92.5534 144.773 92.7605 144.565 92.7605 144.358C92.7605 144.15 92.9675 143.734 92.9675 143.527Z" fill="#BD0091"/>
<path d="M108.082 139.788L103.941 146.642L104.148 151.627H99.5931L99.8002 146.642L96.6943 140.203L101.25 139.58L102.699 143.319L104.148 139.58L108.082 139.788Z" fill="#BD0091"/>
<g opacity="0.5">
<g opacity="0.5">
<path opacity="0.5" d="M51.556 43.4112C51.556 46.1114 51.556 47.5653 51.556 50.2656C50.7278 50.2656 50.3136 50.4733 49.4854 50.4733C49.2784 47.773 49.0713 46.5268 48.8643 43.8266C49.8995 43.6189 50.5207 43.6189 51.556 43.4112Z" fill="white"/>
<path opacity="0.5" d="M56.939 43.2034C56.939 44.0343 56.7319 44.4497 56.7319 45.2805H56.5249H56.3178C56.1108 45.2805 55.9037 45.2805 55.6967 45.4882C55.4896 45.4882 55.2826 45.696 55.0755 45.9037C54.8685 46.1114 54.8685 46.3191 54.6614 46.3191C54.6614 46.5268 54.4543 46.7345 54.4543 46.9422C54.4543 47.1499 54.4543 47.3576 54.6614 47.3576C54.6614 47.5653 54.8685 47.5653 54.8685 47.5653C55.0755 47.5653 55.0755 47.773 55.2826 47.773C55.4896 47.773 55.4896 47.773 55.6967 47.773C55.9037 47.773 55.9037 47.773 56.1108 47.773C56.3178 47.773 56.3178 47.773 56.5249 47.5653C56.7319 47.5653 56.732 47.3576 56.939 47.3576C57.1461 47.3576 57.1461 47.1499 57.3531 47.1499C57.3531 48.1885 57.3531 48.6039 57.3531 49.4347C57.1461 49.4347 57.1461 49.6424 56.939 49.6424C56.732 49.6424 56.7319 49.8501 56.5249 49.8501C56.3178 49.8501 56.1108 49.8501 56.1108 50.0578C55.9037 50.0578 55.9037 50.0578 55.6967 50.0578C55.2826 50.0578 54.8685 50.0578 54.4543 49.8501C54.0402 49.6424 53.8332 49.4347 53.4191 49.227C53.212 49.0193 53.005 48.6039 52.7979 48.3962C52.5908 47.9807 52.5908 47.5653 52.3838 47.1499C52.3838 46.5268 52.3838 46.1114 52.5908 45.4882C52.7979 45.0728 53.005 44.4497 53.212 44.0343C53.4191 43.6189 53.8332 43.4112 54.4543 42.9957C54.8685 42.788 55.4896 42.5803 56.1108 42.5803C56.3178 42.5803 56.5249 42.5803 56.7319 42.5803C56.5249 42.9957 56.732 42.9957 56.939 43.2034Z" fill="white"/>
<path opacity="0.5" d="M65.0143 45.9037C65.0143 46.3191 65.0143 46.7345 64.8073 47.1499C64.6002 47.5653 64.6002 47.773 64.3932 48.1885C64.1861 48.3962 63.979 48.8116 63.5649 49.0193C63.3579 49.227 62.9438 49.4347 62.5297 49.6424C62.1155 49.8501 61.9085 49.8501 61.4944 50.0578C61.0803 50.0578 60.6662 50.2655 60.252 50.2655C60.045 50.2655 60.045 50.2655 59.8379 50.2655C59.6309 50.2655 59.6309 50.2655 59.4238 50.2655C59.4238 47.5653 59.4238 46.3191 59.4238 43.6189C59.8379 43.4112 60.252 43.4112 60.6662 43.4112C61.0803 43.4112 61.4944 43.4112 61.9085 43.2034C62.3226 43.2034 62.9438 43.2034 63.1508 43.4112C63.5649 43.6189 63.979 43.8266 64.1861 44.0343C64.3932 44.242 64.8073 44.6574 64.8073 45.0728C65.0143 45.0728 65.0143 45.4882 65.0143 45.9037ZM62.9438 46.3191C62.9438 46.1114 62.9438 45.9037 62.9438 45.9037C62.9438 45.696 62.7367 45.696 62.7367 45.4882C62.7367 45.2805 62.5297 45.2805 62.3226 45.2805C62.1155 45.2805 61.9085 45.0728 61.7014 45.0728C61.7014 46.3191 61.7014 46.9422 61.4944 48.1885C61.7014 48.1885 61.9085 47.9807 62.1155 47.9807C62.3226 47.773 62.3226 47.773 62.5297 47.5653C62.7367 47.3576 62.7367 47.1499 62.7367 47.1499C62.9438 46.7345 62.9438 46.5268 62.9438 46.3191Z" fill="white"/>
<path opacity="0.5" d="M68.1204 42.788C67.9134 45.4882 67.7063 46.9422 67.4993 49.6424C66.671 49.6424 66.2569 49.6424 65.4287 49.8501C65.4287 47.1499 65.4287 45.9037 65.4287 43.2034C66.464 42.9957 67.0852 42.9957 68.1204 42.788Z" fill="white"/>
<path opacity="0.5" d="M75.3671 42.788C75.16 45.4882 74.9529 46.7345 74.7459 49.4347C73.7106 49.4347 73.0894 49.4347 72.0542 49.6424C71.433 48.1885 71.2259 47.5653 70.6048 46.1114C70.3977 47.5653 70.3977 48.3962 70.3977 49.8501C69.5695 49.8501 69.1554 49.8501 68.1201 49.8501C68.1201 46.9422 68.3272 45.6959 68.3272 42.788C69.3624 42.788 69.7766 42.788 70.8118 42.788C71.433 44.242 71.8471 44.8651 72.4683 46.3191C72.4683 45.0728 72.4683 44.242 72.6753 42.9957C73.9177 42.788 74.5388 42.788 75.3671 42.788Z" fill="white"/>
<path opacity="0.5" d="M81.7859 46.7345C81.7859 46.9422 81.7859 47.3576 81.5788 47.5653C81.5788 47.773 81.3718 48.1885 81.1647 48.3962C80.9577 48.6039 80.7506 48.8116 80.7506 49.0193C80.5435 49.227 80.3365 49.4347 80.1294 49.4347C79.9224 49.6424 79.7153 49.6424 79.3012 49.6424C79.0942 49.6424 78.6801 49.6424 78.473 49.6424C78.2659 49.6424 77.8518 49.6424 77.6448 49.4347C77.4377 49.4347 77.2307 49.227 76.8165 49.0193C76.6095 48.8116 76.4024 48.6039 76.1954 48.6039C75.9883 48.3962 75.7813 48.1885 75.7813 47.9808C75.5742 47.773 75.5742 47.5653 75.5742 47.1499C75.5742 46.9422 75.5742 46.5268 75.5742 46.3191C75.5742 46.1114 75.5742 45.696 75.7813 45.4882C75.7813 45.2805 75.9883 44.8651 76.1954 44.6574C76.4024 44.4497 76.4024 44.242 76.6095 44.0343C76.8166 43.8266 77.0236 43.6189 77.2307 43.6189C77.4377 43.4112 77.6448 43.4112 78.0589 43.2034C78.2659 43.2034 78.68 43.2034 78.8871 43.2034C79.3012 43.2034 79.9224 43.4112 80.1294 43.4112C80.5435 43.6189 80.9577 43.8266 81.1647 44.0343C81.3718 44.242 81.5788 44.6574 81.7859 45.0728C81.7859 45.696 81.7859 46.3191 81.7859 46.7345ZM79.7153 46.7345C79.7153 46.5268 79.7153 46.5268 79.7153 46.3191C79.7153 46.1114 79.7153 46.1114 79.5083 45.9037C79.5083 45.696 79.3012 45.696 79.3012 45.696C79.0942 45.696 79.0942 45.4882 78.8871 45.4882C78.68 45.4882 78.6801 45.4882 78.473 45.4882C78.2659 45.4882 78.2659 45.696 78.0589 45.696C78.0589 45.696 77.8518 45.9037 77.8518 46.1114C77.8518 46.3191 77.8518 46.3191 77.8518 46.5268C77.8518 46.7345 77.8518 46.7345 77.8518 46.9422C77.8518 47.1499 77.8518 47.1499 78.0589 47.3576C78.0589 47.5653 78.2659 47.5653 78.2659 47.5653C78.473 47.5653 78.473 47.773 78.68 47.773C78.8871 47.773 78.8871 47.773 79.0942 47.773C79.3012 47.773 79.3012 47.5653 79.5083 47.5653C79.5083 47.5653 79.7153 47.3576 79.7153 47.1499C79.5083 46.9422 79.5083 46.9422 79.7153 46.7345Z" fill="white"/>
<path opacity="0.5" d="M87.1698 47.9808C87.1698 48.3962 86.9628 48.8116 86.7557 49.227C86.5487 49.6424 86.3416 49.8501 86.1345 50.0578C85.9275 50.2655 85.5134 50.4733 85.0993 50.4733C84.6852 50.4733 84.271 50.4733 83.8569 50.4733C83.6499 50.4733 83.4428 50.4733 83.2358 50.4733C83.0287 50.4733 82.8217 50.2655 82.6146 50.2655C82.4076 50.2655 82.2005 50.0578 81.9934 50.0578C81.7864 50.0578 81.5793 49.8501 81.5793 49.8501C81.7864 49.0193 81.7864 48.6039 81.9934 47.9808C82.2005 48.1885 82.6146 48.3962 82.8217 48.3962C83.2358 48.6039 83.4428 48.6039 83.8569 48.6039H84.064H84.271H84.4781V48.3962V48.1885C84.4781 48.1885 84.4781 48.1885 84.271 47.9808H84.064H83.8569H83.6499H83.4428C83.2358 47.9808 82.8217 47.9808 82.6146 47.773C82.4076 47.773 82.2005 47.5653 81.9934 47.3576C81.7864 47.1499 81.7864 46.9422 81.5793 46.7345C81.5793 46.5268 81.3723 46.3191 81.5793 45.9037C81.5793 45.4882 81.7864 45.0728 81.7864 44.8651C81.9934 44.6574 82.2005 44.242 82.4075 44.0343C82.6146 43.8266 83.0287 43.6189 83.4428 43.6189C83.8569 43.6189 84.064 43.4112 84.4781 43.6189C84.6852 43.6189 84.8922 43.6189 84.8922 43.6189C85.0993 43.6189 85.3063 43.6189 85.5134 43.6189C85.7204 43.6189 85.9275 43.6189 85.9275 43.8266C86.1345 43.8266 86.3416 44.0343 86.3416 44.0343C86.1345 44.8651 86.1345 45.2805 85.9275 46.1114C85.7204 46.1114 85.5134 45.9037 85.3063 45.9037C85.0993 45.9037 84.8922 45.696 84.4781 45.696C84.4781 45.696 84.4781 45.696 84.271 45.696H84.064H83.8569H83.6499H83.4428C83.4428 45.696 83.4428 45.696 83.4428 45.9037V46.1114H83.6499H83.8569H84.064H84.271H84.4781C84.6852 46.1114 84.8922 46.3191 85.0993 46.3191C85.3063 46.5268 85.5134 46.5268 85.5134 46.7345C85.7204 46.9422 85.7204 47.1499 85.7204 47.3576C87.1698 47.5653 87.3769 47.773 87.1698 47.9808Z" fill="white"/>
</g>
</g>
<path d="M51.556 42.5803C51.556 45.2805 51.556 46.7345 51.556 49.4347C50.7278 49.4347 50.3136 49.6424 49.4854 49.6424C49.2784 46.9422 49.0713 45.696 48.8643 42.9957C49.8995 42.788 50.5207 42.5803 51.556 42.5803Z" fill="#810069"/>
<path d="M56.939 42.1649C56.939 42.9957 56.7319 43.4112 56.7319 44.242H56.5249H56.3178C56.1108 44.242 55.9037 44.242 55.6967 44.4497C55.4896 44.4497 55.2826 44.6574 55.0755 44.8651C54.8685 45.0728 54.8685 45.2805 54.6614 45.2805C54.6614 45.4882 54.4543 45.696 54.4543 45.9037C54.4543 46.1114 54.4543 46.3191 54.6614 46.3191C54.6614 46.5268 54.8685 46.5268 54.8685 46.5268C55.0755 46.5268 55.0755 46.7345 55.2826 46.7345C55.4896 46.7345 55.4896 46.7345 55.6967 46.7345C55.9037 46.7345 55.9037 46.7345 56.1108 46.7345C56.3178 46.7345 56.3178 46.7345 56.5249 46.5268C56.7319 46.5268 56.732 46.3191 56.939 46.3191C57.1461 46.3191 57.1461 46.1114 57.3531 46.1114C57.3531 47.1499 57.3531 47.5653 57.3531 48.3962C57.1461 48.3962 57.1461 48.6039 56.939 48.6039C56.732 48.6039 56.7319 48.8116 56.5249 48.8116C56.3178 48.8116 56.1108 48.8116 56.1108 49.0193C55.9037 49.0193 55.9037 49.0193 55.6967 49.0193C55.2826 49.0193 54.8685 49.0193 54.4543 48.8116C54.0402 48.6039 53.8332 48.3962 53.4191 48.1885C53.212 47.9808 53.005 47.5653 52.7979 47.3576C52.5908 46.9422 52.5908 46.5268 52.3838 46.1114C52.3838 45.4882 52.3838 45.0728 52.5908 44.4497C52.7979 44.0343 53.005 43.4112 53.212 42.9957C53.4191 42.5803 53.8332 42.3726 54.4543 41.9572C54.8685 41.7495 55.4896 41.5418 56.1108 41.5418C56.3178 41.5418 56.5249 41.5418 56.7319 41.5418C56.5249 42.1649 56.732 42.1649 56.939 42.1649Z" fill="#810069"/>
<path d="M65.0143 45.0728C65.0143 45.4882 65.0143 45.9037 64.8073 46.3191C64.6002 46.7345 64.6002 46.9422 64.3932 47.3576C64.1861 47.5653 63.979 47.9807 63.5649 48.1885C63.3579 48.3962 62.9438 48.6039 62.5297 48.8116C62.1155 49.0193 61.9085 49.0193 61.4944 49.227C61.0803 49.227 60.6662 49.4347 60.252 49.4347C60.045 49.4347 60.045 49.4347 59.8379 49.4347C59.6309 49.4347 59.6309 49.4347 59.4238 49.4347C59.4238 46.7345 59.4238 45.4882 59.4238 42.788C59.8379 42.5803 60.252 42.5803 60.6662 42.5803C61.0803 42.5803 61.4944 42.5803 61.9085 42.3726C62.3226 42.3726 62.9438 42.3726 63.1508 42.5803C63.5649 42.788 63.979 42.9957 64.1861 43.2034C64.3932 43.4111 64.8073 43.8266 64.8073 44.242C65.0143 44.0343 65.0143 44.6574 65.0143 45.0728ZM62.9438 45.4882C62.9438 45.2805 62.9438 45.0728 62.9438 45.0728C62.9438 44.8651 62.7367 44.8651 62.7367 44.6574C62.7367 44.4497 62.5297 44.4497 62.3226 44.4497C62.1155 44.4497 61.9085 44.242 61.7014 44.242C61.7014 45.4882 61.7014 46.1114 61.4944 47.3576C61.7014 47.3576 61.9085 47.1499 62.1155 47.1499C62.3226 46.9422 62.3226 46.9422 62.5297 46.7345C62.7367 46.5268 62.7367 46.3191 62.7367 46.3191C62.9438 45.9037 62.9438 45.6959 62.9438 45.4882Z" fill="#810069"/>
<path d="M68.1204 41.9572C67.9134 44.6574 67.7063 46.1114 67.4993 48.8116C66.671 48.8116 66.2569 48.8116 65.4287 49.0193C65.4287 46.3191 65.4287 45.0728 65.4287 42.3726C66.464 42.1649 67.0852 41.9572 68.1204 41.9572Z" fill="#810069"/>
<path d="M75.3671 41.9572C75.16 44.6574 74.9529 45.9037 74.7459 48.6039C73.7106 48.6039 73.0894 48.6039 72.0542 48.8116C71.433 47.3576 71.2259 46.7345 70.6048 45.2805C70.3977 46.7345 70.3977 47.5653 70.3977 49.0193C69.5695 49.0193 69.1554 49.0193 68.1201 49.0193C68.1201 46.1114 68.3272 44.8651 68.3272 41.9572C69.3624 41.9572 69.7766 41.9572 70.8118 41.9572C71.433 43.4112 71.8471 44.0343 72.4683 45.4882C72.4683 44.242 72.4683 43.4112 72.6753 42.1649C73.9177 41.9572 74.5388 41.9572 75.3671 41.9572Z" fill="#810069"/>
<path d="M81.7859 45.9037C81.7859 46.1114 81.7859 46.5268 81.5788 46.7345C81.5788 46.9422 81.3718 47.3576 81.1647 47.5653C80.9577 47.773 80.7506 47.9807 80.7506 48.1885C80.5435 48.3962 80.3365 48.6039 80.1294 48.6039C79.9224 48.8116 79.7153 48.8116 79.3012 48.8116C79.0942 48.8116 78.6801 48.8116 78.473 48.8116C78.2659 48.8116 77.8518 48.8116 77.6448 48.6039C77.4377 48.6039 77.2307 48.3962 76.8165 48.1885C76.6095 47.9807 76.4024 47.773 76.1954 47.773C75.9883 47.5653 75.7813 47.3576 75.7813 47.1499C75.5742 46.9422 75.5742 46.7345 75.5742 46.3191C75.5742 46.1114 75.5742 45.6959 75.5742 45.4882C75.5742 45.2805 75.5742 44.8651 75.7813 44.6574C75.7813 44.4497 75.9883 44.0343 76.1954 43.8266C76.4024 43.6189 76.4024 43.4111 76.6095 43.2034C76.8166 42.9957 77.0236 42.788 77.2307 42.788C77.4377 42.5803 77.6448 42.5803 78.0589 42.3726C78.2659 42.3726 78.68 42.3726 78.8871 42.3726C79.3012 42.3726 79.9224 42.5803 80.1294 42.5803C80.5435 42.788 80.9577 42.9957 81.1647 43.2034C81.3718 43.4111 81.5788 43.8266 81.7859 44.242C81.7859 44.8651 81.7859 45.2805 81.7859 45.9037ZM79.7153 45.9037C79.7153 45.6959 79.7153 45.6959 79.7153 45.4882C79.7153 45.2805 79.7153 45.2805 79.5083 45.0728C79.5083 44.8651 79.3012 44.8651 79.3012 44.8651C79.0942 44.8651 79.0942 44.6574 78.8871 44.6574C78.68 44.6574 78.6801 44.6574 78.473 44.6574C78.2659 44.6574 78.2659 44.8651 78.0589 44.8651C78.0589 44.8651 77.8518 45.0728 77.8518 45.2805C77.8518 45.4882 77.8518 45.4882 77.8518 45.6959C77.8518 45.9037 77.8518 45.9037 77.8518 46.1114C77.8518 46.3191 77.8518 46.3191 78.0589 46.5268C78.0589 46.7345 78.2659 46.7345 78.2659 46.7345C78.473 46.7345 78.473 46.9422 78.68 46.9422C78.8871 46.9422 78.8871 46.9422 79.0942 46.9422C79.3012 46.9422 79.3012 46.7345 79.5083 46.7345C79.5083 46.7345 79.7153 46.5268 79.7153 46.3191C79.5083 46.1114 79.5083 46.1114 79.7153 45.9037Z" fill="#810069"/>
<path d="M87.1698 47.1499C87.1698 47.5653 86.9628 47.9807 86.7557 48.3962C86.5487 48.8116 86.3416 49.0193 86.1345 49.227C85.9275 49.4347 85.5134 49.6424 85.0993 49.6424C84.6852 49.6424 84.271 49.6424 83.8569 49.6424C83.6499 49.6424 83.4428 49.6424 83.2358 49.6424C83.0287 49.6424 82.8217 49.4347 82.6146 49.4347C82.4076 49.4347 82.2005 49.227 81.9934 49.227C81.7864 49.227 81.5793 49.0193 81.5793 49.0193C81.7864 48.1885 81.7864 47.773 81.9934 47.1499C82.2005 47.3576 82.6146 47.5653 82.8217 47.5653C83.2358 47.773 83.4428 47.773 83.8569 47.773H84.064H84.271H84.4781V47.5653V47.3576C84.4781 47.3576 84.4781 47.3576 84.271 47.1499H84.064H83.8569H83.6499H83.4428C83.2358 47.1499 82.8217 47.1499 82.6146 46.9422C82.4076 46.9422 82.2005 46.7345 81.9934 46.5268C81.7864 46.3191 81.7864 46.1114 81.5793 45.9037C81.5793 45.6959 81.3723 45.4882 81.5793 45.0728C81.5793 44.6574 81.7864 44.242 81.7864 44.0343C81.9934 43.8266 82.2005 43.4111 82.4075 43.2034C82.6146 42.9957 83.0287 42.788 83.4428 42.788C83.8569 42.788 84.064 42.5803 84.4781 42.788C84.6852 42.788 84.8922 42.788 84.8922 42.788C85.0993 42.788 85.3063 42.788 85.5134 42.788C85.7204 42.788 85.9275 42.788 85.9275 42.9957C86.1345 42.9957 86.3416 43.2034 86.3416 43.2034C86.1345 44.0343 86.1345 44.4497 85.9275 45.2805C85.7204 45.2805 85.5134 45.0728 85.3063 45.0728C85.0993 45.0728 84.8922 44.8651 84.4781 44.8651C84.4781 44.8651 84.4781 44.8651 84.271 44.8651H84.064H83.8569H83.6499H83.4428C83.4428 44.8651 83.4428 44.8651 83.4428 45.0728V45.2805H83.6499H83.8569H84.064H84.271H84.4781C84.6852 45.2805 84.8922 45.4882 85.0993 45.4882C85.3063 45.6959 85.5134 45.6959 85.5134 45.9037C85.7204 46.1114 85.7204 46.3191 85.7204 46.5268C87.1698 46.7345 87.3769 46.9422 87.1698 47.1499Z" fill="#810069"/>
<path d="M51.556 42.9957C51.556 45.696 51.556 47.1499 51.556 49.8501C50.7278 49.8501 50.3136 50.0578 49.4854 50.0578C49.2784 47.3576 49.0713 46.1114 48.8643 43.4112C49.8995 43.2034 50.5207 42.9957 51.556 42.9957Z" fill="#BD0091"/>
<path d="M56.939 42.5803C56.939 43.4112 56.7319 43.8266 56.7319 44.6574H56.5249H56.3178C56.1108 44.6574 55.9037 44.6574 55.6967 44.8651C55.4896 44.8651 55.2826 45.0728 55.0755 45.2805C54.8685 45.4882 54.8685 45.696 54.6614 45.696C54.6614 45.9037 54.4543 46.1114 54.4543 46.3191C54.4543 46.5268 54.4543 46.7345 54.6614 46.7345C54.6614 46.9422 54.8685 46.9422 54.8685 46.9422C55.0755 46.9422 55.0755 47.1499 55.2826 47.1499C55.4896 47.1499 55.4896 47.1499 55.6967 47.1499C55.9037 47.1499 55.9037 47.1499 56.1108 47.1499C56.3178 47.1499 56.3178 47.1499 56.5249 46.9422C56.7319 46.9422 56.732 46.7345 56.939 46.7345C57.1461 46.7345 57.1461 46.5268 57.3531 46.5268C57.3531 47.5653 57.3531 47.9808 57.3531 48.8116C57.1461 48.8116 57.1461 49.0193 56.939 49.0193C56.732 49.0193 56.7319 49.227 56.5249 49.227C56.3178 49.227 56.1108 49.227 56.1108 49.4347C55.9037 49.4347 55.9037 49.4347 55.6967 49.4347C55.2826 49.4347 54.8685 49.4347 54.4543 49.227C54.0402 49.0193 53.8332 48.8116 53.4191 48.6039C53.212 48.3962 53.005 47.9808 52.7979 47.773C52.5908 47.3576 52.5908 46.9422 52.3838 46.5268C52.3838 45.9037 52.3838 45.4882 52.5908 44.8651C52.7979 44.4497 53.005 43.8266 53.212 43.4112C53.4191 42.9957 53.8332 42.788 54.4543 42.3726C54.8685 42.1649 55.4896 41.9572 56.1108 41.9572C56.3178 41.9572 56.5249 41.9572 56.7319 41.9572C56.5249 42.5803 56.732 42.5803 56.939 42.5803Z" fill="#BD0091"/>
<path d="M65.0143 45.4883C65.0143 45.9037 65.0143 46.3191 64.8073 46.7345C64.6002 47.1499 64.6002 47.3576 64.3932 47.773C64.1861 47.9808 63.979 48.3962 63.5649 48.6039C63.3579 48.8116 62.9438 49.0193 62.5297 49.227C62.1155 49.4347 61.9085 49.4347 61.4944 49.6424C61.0803 49.6424 60.6662 49.8501 60.252 49.8501C60.045 49.8501 60.045 49.8501 59.8379 49.8501C59.6309 49.8501 59.6309 49.8501 59.4238 49.8501C59.4238 47.1499 59.4238 45.9037 59.4238 43.2035C59.8379 42.9957 60.252 42.9957 60.6662 42.9957C61.0803 42.9957 61.4944 42.9957 61.9085 42.788C62.3226 42.788 62.9438 42.788 63.1508 42.9957C63.5649 43.2035 63.979 43.4112 64.1861 43.6189C64.3932 43.8266 64.8073 44.242 64.8073 44.6574C65.0143 44.4497 65.0143 44.8651 65.0143 45.4883ZM62.9438 45.9037C62.9438 45.696 62.9438 45.4883 62.9438 45.4883C62.9438 45.2805 62.7367 45.2805 62.7367 45.0728C62.7367 44.8651 62.5297 44.8651 62.3226 44.8651C62.1155 44.8651 61.9085 44.6574 61.7014 44.6574C61.7014 45.9037 61.7014 46.5268 61.4944 47.773C61.7014 47.773 61.9085 47.5653 62.1155 47.5653C62.3226 47.3576 62.3226 47.3576 62.5297 47.1499C62.7367 46.9422 62.7367 46.7345 62.7367 46.7345C62.9438 46.3191 62.9438 46.1114 62.9438 45.9037Z" fill="#BD0091"/>
<path d="M68.1204 42.3726C67.9134 45.0728 67.7063 46.5268 67.4993 49.227C66.671 49.227 66.2569 49.227 65.4287 49.4347C65.4287 46.7345 65.4287 45.4883 65.4287 42.788C66.464 42.3726 67.0852 42.3726 68.1204 42.3726Z" fill="#BD0091"/>
<path d="M75.3671 42.3726C75.16 45.0728 74.9529 46.3191 74.7459 49.0193C73.7106 49.0193 73.0894 49.0193 72.0542 49.227C71.433 47.773 71.2259 47.1499 70.6048 45.696C70.3977 47.1499 70.3977 47.9808 70.3977 49.4347C69.5695 49.4347 69.1554 49.4347 68.1201 49.4347C68.1201 46.5268 68.3272 45.2805 68.3272 42.3726C69.3624 42.3726 69.7766 42.3726 70.8118 42.3726C71.433 43.8266 71.8471 44.4497 72.4683 45.9037C72.4683 44.6574 72.4683 43.8266 72.6753 42.5803C73.9177 42.3726 74.5388 42.3726 75.3671 42.3726Z" fill="#BD0091"/>
<path d="M81.7859 46.3191C81.7859 46.5268 81.7859 46.9422 81.5788 47.1499C81.5788 47.3576 81.3718 47.7731 81.1647 47.9808C80.9577 48.1885 80.7506 48.3962 80.7506 48.6039C80.5435 48.8116 80.3365 49.0193 80.1294 49.0193C79.9224 49.227 79.7153 49.227 79.3012 49.227C79.0942 49.227 78.6801 49.227 78.473 49.227C78.2659 49.227 77.8518 49.227 77.6448 49.0193C77.4377 49.0193 77.2307 48.8116 76.8165 48.6039C76.6095 48.3962 76.4024 48.1885 76.1954 48.1885C75.9883 47.9808 75.7813 47.773 75.7813 47.5653C75.5742 47.3576 75.5742 47.1499 75.5742 46.7345C75.5742 46.5268 75.5742 46.1114 75.5742 45.9037C75.5742 45.696 75.5742 45.2805 75.7813 45.0728C75.7813 44.8651 75.9883 44.4497 76.1954 44.242C76.4024 44.0343 76.4024 43.8266 76.6095 43.6189C76.8166 43.4112 77.0236 43.2035 77.2307 43.2035C77.4377 42.9957 77.6448 42.9957 78.0589 42.788C78.2659 42.788 78.68 42.788 78.8871 42.788C79.3012 42.788 79.9224 42.9957 80.1294 42.9957C80.5435 43.2035 80.9577 43.4112 81.1647 43.6189C81.3718 43.8266 81.5788 44.242 81.7859 44.6574C81.7859 45.2805 81.7859 45.696 81.7859 46.3191ZM79.7153 46.3191C79.7153 46.1114 79.7153 46.1114 79.7153 45.9037C79.7153 45.696 79.7153 45.696 79.5083 45.4883C79.5083 45.2805 79.3012 45.2805 79.3012 45.2805C79.0942 45.2805 79.0942 45.0728 78.8871 45.0728C78.68 45.0728 78.6801 45.0728 78.473 45.0728C78.2659 45.0728 78.2659 45.2805 78.0589 45.2805C78.0589 45.2805 77.8518 45.4883 77.8518 45.696C77.8518 45.9037 77.8518 45.9037 77.8518 46.1114C77.8518 46.3191 77.8518 46.3191 77.8518 46.5268C77.8518 46.7345 77.8518 46.7345 78.0589 46.9422C78.0589 47.1499 78.2659 47.1499 78.2659 47.1499C78.473 47.1499 78.473 47.3576 78.68 47.3576C78.8871 47.3576 78.8871 47.3576 79.0942 47.3576C79.3012 47.3576 79.3012 47.1499 79.5083 47.1499C79.5083 47.1499 79.7153 46.9422 79.7153 46.7345C79.5083 46.5268 79.5083 46.3191 79.7153 46.3191Z" fill="#BD0091"/>
<path d="M87.1698 47.5653C87.1698 47.9807 86.9628 48.3962 86.7557 48.8116C86.5487 49.227 86.3416 49.4347 86.1345 49.6424C85.9275 49.8501 85.5134 50.0578 85.0993 50.0578C84.6852 50.0578 84.271 50.0578 83.8569 50.0578C83.6499 50.0578 83.4428 50.0578 83.2358 50.0578C83.0287 50.0578 82.8217 49.8501 82.6146 49.8501C82.4076 49.8501 82.2005 49.6424 81.9934 49.6424C81.7864 49.6424 81.5793 49.4347 81.5793 49.4347C81.7864 48.6039 81.7864 48.1885 81.9934 47.5653C82.2005 47.773 82.6146 47.9807 82.8217 47.9807C83.2358 48.1885 83.4428 48.1885 83.8569 48.1885H84.064H84.271H84.4781V47.9807V47.773C84.4781 47.773 84.4781 47.773 84.271 47.5653H84.064H83.8569H83.6499H83.4428C83.2358 47.5653 82.8217 47.5653 82.6146 47.3576C82.4076 47.3576 82.2005 47.1499 81.9934 46.9422C81.7864 46.7345 81.7864 46.5268 81.5793 46.3191C81.5793 46.1114 81.3723 45.9037 81.5793 45.4882C81.5793 45.0728 81.7864 44.6574 81.7864 44.4497C81.9934 44.242 82.2005 43.8266 82.4075 43.6189C82.6146 43.4112 83.0287 43.2034 83.4428 43.2034C83.8569 43.2034 84.064 42.9957 84.4781 43.2034C84.6852 43.2034 84.8922 43.2034 84.8922 43.2034C85.0993 43.2034 85.3063 43.2034 85.5134 43.2034C85.7204 43.2034 85.9275 43.2034 85.9275 43.4112C86.1345 43.4112 86.3416 43.6189 86.3416 43.6189C86.1345 44.4497 86.1345 44.8651 85.9275 45.696C85.7204 45.696 85.5134 45.4882 85.3063 45.4882C85.0993 45.4882 84.8922 45.2805 84.4781 45.2805C84.4781 45.2805 84.4781 45.2805 84.271 45.2805H84.064H83.8569H83.6499H83.4428C83.4428 45.2805 83.4428 45.2805 83.4428 45.4882V45.696H83.6499H83.8569H84.064H84.271H84.4781C84.6852 45.696 84.8922 45.9037 85.0993 45.9037C85.3063 46.1114 85.5134 46.1114 85.5134 46.3191C85.7204 46.5268 85.7204 46.7345 85.7204 46.9422C87.1698 47.1499 87.3769 47.3576 87.1698 47.5653Z" fill="#BD0091"/>
<g opacity="0.5">
<path opacity="0.5" d="M71.6404 107.593H58.5959C58.3888 104.893 58.5959 102.608 59.01 100.739C59.4241 98.8694 60.2523 97.4154 61.0806 96.1692C61.9088 94.9229 62.9441 93.8844 63.9793 93.2613C65.0146 92.4304 66.0499 91.8073 67.0852 91.3919C68.1204 90.7687 68.9487 90.3533 69.7769 89.7302C70.6051 89.3148 71.0192 88.4839 71.4333 87.8608C71.6404 87.4454 71.6404 86.8223 71.6404 86.1992C71.6404 85.576 71.2263 84.9529 70.8122 84.5375C70.3981 83.9144 69.7769 83.4989 68.7416 83.0835C67.9134 82.6681 66.6711 82.4604 65.2217 82.4604C64.3934 82.4604 63.1511 82.4604 61.9088 82.6681C60.6665 82.8758 59.2171 83.0835 57.9747 83.4989C56.7324 83.9144 55.283 84.3298 53.8336 84.7452C52.5913 85.1606 51.349 85.7837 50.1066 86.4069L48.4502 71.2441C49.4855 70.621 50.5207 69.9979 51.556 69.5825C52.5913 69.167 54.0407 68.3362 55.4901 67.9208C56.9395 67.5054 58.3888 67.0899 60.2523 66.6745C61.9088 66.4668 63.7723 66.2591 65.6358 66.2591C68.7416 66.2591 71.8474 66.6745 74.5392 67.5054C77.4379 68.3362 79.7155 69.5825 81.9931 71.4518C84.0637 73.1135 85.7201 75.1906 86.9625 77.6831C88.2048 80.1756 88.826 83.0835 88.826 86.1992C88.826 88.6917 88.4119 90.561 87.7907 92.015C87.1695 93.469 86.1342 94.7152 85.099 95.7538C84.0637 96.7923 82.8214 97.4154 81.579 98.0386C80.3367 98.6617 78.8873 99.2848 77.645 100.116C76.4027 100.946 75.1603 101.777 74.125 102.816C73.0898 104.27 72.2615 105.724 71.6404 107.593ZM73.5039 117.771C73.5039 118.809 73.2968 120.056 72.8827 120.887C72.4686 121.925 71.8474 122.756 71.2263 123.379C70.6051 124.002 69.5698 124.625 68.7416 125.041C67.7063 125.456 66.6711 125.664 65.6358 125.664C64.6005 125.664 63.3582 125.456 62.53 125.041C61.4947 124.625 60.6665 124.002 60.0453 123.379C59.2171 122.548 58.803 121.717 58.3888 120.887C57.9747 119.848 57.7677 118.809 57.7677 117.771C57.7677 116.732 57.9747 115.694 58.3888 114.655C58.803 113.617 59.4241 112.786 60.0453 111.955C60.8735 111.124 61.7017 110.709 62.53 110.293C63.5652 109.878 64.6005 109.67 65.6358 109.67C66.6711 109.67 67.7063 109.878 68.7416 110.293C69.7769 110.709 70.6051 111.332 71.2263 111.955C71.8474 112.578 72.4686 113.617 72.8827 114.655C73.2968 115.694 73.5039 116.732 73.5039 117.771Z" fill="white"/>
</g>
<path d="M71.6404 105.101H58.5959C58.3888 102.4 58.5959 100.116 59.01 98.2463C59.4241 96.3769 60.2523 94.9229 61.0806 93.6767C61.9088 92.4304 62.9441 91.3919 63.9793 90.7687C65.0146 89.9379 66.0499 89.3148 67.0852 88.8994C68.1204 88.2762 68.9487 87.8608 69.7769 87.2377C70.6051 86.8223 71.0192 85.9914 71.4333 85.3683C71.6404 84.9529 71.6404 84.3298 71.6404 83.7066C71.6404 83.0835 71.2263 82.4604 70.8122 82.045C70.3981 81.4218 69.7769 81.0064 68.7416 80.591C67.9134 80.1756 66.6711 79.9679 65.2217 79.9679C64.3934 79.9679 63.1511 79.9679 61.9088 80.1756C60.6665 80.3833 59.2171 80.591 57.9747 81.0064C56.7324 81.4218 55.283 81.8373 53.8336 82.2527C52.5913 82.6681 51.349 83.2912 50.1066 83.9144L48.4502 68.7516C49.4855 68.1285 50.5207 67.5054 51.556 67.0899C52.5913 66.6745 54.0407 65.8437 55.4901 65.4283C56.9395 65.0129 58.3888 64.5974 60.2523 64.182C62.1158 63.7666 63.7723 63.7666 65.6358 63.7666C68.7416 63.7666 71.8474 64.182 74.5392 65.0129C77.4379 65.8437 79.7155 67.0899 81.9931 68.9593C84.0637 70.621 85.7201 72.6981 86.9625 75.1906C88.2048 77.6831 88.826 80.591 88.826 83.7066C88.826 86.1991 88.4119 88.0685 87.7907 89.5225C87.1695 90.9764 86.1342 92.2227 85.099 93.2612C84.0637 94.2998 82.8214 94.9229 81.579 95.546C80.3367 96.1692 78.8873 96.7923 77.645 97.6231C76.4027 98.454 75.1603 99.2848 74.125 100.323C73.0898 101.777 72.2615 103.231 71.6404 105.101ZM73.5039 115.278C73.5039 116.317 73.2968 117.563 72.8827 118.394C72.4686 119.433 71.8474 120.263 71.2263 120.887C70.6051 121.51 69.5698 122.133 68.7416 122.548C67.7063 122.964 66.6711 123.171 65.6358 123.171C64.6005 123.171 63.3582 122.964 62.53 122.548C61.4947 122.133 60.6665 121.51 60.0453 120.887C59.2171 120.056 58.803 119.225 58.3888 118.394C57.9747 117.355 57.7677 116.317 57.7677 115.278C57.7677 114.24 57.9747 113.201 58.3888 112.163C58.803 111.124 59.4241 110.293 60.0453 109.463C60.8735 108.632 61.7017 108.216 62.53 107.801C63.5652 107.385 64.6005 107.178 65.6358 107.178C66.6711 107.178 67.7063 107.385 68.7416 107.801C69.7769 108.216 70.6051 108.839 71.2263 109.463C71.8474 110.086 72.4686 111.124 72.8827 112.163C73.2968 113.201 73.5039 114.24 73.5039 115.278Z" fill="#810069"/>
<path d="M71.6404 106.762H58.5959C58.3888 104.062 58.5959 101.777 59.01 99.9079C59.4241 98.0386 60.2523 96.5846 61.0806 95.3383C61.9088 94.0921 62.9441 93.0535 63.9793 92.4304C65.0146 91.5996 66.0499 90.9765 67.0852 90.561C68.1204 89.9379 68.9487 89.5225 69.7769 88.8994C70.6051 88.484 71.0192 87.6531 71.4333 87.03C71.6404 86.6146 71.6404 85.9914 71.6404 85.3683C71.6404 84.7452 71.2263 84.1221 70.8122 83.7067C70.3981 83.0835 69.7769 82.6681 68.7416 82.2527C67.9134 81.8373 66.6711 81.6296 65.2217 81.6296C64.3934 81.6296 63.1511 81.6296 61.9088 81.8373C60.6665 82.045 59.2171 82.2527 57.9747 82.6681C56.7324 83.0835 55.283 83.4989 53.8336 83.9144C52.5913 84.3298 51.349 84.9529 50.1066 85.576L48.4502 70.4133C49.4855 69.7902 50.5207 69.167 51.556 68.7516C52.5913 68.3362 54.0407 67.5054 55.4901 67.09C56.9395 66.6745 58.3888 66.2591 60.2523 65.8437C62.1158 65.4283 63.7723 65.4283 65.6358 65.4283C68.7416 65.4283 71.8474 65.8437 74.5392 66.6745C77.4379 67.5054 79.7155 68.7516 81.9931 70.621C84.0637 72.2827 85.7201 74.3598 86.9625 76.8523C88.2048 79.3448 88.826 82.2527 88.826 85.3683C88.826 87.8608 88.4119 89.7302 87.7907 91.1842C87.1695 92.6381 86.1342 93.8844 85.099 94.9229C84.0637 95.9615 82.8214 96.5846 81.579 97.2077C80.3367 97.8308 78.8873 98.454 77.645 99.2848C76.4027 100.116 75.1603 100.946 74.125 101.985C73.0898 103.439 72.2615 104.893 71.6404 106.762ZM73.5039 116.94C73.5039 117.979 73.2968 119.225 72.8827 120.056C72.4686 121.094 71.8474 121.925 71.2263 122.548C70.3981 123.379 69.5698 123.794 68.7416 124.21C67.7063 124.625 66.6711 124.833 65.6358 124.833C64.6005 124.833 63.3582 124.625 62.53 124.21C61.4947 123.794 60.6665 123.171 60.0453 122.548C59.2171 121.717 58.803 120.887 58.3888 120.056C57.9747 119.017 57.7677 117.979 57.7677 116.94C57.7677 115.902 57.9747 114.863 58.3888 113.824C58.803 112.786 59.4241 111.955 60.0453 111.124C60.8735 110.293 61.7017 109.878 62.53 109.463C63.5652 109.047 64.6005 108.839 65.6358 108.839C66.6711 108.839 67.7063 109.047 68.7416 109.463C69.7769 109.878 70.6051 110.501 71.2263 111.124C71.8474 111.747 72.4686 112.786 72.8827 113.824C73.2968 114.655 73.5039 115.694 73.5039 116.94Z" fill="#BD0091"/>
<defs>
<linearGradient id="paint0_linear_393_1097" x1="67.6678" y1="194" x2="67.6678" y2="-0.0508757" gradientUnits="userSpaceOnUse">
<stop stop-color="#E700A0"/>
<stop offset="1" stop-color="#9D006F"/>
</linearGradient>
<radialGradient id="paint1_radial_393_1097" cx="0" cy="0" r="1" gradientUnits="userSpaceOnUse" gradientTransform="translate(67.4567 97.0974) rotate(-90) scale(96.8841 72.3862)">
<stop offset="0.5119" stop-color="#FCA7C8"/>
<stop offset="1" stop-color="#A41C80"/>
</radialGradient>
<linearGradient id="paint2_linear_393_1097" x1="17.8378" y1="45.0527" x2="114.801" y2="160.245" gradientUnits="userSpaceOnUse">
<stop stop-color="#FF6CCD"/>
<stop offset="1" stop-color="#D2269A"/>
</linearGradient>
<radialGradient id="paint3_radial_393_1097" cx="0" cy="0" r="1" gradientUnits="userSpaceOnUse" gradientTransform="translate(35.8896 -0.543139) scale(112.634 112.99)">
<stop stop-color="white" stop-opacity="0.5"/>
<stop offset="1" stop-color="white" stop-opacity="0.25"/>
</radialGradient>
<radialGradient id="paint4_radial_393_1097" cx="0" cy="0" r="1" gradientUnits="userSpaceOnUse" gradientTransform="translate(29.1413 -24.9863) scale(124.361 124.753)">
<stop stop-color="white" stop-opacity="0.5"/>
<stop offset="1" stop-color="white" stop-opacity="0.25"/>
</radialGradient>
<radialGradient id="paint5_radial_393_1097" cx="0" cy="0" r="1" gradientUnits="userSpaceOnUse" gradientTransform="translate(22.8257 73.2928) scale(130.335 130.746)">
<stop stop-color="white"/>
<stop offset="0.9987" stop-color="white" stop-opacity="0.5"/>
</radialGradient>
</defs>
</svg>
