<svg width="134" height="192" viewBox="0 0 134 192" fill="none" xmlns="http://www.w3.org/2000/svg">
<g opacity="0.3">
<path d="M4.13958 141.488C4.13958 141.696 4.13958 141.904 4.13958 142.111C10.3512 165.582 30.6426 191.754 66.4632 191.754C66.6702 191.754 67.0844 191.754 67.2914 191.754C67.4985 191.754 67.7055 191.754 68.1196 191.754C104.147 191.754 124.232 165.582 130.443 142.111C130.443 142.111 131.064 139.619 131.479 137.126C131.479 136.919 131.479 136.711 131.686 136.503C132.721 131.518 133.342 126.533 133.549 121.548C133.756 118.225 133.756 114.902 133.756 111.37C133.756 108.255 133.549 104.931 133.342 101.816C133.135 97.0385 132.307 92.2612 131.271 87.4839C129.201 76.8908 125.681 65.6745 120.505 53.8351C118.434 49.0578 116.156 44.4882 113.465 39.9186C108.495 30.9872 102.905 22.6788 95.865 15.409C92.5521 12.0857 89.0322 8.97003 85.0982 6.26982C79.5077 2.53106 73.5031 0.246267 66.6703 0.453976C63.3574 0.453976 60.0445 1.0771 56.9387 2.11565C52.5905 3.77732 48.6564 6.06211 45.1365 8.97004C40.3742 12.7088 36.0261 17.2784 32.2991 22.0557C26.2945 29.5332 21.5322 37.6338 17.1841 46.1499C9.73007 61.1049 4.34663 76.6831 1.86197 93.0921C1.2408 96.6231 0.826693 99.9465 0.826693 103.478C0.826693 105.555 0.619638 107.424 0.619638 109.501C0.412583 115.317 0.619638 121.34 1.2408 127.156C2.06902 131.934 2.89725 136.711 4.13958 141.488ZM97.1074 91.8458C97.1074 91.8458 97.1074 92.0535 97.1074 91.8458C97.1074 92.0535 97.1074 92.0535 97.1074 91.8458C96.9003 92.0535 96.9003 92.0535 97.1074 91.8458C97.1074 91.8458 96.9003 91.8458 97.1074 91.8458ZM79.0936 181.161C79.0936 181.161 79.0936 181.368 79.0936 181.161C79.0936 181.368 79.0936 181.368 79.0936 181.161C79.0936 181.368 79.0936 181.368 79.0936 181.161C79.0936 181.161 79.0936 181.368 79.0936 181.161Z" fill="url(#paint0_radial_406_4)"/>
<path d="M11.3866 136.296C11.3866 136.503 11.3866 136.503 11.3866 136.919C16.9771 157.69 34.7839 180.953 66.6704 180.953C66.8774 180.953 67.0845 180.953 67.2915 180.953C67.4986 180.953 67.7056 180.953 67.9127 180.953C99.7992 180.953 117.606 157.69 123.196 136.919C123.196 136.919 123.611 134.842 124.232 132.557C124.232 132.349 124.232 132.141 124.439 131.934C125.267 127.572 125.888 123.21 126.095 118.64C126.302 115.732 126.302 112.617 126.302 109.709C126.302 106.801 126.095 104.101 126.095 101.193C125.888 96.8308 125.267 92.6767 124.439 88.5225C122.575 79.1756 119.469 69.2056 114.914 58.6124C113.051 54.4583 110.98 50.3041 108.703 46.1499C104.354 38.257 99.3851 30.9872 92.9664 24.3405C90.0676 21.2248 86.9618 18.5246 83.4418 16.2398C78.4725 12.9165 73.2961 11.0471 67.0845 11.0471C64.1857 11.0471 61.2869 11.4625 58.3882 12.5011C54.4541 13.955 51.1412 16.0321 47.8283 18.5246C43.4802 21.848 39.7532 26.0021 36.4403 30.1563C31.2639 36.803 26.9158 43.8651 22.9817 51.5503C16.3559 64.8437 11.5937 78.5525 9.31607 93.2998C8.90196 96.4154 8.48785 99.5311 8.28079 102.439C8.28079 104.308 8.28079 105.97 8.07374 107.839C7.86668 113.032 8.07374 118.225 8.6949 123.418C9.52313 127.779 10.3513 132.141 11.3866 136.296ZM93.5876 92.469C93.7946 92.469 93.7946 92.469 93.5876 92.469C93.7946 92.469 93.7946 92.469 93.5876 92.469ZM77.8514 171.606C77.8514 171.606 77.6443 171.606 77.8514 171.606C77.6443 171.606 77.8514 171.606 77.8514 171.606Z" fill="black"/>
<g opacity="0.7">
<path opacity="0.7" d="M93.5869 89.3533C93.794 89.561 93.794 89.3533 93.5869 89.3533C93.794 89.3533 93.794 89.3533 93.5869 89.3533Z" fill="white"/>
<path opacity="0.7" d="M126.302 115.525C126.095 119.887 125.473 124.456 124.645 128.818C124.645 129.026 124.645 129.233 124.438 129.441C124.024 131.726 123.403 133.803 123.403 133.803C117.812 154.574 100.006 177.837 68.1192 177.837C67.9121 177.837 67.7051 177.837 67.498 177.837C67.291 177.837 67.0839 177.837 66.8768 177.837C34.9903 177.837 17.1836 154.574 11.5931 133.803C11.5931 133.595 11.5931 133.388 11.5931 133.18C10.5578 129.026 9.72961 124.664 9.3155 120.302C8.90139 116.771 8.69434 113.448 8.69434 109.917C8.69434 114.486 8.90139 118.848 9.3155 123.418C9.52256 127.779 10.3508 132.141 11.3861 136.296C11.3861 136.503 11.3861 136.503 11.3861 136.919C16.9765 157.69 34.7833 180.953 66.6698 180.953C66.8769 180.953 67.0839 180.953 67.291 180.953C67.498 180.953 67.7051 180.953 67.9121 180.953C99.7986 180.953 117.605 157.69 123.196 136.919C123.196 136.919 123.61 134.842 124.231 132.557C124.231 132.349 124.231 132.141 124.438 131.934C125.266 127.572 125.888 123.21 126.095 118.64C126.302 115.732 126.302 112.617 126.302 109.709C126.302 109.501 126.302 109.086 126.302 108.878C126.509 110.955 126.509 113.24 126.302 115.525Z" fill="white"/>
<path opacity="0.7" d="M77.8508 168.49C77.8508 168.49 77.6438 168.49 77.8508 168.49C77.6438 168.698 77.8508 168.698 77.8508 168.49C77.8508 168.698 77.8508 168.698 77.8508 168.49Z" fill="white"/>
</g>
<g opacity="0.7">
<path opacity="0.7" d="M8.4873 111.994C8.4873 110.124 8.4873 108.255 8.69436 106.385C8.90141 103.27 9.10847 99.9465 9.72964 96.8308C12.0072 81.6681 16.7695 67.5439 23.3953 53.8351C27.1223 46.1499 31.4704 38.6724 36.8539 31.818C40.1668 27.4561 43.8937 23.3019 48.2419 19.7709C51.5548 17.0707 54.8677 14.9936 58.8017 13.5396C61.7005 12.5011 64.5993 12.0857 67.498 12.0857C73.5026 11.878 78.8861 14.1627 83.8554 17.4861C87.3754 19.7709 90.4812 22.6788 93.38 25.7944C99.5916 32.4411 104.561 40.1264 109.116 48.227C111.394 52.3812 113.464 56.743 115.328 61.1049C119.883 71.9058 122.989 82.2912 124.852 92.0535C125.681 96.4154 126.302 100.777 126.509 105.139C126.716 107.632 126.716 110.124 126.716 112.617C126.716 111.578 126.716 110.747 126.716 109.709C126.716 106.801 126.509 104.101 126.509 101.193C126.302 96.8309 125.681 92.6767 124.852 88.5225C122.989 79.1756 119.883 69.2056 115.328 58.6124C113.464 54.4583 111.394 50.3041 109.116 46.1499C104.768 38.257 99.7987 30.9872 93.38 24.3405C90.4812 21.2248 87.3754 18.5246 83.8554 16.2398C78.8861 12.9165 73.7097 11.0471 67.498 11.0471C64.5993 11.0471 61.7005 11.4625 58.8017 12.5011C54.8677 13.955 51.5548 16.0321 48.2419 18.5246C43.8937 21.848 40.1668 26.0022 36.8539 30.1563C31.6775 36.803 27.3293 43.8651 23.3953 51.5503C16.7695 64.8437 12.0072 78.5525 9.72964 93.2998C9.31553 96.4154 8.90141 99.5311 8.69436 102.439C8.69436 104.308 8.69436 105.97 8.4873 107.839C8.4873 109.709 8.4873 111.578 8.4873 113.448C8.4873 113.032 8.4873 112.617 8.4873 111.994Z" fill="white"/>
<path opacity="0.7" d="M93.5869 96.2077C93.794 96.2077 93.794 96.2077 93.5869 96.2077C93.794 96 93.794 96 93.5869 96.2077C93.5869 96 93.5869 96 93.5869 96.2077Z" fill="white"/>
</g>
<path fill-rule="evenodd" clip-rule="evenodd" d="M94.6223 26.2099L8.4873 112.617C8.4873 116.148 8.69436 119.887 9.10847 123.418C9.10847 124.248 9.31553 125.079 9.52258 125.91L101.248 33.8951C99.1775 31.4026 96.8999 28.7024 94.6223 26.2099Z" fill="url(#paint1_radial_406_4)"/>
<path fill-rule="evenodd" clip-rule="evenodd" d="M88.4106 19.7709C86.9612 18.5246 85.3047 17.2784 83.6483 16.2398C78.679 12.9165 73.5026 11.0471 67.2909 11.0471C65.6345 11.0471 64.1851 11.2548 62.5287 11.4625L24.0164 50.3041C23.8093 50.7195 23.6023 51.1349 23.3952 51.758C16.7695 65.0514 12.0072 78.7602 9.72959 93.5075C9.31548 95.5846 9.10842 97.6617 8.90137 99.7388L88.4106 19.7709Z" fill="url(#paint2_radial_406_4)"/>
<path opacity="0.3" fill-rule="evenodd" clip-rule="evenodd" d="M66.8776 180.953C67.0846 180.953 67.2917 180.953 67.4987 180.953C67.7058 180.953 67.9129 180.953 68.1199 180.953C73.2963 180.953 78.2656 180.33 82.8208 179.084L122.99 138.788C123.197 138.165 123.404 137.334 123.611 136.711C123.611 136.711 124.025 134.634 124.646 132.349C124.646 132.141 124.646 131.934 124.853 131.726C125.681 127.364 126.302 123.002 126.509 118.433C126.717 115.525 126.717 112.409 126.717 109.501C126.717 108.255 126.717 106.801 126.717 105.555L53.0049 179.499C57.353 180.33 61.9083 180.953 66.8776 180.953ZM77.8515 171.606C77.8515 171.606 77.6444 171.606 77.8515 171.606C77.6444 171.606 77.8515 171.606 77.8515 171.606Z" fill="url(#paint3_radial_406_4)"/>
</g>
<path d="M34.0312 119.033L33.4023 129.068L30.2852 129.205L30.3125 123.914L28.9043 128.18H27.7012L26.6211 124.365L26.6074 128.795L23.4492 128.891L23.5859 119.443L27.0996 119.307L28.4941 123.832L30.3535 119.033H34.0312Z" fill="white"/>
<path d="M42.8906 124.174C42.8906 124.589 42.8428 124.99 42.7471 125.377C42.6514 125.76 42.5124 126.12 42.3301 126.457C42.1523 126.794 41.9336 127.104 41.6738 127.387C41.4186 127.665 41.1292 127.904 40.8057 128.104C40.4867 128.305 40.138 128.462 39.7598 128.576C39.3815 128.686 38.9805 128.74 38.5566 128.74C38.1465 128.74 37.7546 128.688 37.3809 128.583C37.0117 128.478 36.6654 128.332 36.3418 128.146C36.0182 127.954 35.7243 127.726 35.46 127.462C35.2002 127.193 34.9769 126.897 34.79 126.573C34.6077 126.245 34.4642 125.894 34.3594 125.521C34.2591 125.147 34.209 124.757 34.209 124.352C34.209 123.955 34.2568 123.568 34.3525 123.189C34.4482 122.807 34.585 122.447 34.7627 122.109C34.945 121.772 35.1637 121.462 35.4189 121.18C35.6742 120.897 35.959 120.653 36.2734 120.448C36.5924 120.243 36.9365 120.084 37.3057 119.97C37.6748 119.856 38.0645 119.799 38.4746 119.799C39.1354 119.799 39.737 119.901 40.2793 120.106C40.8262 120.312 41.291 120.605 41.6738 120.988C42.0612 121.367 42.3597 121.827 42.5693 122.369C42.7835 122.907 42.8906 123.508 42.8906 124.174ZM39.8555 124.352C39.8555 124.156 39.8258 123.966 39.7666 123.784C39.7119 123.597 39.6299 123.433 39.5205 123.292C39.4111 123.146 39.2744 123.03 39.1104 122.943C38.9508 122.852 38.7663 122.807 38.5566 122.807C38.3424 122.807 38.151 122.845 37.9824 122.923C37.8138 123 37.668 123.107 37.5449 123.244C37.4264 123.376 37.3353 123.534 37.2715 123.716C37.2077 123.894 37.1758 124.083 37.1758 124.283C37.1758 124.475 37.2031 124.666 37.2578 124.857C37.3125 125.049 37.3945 125.222 37.5039 125.377C37.6133 125.532 37.7477 125.657 37.9072 125.753C38.0713 125.849 38.2604 125.896 38.4746 125.896C38.6888 125.896 38.8802 125.855 39.0488 125.773C39.222 125.687 39.3678 125.573 39.4863 125.432C39.6048 125.286 39.696 125.119 39.7598 124.933C39.8236 124.746 39.8555 124.552 39.8555 124.352Z" fill="white"/>
<path d="M51.3809 122.41C51.3809 122.766 51.349 123.089 51.2852 123.381C51.2259 123.668 51.1302 123.932 50.998 124.174C50.8659 124.415 50.695 124.639 50.4854 124.844C50.2757 125.049 50.0228 125.245 49.7266 125.432L51.3535 128.33L48.2773 128.932L47.2246 126.02L46.377 126.047L46.2539 128.891H43.3145C43.3372 127.852 43.3577 126.817 43.376 125.787C43.3988 124.757 43.4238 123.723 43.4512 122.684C43.4603 122.16 43.4694 121.64 43.4785 121.125C43.4876 120.61 43.5059 120.09 43.5332 119.566C43.8522 119.448 44.1667 119.35 44.4766 119.272C44.7865 119.195 45.0964 119.136 45.4062 119.095C45.7207 119.049 46.0374 119.02 46.3564 119.006C46.68 118.988 47.0104 118.979 47.3477 118.979C47.8672 118.979 48.3685 119.051 48.8516 119.197C49.3392 119.339 49.7699 119.553 50.1436 119.84C50.5173 120.127 50.8158 120.485 51.0391 120.913C51.2669 121.341 51.3809 121.84 51.3809 122.41ZM48.3184 122.629C48.3184 122.438 48.291 122.262 48.2363 122.103C48.1862 121.943 48.1087 121.806 48.0039 121.692C47.9036 121.574 47.776 121.483 47.6211 121.419C47.4707 121.351 47.293 121.316 47.0879 121.316C46.9967 121.316 46.9079 121.323 46.8213 121.337C46.7347 121.346 46.6504 121.362 46.5684 121.385L46.459 123.928H46.623C46.819 123.928 47.0173 123.903 47.2178 123.853C47.4229 123.802 47.6051 123.725 47.7646 123.62C47.9287 123.515 48.0609 123.381 48.1611 123.217C48.266 123.053 48.3184 122.857 48.3184 122.629Z" fill="white"/>
<path d="M58.333 119.143C58.3057 119.571 58.2806 119.995 58.2578 120.414C58.235 120.833 58.2054 121.257 58.1689 121.686L55.2705 121.836L55.2021 122.697H57.2393L57.0889 124.816L55.0381 124.885L54.9697 125.883H57.8682C57.8408 126.384 57.8112 126.883 57.7793 127.38C57.752 127.872 57.7269 128.367 57.7041 128.863L51.8115 129L52.0303 119.143H58.333Z" fill="white"/>
<path d="M68.0811 119.389L67.6982 122.273C67.5661 122.237 67.4339 122.212 67.3018 122.198C67.1696 122.185 67.0374 122.178 66.9053 122.178C66.568 122.178 66.2467 122.223 65.9414 122.314C65.6361 122.401 65.3649 122.535 65.1279 122.718C64.8955 122.9 64.7087 123.128 64.5674 123.401C64.4307 123.675 64.3623 123.996 64.3623 124.365C64.3623 124.602 64.3988 124.807 64.4717 124.98C64.5492 125.154 64.6562 125.297 64.793 125.411C64.9297 125.525 65.0915 125.609 65.2783 125.664C65.4652 125.719 65.6702 125.746 65.8936 125.746C66.0622 125.746 66.2376 125.728 66.4199 125.691C66.6022 125.655 66.7822 125.607 66.96 125.548C67.1377 125.489 67.3109 125.42 67.4795 125.343C67.6481 125.265 67.8031 125.186 67.9443 125.104L67.6709 128.316C67.4932 128.408 67.2995 128.49 67.0898 128.562C66.8848 128.631 66.6729 128.692 66.4541 128.747C66.2354 128.797 66.0166 128.836 65.7979 128.863C65.5791 128.891 65.3695 128.904 65.1689 128.904C64.5902 128.904 64.0501 128.797 63.5488 128.583C63.0475 128.369 62.6123 128.075 62.2432 127.701C61.874 127.327 61.5824 126.888 61.3682 126.382C61.1585 125.871 61.0537 125.322 61.0537 124.734C61.0537 123.955 61.1654 123.221 61.3887 122.533C61.612 121.84 61.9401 121.234 62.373 120.715C62.806 120.195 63.3415 119.785 63.9795 119.484C64.6221 119.184 65.3604 119.033 66.1943 119.033C66.5088 119.033 66.8301 119.058 67.1582 119.108C67.4909 119.159 67.7985 119.252 68.0811 119.389Z" fill="white"/>
<path d="M76.8789 124.174C76.8789 124.589 76.8311 124.99 76.7354 125.377C76.6396 125.76 76.5007 126.12 76.3184 126.457C76.1406 126.794 75.9219 127.104 75.6621 127.387C75.4069 127.665 75.1175 127.904 74.7939 128.104C74.4749 128.305 74.1263 128.462 73.748 128.576C73.3698 128.686 72.9688 128.74 72.5449 128.74C72.1348 128.74 71.7428 128.688 71.3691 128.583C71 128.478 70.6536 128.332 70.3301 128.146C70.0065 127.954 69.7126 127.726 69.4482 127.462C69.1885 127.193 68.9652 126.897 68.7783 126.573C68.596 126.245 68.4525 125.894 68.3477 125.521C68.2474 125.147 68.1973 124.757 68.1973 124.352C68.1973 123.955 68.2451 123.568 68.3408 123.189C68.4365 122.807 68.5732 122.447 68.751 122.109C68.9333 121.772 69.152 121.462 69.4072 121.18C69.6624 120.897 69.9473 120.653 70.2617 120.448C70.5807 120.243 70.9248 120.084 71.2939 119.97C71.6631 119.856 72.0527 119.799 72.4629 119.799C73.1237 119.799 73.7253 119.901 74.2676 120.106C74.8145 120.312 75.2793 120.605 75.6621 120.988C76.0495 121.367 76.348 121.827 76.5576 122.369C76.7718 122.907 76.8789 123.508 76.8789 124.174ZM73.8438 124.352C73.8438 124.156 73.8141 123.966 73.7549 123.784C73.7002 123.597 73.6182 123.433 73.5088 123.292C73.3994 123.146 73.2627 123.03 73.0986 122.943C72.9391 122.852 72.7546 122.807 72.5449 122.807C72.3307 122.807 72.1393 122.845 71.9707 122.923C71.8021 123 71.6562 123.107 71.5332 123.244C71.4147 123.376 71.3236 123.534 71.2598 123.716C71.196 123.894 71.1641 124.083 71.1641 124.283C71.1641 124.475 71.1914 124.666 71.2461 124.857C71.3008 125.049 71.3828 125.222 71.4922 125.377C71.6016 125.532 71.736 125.657 71.8955 125.753C72.0596 125.849 72.2487 125.896 72.4629 125.896C72.6771 125.896 72.8685 125.855 73.0371 125.773C73.2103 125.687 73.3561 125.573 73.4746 125.432C73.5931 125.286 73.6842 125.119 73.748 124.933C73.8118 124.746 73.8438 124.552 73.8438 124.352Z" fill="white"/>
<path d="M87.9258 119.033L87.2969 129.068L84.1797 129.205L84.207 123.914L82.7988 128.18H81.5957L80.5156 124.365L80.502 128.795L77.3438 128.891L77.4805 119.443L80.9941 119.307L82.3887 123.832L84.248 119.033H87.9258Z" fill="white"/>
<path d="M92.123 119.375L91.3711 128.686L88.4863 128.836V119.566L92.123 119.375Z" fill="white"/>
<path d="M101.898 119.197L101.406 128.467L97.8242 128.795L95.9102 123.832L95.6094 128.891H92.5332L92.7793 119.197L96.1973 119.033L98.5625 123.955L98.6719 119.307L101.898 119.197Z" fill="white"/>
<path d="M110.71 127.605C110.496 127.874 110.231 128.109 109.917 128.31C109.603 128.51 109.265 128.676 108.905 128.809C108.545 128.941 108.176 129.039 107.798 129.103C107.42 129.171 107.06 129.205 106.718 129.205C106.057 129.205 105.449 129.087 104.893 128.85C104.337 128.613 103.856 128.287 103.45 127.872C103.049 127.453 102.735 126.961 102.507 126.396C102.279 125.83 102.165 125.222 102.165 124.57C102.165 124.074 102.222 123.588 102.336 123.114C102.45 122.636 102.612 122.187 102.821 121.768C103.035 121.344 103.295 120.956 103.601 120.605C103.906 120.25 104.252 119.945 104.64 119.689C105.027 119.434 105.451 119.236 105.911 119.095C106.371 118.953 106.864 118.883 107.388 118.883C107.584 118.883 107.793 118.892 108.017 118.91C108.24 118.924 108.461 118.951 108.68 118.992C108.903 119.029 109.119 119.081 109.329 119.149C109.539 119.218 109.73 119.302 109.903 119.402L109.712 122.014C109.457 121.918 109.192 121.854 108.919 121.822C108.65 121.786 108.386 121.768 108.126 121.768C107.761 121.768 107.42 121.825 107.101 121.938C106.786 122.048 106.51 122.207 106.273 122.417C106.041 122.627 105.856 122.882 105.72 123.183C105.583 123.483 105.515 123.823 105.515 124.201C105.515 124.438 105.547 124.668 105.61 124.892C105.674 125.11 105.77 125.306 105.897 125.479C106.03 125.648 106.191 125.785 106.383 125.89C106.579 125.994 106.804 126.047 107.06 126.047C107.233 126.047 107.41 126.024 107.593 125.979C107.78 125.933 107.939 125.855 108.071 125.746L108.099 125.213L106.458 125.186L106.54 123.135C107.219 123.112 107.898 123.094 108.577 123.08C109.256 123.062 109.94 123.039 110.628 123.012L110.71 127.605Z" fill="white"/>
<path d="M56.7744 139.363C56.7744 139.988 56.665 140.535 56.4463 141.004C56.2321 141.469 55.9359 141.856 55.5576 142.166C55.1839 142.476 54.7441 142.708 54.2383 142.863C53.737 143.018 53.1969 143.096 52.6182 143.096C52.3949 143.096 52.1488 143.066 51.8799 143.007C51.6156 142.948 51.3467 142.875 51.0732 142.788C50.7998 142.697 50.5355 142.601 50.2803 142.501C50.0296 142.396 49.8063 142.298 49.6104 142.207L49.9111 139.391C50.2985 139.623 50.7269 139.801 51.1963 139.924C51.6702 140.042 52.1351 140.102 52.5908 140.102C52.6774 140.102 52.7822 140.099 52.9053 140.095C53.0283 140.086 53.1445 140.065 53.2539 140.033C53.3678 139.997 53.4635 139.944 53.541 139.876C53.6185 139.808 53.6572 139.71 53.6572 139.582C53.6572 139.495 53.6299 139.423 53.5752 139.363C53.5205 139.299 53.4499 139.249 53.3633 139.213C53.2767 139.172 53.1787 139.142 53.0693 139.124C52.96 139.101 52.8529 139.085 52.748 139.076C52.6432 139.067 52.5452 139.062 52.4541 139.062C52.363 139.062 52.29 139.062 52.2354 139.062C51.8434 139.062 51.4857 138.994 51.1621 138.857C50.8431 138.721 50.5674 138.532 50.335 138.29C50.1071 138.044 49.9294 137.755 49.8018 137.422C49.6742 137.085 49.6104 136.72 49.6104 136.328C49.6104 135.79 49.7174 135.31 49.9316 134.886C50.1504 134.457 50.4398 134.095 50.7998 133.799C51.1644 133.498 51.5814 133.268 52.0508 133.108C52.5202 132.949 53.0055 132.869 53.5068 132.869C53.7301 132.869 53.9603 132.878 54.1973 132.896C54.4342 132.91 54.6689 132.938 54.9014 132.979C55.1383 133.02 55.3685 133.072 55.5918 133.136C55.8151 133.2 56.027 133.279 56.2275 133.375L55.9678 136.15C55.6579 136.046 55.332 135.959 54.9902 135.891C54.653 135.818 54.3226 135.781 53.999 135.781C53.9398 135.781 53.8623 135.784 53.7666 135.788C53.6755 135.788 53.5775 135.795 53.4727 135.809C53.3724 135.818 53.2699 135.834 53.165 135.856C53.0602 135.879 52.9668 135.911 52.8848 135.952C52.8027 135.989 52.7367 136.039 52.6865 136.103C52.6364 136.166 52.6136 136.242 52.6182 136.328C52.6227 136.428 52.6592 136.51 52.7275 136.574C52.8005 136.633 52.8916 136.681 53.001 136.718C53.1149 136.75 53.238 136.772 53.3701 136.786C53.5068 136.8 53.6413 136.809 53.7734 136.813C53.9056 136.813 54.0286 136.813 54.1426 136.813C54.2565 136.809 54.3499 136.811 54.4229 136.82C54.7874 136.843 55.1156 136.921 55.4072 137.053C55.6989 137.185 55.945 137.36 56.1455 137.579C56.3506 137.798 56.5055 138.06 56.6104 138.365C56.7197 138.666 56.7744 138.999 56.7744 139.363Z" fill="white"/>
<path d="M65.6611 138.174C65.6611 138.589 65.6133 138.99 65.5176 139.377C65.4219 139.76 65.2829 140.12 65.1006 140.457C64.9229 140.794 64.7041 141.104 64.4443 141.387C64.1891 141.665 63.8997 141.904 63.5762 142.104C63.2572 142.305 62.9085 142.462 62.5303 142.576C62.152 142.686 61.751 142.74 61.3271 142.74C60.917 142.74 60.5251 142.688 60.1514 142.583C59.7822 142.478 59.4359 142.332 59.1123 142.146C58.7887 141.954 58.4948 141.726 58.2305 141.462C57.9707 141.193 57.7474 140.897 57.5605 140.573C57.3783 140.245 57.2347 139.894 57.1299 139.521C57.0296 139.147 56.9795 138.757 56.9795 138.352C56.9795 137.955 57.0273 137.568 57.123 137.189C57.2188 136.807 57.3555 136.447 57.5332 136.109C57.7155 135.772 57.9342 135.462 58.1895 135.18C58.4447 134.897 58.7295 134.653 59.0439 134.448C59.363 134.243 59.707 134.084 60.0762 133.97C60.4453 133.856 60.835 133.799 61.2451 133.799C61.9059 133.799 62.5075 133.901 63.0498 134.106C63.5967 134.312 64.0615 134.605 64.4443 134.988C64.8317 135.367 65.1302 135.827 65.3398 136.369C65.554 136.907 65.6611 137.508 65.6611 138.174ZM62.626 138.352C62.626 138.156 62.5964 137.966 62.5371 137.784C62.4824 137.597 62.4004 137.433 62.291 137.292C62.1816 137.146 62.0449 137.03 61.8809 136.943C61.7214 136.852 61.5368 136.807 61.3271 136.807C61.113 136.807 60.9215 136.845 60.7529 136.923C60.5843 137 60.4385 137.107 60.3154 137.244C60.1969 137.376 60.1058 137.534 60.042 137.716C59.9782 137.894 59.9463 138.083 59.9463 138.283C59.9463 138.475 59.9736 138.666 60.0283 138.857C60.083 139.049 60.165 139.222 60.2744 139.377C60.3838 139.532 60.5182 139.657 60.6777 139.753C60.8418 139.849 61.0309 139.896 61.2451 139.896C61.4593 139.896 61.6507 139.855 61.8193 139.773C61.9925 139.687 62.1383 139.573 62.2568 139.432C62.3753 139.286 62.4665 139.119 62.5303 138.933C62.5941 138.746 62.626 138.552 62.626 138.352Z" fill="white"/>
<path d="M74.5889 138.174C74.5889 138.589 74.541 138.99 74.4453 139.377C74.3496 139.76 74.2106 140.12 74.0283 140.457C73.8506 140.794 73.6318 141.104 73.3721 141.387C73.1169 141.665 72.8275 141.904 72.5039 142.104C72.1849 142.305 71.8363 142.462 71.458 142.576C71.0798 142.686 70.6787 142.74 70.2549 142.74C69.8447 142.74 69.4528 142.688 69.0791 142.583C68.71 142.478 68.3636 142.332 68.04 142.146C67.7165 141.954 67.4225 141.726 67.1582 141.462C66.8984 141.193 66.6751 140.897 66.4883 140.573C66.306 140.245 66.1624 139.894 66.0576 139.521C65.9574 139.147 65.9072 138.757 65.9072 138.352C65.9072 137.955 65.9551 137.568 66.0508 137.189C66.1465 136.807 66.2832 136.447 66.4609 136.109C66.6432 135.772 66.862 135.462 67.1172 135.18C67.3724 134.897 67.6572 134.653 67.9717 134.448C68.2907 134.243 68.6348 134.084 69.0039 133.97C69.373 133.856 69.7627 133.799 70.1729 133.799C70.8337 133.799 71.4352 133.901 71.9775 134.106C72.5244 134.312 72.9893 134.605 73.3721 134.988C73.7594 135.367 74.0579 135.827 74.2676 136.369C74.4818 136.907 74.5889 137.508 74.5889 138.174ZM71.5537 138.352C71.5537 138.156 71.5241 137.966 71.4648 137.784C71.4102 137.597 71.3281 137.433 71.2188 137.292C71.1094 137.146 70.9727 137.03 70.8086 136.943C70.6491 136.852 70.4645 136.807 70.2549 136.807C70.0407 136.807 69.8493 136.845 69.6807 136.923C69.512 137 69.3662 137.107 69.2432 137.244C69.1247 137.376 69.0335 137.534 68.9697 137.716C68.9059 137.894 68.874 138.083 68.874 138.283C68.874 138.475 68.9014 138.666 68.9561 138.857C69.0107 139.049 69.0928 139.222 69.2021 139.377C69.3115 139.532 69.446 139.657 69.6055 139.753C69.7695 139.849 69.9587 139.896 70.1729 139.896C70.387 139.896 70.5785 139.855 70.7471 139.773C70.9202 139.687 71.0661 139.573 71.1846 139.432C71.3031 139.286 71.3942 139.119 71.458 138.933C71.5218 138.746 71.5537 138.552 71.5537 138.352Z" fill="white"/>
<path d="M84.3643 133.197L83.8721 142.467L80.29 142.795L78.376 137.832L78.0752 142.891H74.999L75.2451 133.197L78.6631 133.033L81.0283 137.955L81.1377 133.307L84.3643 133.197Z" fill="white"/>
<path d="M57.7246 106.514L57.6094 91.418L43.2051 91.1875L42.9746 73.9023L57.3789 73.4414V59.8438L75.2402 58L75.4707 72.6348L90.5664 72.1738L90.7969 91.8789L75.7012 91.6484L75.9316 106.744L57.7246 106.514Z" fill="white"/>
<defs>
<radialGradient id="paint0_radial_406_4" cx="0" cy="0" r="1" gradientUnits="userSpaceOnUse" gradientTransform="translate(67.4557 96.0974) rotate(-90) scale(96.8841 72.3862)">
<stop offset="0.5119"/>
<stop offset="1"/>
</radialGradient>
<radialGradient id="paint1_radial_406_4" cx="0" cy="0" r="1" gradientUnits="userSpaceOnUse" gradientTransform="translate(35.8886 -1.54314) scale(112.634 112.99)">
<stop stop-color="white" stop-opacity="0.5"/>
<stop offset="1" stop-color="white" stop-opacity="0.25"/>
</radialGradient>
<radialGradient id="paint2_radial_406_4" cx="0" cy="0" r="1" gradientUnits="userSpaceOnUse" gradientTransform="translate(29.1394 -25.9863) scale(124.361 124.753)">
<stop stop-color="white" stop-opacity="0.5"/>
<stop offset="1" stop-color="white" stop-opacity="0.25"/>
</radialGradient>
<radialGradient id="paint3_radial_406_4" cx="0" cy="0" r="1" gradientUnits="userSpaceOnUse" gradientTransform="translate(22.8247 72.2928) scale(130.335 130.746)">
<stop stop-color="white"/>
<stop offset="0.9987" stop-color="white" stop-opacity="0.5"/>
</radialGradient>
</defs>
</svg>
