<svg width="40" height="36" viewBox="0 0 40 36" fill="none" xmlns="http://www.w3.org/2000/svg">
<path d="M30.0036 31.1638C30.0036 32.3099 30.0036 33.373 30.0036 34.4362C30.0036 35.2509 29.5037 35.7894 28.7067 35.7894C27.0721 35.8032 25.424 35.8032 23.7895 35.7894C23.0059 35.7894 22.5061 35.2647 22.5061 34.4638C22.5061 32.9174 22.5061 31.3847 22.5061 29.8383C22.5061 29.714 22.5061 29.5897 22.5061 29.4379C21.2498 29.4379 20.0205 29.4379 18.7371 29.4379C18.7371 29.5621 18.7371 29.6864 18.7371 29.7969C18.7371 31.3433 18.7371 32.9036 18.7371 34.45C18.7371 35.2371 18.2373 35.7756 17.4538 35.7756C15.8192 35.7894 14.1711 35.7894 12.5365 35.7756C11.7395 35.7756 11.2396 35.2509 11.2396 34.4224C11.2396 32.655 11.2396 30.8877 11.2396 29.1203C11.2396 28.9132 11.1721 28.7889 11.01 28.6784C10.4831 28.3609 9.94279 28.0433 9.44296 27.6705C8.24066 26.7868 7.52469 25.5441 7.01135 24.1495C6.36292 22.3959 6.05221 20.5733 5.84958 18.7231C5.53887 15.8235 5.52536 12.9239 5.45782 10.0243C5.45782 9.92762 5.44431 9.81716 5.44431 9.74812C4.71482 9.63766 3.99885 9.58243 3.30989 9.40293C1.89145 9.05774 0.810737 8.24309 0.243361 6.8209C-0.351033 5.32967 0.148798 3.68656 1.49969 2.55433C3.09375 1.2426 4.94448 0.524603 6.93029 0.110373C9.44296 -0.428126 12.2393 1.11833 13.0769 3.5899C13.3065 4.26648 13.3606 5.0259 13.3876 5.75771C13.4551 7.51128 13.4281 9.27866 13.4686 11.0322C13.5091 12.6063 13.6172 14.1666 13.982 15.713C14.2521 16.8453 14.6574 17.1352 15.9678 16.9971C16.8864 16.9005 17.805 16.7348 18.7371 16.6105C20.3042 16.4034 21.8712 16.4172 23.4382 16.6381C25.0458 16.8591 26.5993 17.2733 28.1258 17.8118C29.7604 18.3917 31.0032 19.4549 31.9354 20.9047C32.7054 22.106 33.4078 23.3487 34.1103 24.5776C35.0559 26.1931 35.988 27.8224 37.2984 29.1755C37.9333 29.8245 38.6358 30.432 39.3518 31.0119C39.8246 31.3985 40.0542 31.8266 39.9597 32.4341C39.8786 32.9726 39.5004 33.2488 39.0411 33.4283C37.6767 33.9668 36.2852 33.9944 34.8668 33.7044C33.1106 33.3454 31.5976 32.4893 30.2062 31.3709C30.1657 31.3019 30.1117 31.2605 30.0036 31.1638ZM16.238 33.2212C16.238 33.0969 16.238 33.014 16.238 32.9174C16.238 31.3295 16.238 29.7416 16.238 28.1537C16.238 27.4496 16.6973 26.9249 17.3862 26.8696C17.8725 26.8282 18.3454 26.842 18.8317 26.842C20.3987 26.842 21.9793 26.842 23.5463 26.842C24.5189 26.842 24.9918 27.3391 24.9918 28.3332C24.9918 29.8383 24.9918 31.3433 24.9918 32.8484C24.9918 32.9726 24.9918 33.0831 24.9918 33.2073C25.8563 33.2073 26.6534 33.2073 27.4909 33.2073C27.4909 33.0693 27.4909 32.945 27.4909 32.8207C27.4909 31.2881 27.4909 29.7692 27.4909 28.2366C27.4909 28.0847 27.4909 27.9328 27.5314 27.7947C27.8016 26.8006 28.9499 26.5382 29.6794 27.2701C30.4494 28.0433 31.2059 28.8303 32.0299 29.5345C33.0971 30.4182 34.3129 31.0257 35.7584 31.2329C35.4342 30.8739 35.1505 30.5701 34.8803 30.2525C33.6375 28.7889 32.6919 27.1182 31.7192 25.4612C31.0168 24.26 30.3008 23.0725 29.5308 21.9127C29.0985 21.2499 28.5041 20.7252 27.7611 20.4214C24.654 19.165 21.4524 18.6817 18.1292 19.2754C17.035 19.4687 15.9408 19.7035 14.8195 19.524C13.9144 19.3859 13.0363 19.0959 12.469 18.3227C12.1042 17.8256 11.8205 17.2457 11.6449 16.652C11.1046 14.8846 11.01 13.0482 10.956 11.2117C10.9154 9.5272 10.9019 7.82886 10.8749 6.14432C10.8614 5.64725 10.8749 5.15017 10.7668 4.6669C10.4967 3.4104 8.95663 2.37483 7.64627 2.58195C6.21432 2.80287 4.8229 3.29994 3.59358 4.15602C3.22884 4.40456 2.93164 4.76356 2.63445 5.10875C2.43181 5.32967 2.44532 5.60582 2.5669 5.88198C2.75603 6.33763 3.10726 6.62759 3.55305 6.8209C4.47166 7.19371 5.44431 7.26274 6.40344 7.12467C7.33556 7.0004 7.97048 7.7322 7.97048 8.50543C7.9975 12.054 7.97048 15.6026 8.41628 19.1373C8.6054 20.6148 8.87558 22.0784 9.42945 23.4729C9.87524 24.5776 10.5102 25.4889 11.5774 26.0688C12.0907 26.3449 12.577 26.6901 13.0769 26.9939C13.5362 27.2839 13.7523 27.6981 13.7523 28.2504C13.7388 29.783 13.7523 31.3019 13.7523 32.8345C13.7523 32.9588 13.7523 33.0831 13.7523 33.2212C14.5764 33.2212 15.3869 33.2212 16.238 33.2212Z" fill="white"/>
</svg>
