<svg width="39" height="40" viewBox="0 0 39 40" fill="none" xmlns="http://www.w3.org/2000/svg">
<path d="M10.9323 13.3044C8.1684 13.3044 5.53773 12.7022 3.53882 11.6085C1.2566 10.3647 0 8.59977 0 6.65219C0 4.7046 1.2566 2.94457 3.53882 1.69686C5.53773 0.602142 8.16346 0 10.9323 0C13.7012 0 16.3279 0.602142 18.3229 1.69686C20.6051 2.94457 21.8607 4.7046 21.8607 6.65219C21.8607 8.59977 20.609 10.3647 18.3229 11.6085C16.3279 12.7022 13.7012 13.3044 10.9323 13.3044ZM10.9323 2.96135C8.68565 2.96135 6.50807 3.44702 4.96027 4.29396C3.68985 4.98495 2.96135 5.84867 2.96135 6.65219C2.96135 7.4557 3.68985 8.31548 4.96027 9.01041C6.50807 9.85736 8.68565 10.343 10.9323 10.343C13.179 10.343 15.3576 9.85736 16.9054 9.01041C18.1758 8.31943 18.9033 7.4557 18.9033 6.65219C18.9033 5.84867 18.1758 4.98889 16.9054 4.29396C15.3615 3.44702 13.18 2.96135 10.9323 2.96135Z" fill="white"/>
<path d="M34.2619 19.9516C33.9596 19.9519 33.6644 19.8596 33.4161 19.6873C33.1678 19.5149 32.9782 19.2706 32.8727 18.9873C32.7673 18.704 32.7511 18.3952 32.8263 18.1025C32.9015 17.8097 33.0646 17.5469 33.2935 17.3495C33.7259 16.9774 34.2401 16.391 34.2401 15.7109C34.2401 13.9686 30.8316 12.0201 26.2692 12.0201C24.3354 12.0201 22.4559 12.3754 20.9762 13.022C20.6163 13.1791 20.2086 13.1867 19.843 13.0433C19.4774 12.8998 19.1838 12.617 19.0267 12.257C18.8696 11.897 18.8619 11.4894 19.0054 11.1238C19.1489 10.7581 19.4317 10.4645 19.7917 10.3074C21.6623 9.49107 23.903 9.05872 26.2692 9.05872C29.038 9.05872 31.6638 9.66086 33.6627 10.7546C35.9449 12.0033 37.2015 13.7633 37.2015 15.7109C37.2015 17.1363 36.5194 18.4748 35.2273 19.5923C34.9588 19.8237 34.6163 19.9512 34.2619 19.9516Z" fill="white"/>
<path d="M10.9323 32.0626C8.1684 32.0626 5.53773 31.4604 3.53783 30.3657C1.2566 29.12 0 27.358 0 25.4104V6.65512C0 6.26242 0.156 5.8858 0.433681 5.60812C0.711362 5.33044 1.08798 5.17444 1.48068 5.17444C1.87338 5.17444 2.24999 5.33044 2.52767 5.60812C2.80536 5.8858 2.96135 6.26242 2.96135 6.65512V25.4104C2.96135 26.2139 3.68985 27.0727 4.95928 27.7676C6.50807 28.6155 8.68467 29.1012 10.9323 29.1012C12.428 29.1121 13.916 28.8876 15.3418 28.4359C15.5649 28.3619 15.7781 28.2839 15.9745 28.2049C16.3366 28.0668 16.7383 28.0761 17.0936 28.2308C17.4488 28.3855 17.7293 28.6733 17.8747 29.0324C18.0202 29.3916 18.0191 29.7934 17.8716 30.1518C17.7242 30.5101 17.4421 30.7963 17.086 30.9491C16.8294 31.0537 16.554 31.1544 16.2687 31.2452C14.5438 31.7959 12.743 32.0717 10.9323 32.0626Z" fill="white"/>
<path d="M20.384 18.9132C19.9913 18.9132 19.6147 18.7572 19.337 18.4795C19.0593 18.2018 18.9033 17.8252 18.9033 17.4325V6.65219C18.9033 6.25949 19.0593 5.88287 19.337 5.60519C19.6147 5.32751 19.9913 5.17151 20.384 5.17151C20.7767 5.17151 21.1533 5.32751 21.431 5.60519C21.7087 5.88287 21.8647 6.25949 21.8647 6.65219V17.4325C21.8647 17.8252 21.7087 18.2018 21.431 18.4795C21.1533 18.7572 20.7767 18.9132 20.384 18.9132Z" fill="white"/>
<path d="M10.9323 27.2623C8.1684 27.2623 5.53773 26.6601 3.53783 25.5654C1.2566 24.3167 0 22.5577 0 20.6101C0 20.2174 0.156 19.8408 0.43368 19.5631C0.711361 19.2854 1.08798 19.1294 1.48068 19.1294C1.87338 19.1294 2.24999 19.2854 2.52767 19.5631C2.80535 19.8408 2.96135 20.2174 2.96135 20.6101C2.96135 22.3523 6.36987 24.3009 10.9323 24.3009C12.4279 24.3119 13.9159 24.0878 15.3418 23.6366C15.6596 23.531 15.9627 23.4155 16.2401 23.2931C16.4188 23.2085 16.6127 23.1606 16.8103 23.1522C17.0079 23.1437 17.2051 23.175 17.3904 23.2441C17.5757 23.3131 17.7453 23.4186 17.8892 23.5543C18.0331 23.69 18.1483 23.8531 18.2281 24.0341C18.3079 24.215 18.3506 24.4101 18.3538 24.6079C18.3569 24.8056 18.3205 25.002 18.2465 25.1854C18.1725 25.3688 18.0625 25.5355 17.9231 25.6757C17.7836 25.8159 17.6175 25.9268 17.4345 26.0017C17.0712 26.1626 16.6803 26.3127 16.2716 26.4479C14.5457 26.9981 12.7438 27.2729 10.9323 27.2623Z" fill="white"/>
<path d="M10.9323 22.4618C8.1684 22.4618 5.53773 21.8597 3.53783 20.765C1.2566 19.5163 0 17.7572 0 15.8097C0 15.417 0.156 15.0403 0.43368 14.7627C0.711361 14.485 1.08798 14.329 1.48068 14.329C1.87338 14.329 2.24999 14.485 2.52767 14.7627C2.80535 15.0403 2.96135 15.417 2.96135 15.8097C2.96135 17.5519 6.36987 19.5005 10.9323 19.5005C12.8148 19.5005 14.5896 19.1777 16.0653 18.5677C16.245 18.4933 16.4376 18.455 16.632 18.455C16.8265 18.455 17.0191 18.4933 17.1987 18.5677C17.3784 18.6422 17.5416 18.7513 17.6791 18.8888C17.8166 19.0263 17.9257 19.1895 18.0001 19.3692C18.0745 19.5489 18.1128 19.7414 18.1128 19.9359C18.1128 20.1304 18.0745 20.3229 18 20.5026C17.9256 20.6822 17.8165 20.8455 17.679 20.983C17.5415 21.1205 17.3782 21.2295 17.1986 21.304C15.3665 22.0611 13.2007 22.4618 10.9323 22.4618Z" fill="white"/>
<path d="M19.7365 19.1747C19.4645 19.1747 19.1978 19.0996 18.9656 18.9579C18.7334 18.8162 18.5447 18.6132 18.4203 18.3713C18.2959 18.1294 18.2405 17.8579 18.2603 17.5866C18.28 17.3153 18.3741 17.0546 18.5322 16.8333C18.7608 16.5397 18.8907 16.1815 18.9034 15.8097C18.9034 15.417 19.0594 15.0403 19.3371 14.7627C19.6148 14.485 19.9914 14.329 20.3841 14.329C20.7768 14.329 21.1534 14.485 21.4311 14.7627C21.7088 15.0403 21.8648 15.417 21.8648 15.8097C21.8648 16.7741 21.5548 17.698 20.9428 18.5548C20.8057 18.7468 20.6246 18.9032 20.4148 19.011C20.205 19.1188 19.9724 19.175 19.7365 19.1747Z" fill="white"/>
<path d="M10.9323 17.6616C8.1684 17.6616 5.53773 17.0594 3.53882 15.9647C1.2566 14.716 0 12.956 0 11.0094C0 10.6167 0.156 10.24 0.433681 9.96237C0.711361 9.68469 1.08798 9.52869 1.48068 9.52869C1.87338 9.52869 2.24999 9.68469 2.52767 9.96237C2.80535 10.24 2.96135 10.6167 2.96135 11.0094C2.96135 11.8129 3.68985 12.6717 4.96027 13.3666C6.50807 14.2145 8.68565 14.7002 10.9323 14.7002C13.179 14.7002 15.3615 14.2145 16.9054 13.3666C18.1758 12.6756 18.9033 11.8129 18.9033 11.0094C18.9033 10.6167 19.0593 10.24 19.337 9.96237C19.6147 9.68469 19.9913 9.52869 20.384 9.52869C20.7767 9.52869 21.1533 9.68469 21.431 9.96237C21.7087 10.24 21.8647 10.6167 21.8647 11.0094C21.8647 12.956 20.609 14.716 18.3268 15.9647C16.3279 17.0594 13.7012 17.6616 10.9323 17.6616Z" fill="white"/>
<path d="M26.2693 29.3716C23.23 29.3716 20.3466 28.7113 18.1592 27.5129C15.6864 26.1605 14.3252 24.2613 14.3252 22.1657C14.3252 20.07 15.6864 18.1718 18.1592 16.8185C20.3506 15.6201 23.23 14.9597 26.2693 14.9597C29.3087 14.9597 32.192 15.6201 34.3785 16.8185C36.8512 18.1718 38.2134 20.0759 38.2134 22.1657C38.2134 24.2554 36.8512 26.1586 34.3785 27.5129C32.1881 28.7113 29.3087 29.3716 26.2693 29.3716ZM26.2693 17.9211C23.7551 17.9211 21.3179 18.466 19.5816 19.4166C18.1226 20.2141 17.2865 21.2161 17.2865 22.1657C17.2865 23.1153 18.1226 24.1172 19.5816 24.9148C21.3179 25.8624 23.7522 26.4103 26.2693 26.4103C28.7865 26.4103 31.2207 25.8654 32.957 24.9148C34.416 24.1172 35.2521 23.1153 35.2521 22.1657C35.2521 21.2161 34.413 20.2141 32.957 19.4166C31.2207 18.466 28.7865 17.9211 26.2693 17.9211Z" fill="white"/>
<path d="M26.2693 40C23.23 40 20.3466 39.3406 18.1592 38.1413C15.6864 36.7889 14.3252 34.8897 14.3252 32.794V22.1657C14.3252 21.773 14.4812 21.3964 14.7589 21.1187C15.0366 20.8411 15.4132 20.6851 15.8059 20.6851C16.1986 20.6851 16.5752 20.8411 16.8529 21.1187C17.1305 21.3964 17.2865 21.773 17.2865 22.1657V32.794C17.2865 33.7436 18.1226 34.7456 19.5816 35.5441C21.3179 36.4938 23.7551 37.0386 26.2693 37.0386C28.7835 37.0386 31.2207 36.4938 32.957 35.5441C34.413 34.7466 35.2521 33.7436 35.2521 32.794V22.1657C35.2521 21.773 35.4081 21.3964 35.6858 21.1187C35.9635 20.8411 36.3401 20.6851 36.7328 20.6851C37.1255 20.6851 37.5021 20.8411 37.7798 21.1187C38.0574 21.3964 38.2134 21.773 38.2134 22.1657V32.794C38.2134 34.8897 36.8512 36.7889 34.3785 38.1413C32.1881 39.3406 29.3087 40 26.2693 40Z" fill="white"/>
<path d="M26.2693 34.6863C23.23 34.6863 20.3466 34.0259 18.1592 32.8275C15.6864 31.4742 14.3252 29.575 14.3252 27.4803C14.3252 27.0876 14.4812 26.711 14.7589 26.4333C15.0366 26.1556 15.4132 25.9996 15.8059 25.9996C16.1986 25.9996 16.5752 26.1556 16.8529 26.4333C17.1305 26.711 17.2865 27.0876 17.2865 27.4803C17.2865 28.4289 18.1226 29.4318 19.5816 30.2294C21.3179 31.18 23.7551 31.7249 26.2693 31.7249C28.7835 31.7249 31.2207 31.18 32.957 30.2294C34.413 29.4318 35.2521 28.4289 35.2521 27.4803C35.2521 27.0876 35.4081 26.711 35.6858 26.4333C35.9635 26.1556 36.3401 25.9996 36.7328 25.9996C37.1255 25.9996 37.5021 26.1556 37.7798 26.4333C38.0574 26.711 38.2134 27.0876 38.2134 27.4803C38.2134 29.575 36.8512 31.4742 34.3785 32.8275C32.1881 34.0259 29.3087 34.6863 26.2693 34.6863Z" fill="white"/>
<path d="M35.7209 21.3385C35.3282 21.3385 34.9516 21.1825 34.6739 20.9048C34.3962 20.6271 34.2402 20.2505 34.2402 19.8578V15.7119C34.2402 15.3192 34.3962 14.9426 34.6739 14.6649C34.9516 14.3872 35.3282 14.2312 35.7209 14.2312C36.1136 14.2312 36.4902 14.3872 36.7679 14.6649C37.0456 14.9426 37.2016 15.3192 37.2016 15.7119V19.8578C37.2016 20.2505 37.0456 20.6271 36.7679 20.9048C36.4902 21.1825 36.1136 21.3385 35.7209 21.3385Z" fill="white"/>
</svg>
