<svg width="42" height="34" viewBox="0 0 42 34" fill="none" xmlns="http://www.w3.org/2000/svg">
<path fill-rule="evenodd" clip-rule="evenodd" d="M6.20993 1.55687C6.44176 1.20912 6.83205 1.00024 7.24999 1.00024H34.75C35.1679 1.00024 35.5582 1.20912 35.79 1.55687L40.79 9.05686C41.0457 9.44043 41.0696 9.93361 40.852 10.3401C40.6345 10.7465 40.2109 11.0002 39.7499 11.0002H2.25C1.78901 11.0002 1.36543 10.7465 1.14791 10.3401C0.930385 9.93361 0.954226 9.44043 1.20994 9.05686L6.20993 1.55687ZM7.91897 3.50024L4.58564 8.50023H37.4143L34.081 3.50024H7.91897Z" fill="white"/>
<path fill-rule="evenodd" clip-rule="evenodd" d="M6.10592 1.48753C6.36094 1.10501 6.79026 0.875244 7.24999 0.875244H34.75C35.2097 0.875244 35.639 1.10501 35.894 1.48753L40.894 8.98752C41.1753 9.40945 41.2015 9.95194 40.9622 10.399C40.723 10.8461 40.257 11.1252 39.7499 11.1252H2.25C1.74291 11.1252 1.27698 10.8461 1.0377 10.399C0.798423 9.95194 0.824648 9.40944 1.10593 8.98752L6.10592 1.48753ZM7.24999 1.12524C6.87385 1.12524 6.52259 1.31323 6.31394 1.62621L1.31395 9.12619C1.0838 9.47141 1.06235 9.91527 1.25812 10.2811C1.45389 10.6469 1.83511 10.8752 2.25 10.8752H39.7499C40.1648 10.8752 40.5461 10.6469 40.7418 10.2811C40.9376 9.91527 40.9161 9.47141 40.686 9.12619L35.686 1.62621C35.4774 1.31323 35.1261 1.12524 34.75 1.12524H7.24999ZM7.81496 3.4309C7.83815 3.39613 7.87718 3.37524 7.91897 3.37524H34.081C34.1228 3.37524 34.1618 3.39613 34.185 3.4309L37.5183 8.4309C37.5439 8.46925 37.5463 8.51857 37.5245 8.55922C37.5028 8.59986 37.4604 8.62523 37.4143 8.62523H4.58564C4.53954 8.62523 4.49719 8.59986 4.47543 8.55922C4.45368 8.51857 4.45607 8.46925 4.48164 8.4309L7.81496 3.4309ZM7.98587 3.62524L4.81921 8.37523H37.1807L34.0141 3.62524H7.98587Z" fill="white"/>
<path fill-rule="evenodd" clip-rule="evenodd" d="M1.4498 8.79C1.98015 8.34804 2.76835 8.4197 3.2103 8.95004L21 30.2977L38.7897 8.95004C39.2316 8.4197 40.0199 8.34804 40.5502 8.79C41.0805 9.23195 41.1522 10.0202 40.7102 10.5505L21.9603 33.0505C21.7228 33.3355 21.371 33.5002 21 33.5002C20.629 33.5002 20.2772 33.3355 20.0397 33.0505L1.28975 10.5505C0.8478 10.0202 0.919455 9.23195 1.4498 8.79Z" fill="white"/>
<path fill-rule="evenodd" clip-rule="evenodd" d="M1.36978 8.69397C1.95316 8.20782 2.82019 8.28664 3.30634 8.87002L21 30.1024L38.6937 8.87002C39.1798 8.28664 40.0468 8.20782 40.6302 8.69397C41.2136 9.18012 41.2924 10.0471 40.8063 10.6305L22.0563 33.1305C21.7951 33.444 21.4081 33.6252 21 33.6252C20.5919 33.6252 20.2049 33.444 19.9437 33.1305L1.19373 10.6305C0.70758 10.0471 0.7864 9.18012 1.36978 8.69397ZM3.11428 9.03007C2.71652 8.55276 2.00714 8.48827 1.52983 8.88603C1.05252 9.28379 0.988026 9.99317 1.38579 10.4705L20.1358 32.9704C20.3495 33.2269 20.6661 33.3752 21 33.3752C21.3339 33.3752 21.6505 33.2269 21.8643 32.9704L40.6142 10.4705C41.012 9.99317 40.9475 9.28379 40.4702 8.88603C39.9929 8.48827 39.2835 8.55276 38.8857 9.03007L21.096 30.3777C21.0723 30.4062 21.0371 30.4227 21 30.4227C20.9629 30.4227 20.9277 30.4062 20.904 30.3777L3.11428 9.03007Z" fill="white"/>
<path fill-rule="evenodd" clip-rule="evenodd" d="M15.1453 1.06448C15.8002 1.28279 16.1542 1.99069 15.9358 2.64562L13.5785 9.71768L22.165 31.7972C22.4152 32.4406 22.0965 33.1651 21.453 33.4153C20.8096 33.6655 20.0852 33.3468 19.835 32.7033L11.085 10.2034C10.9793 9.93169 10.972 9.6316 11.0641 9.35504L13.5641 1.85505C13.7825 1.20012 14.4904 0.846176 15.1453 1.06448Z" fill="white"/>
<path fill-rule="evenodd" clip-rule="evenodd" d="M13.4456 1.8155C13.6857 1.09508 14.4644 0.705732 15.1848 0.945872C15.9052 1.18601 16.2946 1.9647 16.0544 2.68512L13.7113 9.71439L22.2815 31.7519C22.5567 32.4597 22.2061 33.2565 21.4983 33.5318C20.7906 33.807 19.9937 33.4564 19.7185 32.7486L10.9685 10.2487C10.8523 9.94979 10.8442 9.6197 10.9456 9.31549L13.4456 1.8155ZM15.1057 1.18304C14.5163 0.986565 13.8792 1.30512 13.6827 1.89455L11.1827 9.39454C11.0998 9.64345 11.1064 9.91352 11.2015 10.1581L19.9515 32.658C20.1767 33.2371 20.8287 33.524 21.4077 33.2988C21.9868 33.0736 22.2737 32.4216 22.0485 31.8425L13.462 9.76296C13.4514 9.73579 13.4507 9.70578 13.4599 9.67812L15.8173 2.60607C16.0137 2.01663 15.6952 1.37952 15.1057 1.18304Z" fill="white"/>
<path fill-rule="evenodd" clip-rule="evenodd" d="M26.8548 1.06448C27.5097 0.846176 28.2176 1.20012 28.4359 1.85505L30.9359 9.35504C31.0281 9.6316 31.0207 9.93169 30.9151 10.2034L22.1651 32.7033C21.9149 33.3468 21.1904 33.6655 20.547 33.4153C19.9036 33.1651 19.5849 32.4406 19.8351 31.7972L28.4216 9.71768L26.0642 2.64562C25.8459 1.99069 26.1999 1.28279 26.8548 1.06448Z" fill="white"/>
<path fill-rule="evenodd" clip-rule="evenodd" d="M26.8153 0.945872C27.5357 0.705732 28.3144 1.09508 28.5546 1.8155L31.0545 9.31549C31.156 9.6197 31.1478 9.94979 31.0316 10.2487L22.2816 32.7486C22.0064 33.4564 21.2095 33.807 20.5018 33.5318C19.794 33.2565 19.4434 32.4597 19.7186 31.7519L28.2888 9.71439L25.9457 2.68512C25.7055 1.9647 26.0949 1.18601 26.8153 0.945872ZM28.3174 1.89455C28.1209 1.30512 27.4838 0.986565 26.8944 1.18304C26.3049 1.37952 25.9864 2.01663 26.1828 2.60607L28.5402 9.67812C28.5494 9.70578 28.5487 9.73579 28.5381 9.76296L19.9516 31.8425C19.7264 32.4216 20.0133 33.0736 20.5924 33.2988C21.1714 33.524 21.8234 33.2371 22.0486 32.658L30.7986 10.1581C30.8937 9.91352 30.9003 9.64345 30.8174 9.39454L28.3174 1.89455Z" fill="white"/>
</svg>
