<svg width="40" height="40" viewBox="0 0 40 40" fill="none" xmlns="http://www.w3.org/2000/svg">
<path d="M31.425 40C31.1789 40.0009 30.9364 39.9385 30.7187 39.8182L20.0001 33.9142L9.27939 39.8182C9.02953 39.9551 8.74813 40.0162 8.46692 39.9945C8.1857 39.9729 7.91586 39.8694 7.68781 39.6957C7.45976 39.5219 7.28258 39.285 7.17625 39.0114C7.06992 38.7379 7.03867 38.4387 7.08602 38.1475L9.1341 25.6441L0.457475 16.7885C0.255133 16.5821 0.11198 16.3205 0.0442088 16.0333C-0.0235622 15.7461 -0.0132455 15.4448 0.0739918 15.1634C0.161229 14.882 0.321905 14.6318 0.537843 14.4411C0.753781 14.2504 1.01636 14.1268 1.29588 14.0843L13.2827 12.2603L18.6431 0.883379C18.7681 0.618206 18.9614 0.394946 19.2012 0.238838C19.441 0.0827303 19.7177 0 20.0001 0C20.2824 0 20.5591 0.0827303 20.7989 0.238838C21.0387 0.394946 21.2321 0.618206 21.3571 0.883379L26.7174 12.2603L38.7032 14.0843C38.9828 14.1266 39.2455 14.2501 39.4616 14.4408C39.6777 14.6314 39.8385 14.8816 39.9258 15.163C40.0132 15.4444 40.0236 15.7458 39.9559 16.0331C39.8882 16.3203 39.745 16.582 39.5427 16.7885L30.866 25.6441L32.9141 38.1475C32.9513 38.3749 32.9406 38.6081 32.8828 38.8308C32.825 39.0535 32.7214 39.2602 32.5794 39.4366C32.4374 39.613 32.2604 39.7548 32.0606 39.8521C31.8609 39.9495 31.6432 39.9999 31.4229 40H31.425ZM4.76552 16.76L11.8128 23.9554C11.988 24.1343 12.1192 24.3551 12.1951 24.5987C12.271 24.8424 12.2894 25.1018 12.2486 25.3545L10.5849 35.5141L19.2938 30.7207C19.5115 30.6004 19.7539 30.5375 20.0001 30.5375C20.2462 30.5375 20.4886 30.6004 20.7063 30.7207L29.4172 35.5173L27.7515 25.3545C27.7101 25.1014 27.7281 24.8415 27.8038 24.5972C27.8796 24.3529 28.0108 24.1316 28.1864 23.9522L35.2346 16.76L25.4956 15.2805C25.2529 15.2436 25.0224 15.1454 24.824 14.9944C24.6256 14.8435 24.4652 14.6443 24.3565 14.414L20.0001 5.17061L15.6446 14.414C15.5359 14.6444 15.3753 14.8437 15.1767 14.9947C14.9781 15.1456 14.7474 15.2437 14.5045 15.2805L4.76552 16.76Z" fill="white"/>
</svg>
