<svg width="70" height="70" viewBox="0 0 70 70" fill="none" xmlns="http://www.w3.org/2000/svg">
<path d="M69.986 23.9258C68.7418 13.5898 59.2673 5.82422 48.3436 2.22852C53.3201 7.61523 56.8748 15.9824 56.8748 26.25H60.7165L44.7753 43.9551C44.4335 43.873 44.119 43.75 43.7499 43.75H37.1875V26.25H52.4998C52.4998 10.5 43.08 0 35 0C26.92 0 17.5002 10.5 17.5002 26.25H32.8125V43.75H26.2501C25.881 43.75 25.5665 43.873 25.2247 43.9551L9.28347 26.25H13.1252C13.1252 15.9824 16.6799 7.61523 21.6564 2.22852C10.7327 5.83789 1.25816 13.6035 0.0140359 23.9258C-0.136353 25.1699 0.943714 26.25 2.20151 26.25H3.39095L22.0802 47.0176C21.9845 47.373 21.8615 47.7285 21.8615 48.125V65.625C21.8615 68.0449 23.8165 70 26.2364 70H43.7362C46.1561 70 48.1112 68.0449 48.1112 65.625V48.125C48.1112 47.7285 47.9881 47.3867 47.8924 47.0176L66.5954 26.25H67.7848C69.0563 26.25 70.1364 25.1836 69.986 23.9258Z" fill="white"/>
</svg>
