<svg width="71" height="70" viewBox="0 0 71 70" fill="none" xmlns="http://www.w3.org/2000/svg">
<path d="M38.2302 2.14172L46.2644 19.6073C46.6137 20.6552 47.6616 21.3539 48.7096 21.7032L66.8738 24.4977C70.0176 24.4977 71.0655 27.9908 68.9696 30.0867L55.6958 43.7098C54.9972 44.4084 54.6479 45.8057 54.6479 46.8536L57.7917 65.7164C58.141 68.5109 55.3465 70.9561 52.9013 69.5589L36.4837 60.4768C35.4357 59.7781 34.3878 59.7781 33.3399 60.4768L16.9222 69.5589C14.477 70.9561 11.3332 68.8602 12.0318 65.7164L15.1756 46.8536C15.525 45.8057 14.8263 44.4084 14.1277 43.7098L0.853873 30.0867C-0.892685 27.9908 0.155249 24.4977 2.94974 24.1484L21.1139 21.3539C22.1619 21.3539 23.2098 20.3059 23.5591 19.258L31.5933 1.79241C33.3399 -0.652774 36.833 -0.652775 38.2302 2.14172Z" fill="white"/>
</svg>
