<svg width="70" height="41" viewBox="0 0 70 41" fill="none" xmlns="http://www.w3.org/2000/svg">
<path d="M67.4792 15.3084C62.8863 4.35303 53.5884 -2.20904 46.6991 0.682721C46.6991 0.682721 46.6991 0.682721 46.6431 0.682721C42.9463 2.23983 39.0256 3.1296 35.0488 3.1296H34.8807C30.9039 3.1296 26.9832 2.23983 23.2864 0.682721C23.2864 0.682721 23.2864 0.682721 23.2304 0.682721C16.3971 -2.20904 7.09922 4.35303 2.50631 15.3084C-2.08661 26.2637 -0.182228 37.4415 6.70714 40.3333C10.7399 42.0016 15.5569 40.4445 19.8137 36.7186C23.9026 33.1038 29.1676 31.0462 34.6007 31.0462H35.3848C40.8739 31.0462 46.083 33.1038 50.1718 36.7186C54.4286 40.4445 59.2456 42.0016 63.2784 40.3333C70.2237 37.4415 72.0721 26.2637 67.4792 15.3084ZM24.8547 21.8148H21.8301V24.8178C21.8301 26.7642 20.2058 28.3769 18.2454 28.3769C16.285 28.3769 14.6607 26.7642 14.6607 24.8178V21.8148H11.6361C9.67573 21.8148 8.05141 20.2021 8.05141 18.2558C8.05141 16.3094 9.67573 14.6967 11.6361 14.6967H14.6607V11.6937C14.6607 9.74729 16.285 8.13458 18.2454 8.13458C20.2058 8.13458 21.8301 9.74729 21.8301 11.6937V14.6967H24.8547C26.8151 14.6967 28.4395 16.3094 28.4395 18.2558C28.4395 20.2577 26.8151 21.8148 24.8547 21.8148ZM51.7401 8.13458C53.7005 8.13458 55.3248 9.74729 55.3248 11.6937C55.3248 13.64 53.7005 15.2528 51.7401 15.2528C49.7797 15.2528 48.1554 13.64 48.1554 11.6937C48.2114 9.69168 49.7797 8.13458 51.7401 8.13458ZM45.1308 21.8148C43.1704 21.8148 41.5461 20.2021 41.5461 18.2558C41.5461 16.3094 43.1704 14.6967 45.1308 14.6967C47.0912 14.6967 48.7155 16.3094 48.7155 18.2558C48.7155 20.2021 47.1472 21.8148 45.1308 21.8148ZM51.7401 28.4325C49.7797 28.4325 48.1554 26.8198 48.1554 24.8734C48.1554 22.9271 49.7797 21.3143 51.7401 21.3143C53.7005 21.3143 55.3248 22.9271 55.3248 24.8734C55.3248 26.8198 53.7565 28.4325 51.7401 28.4325ZM58.4054 21.8148C56.445 21.8148 54.8207 20.2021 54.8207 18.2558C54.8207 16.3094 56.445 14.6967 58.4054 14.6967C60.3658 14.6967 61.9901 16.3094 61.9901 18.2558C61.9901 20.2021 60.3658 21.8148 58.4054 21.8148Z" fill="white"/>
</svg>
