<svg width="70" height="70" viewBox="0 0 70 70" fill="none" xmlns="http://www.w3.org/2000/svg">
<path fill-rule="evenodd" clip-rule="evenodd" d="M35.5 70L35.4824 69.9999L35.4528 70L35.4444 70C35.3887 70 35.3331 69.9996 35.2775 69.9989C35.1851 69.9996 35.0926 70 35 70C28.0777 70 21.3108 67.9473 15.5551 64.1014C9.79933 60.2556 5.3133 54.7893 2.66423 48.3939C0.84597 44.0043 -0.050814 39.3122 0.00222168 34.6054C0.000743455 34.5704 0 34.5352 0 34.5C0 34.439 0.00223028 34.3782 0.00664569 34.3178C0.0466975 32.2628 0.267873 30.2062 0.672531 28.1719C2.02301 21.3825 5.35644 15.1461 10.2513 10.2513C15.1461 5.35644 21.3825 2.02301 28.1719 0.672531C30.5225 0.204959 32.9029 -0.0176422 35.276 0.00109033C35.3321 0.000363875 35.3882 0 35.4444 0L35.4529 1.3563e-05L35.4825 6.09224e-05L35.5 0C35.5157 0 35.5314 0.000147654 35.547 0.000442193C35.7201 0.00193432 35.8926 0.00719984 36.0644 0.0161955C40.2791 0.144455 44.4581 1.03394 48.3939 2.66423C54.7893 5.3133 60.2556 9.79933 64.1014 15.5551C67.8208 21.1215 69.8631 27.6338 69.9934 34.3177C69.9978 34.3782 70 34.439 70 34.5C70 34.5352 69.9993 34.5703 69.9978 34.6054C69.9993 34.7369 70 34.8684 70 35C70 44.2826 66.3125 53.185 59.7487 59.7487C53.4314 66.066 44.9478 69.719 36.0439 69.9845C35.8793 69.993 35.714 69.998 35.5482 69.9995L35.5193 69.9999L35.5 70ZM64.8497 32C64.4992 28.5111 63.5412 25.1286 62.037 22H53.7197C54.3892 25.126 54.8127 28.4826 54.9506 32H64.8497ZM56.2132 13.7868C57.2229 14.7965 58.1533 15.8708 59.0001 17H52.3775C51.2563 13.5741 49.8107 10.5387 48.1091 8.01568C51.0852 9.46144 53.8292 11.4028 56.2132 13.7868ZM38 5.40564C41.6955 6.78198 44.961 11.0702 47.1672 17H38V5.40564ZM33 32V22H21.6099C20.8352 25.0963 20.3336 28.4714 20.1698 32H33ZM33 5.32821V17H23.1889C25.5404 10.9542 29.0433 6.61481 33 5.32821ZM22.3645 7.79075C20.5159 10.3576 18.9489 13.4717 17.7417 17H11C13.0237 14.3018 15.4987 11.9497 18.3329 10.0559C19.6219 9.19462 20.9702 8.43824 22.3645 7.79075ZM7.28363 23.5195C7.49639 23.0058 7.72298 22.4992 7.963 22H16.3385C15.6385 25.126 15.1958 28.4826 15.0517 32H5.15039C5.44188 29.0998 6.15602 26.2418 7.28363 23.5195ZM38 32V22H48.6774C49.4185 25.0963 49.8983 28.4714 50.055 32H38ZM54.9556 37H64.9333C64.7023 40.4569 63.8748 43.8396 62.4955 47H53.8027C54.4324 43.8651 54.8287 40.5099 54.9556 37ZM48.7702 47C49.4675 43.8918 49.9165 40.5194 50.0607 37H38V47H48.7702ZM33 47V37H20.1638C20.3146 40.5194 20.784 43.8918 21.513 47H33ZM22.9887 52H33V64.5278C28.9294 63.1684 25.3391 58.4905 22.9887 52ZM16.2518 47C15.5934 43.8651 15.1791 40.5099 15.0464 37H5.06673C5.15286 38.2891 5.32251 39.576 5.57646 40.8527C5.99877 42.9758 6.64732 45.0359 7.50455 47H16.2518ZM10.2816 52H17.5654C18.8413 55.9928 20.549 59.4889 22.587 62.3115C19.3285 60.8305 16.344 58.7704 13.7868 56.2132C12.4862 54.9126 11.3142 53.5015 10.2816 52ZM38 52H47.3587C45.1523 58.3695 41.8039 62.9932 38 64.4483V52ZM52.5462 52H59.7184C56.7285 56.3475 52.6485 59.824 47.8966 62.0865C49.7782 59.3039 51.3579 55.8874 52.5462 52Z" fill="white"/>
</svg>
