<svg width="64" height="25" viewBox="0 0 64 25" fill="none" xmlns="http://www.w3.org/2000/svg">
<path d="M56.1814 1.70747L56.1665 1.70399L56.1516 1.70081C55.5786 1.57852 54.9808 1.5 54.3401 1.5H8.84558C5.09965 1.5 1.64648 4.14265 1.64648 7.88632V17.1137C1.64648 20.8574 5.09965 23.5 8.84558 23.5H54.3401C58.086 23.5 61.5392 20.8574 61.5392 17.1137V7.88632C61.5392 6.05724 60.6945 4.43928 59.3427 3.28523C58.4666 2.53732 57.3885 1.99087 56.1814 1.70747Z" fill="#E7B628" stroke="#3A3A3A" stroke-width="3"/>
<g opacity="0.19">
<path opacity="0.19" d="M54.1935 13.297H8.69909C5.55476 13.297 3 11.1159 3 8.41064V17.1138C3 19.8191 5.55476 22.0001 8.69909 22.0001H54.1935C57.3379 22.0001 59.8926 19.8191 59.8926 17.1138V8.41064C59.8926 11.1159 57.3379 13.297 54.1935 13.297Z" fill="#5C647B"/>
</g>
<g opacity="0.42">
<path opacity="0.42" d="M54.1935 20.1546H8.69909C5.55476 20.1546 3 17.9736 3 15.2683V17.1138C3 19.8191 5.55476 22.0001 8.69909 22.0001H54.1935C57.3379 22.0001 59.8926 19.8191 59.8926 17.1138V15.2683C59.8926 17.9736 57.3379 20.1546 54.1935 20.1546Z" fill="#5C647B"/>
</g>
<g opacity="0.3">
<path opacity="0.49" d="M36.5138 3L16.7556 22H8.54297L27.3271 3H36.5138Z" fill="white"/>
</g>
<g opacity="0.3">
<path opacity="0.49" d="M55.0871 3.01068L37.7019 22H21.041L41.6418 3L53.7471 3.00015C54.2717 3.00015 53.7471 3 55.0871 3.01068Z" fill="white"/>
</g>
</svg>
