<svg width="1047" height="610" viewBox="0 0 1047 610" fill="none" xmlns="http://www.w3.org/2000/svg">
<g clip-path="url(#clip0_33:4425)">
<path d="M130.272 581.106C242.853 645.316 339.35 581.106 355.433 581.106C371.516 581.106 516.263 565.053 516.263 565.053C516.263 565.053 435.848 452.685 580.595 388.474C725.341 324.264 1047 324.264 1047 276.106C1047 227.948 886.171 -28.8944 693.175 3.21091C500.18 35.3162 387.599 179.79 355.433 195.842C323.267 211.895 17.6913 244 1.60839 276.106C-14.4746 308.211 130.272 581.106 130.272 581.106Z" fill="#9C8D5E"/>
<path d="M188.17 317.842C231.594 303.394 340.958 300.184 434.24 272.894C435.848 272.894 437.456 271.289 439.064 271.289C503.396 250.42 562.903 207.078 596.677 176.578C606.327 168.552 614.369 160.526 619.193 154.105C622.41 150.894 624.018 149.289 624.018 147.684C632.06 134.842 619.193 115.578 619.193 102.736C619.193 97.9205 620.802 94.7099 622.41 91.4994C636.885 75.4468 739.815 62.6047 792.889 112.368C800.931 120.394 807.364 128.42 812.189 136.447C837.922 184.605 818.622 242.394 813.797 250.42C808.972 260.052 722.124 256.842 615.977 293.763C509.829 332.289 477.663 375.631 439.064 478.368C432.631 496.026 414.94 513.684 392.424 523.315C392.424 523.315 390.816 523.315 390.816 524.92C389.207 526.526 385.991 526.526 384.382 526.526C373.124 529.736 361.866 529.736 350.608 526.526C315.226 515.289 303.968 473.552 291.101 462.315C278.235 451.078 247.677 463.92 236.419 457.499C221.945 451.078 144.746 332.289 188.17 317.842Z" fill="url(#paint0_linear_33:4425)"/>
<path opacity="0.46" d="M624.018 88.2894C636.885 75.4473 739.816 62.6052 792.889 112.368C800.931 120.395 807.364 128.421 812.189 136.447C808.972 136.447 804.147 133.237 797.714 126.816C765.548 91.4999 677.092 89.8947 665.834 97.921C654.576 107.553 730.166 203.868 762.332 237.579C706.041 218.316 627.235 136.447 619.193 99.5262C619.193 96.3157 620.802 91.4999 624.018 88.2894Z" fill="#C97D4F"/>
<path opacity="0.46" d="M517.87 277.709L529.128 250.419L543.603 235.972C590.243 207.077 614.368 181.393 628.843 163.735C614.368 221.524 564.511 256.84 517.87 277.709Z" fill="#C97D4F"/>
<path opacity="0.46" d="M188.17 317.842C231.594 303.395 350.608 309.816 443.889 282.527C453.539 279.316 453.539 280.921 463.189 276.105H476.055L474.447 296.974C469.622 298.579 466.405 298.579 463.189 300.184C418.157 308.211 217.12 322.658 192.995 341.921C168.871 362.79 218.728 443.053 239.636 446.263C260.544 449.474 360.258 401.316 368.299 409.342C376.341 417.369 318.442 443.053 321.659 476.763C324.875 507.263 360.258 529.737 384.382 526.526C373.124 529.737 361.866 529.737 350.608 526.526C315.226 515.29 303.968 473.553 291.101 462.316C278.235 451.079 247.677 463.921 236.419 457.5C221.945 451.079 144.746 332.29 188.17 317.842Z" fill="#C97D4F"/>
<path opacity="0.17" d="M638.493 260.052C638.493 260.052 538.779 298.579 505.005 329.079C471.23 359.579 418.157 447.868 418.157 447.868C418.157 447.868 447.106 359.579 485.705 321.052C524.304 284.131 638.493 260.052 638.493 260.052Z" fill="#C97D4F"/>
<path d="M484.097 272.895L439.064 271.29C503.396 250.422 562.903 207.08 596.677 176.58L529.129 242.395L514.654 256.843L503.396 284.132L484.097 333.895L419.765 423.79L476.055 332.29L480.88 293.764L484.097 272.895Z" fill="#C97D4F"/>
<path opacity="0.66" d="M514.654 255.237L493.746 341.922L419.765 423.79L482.488 337.106L514.654 255.237Z" fill="url(#paint1_linear_33:4425)"/>
</g>
<defs>
<linearGradient id="paint0_linear_33:4425" x1="820.684" y1="314.729" x2="176.88" y2="289.101" gradientUnits="userSpaceOnUse">
<stop stop-color="#F3DA95"/>
<stop offset="1" stop-color="#E3AA6E"/>
</linearGradient>
<linearGradient id="paint1_linear_33:4425" x1="512" y1="341.44" x2="423.631" y2="337.922" gradientUnits="userSpaceOnUse">
<stop stop-color="#F5E1BF"/>
<stop offset="1" stop-color="#EFCA91"/>
</linearGradient>
<clipPath id="clip0_33:4425">
<rect width="1047" height="610" fill="white"/>
</clipPath>
</defs>
</svg>
