<svg width="1440" height="60" viewBox="0 0 1440 60" fill="none" xmlns="http://www.w3.org/2000/svg">
<g filter="url(#filter0_d_366_972)">
<path d="M22.9097 42.1995C30.546 42.8049 48.3643 35.4394 48.3643 35.4394C77.8188 38.5672 96.3643 33.6233 102.182 33.0179C108.001 32.4125 133.819 36.6502 163.637 40.2825C176.001 41.7959 186.546 41.695 194.546 41.0897C196.001 42.0986 198.182 43.1076 201.091 43.713C206.546 44.9237 228.728 43.1076 236.364 41.5941C244.001 40.0807 255.273 40.2825 264.728 40.5852C273.819 40.8879 283.637 38.9708 288.728 37.7601C293.455 36.5493 307.637 38.769 331.637 38.4664C339.637 42.8049 368.728 44.9238 393.092 45.5291C417.455 46.1345 426.182 43.3094 431.273 41.8969C436.001 40.5852 438.91 40.6861 463.273 40.0807C487.637 39.4753 510.182 39.1726 519.273 41.3924C528.364 43.6121 542.546 43.6121 566.182 39.5762C597.091 35.6413 634.91 39.8789 665.819 41.796C696.728 43.713 705.091 39.5763 708.364 38.3655C711.637 37.1547 729.455 37.7601 744.364 38.3655C758.91 38.9709 773.819 41.9978 791.637 43.6121C819.273 45.731 853.091 38.9709 861.819 37.1547C870.546 35.3386 897.091 36.1458 928.364 35.3386C959.273 34.6323 981.819 35.0359 1018.18 35.944C1046.55 40.2826 1060.73 38.7691 1077.09 36.953C1093.46 35.1368 1098.91 35.3386 1117.46 36.3476C1136.73 37.5584 1163.64 36.953 1174.91 38.2646C1186.18 39.5763 1207.64 40.0808 1230.55 38.2646C1243.27 40.3835 1257.82 44.8229 1287.27 45.1256C1316.73 45.4283 1318.18 44.3185 1356.36 37.7602C1357.46 40.3835 1377.82 41.5942 1385.46 42.1996C1393.09 42.805 1410.91 35.4395 1410.91 35.4395C1422.18 36.6503 1432 36.6503 1440 36.1458L1440 6.13013C1463.27 5.62564 1419.27 5.22205 1440 6.13013C1288 10.0651 1229.46 -5.8766 1012.73 7.44177C796 20.7601 825.091 20.2556 636.728 6.23095C448.364 -7.79373 513.091 17.935 366.546 13.2937C287.273 10.7713 226.182 17.1278 193.092 13.0919C149.455 4.51566 91.2734 3.4058 11.2734 5.52462C7.27344 5.62552 3.27332 5.72643 -0.363034 5.82733L-0.363037 39.8789C6.54602 41.0896 17.8187 41.7959 22.9097 42.1995Z" fill="#A49259"/>
</g>
<defs>
<filter id="filter0_d_366_972" x="-8.36328" y="0" width="1463.36" height="59.6129" filterUnits="userSpaceOnUse" color-interpolation-filters="sRGB">
<feFlood flood-opacity="0" result="BackgroundImageFix"/>
<feColorMatrix in="SourceAlpha" type="matrix" values="0 0 0 0 0 0 0 0 0 0 0 0 0 0 0 0 0 0 127 0" result="hardAlpha"/>
<feOffset dy="6"/>
<feGaussianBlur stdDeviation="4"/>
<feComposite in2="hardAlpha" operator="out"/>
<feColorMatrix type="matrix" values="0 0 0 0 0 0 0 0 0 0 0 0 0 0 0 0 0 0 0.13 0"/>
<feBlend mode="normal" in2="BackgroundImageFix" result="effect1_dropShadow_366_972"/>
<feBlend mode="normal" in="SourceGraphic" in2="effect1_dropShadow_366_972" result="shape"/>
</filter>
</defs>
</svg>
