<svg width="1440" height="60" viewBox="0 0 1440 60" fill="none" xmlns="http://www.w3.org/2000/svg">
<g filter="url(#filter0_d_365_615)">
<path d="M1416.73 5.4134C1409.09 4.80802 1391.27 12.1735 1391.27 12.1735C1361.82 9.04569 1343.27 13.9896 1337.45 14.595C1331.64 15.2004 1305.82 10.9627 1276 7.33044C1263.64 5.81699 1253.09 5.91789 1245.09 6.52327C1243.64 5.5143 1241.45 4.50533 1238.55 3.89995C1233.09 2.68919 1210.91 4.50533 1203.27 6.01878C1195.64 7.53224 1184.36 7.33044 1174.91 7.02775C1165.82 6.72506 1156 8.6421 1150.91 9.85287C1146.18 11.0636 1132 8.8439 1108 9.14659C1100 4.80802 1070.91 2.68919 1046.55 2.08381C1022.18 1.47843 1013.45 4.30354 1008.36 5.71609C1003.64 7.02775 1000.73 6.92686 976.364 7.53224C952 8.13762 929.455 8.44031 920.364 6.22058C911.273 4.00085 897.091 4.00085 873.455 8.03672C842.546 11.9717 804.727 7.73403 773.818 5.81699C742.909 3.89995 734.546 8.03672 731.273 9.24748C728 10.4582 710.182 9.85287 695.273 9.24748C680.727 8.6421 665.818 5.6152 648 4.00085C620.364 1.88201 586.546 8.6421 577.818 10.4582C569.091 12.2744 542.546 11.4672 511.273 12.2744C480.364 12.9807 457.819 12.5771 421.455 11.669C393.091 7.33044 378.909 8.8439 362.546 10.66C346.182 12.4762 340.728 12.2744 322.182 11.2654C302.909 10.0547 276 10.66 264.728 9.34838C253.455 8.03672 232 7.53224 209.091 9.34838C196.364 7.22955 181.818 2.79009 152.364 2.48739C122.909 2.1847 121.455 3.29457 83.273 9.85287C82.1821 7.22955 61.8185 6.01878 54.1821 5.4134C46.5458 4.80802 28.7276 12.1735 28.7276 12.1735C17.4549 10.9627 7.63672 10.9627 -0.363278 11.4672L-0.363281 41.4829C151.637 37.5479 210.182 53.4896 426.909 40.1712C643.637 26.8528 614.546 27.3574 802.909 41.382C991.273 55.4067 926.546 29.678 1073.09 34.3192C1152.36 36.8417 1213.45 30.4852 1246.55 34.521C1290.18 43.0973 1348.36 44.2071 1428.36 42.0883C1432.36 41.9874 1436.36 41.8865 1440 41.7856V7.73403C1433.09 6.52327 1421.82 5.81699 1416.73 5.4134Z" fill="#B2A065"/>
</g>
<defs>
<filter id="filter0_d_365_615" x="-8.36328" y="0" width="1456.36" height="59.613" filterUnits="userSpaceOnUse" color-interpolation-filters="sRGB">
<feFlood flood-opacity="0" result="BackgroundImageFix"/>
<feColorMatrix in="SourceAlpha" type="matrix" values="0 0 0 0 0 0 0 0 0 0 0 0 0 0 0 0 0 0 127 0" result="hardAlpha"/>
<feOffset dy="6"/>
<feGaussianBlur stdDeviation="4"/>
<feComposite in2="hardAlpha" operator="out"/>
<feColorMatrix type="matrix" values="0 0 0 0 0 0 0 0 0 0 0 0 0 0 0 0 0 0 0.13 0"/>
<feBlend mode="normal" in2="BackgroundImageFix" result="effect1_dropShadow_365_615"/>
<feBlend mode="normal" in="SourceGraphic" in2="effect1_dropShadow_365_615" result="shape"/>
</filter>
</defs>
</svg>
