<svg width="1440" height="60" viewBox="0 0 1440 60" fill="none" xmlns="http://www.w3.org/2000/svg">
<g filter="url(#filter0_d_366_1019)">
<path d="M1417.09 5.41389C1409.45 4.80851 1391.63 12.174 1391.63 12.174C1362.18 9.04618 1343.63 13.9901 1337.82 14.5955C1332 15.2009 1306.18 10.9632 1276.36 7.33093C1264 5.81748 1253.45 5.91838 1245.45 6.52376C1244 5.51479 1241.82 4.50582 1238.91 3.90044C1233.45 2.68968 1211.27 4.50582 1203.63 6.01927C1196 7.53273 1184.72 7.33093 1175.27 7.02824C1166.18 6.72555 1156.36 8.64259 1151.27 9.85335C1146.54 11.0641 1132.36 8.84439 1108.36 9.14708C1100.36 4.80851 1071.27 2.68968 1046.91 2.0843C1022.54 1.47891 1013.82 4.30403 1008.72 5.71658C1004 7.02824 1001.09 6.92734 976.725 7.53273C952.361 8.13811 929.816 8.4408 920.725 6.22107C911.634 4.00134 897.452 4.00134 873.816 8.03721C842.907 11.9722 805.088 7.73452 774.179 5.81748C743.27 3.90044 734.907 8.03721 731.634 9.24797C728.361 10.4587 710.543 9.85335 695.634 9.24797C681.088 8.64259 666.179 5.61569 648.361 4.00134C620.725 1.8825 586.907 8.64259 578.179 10.4587C569.452 12.2749 542.907 11.4677 511.634 12.2749C480.725 12.9812 458.179 12.5776 421.816 11.6695C393.452 7.33093 379.27 8.84438 362.907 10.6605C346.543 12.4767 341.088 12.2749 322.543 11.2659C303.27 10.0551 276.361 10.6605 265.088 9.34887C253.816 8.03721 232.361 7.53273 209.452 9.34887C196.725 7.23004 182.179 2.79057 152.725 2.48788C123.27 2.18519 121.816 3.29506 83.6339 9.85335C82.543 7.23004 62.1794 6.01927 54.543 5.41389C46.9067 4.80851 29.0885 12.174 29.0885 12.174C17.8158 10.9632 7.99761 10.9632 -0.00238705 11.4677L-0.00238991 41.4834C-23.2751 41.9879 20.7249 42.3915 -0.00238991 41.4834C151.998 37.5484 210.543 53.4901 427.27 40.1717C643.998 26.8533 614.907 27.3578 803.27 41.3825C991.634 55.4072 926.907 29.6785 1073.45 34.3197C1152.72 36.8422 1213.82 30.4856 1246.91 34.5215C1290.54 43.0977 1348.72 44.2076 1428.72 42.0888C1432.72 41.9879 1436.72 41.887 1440.36 41.7861V7.73452C1433.45 6.52376 1422.18 5.81748 1417.09 5.41389Z" fill="#8B7A46"/>
</g>
<defs>
<filter id="filter0_d_366_1019" x="-15" y="0.000488281" width="1463.36" height="59.6129" filterUnits="userSpaceOnUse" color-interpolation-filters="sRGB">
<feFlood flood-opacity="0" result="BackgroundImageFix"/>
<feColorMatrix in="SourceAlpha" type="matrix" values="0 0 0 0 0 0 0 0 0 0 0 0 0 0 0 0 0 0 127 0" result="hardAlpha"/>
<feOffset dy="6"/>
<feGaussianBlur stdDeviation="4"/>
<feComposite in2="hardAlpha" operator="out"/>
<feColorMatrix type="matrix" values="0 0 0 0 0 0 0 0 0 0 0 0 0 0 0 0 0 0 0.13 0"/>
<feBlend mode="normal" in2="BackgroundImageFix" result="effect1_dropShadow_366_1019"/>
<feBlend mode="normal" in="SourceGraphic" in2="effect1_dropShadow_366_1019" result="shape"/>
</filter>
</defs>
</svg>
