<svg width="25" height="25" viewBox="0 0 25 25" fill="none" xmlns="http://www.w3.org/2000/svg">
<path d="M23.8439 20.6623L15.6814 12.4998L23.8439 4.33731C24.7252 3.45606 24.7252 2.0373 23.8439 1.15605C22.9627 0.274805 21.5439 0.274805 20.6627 1.15605L12.5002 9.31856L4.33766 1.15605C3.45641 0.274805 2.03766 0.274805 1.15641 1.15605C0.275156 2.0373 0.275156 3.45606 1.15641 4.33731L9.3189 12.4998L1.15641 20.6623C0.275156 21.5436 0.275156 22.9623 1.15641 23.8436C2.03766 24.7248 3.45641 24.7248 4.33766 23.8436L12.5002 15.6811L20.6627 23.8436C21.5439 24.7248 22.9627 24.7248 23.8439 23.8436C24.7189 22.9623 24.7189 21.5373 23.8439 20.6623Z" fill="white"/>
</svg>
