<svg width="1440" height="310" viewBox="0 0 1440 310" fill="none" xmlns="http://www.w3.org/2000/svg">
<path fill-rule="evenodd" clip-rule="evenodd" d="M1505.64 21.0894L1492.15 111.922L1467.38 125.056L1417.47 151.51L1396.59 162.425L1391.97 163.165L1391.41 163.35L1372.93 166.125L1089.93 208.304H1089.75L1073.85 210.709L1076.81 207.194L1092.34 188.694L1098.44 181.479L1162.58 105.262L1163.13 104.522L1163.69 103.967L1164.98 103.597L1505.64 21.0894Z" fill="#483F23"/>
<path opacity="0.5" fill-rule="evenodd" clip-rule="evenodd" d="M1150.56 195.354L1175.89 150.77L1182.72 149.29L1196.59 118.766L1394.55 80.1025L1474.04 105.632L1460.73 144.296L1150.56 195.354Z" fill="#403616"/>
<path fill-rule="evenodd" clip-rule="evenodd" d="M1533 0L1510.82 237.533L1430.41 235.313L1415.26 234.943L1397.7 234.388H1397.51L1377.73 233.833L1364.42 233.463L1357.95 233.278L1288.64 231.243H1286.42L1255.74 230.318L1218.21 229.393L1206.75 229.023L1183.83 228.283L1055 224.768L1018.59 223.658L1008.23 223.473L1007.68 223.288L984.944 222.733H983.65L984.944 222.363L998.068 218.108H998.253L1042.98 204.234V204.049L1092.34 188.694L1133.93 175.745L1167.57 165.2L1204.91 153.545L1175.89 150.77L1182.91 148.735L1274.96 123.206L1450.56 112.847V104.152L1297.88 118.951L1360.73 105.632L1372.19 91.7572L1196.59 118.766L1224.87 99.3419L1384.39 55.6833L1410.26 48.2835L1162.58 105.262L1161.1 105.632L1163.13 104.522L1164.98 103.597L1217.48 76.7726L1448.53 0.924971L1533 0Z" fill="#70632F"/>
<path fill-rule="evenodd" clip-rule="evenodd" d="M840.583 261.767L792.155 267.132L755.002 271.202L738.366 273.052C738.366 273.052 705.834 274.531 654.263 276.566C648.903 276.751 643.542 276.936 637.812 277.306C629.309 277.676 620.437 278.046 611.01 278.416C584.947 279.526 555.927 280.821 525.059 282.116C523.765 282.116 522.656 282.301 521.362 282.301C496.408 283.411 470.346 284.521 443.544 285.631C441.88 285.631 440.216 285.816 438.553 285.816C430.235 286.186 421.732 286.556 413.414 286.926C328.942 290.441 240.403 294.141 164.618 297.101C119.886 298.951 79.5904 300.431 47.0583 301.541C-3.58828 303.391 -35.1962 304.316 -34.4568 303.761C-33.5326 303.021 -35.1962 300.431 -37.9688 296.916C-37.9688 296.916 -37.9688 296.731 -38.1537 296.731C-38.3385 296.546 -38.3385 296.361 -38.5234 296.176C-47.2109 285.631 -65.6951 268.057 -65.6951 268.057L-65.3254 267.872L-3.95797 236.793L4.72958 232.353L21.3653 232.168H27.2803L52.4187 231.798L90.3113 231.243L130.607 230.688L182.547 229.948L313.415 227.913L314.524 232.168L315.263 235.498L484.024 235.313L491.418 250.482L666.463 256.217H667.017H667.202L750.935 258.992L795.852 260.472L840.583 261.767Z" fill="#1B180F"/>
<path opacity="0.5" fill-rule="evenodd" clip-rule="evenodd" d="M621.176 258.437V258.252V257.142L479.588 254.552L491.233 250.667L450.383 258.622L450.198 244.192L283.656 237.163L283.471 239.753L283.101 251.407L278.11 252.887V249.742V249.557V239.568V234.018L182.362 229.948L140.773 228.283L130.237 230.873L116.928 234.018L91.7899 240.123L84.0266 241.972L-0.630898 262.322L-65.6951 268.242H-65.88H-66.0648L-68.4678 268.427L-61.6286 283.411L-57.9318 295.251L-38.8931 296.361H-38.3386L-33.5327 296.731L46.6886 301.541L162.769 308.57L164.248 296.916L165.172 290.071L165.727 285.816L262.953 282.856L610.825 272.127L624.688 258.252L621.176 258.437ZM376.261 259.732L337.075 272.497L337.629 260.472L359.071 242.712L377.001 259.547L376.261 259.732Z" fill="#403616"/>
<path fill-rule="evenodd" clip-rule="evenodd" d="M359.256 242.712L337.814 260.472L16.7443 266.577H16.1898L-0.0762634 266.947H-0.261101L-65.8799 268.057H-65.5102L9.35066 217.553L313.415 227.728L278.295 233.648L130.976 232.908L278.295 239.198L283.471 239.383L359.256 242.712Z" fill="#695A2A"/>
<path fill-rule="evenodd" clip-rule="evenodd" d="M483.839 235.128L450.198 244.007L283.656 236.793L310.643 231.983H314.339L483.839 235.128Z" fill="#70632F"/>
<path fill-rule="evenodd" clip-rule="evenodd" d="M337.075 272.497L376.261 259.732L625.058 258.067L611.195 271.942L165.911 285.816L174.969 281.191L337.075 272.497Z" fill="#70632F"/>
<path fill-rule="evenodd" clip-rule="evenodd" d="M479.588 254.367L491.233 250.482L716.925 258.252L479.588 254.367Z" fill="#695A2A"/>
<path opacity="0.5" fill-rule="evenodd" clip-rule="evenodd" d="M445.577 277.306L424.875 302.096L391.049 305.056L424.135 277.861L445.577 277.306Z" fill="#403616"/>
<path opacity="0.5" fill-rule="evenodd" clip-rule="evenodd" d="M611.195 271.942L610.825 282.856L435.965 297.101L448.719 277.121L611.195 271.942Z" fill="#403616"/>
<path fill-rule="evenodd" clip-rule="evenodd" d="M1435.03 294.511L1425.98 294.696H1424.87H1416L1342.24 295.621H1338.55H1329.3L1213.59 296.916L1153.34 297.656L1136.88 297.841H1129.86L1086.42 298.396L1074.96 298.581L1059.62 298.766L1038.36 298.951L966.091 299.691L791.415 301.726L762.95 301.911L687.534 302.836H687.349L662.396 303.021L604.91 303.761H600.289L540.031 304.501H532.452L30.0526 310.05L-85.2886 311.345L-69.9467 305.796L-69.577 305.61L-45.5476 296.916L-38.154 296.731H-37.5994L-33.1632 296.546L165.357 290.071H165.911L165.357 296.176L414.893 285.446L439.662 284.336L444.283 284.151L517.11 281.006H520.807L611.01 277.121L632.082 276.196L640.769 271.017L663.69 257.697L664.244 257.327L665.723 256.402L666.278 256.217L667.387 255.477L681.804 247.152L983.651 210.338L987.902 199.239L1098.44 181.479L1133.93 175.745L1164.43 170.75L1224.68 161.13L1361.84 160.575H1390.49L1391.41 163.35L1415.26 234.943L1435.03 294.511Z" fill="#70632F"/>
<path fill-rule="evenodd" clip-rule="evenodd" d="M1470.89 311.16H1433.74H1432.45L1425.98 310.975L1215.07 310.79L1186.42 310.605H1141.88H1129.31L1086.98 310.42H1078.29H1062.21H1039.47L964.242 310.235L790.861 310.05L766.647 309.865H672.562L668.681 309.68H668.496L662.396 303.021L637.812 277.306L635.594 275.086L641.509 271.387L664.799 257.327L666.278 256.402L666.832 256.217L681.804 247.152L750.75 258.992L773.116 262.692L795.667 260.472L960.361 243.267L1031.52 235.868L1018.96 229.208L1008.23 223.473L998.253 218.108L983.651 210.338L987.902 199.239L1042.98 204.049L1076.81 207.194L1089.93 208.304L1095.3 208.859L1158.88 214.408L1205.65 218.663L1372.93 166.125L1390.49 160.575L1391.97 163.165L1430.41 235.313L1470.89 311.16Z" fill="#605227"/>
<path opacity="0.5" fill-rule="evenodd" clip-rule="evenodd" d="M1039.47 310.42L964.242 310.235L790.861 310.05L766.647 309.865H672.562L672.747 309.68L686.056 303.391L687.35 302.836L701.767 295.991L755.002 271.202L773.116 262.692L795.667 260.472L960.361 243.267L1031.52 235.868L1038.36 298.951L1039.47 310.42Z" fill="#403616"/>
<path opacity="0.5" fill-rule="evenodd" clip-rule="evenodd" d="M1470.89 311.16H1433.74H1432.45L1425.98 310.975L1215.07 310.79L1214.7 307.46L1213.59 296.916L1211.93 279.156L1210.45 266.022V265.467V265.097L1208.42 245.302V244.747L1207.12 231.983L1206.75 229.023L1205.65 218.663L1372.93 166.125L1390.49 160.575L1391.97 163.165L1430.41 235.313L1470.89 311.16Z" fill="#403616"/>
<path fill-rule="evenodd" clip-rule="evenodd" d="M792.155 267.132L908.79 255.662L972.56 260.842L814.151 270.092L792.155 267.132Z" fill="#70632F"/>
<path fill-rule="evenodd" clip-rule="evenodd" d="M754.077 283.411L869.603 270.832L877.737 270.092L792.709 285.816L754.077 283.411Z" fill="#70632F"/>
<path fill-rule="evenodd" clip-rule="evenodd" d="M1067.38 210.153L1207.12 231.983L1332.45 202.014L1344.28 203.679L1161.1 258.807L1017.66 212.743L1067.38 210.153Z" fill="#695A2A"/>
<path fill-rule="evenodd" clip-rule="evenodd" d="M1093.08 246.042L1131.15 262.877L1048.53 247.522L1093.08 246.042Z" fill="#695A2A"/>
<path fill-rule="evenodd" clip-rule="evenodd" d="M1161.1 258.807L1162.39 286.371L1318.03 218.478L1341.69 219.773L1344.28 203.679L1161.1 258.807Z" fill="black"/>
<path fill-rule="evenodd" clip-rule="evenodd" d="M1143.17 300.801L1141.32 314.305H1433.92L1392.15 222.548L1143.17 300.801Z" fill="#433B20"/>
<path opacity="0.5" fill-rule="evenodd" clip-rule="evenodd" d="M1067.38 210.153L1017.66 212.743L1018.59 223.658L1018.96 229.208L1019.14 229.578L1007.68 223.288L998.068 218.108L983.65 210.338L987.902 199.239L1042.98 204.234L1069.97 206.639L1076.81 207.194L1089.75 208.303L1095.29 208.858L1158.7 214.223L1158.88 214.408L1163.5 225.138V225.323L1067.38 210.153Z" fill="#403616"/>
<path opacity="0.5" fill-rule="evenodd" clip-rule="evenodd" d="M1161.1 258.807L1162.39 286.371L1227.64 258.622L1226.9 239.198L1202.69 246.967L1204.35 271.942L1202.13 273.052L1199.55 247.522L1184.57 251.037L1184.2 280.821L1165.72 288.776L1161.1 258.807Z" fill="#403616"/>
<path fill-rule="evenodd" clip-rule="evenodd" d="M1131.34 300.246C1133.37 299.691 1314.52 218.663 1314.52 218.663L1392.15 222.548L1143.17 300.801L1131.34 300.246Z" fill="#695A2A"/>
<path opacity="0.5" fill-rule="evenodd" clip-rule="evenodd" d="M1431.15 320.225L1404.53 319.485L1235.22 314.305L1170.53 312.27L1186.24 310.42L1214.52 307.275L1259.43 302.281L1262.02 309.31L1332.45 309.865L1329.3 295.621L1319.32 251.222L1338.55 295.621L1339.1 296.731L1342.24 295.621L1321.36 246.597L1364.42 233.648L1375.33 230.318C1375.33 230.318 1376.25 231.613 1377.73 234.018C1384.2 244.192 1402.5 273.237 1415.99 294.881C1419.88 301.171 1423.39 306.905 1425.98 311.16C1426.72 312.27 1427.46 313.38 1428.01 314.49C1429.3 316.71 1430.23 318.375 1430.78 319.485C1431.15 319.855 1431.15 320.225 1431.15 320.225Z" fill="#403616"/>
<path opacity="0.5" fill-rule="evenodd" clip-rule="evenodd" d="M1048.53 247.522L1062.39 311.16L1129.12 314.305L1131.15 262.877L1048.53 247.522Z" fill="#403616"/>
<path fill-rule="evenodd" clip-rule="evenodd" d="M1063.69 256.957L1119.88 262.322L1124.32 264.727L1084.76 270.277L1063.69 256.957Z" fill="#695A2A"/>
<path fill-rule="evenodd" clip-rule="evenodd" d="M516.001 280.821L611.195 306.72L613.783 306.166L520.253 280.821H516.001Z" fill="black"/>
<path fill-rule="evenodd" clip-rule="evenodd" d="M557.591 292.106L539.846 304.501L532.083 309.865L530.604 310.42L522.101 313.935C522.101 313.75 523.395 312.455 525.428 310.605C527.277 308.94 529.68 306.905 532.267 304.686C539.476 298.581 547.979 291.366 549.642 290.071C549.827 289.886 549.827 289.886 549.827 289.886L557.036 292.106H557.591Z" fill="#B1B1B1"/>
<path fill-rule="evenodd" clip-rule="evenodd" d="M-3.95825 267.872L111.937 240.678L15.635 266.762L-3.95825 267.872Z" fill="#BFAC70"/>
<path fill-rule="evenodd" clip-rule="evenodd" d="M281.068 249.372C281.068 249.372 175.708 245.672 91.2352 241.787C73.4904 241.047 56.6698 240.123 41.8825 239.383C34.4888 239.013 27.4648 238.643 21.1802 238.273C18.7773 238.088 16.5592 238.088 14.5259 237.903C-0.261418 236.978 -10.058 236.238 -12.2761 235.498L21.365 224.213L29.3132 224.953L33.1949 225.323L57.4092 227.728L96.0411 231.428L281.068 249.372Z" fill="#867541"/>
<path opacity="0.5" fill-rule="evenodd" clip-rule="evenodd" d="M29.3134 225.138L33.1951 225.508L21.1804 238.273C18.7775 238.088 16.5594 238.088 14.5261 237.903L29.3134 225.138Z" fill="#403616"/>
<path opacity="0.5" fill-rule="evenodd" clip-rule="evenodd" d="M96.0412 231.613L91.2353 241.787C73.4905 241.047 56.6699 240.123 41.8826 239.383L57.4093 227.728L96.0412 231.613Z" fill="#403616"/>
<path fill-rule="evenodd" clip-rule="evenodd" d="M1084.76 270.277L1087.35 317.08L1077.92 310.235L1064.24 257.327L1084.76 270.277Z" fill="black"/>
<path fill-rule="evenodd" clip-rule="evenodd" d="M792.709 285.631L791.415 301.726L790.861 310.05L790.306 316.34L769.234 315.23L766.647 309.865L762.95 301.911L754.077 283.411L792.709 285.631Z" fill="#9A884F"/>
<path opacity="0.5" fill-rule="evenodd" clip-rule="evenodd" d="M1437.62 319.3H1430.78L1404.72 319.485L962.209 323C962.209 322.63 963.133 317.45 964.427 310.235C964.982 307.09 965.536 303.391 966.276 299.691C969.233 282.116 972.745 260.842 972.745 260.842L910.453 255.107L855.371 259.917L849.456 255.477L960.361 243.082L1029.86 235.313L1019.14 229.393V229.023L1018.77 223.473L1017.85 212.558L1055 224.583L1161.1 258.807L1184.57 251.777L1196.03 248.262L1208.23 244.562L1255.74 230.318L1344.28 203.679L1341.69 219.773L1391.97 222.548L1397.51 234.388L1425.98 294.696L1433.74 311.16L1437.62 319.3Z" fill="#403616"/>
<path opacity="0.5" fill-rule="evenodd" clip-rule="evenodd" d="M703.246 296.731L687.534 302.836L686.056 303.391L670.344 309.495L668.496 309.68L530.789 310.42L525.613 310.605L99.738 313.195L-101 314.49L-69.9466 305.796L-69.5769 305.611L-37.969 296.916L-37.5993 296.731L-37.969 296.176L-63.8468 268.612L-0.631004 266.947H1.40226L1.77194 267.502L11.7534 294.511L14.8957 294.326L16.7441 266.577V266.392L16.929 266.207H17.6683L337.814 260.472L337.075 272.497L263.323 282.856L261.844 283.041L419.514 278.601L413.414 284.706L416.002 284.521L440.216 283.596L444.837 283.411L611.01 276.936L632.082 276.196L640.215 270.832L640.769 271.017L641.509 271.387L654.078 276.566H654.263L701.767 295.991L703.246 296.731Z" fill="#403616"/>
<path opacity="0.2" fill-rule="evenodd" clip-rule="evenodd" d="M1510.82 237.533L1430.41 235.313L1470.89 311.16H1433.74L1437.62 319.3H1430.78C1431.15 319.855 1431.15 320.225 1431.15 320.225L1404.54 319.485L962.024 323C962.024 322.63 962.948 317.45 964.242 310.235L790.861 309.865L790.306 316.34L769.05 315.045L766.647 309.865L672.562 309.68H668.681L668.496 309.495L530.604 310.42L522.101 313.935C522.101 313.75 523.395 312.455 525.428 310.605L99.5532 313.38L29.8679 310.235L-69.5769 305.611L-45.5475 296.916L-38.1538 296.731C-38.3387 296.546 -38.3387 296.361 -38.5235 296.176L-57.5622 295.066L-61.259 283.226L-68.0982 268.242L-65.6952 268.057H-65.5104L9.35047 217.553L313.415 227.913L314.524 232.168L484.024 235.498L491.417 250.667L666.462 256.402L667.571 255.847L681.989 247.337L983.836 210.523L988.087 199.424L1098.62 181.664L1162.76 105.447L1161.28 105.817L1163.32 104.707L1163.87 104.152L1165.17 103.782L1217.66 76.9576L1448.71 1.10997L1533 0L1510.82 237.533Z" fill="#201A07"/>
<path opacity="0.5" fill-rule="evenodd" clip-rule="evenodd" d="M1279.77 128.201L1342.61 122.651V124.501L1255.74 137.451L1279.77 128.201Z" fill="#403616"/>
<path opacity="0.5" fill-rule="evenodd" clip-rule="evenodd" d="M1300.1 165.2L1316.74 157.8L1344.46 154.1L1335.22 159.65L1300.1 165.2Z" fill="#403616"/>
<path opacity="0.5" fill-rule="evenodd" clip-rule="evenodd" d="M1305.64 131.901L1409.16 117.101L1287.16 137.451L1305.64 131.901Z" fill="#403616"/>
<path opacity="0.5" fill-rule="evenodd" clip-rule="evenodd" d="M1165.53 193.874L1351.86 167.05L1340.95 170.935L1148.53 204.049L1161.47 189.249L1165.53 193.874Z" fill="#403616"/>
<path fill-rule="evenodd" clip-rule="evenodd" d="M1161.47 189.249L1335.22 167.05H1351.86L1165.53 193.874L1161.47 189.249Z" fill="#827038"/>
<path fill-rule="evenodd" clip-rule="evenodd" d="M1176.81 150.955L1201.58 153.175L1270.52 126.351L1262.58 126.536L1176.81 150.955Z" fill="#827038"/>
<path opacity="0.5" fill-rule="evenodd" clip-rule="evenodd" d="M976.627 237.348L849.086 235.498L971.081 229.948L976.627 237.348Z" fill="#403616"/>
<path opacity="0.5" fill-rule="evenodd" clip-rule="evenodd" d="M810.269 246.597L878.661 237.348H880.509L795.482 252.147L810.269 246.597Z" fill="#403616"/>
</svg>
