<svg width="199" height="183" viewBox="0 0 199 183" fill="none" xmlns="http://www.w3.org/2000/svg">
<path d="M10.8677 66.4309L0.511841 130.682L40.2095 175.832L145.495 182.778L199 113.317L140.317 14.3351L79.9071 0.442871L10.8677 66.4309Z" fill="#908664"/>
<path opacity="0.42" d="M86.81 123.737L7.41467 130.683L38.4824 174.096L145.493 182.779L198.999 113.318L140.315 14.3354L135.138 69.9043L88.5359 64.6947L76.4541 95.9522L136.864 148.048L86.81 123.737Z" fill="#908664"/>
<path opacity="0.5" d="M67.8262 104.634L12.5948 123.736L10.8688 66.4309L79.9081 0.442871L85.0861 61.2213L67.8262 104.634Z" fill="white"/>
<path opacity="0.5" d="M91.9895 59.4851L131.687 66.4312L140.317 14.3354L83.3596 2.17969L91.9895 59.4851Z" fill="white"/>
</svg>
