<svg width="141" height="91" viewBox="0 0 141 91" fill="none" xmlns="http://www.w3.org/2000/svg">
<path d="M95.4331 1.83711L135.131 22.6754L140.309 52.1964L90.2551 90.4L24.6678 81.7174L0.503967 24.412L24.6678 0.100586L95.4331 1.83711Z" fill="#908664"/>
<path opacity="0.42" d="M88.5291 48.7235L133.405 26.1486L140.309 52.1965L90.2551 90.4001L24.6678 81.7175L0.503967 24.4121L35.0236 43.5139L55.7355 26.1486L78.1732 34.8313L76.4473 74.7714L88.5291 48.7235Z" fill="#908664"/>
<path opacity="0.5" d="M88.5281 34.8311L126.5 24.412L95.432 1.83711L24.6666 0.100586L55.7344 24.412L88.5281 34.8311Z" fill="white"/>
<path opacity="0.5" d="M50.5575 26.1488L35.0236 41.7775L0.503967 24.4123L22.9417 1.8374L50.5575 26.1488Z" fill="white"/>
</svg>
