<svg width="86" height="90" viewBox="0 0 86 90" fill="none" xmlns="http://www.w3.org/2000/svg">
<path d="M85.937 43.3832L61.5748 90L16.3307 78.1437L0 64.1317L1.87402 19.4012L22.7559 1.34731L24.3622 0L49.2598 16.976L74.9606 22.3653L85.937 43.3832Z" fill="#908664"/>
<path opacity="0.5" d="M26.2362 34.2216C26.2362 33.1438 24.6299 2.15576 24.6299 2.15576L48.9921 16.9761L74.6929 22.3653L74.4252 35.8384L48.4567 48.2336L26.2362 34.2216Z" fill="white"/>
<path opacity="0.42" d="M85.937 43.3832L61.5748 90L16.3307 78.1437L0 64.1317L1.87402 19.4012L22.7559 1.34729L23.8268 36.3772L5.62205 59.5509L29.7165 42.8443L51.937 54.4311L73.8898 38.5329L85.937 43.3832Z" fill="#908664"/>
</svg>
