<svg width="1440" height="509" viewBox="0 0 1440 509" fill="none" xmlns="http://www.w3.org/2000/svg">
<g opacity="0.4">
<path opacity="0.2" d="M11.4069 304.682C11.4069 304.682 -19.4381 299.843 -21.6813 319.196C-23.9246 338.55 -14.9515 362.741 3.55544 362.741C22.6232 362.741 37.7653 343.388 38.3261 332.502C38.8869 321.616 27.6706 308.31 11.4069 304.682Z" fill="black"/>
<path opacity="0.2" d="M75.3405 159.533C75.3405 159.533 44.4955 154.695 42.2523 174.048C40.009 193.401 48.9821 217.593 67.489 217.593C86.5568 217.593 101.699 198.239 102.26 187.353C102.821 177.072 91.0434 163.767 75.3405 159.533Z" fill="black"/>
<path opacity="0.2" d="M108.988 457.692C108.988 457.692 124.131 463.135 137.029 458.901C149.367 454.668 143.198 435.919 134.786 426.848C126.374 417.776 116.84 417.776 105.063 433.5C93.8464 448.62 102.819 455.877 108.988 457.692Z" fill="black"/>
<path opacity="0.2" d="M583.998 444.992C583.998 444.992 581.194 463.74 591.289 470.393C601.384 477.045 613.161 460.716 615.404 452.249C617.647 443.177 608.113 438.339 598.019 435.92C587.924 433.501 583.998 434.71 583.998 444.992Z" fill="black"/>
<path opacity="0.2" d="M1001.25 418.38C1001.25 418.38 1014.71 431.081 1024.25 430.476C1034.34 429.871 1029.85 407.494 1017.52 403.866C1005.18 400.842 991.158 402.656 1001.25 418.38Z" fill="black"/>
<path opacity="0.2" d="M723.084 223.64C723.084 223.64 729.813 230.293 734.861 229.688C739.908 229.083 737.665 218.197 731.496 216.383C725.327 214.569 718.036 215.778 723.084 223.64Z" fill="black"/>
<path opacity="0.2" d="M1064.62 230.898C1064.62 230.898 1071.35 237.551 1076.4 236.946C1081.45 236.341 1079.2 225.455 1073.03 223.641C1066.86 221.826 1059.57 223.036 1064.62 230.898Z" fill="black"/>
<path opacity="0.2" d="M359.673 239.365C359.673 239.365 366.403 246.017 371.45 245.413C376.498 244.808 374.255 233.922 368.086 232.107C361.917 230.293 354.626 231.503 359.673 239.365Z" fill="black"/>
<path opacity="0.2" d="M589.047 363.346C589.047 363.346 595.777 369.998 600.824 369.393C605.872 368.789 603.628 357.903 597.459 356.088C591.29 354.274 584.561 354.879 589.047 363.346Z" fill="black"/>
<path opacity="0.2" d="M1150.99 388.141C1150.99 388.141 1157.72 394.794 1162.76 394.189C1167.81 393.584 1165.57 382.698 1159.4 380.884C1152.67 379.674 1145.94 380.279 1150.99 388.141Z" fill="black"/>
<path opacity="0.2" d="M34.9595 105.708C34.9595 105.708 41.6893 112.36 46.7367 111.755C51.784 111.151 49.5408 100.264 43.3718 98.4501C36.642 96.6357 29.9122 97.8453 34.9595 105.708Z" fill="black"/>
<path opacity="0.2" d="M293.5 435.315C293.5 435.315 300.229 441.968 305.277 441.363C310.324 440.758 308.081 429.872 301.912 428.057C295.743 426.848 288.452 427.453 293.5 435.315Z" fill="black"/>
<path opacity="0.2" d="M109.547 324.034C109.547 324.034 116.277 330.687 121.324 330.082C126.372 329.477 124.128 318.591 117.959 316.777C111.79 314.963 105.061 315.567 109.547 324.034Z" fill="black"/>
<path opacity="0.2" d="M387.156 305.891C387.156 305.891 393.886 312.544 398.934 311.939C403.981 311.334 401.738 300.448 395.569 298.634C389.4 296.819 382.67 297.424 387.156 305.891Z" fill="black"/>
<path opacity="0.2" d="M564.375 181.91C564.375 181.91 571.104 188.563 576.152 187.958C581.199 187.353 578.956 176.467 572.787 174.653C566.618 172.838 559.327 174.048 564.375 181.91Z" fill="black"/>
<path opacity="0.2" d="M471.838 306.496C471.838 306.496 478.568 313.148 483.616 312.544C488.663 311.939 486.42 301.053 480.251 299.238C473.521 297.424 466.791 298.634 471.838 306.496Z" fill="black"/>
<path opacity="0.2" d="M248.073 202.473C248.073 202.473 254.803 209.125 259.85 208.521C264.897 207.916 262.654 197.03 256.485 195.215C249.755 194.006 243.025 194.611 248.073 202.473Z" fill="black"/>
<path opacity="0.2" d="M1162.2 103.288C1162.2 103.288 1168.93 109.94 1173.98 109.336C1179.03 108.731 1176.78 97.8448 1170.61 96.0304C1164.45 94.216 1157.16 95.4256 1162.2 103.288Z" fill="black"/>
<path opacity="0.2" d="M512.217 134.132C512.217 134.132 515.021 162.557 500.44 159.533C486.42 156.509 476.886 148.042 487.541 134.737C497.636 120.826 510.535 115.383 512.217 134.132Z" fill="black"/>
<path opacity="0.2" d="M350.141 122.641C350.141 122.641 352.945 151.066 338.364 148.042C324.344 145.018 314.81 136.551 325.465 123.246C336.121 109.336 348.459 104.498 350.141 122.641Z" fill="black"/>
<path opacity="0.2" d="M674.852 268.999C674.852 268.999 677.656 297.424 663.636 294.4C649.615 291.376 640.081 282.909 650.737 269.604C660.831 256.299 673.169 250.856 674.852 268.999Z" fill="black"/>
<path opacity="0.2" d="M674.852 138.971C674.852 138.971 677.656 167.395 663.636 164.372C649.615 161.348 640.081 152.881 650.737 139.575C660.831 126.27 673.169 120.827 674.852 138.971Z" fill="black"/>
<path opacity="0.2" d="M894.131 429.267C894.131 429.267 896.935 457.692 882.915 454.668C868.894 451.644 859.36 443.177 870.016 429.872C880.111 416.567 892.449 411.124 894.131 429.267Z" fill="black"/>
<path opacity="0.2" d="M999.004 236.945C999.004 236.945 1001.81 265.37 987.788 262.346C973.767 259.323 964.234 250.856 974.889 237.55C984.984 223.64 997.322 218.197 999.004 236.945Z" fill="black"/>
<path opacity="0.2" d="M163.947 275.652C163.947 275.652 151.049 287.143 162.265 289.562C172.921 291.376 175.725 267.79 163.947 275.652Z" fill="black"/>
<path opacity="0.2" d="M792.063 454.063C792.063 454.063 779.164 465.554 790.38 467.973C800.475 469.787 803.84 446.201 792.063 454.063Z" fill="black"/>
<path opacity="0.2" d="M811.133 272.628C811.133 272.628 798.234 284.119 809.451 286.538C820.106 288.352 822.91 264.766 811.133 272.628Z" fill="black"/>
<path opacity="0.2" d="M393.322 45.8335C393.322 45.8335 380.424 57.3244 391.64 59.7435C402.295 61.5579 405.099 37.9713 393.322 45.8335Z" fill="black"/>
<path opacity="0.2" d="M1063.5 89.3777C1063.5 89.3777 1050.6 100.869 1061.82 103.288C1072.47 105.102 1075.28 81.5155 1063.5 89.3777Z" fill="black"/>
<path opacity="0.2" d="M904.227 146.228C904.227 146.228 891.328 157.719 902.544 160.138C912.639 161.952 915.443 138.366 904.227 146.228Z" fill="black"/>
<path opacity="0.2" d="M1365.22 264.765C1365.22 264.765 1352.32 276.256 1363.54 278.675C1374.19 280.49 1377 256.903 1365.22 264.765Z" fill="black"/>
<path opacity="0.2" d="M1334.94 137.761C1334.94 137.761 1322.04 149.252 1333.25 151.671C1343.35 153.485 1346.15 129.899 1334.94 137.761Z" fill="black"/>
<path opacity="0.2" d="M1287.82 263.556C1287.82 263.556 1274.93 275.047 1286.14 277.466C1296.8 279.28 1299.6 255.693 1287.82 263.556Z" fill="black"/>
<path opacity="0.2" d="M1115.65 173.443C1115.65 173.443 1102.76 184.934 1113.97 187.353C1124.07 189.168 1126.87 165.581 1115.65 173.443Z" fill="black"/>
<path opacity="0.2" d="M1082.57 25.8757C1082.57 25.8757 1069.67 37.3666 1080.88 39.7858C1090.98 41.6001 1093.78 18.0135 1082.57 25.8757Z" fill="black"/>
<path opacity="0.2" d="M1145.94 29.5044C1145.94 29.5044 1133.04 40.9953 1144.26 43.4144C1154.35 45.2288 1157.16 21.6422 1145.94 29.5044Z" fill="black"/>
<path opacity="0.2" d="M961.988 16.1987C961.988 16.1987 949.09 27.6896 960.306 30.1088C970.401 31.9231 973.766 8.33653 961.988 16.1987Z" fill="black"/>
<path opacity="0.2" d="M721.399 48.2527C721.399 48.2527 708.5 59.7436 719.716 62.1627C730.372 63.9771 733.176 40.3905 721.399 48.2527Z" fill="black"/>
<path opacity="0.2" d="M259.287 73.6538C259.287 73.6538 246.388 85.1447 257.605 87.5639C268.26 89.3782 271.064 65.7916 259.287 73.6538Z" fill="black"/>
<path opacity="0.2" d="M1357.93 1.68423C1357.93 1.68423 1348.4 5.91773 1351.2 15.5943C1354 25.2708 1370.83 29.5043 1371.95 16.8039C1373.63 4.70816 1369.71 -3.75883 1357.93 1.68423Z" fill="black"/>
<path opacity="0.2" d="M1227.82 154.09C1227.82 154.09 1218.28 158.324 1221.09 168C1223.89 177.677 1240.72 181.91 1241.84 169.21C1242.96 156.509 1239.03 148.042 1227.82 154.09Z" fill="black"/>
<path opacity="0.2" d="M1447.1 150.461C1447.1 150.461 1437.56 154.695 1440.37 164.371C1443.17 174.048 1460 178.281 1461.12 165.581C1462.24 153.485 1458.31 145.018 1447.1 150.461Z" fill="black"/>
<path opacity="0.2" d="M1065.18 314.358C1065.18 314.358 1055.65 318.592 1058.45 328.268C1061.26 337.945 1078.08 342.178 1079.2 329.478C1080.33 316.777 1076.4 308.31 1065.18 314.358Z" fill="black"/>
<path opacity="0.2" d="M472.398 215.778C472.398 215.778 462.864 220.012 465.669 229.688C468.473 239.365 485.297 243.598 486.419 230.898C487.54 218.802 483.615 210.335 472.398 215.778Z" fill="black"/>
<path opacity="0.2" d="M864.412 189.772C864.412 189.772 854.878 194.006 857.682 203.682C860.486 213.359 877.311 217.592 878.432 204.892C880.115 192.796 876.189 184.329 864.412 189.772Z" fill="black"/>
<path opacity="0.2" d="M244.709 378.465C244.709 378.465 235.175 382.699 237.979 392.375C240.783 402.052 257.608 406.285 258.729 393.585C259.851 380.884 255.925 372.417 244.709 378.465Z" fill="black"/>
<path opacity="0.2" d="M831.882 120.222C831.882 124.456 828.517 128.085 824.591 128.085C820.666 128.085 817.301 124.456 817.301 120.222C817.301 115.989 820.666 112.36 824.591 112.36C828.517 112.36 831.882 115.989 831.882 120.222Z" fill="black"/>
<path opacity="0.2" d="M936.193 333.106C936.193 337.34 932.828 340.969 928.902 340.969C924.976 340.969 921.611 337.34 921.611 333.106C921.611 328.873 924.976 325.244 928.902 325.244C932.828 324.639 936.193 328.268 936.193 333.106Z" fill="black"/>
<path opacity="0.2" d="M566.054 94.2162C566.054 98.4497 562.689 102.078 558.763 102.078C554.838 102.078 551.473 98.4497 551.473 94.2162C551.473 89.9827 554.838 86.354 558.763 86.354C562.689 85.7492 566.054 89.378 566.054 94.2162Z" fill="black"/>
<path opacity="0.2" d="M1235.67 59.7435C1235.67 63.977 1232.3 67.6057 1228.38 67.6057C1224.45 67.6057 1221.09 63.977 1221.09 59.7435C1221.09 55.5101 1224.45 51.8813 1228.38 51.8813C1232.3 51.8813 1235.67 55.5101 1235.67 59.7435Z" fill="black"/>
<path opacity="0.2" d="M884.04 29.5043C884.04 33.7378 880.675 37.3665 876.75 37.3665C872.824 37.3665 869.459 33.7378 869.459 29.5043C869.459 25.2708 872.824 21.6421 876.75 21.6421C880.675 21.6421 884.04 25.2708 884.04 29.5043Z" fill="black"/>
<path opacity="0.2" d="M1297.36 368.184C1297.36 372.417 1293.99 376.046 1290.07 376.046C1286.14 376.046 1282.78 372.417 1282.78 368.184C1282.78 363.951 1286.14 360.322 1290.07 360.322C1293.99 360.322 1297.36 363.951 1297.36 368.184Z" fill="black"/>
<path opacity="0.2" d="M51.2239 42.8097C51.2239 47.0432 47.859 50.6719 43.9332 50.6719C40.0075 50.6719 36.6426 47.0432 36.6426 42.8097C36.6426 38.5762 40.0075 34.9475 43.9332 34.9475C47.859 34.3428 51.2239 37.9715 51.2239 42.8097Z" fill="black"/>
<path opacity="0.2" d="M560.445 245.413C560.445 249.646 557.08 253.275 553.154 253.275C549.228 253.275 545.863 249.646 545.863 245.413C545.863 241.179 549.228 237.55 553.154 237.55C557.08 236.946 560.445 240.574 560.445 245.413Z" fill="black"/>
<path opacity="0.2" d="M734.302 141.389C734.302 145.623 730.937 149.252 727.011 149.252C723.086 149.252 719.721 145.623 719.721 141.389C719.721 137.156 723.086 133.527 727.011 133.527C730.937 133.527 734.302 137.156 734.302 141.389Z" fill="black"/>
<path opacity="0.2" d="M824.03 76.0729C824.03 80.3064 820.665 83.9351 816.74 83.9351C812.814 83.9351 809.449 80.3064 809.449 76.0729C809.449 71.8394 812.814 68.2107 816.74 68.2107C820.665 67.6059 824.03 71.2346 824.03 76.0729Z" fill="black"/>
<path opacity="0.2" d="M622.138 45.8337C622.138 50.0672 618.773 53.6959 614.847 53.6959C610.922 53.6959 607.557 50.0672 607.557 45.8337C607.557 41.6002 610.922 37.9715 614.847 37.9715C618.773 37.3667 622.138 40.9954 622.138 45.8337Z" fill="black"/>
<path opacity="0.2" d="M1020.32 121.432C1020.32 125.665 1016.95 129.294 1013.03 129.294C1009.1 129.294 1005.74 125.665 1005.74 121.432C1005.74 117.198 1009.1 113.569 1013.03 113.569C1016.95 112.965 1020.32 116.593 1020.32 121.432Z" fill="black"/>
<path opacity="0.2" d="M280.036 350.04C280.036 354.274 276.671 357.902 272.746 357.902C268.82 357.902 265.455 354.274 265.455 350.04C265.455 345.807 268.82 342.178 272.746 342.178C276.671 342.178 280.036 345.807 280.036 350.04Z" fill="black"/>
<path opacity="0.2" d="M240.78 490.35C240.78 494.584 237.416 498.213 233.49 498.213C229.564 498.213 226.199 494.584 226.199 490.35C226.199 486.117 229.564 482.488 233.49 482.488C237.416 481.884 240.78 485.512 240.78 490.35Z" fill="black"/>
<path opacity="0.2" d="M136.472 89.9828C136.472 94.2163 133.107 97.845 129.181 97.845C125.256 97.845 121.891 94.2163 121.891 89.9828C121.891 85.7493 125.256 82.1206 129.181 82.1206C133.107 82.1206 136.472 85.7493 136.472 89.9828Z" fill="black"/>
<path opacity="0.2" d="M27.6692 475.231C27.6692 479.465 24.3043 483.093 20.3785 483.093C16.4528 483.093 13.0879 479.465 13.0879 475.231C13.0879 470.998 16.4528 467.369 20.3785 467.369C24.3043 466.764 27.6692 470.393 27.6692 475.231Z" fill="black"/>
<path opacity="0.2" d="M509.976 446.806C509.976 451.039 506.611 454.668 502.685 454.668C498.759 454.668 495.395 451.039 495.395 446.806C495.395 442.572 498.759 438.943 502.685 438.943C506.611 438.943 509.976 442.572 509.976 446.806Z" fill="black"/>
<path opacity="0.2" d="M1035.46 481.279C1035.46 485.512 1032.1 489.141 1028.17 489.141C1024.24 489.141 1020.88 485.512 1020.88 481.279C1020.88 477.045 1024.24 473.417 1028.17 473.417C1032.1 472.812 1035.46 476.44 1035.46 481.279Z" fill="black"/>
<path opacity="0.2" d="M723.083 337.944C723.083 342.178 719.718 345.806 715.793 345.806C711.867 345.806 708.502 342.178 708.502 337.944C708.502 333.711 711.867 330.082 715.793 330.082C719.718 330.082 723.083 333.711 723.083 337.944Z" fill="black"/>
<path opacity="0.2" d="M835.249 360.927C835.249 365.16 831.884 368.789 827.959 368.789C824.033 368.789 820.668 365.16 820.668 360.927C820.668 356.693 824.033 353.064 827.959 353.064C831.884 353.064 835.249 356.693 835.249 360.927Z" fill="black"/>
<path opacity="0.2" d="M737.103 394.189C737.103 398.423 733.738 402.052 729.812 402.052C725.886 402.052 722.521 398.423 722.521 394.189C722.521 389.956 725.886 386.327 729.812 386.327C733.738 386.327 737.103 389.956 737.103 394.189Z" fill="black"/>
<path opacity="0.2" d="M417.435 472.811C417.435 477.045 414.07 480.674 410.144 480.674C406.218 480.674 402.854 477.045 402.854 472.811C402.854 468.578 406.218 464.949 410.144 464.949C414.07 464.949 417.435 468.578 417.435 472.811Z" fill="black"/>
<path opacity="0.2" d="M709.066 475.836C709.066 480.069 705.701 483.698 701.775 483.698C697.849 483.698 694.484 480.069 694.484 475.836C694.484 471.602 697.849 467.973 701.775 467.973C705.701 467.973 709.066 471.602 709.066 475.836Z" fill="black"/>
<path opacity="0.2" d="M1323.16 454.668C1323.16 458.901 1319.79 462.53 1315.87 462.53C1311.94 462.53 1308.58 458.901 1308.58 454.668C1308.58 450.434 1311.94 446.806 1315.87 446.806C1319.79 446.806 1323.16 450.434 1323.16 454.668Z" fill="black"/>
<path opacity="0.2" d="M1450.46 247.227C1450.46 251.46 1447.1 255.089 1443.17 255.089C1439.25 255.089 1435.88 251.46 1435.88 247.227C1435.88 242.993 1439.25 239.365 1443.17 239.365C1447.1 239.365 1450.46 242.993 1450.46 247.227Z" fill="black"/>
<path opacity="0.2" d="M1320.92 80.3061C1320.92 84.5395 1317.55 88.1683 1313.62 88.1683C1309.7 88.1683 1306.33 84.5395 1306.33 80.3061C1306.33 76.0726 1309.7 72.4438 1313.62 72.4438C1318.11 72.4438 1320.92 76.0726 1320.92 80.3061Z" fill="black"/>
<path opacity="0.2" d="M1384.85 128.084C1384.85 132.318 1381.48 135.946 1377.56 135.946C1373.63 135.946 1370.27 132.318 1370.27 128.084C1370.27 123.851 1373.63 120.222 1377.56 120.222C1381.48 120.222 1384.85 123.851 1384.85 128.084Z" fill="black"/>
</g>
</svg>
