<svg width="21" height="18" viewBox="0 0 21 18" fill="none" xmlns="http://www.w3.org/2000/svg">
<path d="M19.0945 4C19.6468 4 20.0945 3.55228 20.0945 3C20.0945 2.44772 19.6468 2 19.0945 2C18.5422 2 18.0945 2.44772 18.0945 3C18.0945 3.55228 18.5422 4 19.0945 4Z" fill="black" fill-opacity="0.4"/>
<path d="M19.0945 16C19.6468 16 20.0945 15.5523 20.0945 15C20.0945 14.4477 19.6468 14 19.0945 14C18.5422 14 18.0945 14.4477 18.0945 15C18.0945 15.5523 18.5422 16 19.0945 16Z" fill="black" fill-opacity="0.4"/>
<path d="M16.0945 18C16.6468 18 17.0945 17.5523 17.0945 17C17.0945 16.4477 16.6468 16 16.0945 16C15.5422 16 15.0945 16.4477 15.0945 17C15.0945 17.5523 15.5422 18 16.0945 18Z" fill="black" fill-opacity="0.4"/>
<path d="M16.0945 2C16.6468 2 17.0945 1.55228 17.0945 1C17.0945 0.447715 16.6468 0 16.0945 0C15.5422 0 15.0945 0.447715 15.0945 1C15.0945 1.55228 15.5422 2 16.0945 2Z" fill="black" fill-opacity="0.4"/>
<path d="M19.0945 10C19.6468 10 20.0945 9.55228 20.0945 9C20.0945 8.44772 19.6468 8 19.0945 8C18.5422 8 18.0945 8.44772 18.0945 9C18.0945 9.55228 18.5422 10 19.0945 10Z" fill="black" fill-opacity="0.4"/>
<path d="M16.0945 7C16.6468 7 17.0945 6.55228 17.0945 6C17.0945 5.44772 16.6468 5 16.0945 5C15.5422 5 15.0945 5.44772 15.0945 6C15.0945 6.55228 15.5422 7 16.0945 7Z" fill="black" fill-opacity="0.4"/>
<path d="M16.0945 13C16.6468 13 17.0945 12.5523 17.0945 12C17.0945 11.4477 16.6468 11 16.0945 11C15.5422 11 15.0945 11.4477 15.0945 12C15.0945 12.5523 15.5422 13 16.0945 13Z" fill="black" fill-opacity="0.4"/>
<path d="M13.0945 7H6.09448C4.39448 7 3.09448 5.7 3.09448 4C3.09448 2.3 4.39448 1 6.09448 1C6.99448 1 7.79448 1.4 8.29448 2C8.69448 2.4 8.59448 3 8.19448 3.4C7.79448 3.8 7.19448 3.7 6.79448 3.3C6.69448 3.1 6.39448 3 6.09448 3C5.49448 3 5.09448 3.4 5.09448 4C5.09448 4.6 5.49448 5 6.09448 5H13.0945C13.6945 5 14.0945 5.4 14.0945 6C14.0945 6.6 13.6945 7 13.0945 7Z" fill="black" fill-opacity="0.4"/>
<path d="M3.09448 14C1.39448 14 0.0944824 12.7 0.0944824 11C0.0944824 9.3 1.39448 8 3.09448 8H16.0945C16.6945 8 17.0945 8.4 17.0945 9C17.0945 9.6 16.6945 10 16.0945 10H3.09448C2.49448 10 2.09448 10.4 2.09448 11C2.09448 11.6 2.49448 12 3.09448 12C3.39448 12 3.69448 11.9 3.79448 11.7C4.19448 11.3 4.79448 11.3 5.19448 11.6C5.59448 12 5.59448 12.6 5.29448 13C4.79448 13.6 3.99448 14 3.09448 14Z" fill="black" fill-opacity="0.4"/>
<path d="M9.09448 17C7.39448 17 6.09448 15.7 6.09448 14C6.09448 12.3 7.39448 11 9.09448 11H13.0945C13.6945 11 14.0945 11.4 14.0945 12C14.0945 12.6 13.6945 13 13.0945 13H9.09448C8.49448 13 8.09448 13.4 8.09448 14C8.09448 14.6 8.49448 15 9.09448 15C9.39448 15 9.69448 14.9 9.89448 14.6C10.1945 14.2 10.8945 14.1 11.2945 14.4C11.6945 14.7 11.7945 15.4 11.4945 15.8C10.8945 16.6 9.99448 17 9.09448 17Z" fill="black" fill-opacity="0.4"/>
</svg>
