<svg width="25" height="24" viewBox="0 0 25 24" fill="none" xmlns="http://www.w3.org/2000/svg">
<path d="M21.9904 2.80901C21.5358 4.32261 20.6464 7.17597 19.5908 10.1446C19.8645 10.2276 20.1139 10.3008 20.3191 10.3643C20.4999 10.418 20.6465 10.5499 20.7152 10.7208C20.7885 10.8966 20.7787 11.0919 20.6907 11.2579C19.8256 12.9082 17.4604 17.2263 15.1198 19.6324C15.0807 19.6764 15.0415 19.7301 15.0025 19.7691C12.0313 22.7428 7.20703 22.7428 4.23195 19.774C1.25569 16.8003 1.25569 11.9815 4.23195 9.00505C4.27104 8.96599 4.3248 8.92693 4.36878 8.88787C6.77097 6.55022 11.087 4.18589 12.7133 3.32149C12.8795 3.2336 13.0749 3.22384 13.2462 3.29707C13.4221 3.37031 13.554 3.51683 13.6078 3.69276C13.6713 3.89294 13.7446 4.14703 13.8277 4.42045C16.7942 3.36582 19.6489 2.4772 21.1618 2.028C21.3866 1.95964 21.6263 2.01822 21.7924 2.18424C21.9943 2.34513 22.0178 2.5891 21.9904 2.80901ZM14.4726 14.4639C14.4726 11.705 12.2293 9.46413 9.46849 9.46413C6.70256 9.46413 4.4644 11.7054 4.4644 14.4639C4.4644 17.2278 6.70256 19.4636 9.46849 19.4636C12.2637 19.4988 14.4726 17.2645 14.4726 14.4639ZM9.46849 13.2139C9.46849 13.9026 8.9067 14.4639 8.21746 14.4639C7.52354 14.4639 6.96644 13.9022 6.96644 13.2139C6.96644 12.5257 7.52354 11.964 8.21746 11.964C8.54977 11.964 8.8676 12.0958 9.10217 12.3302C9.33674 12.5646 9.46849 12.9171 9.46849 13.2139ZM10.7508 16.3388C10.7508 16.6855 10.4684 16.9637 10.1264 16.9637C9.77948 16.9637 9.50093 16.6854 9.50093 16.3388C9.50093 15.9921 9.7785 15.7138 10.1257 15.7138C10.4693 15.7138 10.7508 16.0263 10.7508 16.3388Z" fill="white"/>
</svg>
