<svg width="20" height="21" viewBox="0 0 20 21" fill="none" xmlns="http://www.w3.org/2000/svg">
<path d="M3.99962 1.99121C4.5396 1.99121 5.02948 2.20284 5.3802 2.55013C5.73647 2.89742 5.95358 3.36951 5.95358 3.89587C5.95358 4.42223 5.73647 4.89976 5.3802 5.24162C5.02392 5.58891 4.5396 5.80054 3.99962 5.80054C3.45963 5.80054 2.96975 5.58891 2.61904 5.24162C2.26276 4.89433 2.04565 4.42223 2.04565 3.89587C2.04565 3.36951 2.26276 2.89199 2.61904 2.55013C2.96975 2.20284 3.45963 1.99121 3.99962 1.99121Z" fill="white"/>
<path d="M4.26426 0.309304C4.26426 0.141086 4.11952 0 3.94695 0C3.76881 0 3.62964 0.141086 3.62964 0.309304V1.51396C3.62964 1.68761 3.77438 1.82327 3.94695 1.82327C4.12509 1.82327 4.26426 1.68218 4.26426 1.51396V0.309304Z" fill="white"/>
<path d="M6.0683 0.917029C6.15737 0.770516 6.10171 0.580593 5.9514 0.49377C5.8011 0.406948 5.60626 0.461212 5.51719 0.607725L4.89927 1.65502C4.8102 1.80153 4.86587 1.99145 5.01617 2.07828C5.16648 2.1651 5.36132 2.11084 5.45038 1.96432L6.0683 0.917029Z" fill="white"/>
<path d="M7.31577 2.32786C7.46607 2.24104 7.52174 2.05654 7.43267 1.9046C7.3436 1.75809 7.15433 1.70382 6.99846 1.79065L5.92962 2.39297C5.77932 2.4798 5.72365 2.66429 5.81272 2.81623C5.90179 2.96275 6.09106 3.01701 6.24693 2.93019L7.31577 2.32786Z" fill="white"/>
<path d="M7.67192 4.15669C7.85006 4.15669 7.98924 4.01561 7.98924 3.84739C7.98924 3.67375 7.8445 3.53809 7.67192 3.53809H6.43608C6.25795 3.53809 6.11877 3.67917 6.11877 3.84739C6.11877 4.02104 6.26351 4.15669 6.43608 4.15669H7.67192Z" fill="white"/>
<path d="M7.04826 5.91456C7.19857 6.00138 7.39341 5.94712 7.48248 5.80061C7.57155 5.6541 7.51588 5.46417 7.36557 5.37735L6.29674 4.77502C6.14643 4.6882 5.95159 4.74246 5.86252 4.88897C5.77345 5.03549 5.82912 5.22541 5.97943 5.31223L7.04826 5.91456Z" fill="white"/>
<path d="M5.60654 7.13028C5.69561 7.2768 5.88488 7.33106 6.04076 7.24424C6.19106 7.15741 6.24673 6.97292 6.15766 6.82098L5.53974 5.77911C5.45067 5.6326 5.2614 5.57833 5.10553 5.66516C4.95522 5.75198 4.89955 5.93648 4.98862 6.08842L5.60654 7.13028Z" fill="white"/>
<path d="M3.72937 7.47734C3.72937 7.65099 3.87411 7.78665 4.04668 7.78665C4.22482 7.78665 4.36399 7.64556 4.36399 7.47734V6.27268C4.36399 6.09904 4.21925 5.96338 4.04668 5.96338C3.86854 5.96338 3.72937 6.10446 3.72937 6.27268V7.47734Z" fill="white"/>
<path d="M1.92649 6.86981C1.83742 7.01632 1.89309 7.20624 2.04339 7.29306C2.1937 7.37989 2.38854 7.32562 2.47761 7.17911L3.09553 6.13724C3.1846 5.99073 3.12893 5.80081 2.97862 5.71399C2.82832 5.62716 2.63348 5.68143 2.54441 5.82794L1.92649 6.86981Z" fill="white"/>
<path d="M0.679501 5.46426C0.529196 5.55109 0.473527 5.74101 0.562597 5.88752C0.651666 6.03404 0.846506 6.0883 0.996811 6.00148L2.06565 5.39915C2.21595 5.31233 2.27162 5.1224 2.18255 4.97589C2.09348 4.82938 1.89864 4.77511 1.74834 4.86193L0.679501 5.46426Z" fill="white"/>
<path d="M0.318165 3.63574C0.145593 3.63574 0.000854492 3.7714 0.000854492 3.94505C0.000854492 4.11869 0.145593 4.25435 0.318165 4.25435H1.554C1.73214 4.25435 1.87132 4.11326 1.87132 3.94505C1.87132 3.7714 1.72658 3.63574 1.554 3.63574H0.318165Z" fill="white"/>
<path d="M0.942734 1.87756C0.792429 1.79074 0.597589 1.845 0.50852 1.99151C0.41945 2.13803 0.475119 2.32795 0.625423 2.41477L1.69426 3.0171C1.84456 3.10392 2.0394 3.04966 2.12847 2.90315C2.21754 2.75664 2.16187 2.56671 2.01157 2.47989L0.942734 1.87756Z" fill="white"/>
<path d="M2.38837 0.661924C2.2993 0.515411 2.10446 0.461147 1.95416 0.54797C1.80385 0.634792 1.74819 0.824716 1.83725 0.971228L2.45517 2.0131C2.54424 2.15961 2.73908 2.21387 2.88939 2.12705C3.03969 2.04023 3.09536 1.8503 3.00629 1.70379L2.38837 0.661924Z" fill="white"/>
<path fill-rule="evenodd" clip-rule="evenodd" d="M7.16402 17.9992L5.47727 19.7411C5.3548 19.8659 5.15439 19.8713 5.02635 19.7519C4.89832 19.6325 4.89275 19.4372 5.01522 19.3124L6.07292 18.2217L3.52331 18.748L2.10376 19.7248C1.95902 19.8225 1.76418 19.7899 1.66398 19.6488C1.56378 19.5077 1.59718 19.3178 1.74191 19.2201L3.13919 18.2651L3.93525 16.2573C3.86845 16.279 3.79608 16.3062 3.72928 16.3333C2.83302 16.6643 1.63058 17.2341 0.294535 18.5635C0.266701 18.6721 0.25 18.786 0.25 18.8946C0.25 19.2853 0.422572 19.6597 0.739883 20.007H17.6854C18.0027 19.6597 18.1752 19.2853 18.1752 18.8946C18.1752 18.8186 18.1697 18.7426 18.153 18.6666C17.9971 18.7155 17.8245 18.6449 17.7577 18.493C17.5351 17.9612 17.0452 17.4674 16.3438 17.0387C16.3271 17.0279 16.3104 17.0224 16.2937 17.0116C16.0543 16.8651 15.7926 16.7294 15.5032 16.5992L16.6889 19.3558C16.7557 19.5132 16.6778 19.6922 16.5163 19.7628C16.3549 19.8279 16.1712 19.7519 16.0988 19.5946L15.4419 18.0643L13.9166 17.8093L13.8498 17.9992C13.8442 18.0263 13.8331 18.048 13.8164 18.0752L13.0816 19.6C13.0092 19.7519 12.8199 19.8225 12.6585 19.7465C12.5026 19.676 12.4303 19.4915 12.5082 19.3341L13.0426 18.2325L11.2835 18.2488L10.5542 19.6163C10.4707 19.7682 10.2815 19.8279 10.1256 19.7465C10.0755 19.7194 10.0365 19.6814 10.0031 19.638L8.5279 17.679L7.16402 17.9992Z" fill="white"/>
<path fill-rule="evenodd" clip-rule="evenodd" d="M9.21877 15.8833L8.99609 17.2562L10.2208 18.8895L10.7552 17.8965L10.6884 17.5709L9.21877 15.8833Z" fill="white"/>
<path fill-rule="evenodd" clip-rule="evenodd" d="M11.4897 17.0825L11.3171 17.4678L11.3505 17.6306L13.3156 17.6143L13.349 17.5112L13.0206 17.0988L11.4897 17.0825Z" fill="white"/>
<path fill-rule="evenodd" clip-rule="evenodd" d="M13.5447 16.7457L13.8787 17.169L15.1591 17.3806L14.7638 16.4581C14.7416 16.3984 14.736 16.3387 14.7471 16.2845C14.6246 16.2411 14.5022 16.1977 14.3741 16.1597L13.5447 16.7457Z" fill="white"/>
<path fill-rule="evenodd" clip-rule="evenodd" d="M16.8064 7.39643C16.812 7.37472 17.0013 7.09797 17.0514 6.69099C17.1182 6.17549 17.0458 5.50804 17.057 5.48091C17.1516 5.25843 17.3798 5.10649 17.6415 5.10649C17.9309 5.10649 18.1703 5.29099 18.2483 5.54603L18.5433 5.13905C18.7437 4.8623 19.139 4.79176 19.4284 4.98711C19.7179 5.18246 19.7847 5.57316 19.5843 5.8499L19.1779 6.41425L19.2002 6.40882C19.5398 6.322 19.8905 6.51735 19.9795 6.84836C20.0686 7.17937 19.8682 7.52123 19.5286 7.60805L18.0312 7.99875L16.9011 9.34993C16.9233 11.9763 16.9846 14.0872 17.1182 16.7244C17.1238 16.8601 17.0848 16.9903 17.0124 17.0934C16.7007 16.8546 16.183 16.5616 15.8267 16.3934L15.6708 13.3438L14.8469 11.8244C14.6743 11.5313 14.7745 11.1515 15.0807 10.9778C15.2589 10.8802 15.4648 10.8693 15.643 10.9399L15.6374 10.0554L14.1622 8.62822L12.5645 8.21038C12.2249 8.12356 12.0245 7.7817 12.1136 7.45069C12.1693 7.24449 12.3251 7.09255 12.52 7.02743L12.0635 6.58247C11.813 6.33828 11.813 5.94758 12.0635 5.70339C12.314 5.4592 12.7148 5.4592 12.9653 5.70339L13.817 6.53363V6.322C13.817 5.98014 14.101 5.70339 14.4517 5.70339C14.8024 5.70339 15.0863 5.98014 15.0863 6.322V7.77085L15.6263 8.29721L15.5873 4.09718C15.5873 3.75532 15.8656 3.47314 16.2164 3.47314C16.5671 3.47314 16.851 3.74446 16.8565 4.08633L16.8064 7.39643Z" fill="white"/>
<path fill-rule="evenodd" clip-rule="evenodd" d="M9.7041 15.4868L10.8954 16.8543L10.99 16.6426L10.6004 15.5194C10.3053 15.5085 10.0103 15.4922 9.7041 15.4868Z" fill="white"/>
<path fill-rule="evenodd" clip-rule="evenodd" d="M7.83971 15.5249C7.60033 15.5412 7.36096 15.5575 7.12715 15.5792L7.12158 15.9644L7.83971 15.5249Z" fill="white"/>
<path fill-rule="evenodd" clip-rule="evenodd" d="M6.45707 15.6495C5.94492 15.7254 5.45504 15.8285 4.98743 15.9425L6.47934 16.165L6.48491 15.644C6.47934 15.644 6.46821 15.644 6.45707 15.6495Z" fill="white"/>
<path fill-rule="evenodd" clip-rule="evenodd" d="M4.51604 16.4961L3.90369 18.0426L6.63701 17.4783L6.5201 16.7945L4.51604 16.4961Z" fill="white"/>
<path fill-rule="evenodd" clip-rule="evenodd" d="M8.58971 15.7964L7.14233 16.6755L7.25924 17.3375L8.37817 17.077L8.58971 15.7964Z" fill="white"/>
<path fill-rule="evenodd" clip-rule="evenodd" d="M10.929 15.4922L11.3687 16.7674L12.9386 16.7891L14.052 15.9968L13.3839 15.8395C13.2559 15.8123 13.1279 15.7798 12.9998 15.7581C12.4765 15.6604 11.9477 15.5953 11.4188 15.5465L10.929 15.4922Z" fill="white"/>
</svg>
