<svg width="25" height="24" viewBox="0 0 25 24" fill="none" xmlns="http://www.w3.org/2000/svg">
<path d="M9.05686 6.80905L12.3405 20.426C12.5181 21.1626 13.5515 21.2011 13.7836 20.4798L17.0401 10.3575L17.6263 12.4532C17.7169 12.7772 18.0121 13.0012 18.3486 13.0012H21.8422C22.2564 13.0012 22.5922 12.6654 22.5922 12.2512C22.5922 11.837 22.2564 11.5012 21.8422 11.5012H18.9176L17.8126 7.55053C17.6124 6.83439 16.6041 6.81496 16.3764 7.52284L13.173 17.4797L9.81979 3.57419C9.63727 2.81728 8.56487 2.80542 8.36565 3.5581L6.26331 11.5012H3.34448C2.93027 11.5012 2.59448 11.837 2.59448 12.2512C2.59448 12.6654 2.93027 13.0012 3.34448 13.0012H6.84062C7.18093 13.0012 7.47859 12.7721 7.56566 12.4431L9.05686 6.80905Z" fill="white"/>
</svg>
