<svg width="17" height="20" viewBox="0 0 17 20" fill="none" xmlns="http://www.w3.org/2000/svg">
<path d="M12.2754 2.00195C11.4899 2.75391 10.7765 3.54492 10.1466 4.33984C9.11069 2.87578 7.82431 1.38672 6.37476 0C2.64652 3.55938 -0.000244141 8.20312 -0.000244141 11C-0.000244141 15.9727 3.80199 20 8.49976 20C13.1975 20 16.9998 15.9727 16.9998 11C16.9998 8.92188 15.0265 4.62891 12.2754 2.00195ZM11.5393 15.3086C10.7158 15.8984 9.70645 16.25 8.6098 16.25C5.87272 16.25 3.64261 14.3855 3.64261 11.3594C3.64261 9.85039 4.56243 8.52188 6.40284 6.25C6.66846 6.5625 10.155 11.1484 10.155 11.1484L12.3798 8.53594C12.5363 8.79961 12.6783 9.06406 12.8063 9.31328C13.8464 11.3516 13.41 13.9609 11.5393 15.3086Z" fill="white"/>
</svg>
