<svg width="21" height="15" viewBox="0 0 21 15" fill="none" xmlns="http://www.w3.org/2000/svg">
<path d="M4.59048 4.28571C6.00348 4.28571 6.75048 3.48536 7.29548 2.90036C7.78548 2.37536 8.02648 2.14286 8.58748 2.14286C9.14848 2.14286 9.38948 2.37536 9.87948 2.90036C10.4245 3.48536 11.1715 4.28571 12.5855 4.28571C14.0005 4.28571 14.7485 3.48536 15.2955 2.90036C15.7865 2.37536 16.0275 2.14286 16.5905 2.14286C17.1535 2.14286 17.3945 2.37536 17.8855 2.90036C18.4315 3.48536 19.1795 4.28571 20.5945 4.28571V2.14286C20.0315 2.14286 19.7905 1.91036 19.2995 1.38536C18.7535 0.800357 18.0055 0 16.5905 0C15.1755 0 14.4285 0.800357 13.8815 1.38429C13.3905 1.91036 13.1505 2.14286 12.5855 2.14286C12.0235 2.14286 11.7835 1.91036 11.2935 1.38536C10.7485 0.800357 10.0015 0 8.58748 0C7.17348 0 6.42648 0.800357 5.88148 1.38536C5.39148 1.91036 5.15148 2.14286 4.59048 2.14286C4.02948 2.14286 3.78948 1.91036 3.29948 1.38536C2.75448 0.800357 2.00748 0 0.594482 0V2.14286C1.15548 2.14286 1.39548 2.37536 1.88548 2.90036C2.43048 3.48536 3.17748 4.28571 4.59048 4.28571ZM4.59048 9.64286C6.00348 9.64286 6.75048 8.8425 7.29548 8.2575C7.78548 7.7325 8.02648 7.5 8.58748 7.5C9.14848 7.5 9.38948 7.7325 9.87948 8.2575C10.4245 8.8425 11.1715 9.64286 12.5855 9.64286C14.0005 9.64286 14.7485 8.8425 15.2955 8.2575C15.7865 7.7325 16.0275 7.5 16.5905 7.5C17.1535 7.5 17.3945 7.7325 17.8855 8.2575C18.4315 8.8425 19.1795 9.64286 20.5945 9.64286V7.5C20.0315 7.5 19.7905 7.2675 19.2995 6.7425C18.7535 6.1575 18.0055 5.35714 16.5905 5.35714C15.1755 5.35714 14.4285 6.1575 13.8815 6.74143C13.3905 7.2675 13.1505 7.5 12.5855 7.5C12.0235 7.5 11.7835 7.2675 11.2935 6.7425C10.7485 6.1575 10.0015 5.35714 8.58748 5.35714C7.17348 5.35714 6.42648 6.1575 5.88148 6.7425C5.39148 7.2675 5.15148 7.5 4.59048 7.5C4.02948 7.5 3.78948 7.2675 3.29948 6.7425C2.75448 6.1575 2.00748 5.35714 0.594482 5.35714V7.5C1.15548 7.5 1.39548 7.7325 1.88548 8.2575C2.43048 8.8425 3.17748 9.64286 4.59048 9.64286ZM4.59048 15C6.00348 15 6.75048 14.1996 7.29548 13.6146C7.78548 13.0896 8.02648 12.8571 8.58748 12.8571C9.14848 12.8571 9.38948 13.0896 9.87948 13.6146C10.4245 14.1996 11.1715 15 12.5855 15C14.0005 15 14.7485 14.1996 15.2955 13.6146C15.7865 13.0896 16.0275 12.8571 16.5905 12.8571C17.1535 12.8571 17.3945 13.0896 17.8855 13.6146C18.4315 14.1996 19.1795 15 20.5945 15V12.8571C20.0315 12.8571 19.7905 12.6246 19.2995 12.0996C18.7535 11.5146 18.0055 10.7143 16.5905 10.7143C15.1755 10.7143 14.4285 11.5146 13.8815 12.0986C13.3905 12.6246 13.1505 12.8571 12.5855 12.8571C12.0235 12.8571 11.7835 12.6246 11.2935 12.0996C10.7485 11.5146 10.0015 10.7143 8.58748 10.7143C7.17348 10.7143 6.42648 11.5146 5.88148 12.0996C5.39148 12.6246 5.15148 12.8571 4.59048 12.8571C4.02948 12.8571 3.78948 12.6246 3.29948 12.0996C2.75448 11.5146 2.00748 10.7143 0.594482 10.7143V12.8571C1.15548 12.8571 1.39548 13.0896 1.88548 13.6146C2.43048 14.1996 3.17748 15 4.59048 15Z" fill="white"/>
</svg>
