<svg width="19" height="20" viewBox="0 0 19 20" fill="none" xmlns="http://www.w3.org/2000/svg">
<path fill-rule="evenodd" clip-rule="evenodd" d="M18.9972 12.8968C18.5135 8.33343 16.4825 4.338 11.7413 3.77144C14.3746 3.11896 16.1449 3.67209 16.3639 3.74593C16.5673 3.83454 16.8032 3.73787 16.8932 3.52844C16.9831 3.31766 16.8905 3.07063 16.6859 2.97665C12.6056 1.12661 8.22942 0.939996 5.38365 4.8871C6.14235 2.24227 7.47072 0.938653 7.66756 0.756066C7.84876 0.619126 7.88787 0.357328 7.75491 0.170713C7.62194 -0.0145589 7.36774 -0.0548355 7.18653 0.0807623C3.5912 2.79272 1.24732 6.60288 3.14015 11.1139C1.25906 9.07452 0.848422 7.203 0.80801 6.99893C0.776724 6.77741 0.57988 6.61899 0.362178 6.64316C0.139262 6.66732 -0.0223843 6.87408 0.00238409 7.10365H0.00368769C0.48211 11.6254 2.49226 15.6597 7.25823 16.229C4.62496 16.8815 2.85336 16.3283 2.63566 16.2545C2.4323 16.1659 2.19635 16.2625 2.1064 16.472C2.01645 16.6828 2.109 16.9298 2.31367 17.0238C6.39264 18.8752 10.7675 19.0618 13.6146 15.1147C12.8559 17.7595 11.5275 19.0631 11.3307 19.2457C11.1495 19.3826 11.1104 19.6444 11.2433 19.8311C11.3763 20.0177 11.6305 20.0579 11.8117 19.921C15.407 17.209 17.7509 13.3989 15.8581 8.88791C17.7392 10.9272 18.1498 12.8001 18.1902 13.0042C18.2215 13.2257 18.4184 13.3841 18.6361 13.3599C18.8603 13.3331 19.0219 13.1263 18.9972 12.8968ZM11.9538 11.4589C11.9473 11.471 11.9395 11.4817 11.933 11.4938C11.5406 12.1718 10.9214 12.6283 10.2331 12.8176C9.53432 13.0109 8.76389 12.9276 8.08602 12.5249L8.08341 12.5262C8.07168 12.5195 8.06125 12.5115 8.04952 12.5047C7.3912 12.1006 6.94798 11.4629 6.76417 10.7541C6.57645 10.0344 6.65727 9.241 7.04835 8.54287L7.04705 8.54018C7.05357 8.5281 7.06139 8.51736 7.06791 8.50528C7.46029 7.82729 8.0795 7.37082 8.7678 7.18152C9.46653 6.98819 10.237 7.07143 10.9148 7.4742L10.9174 7.47286C10.9292 7.47957 10.9396 7.48762 10.9513 7.49434C11.6097 7.89844 12.0529 8.53616 12.2367 9.24502C12.4244 9.96463 12.3436 10.7581 11.9525 11.4562L11.9538 11.4589Z" fill="white"/>
</svg>
