<svg width="21" height="20" viewBox="0 0 21 20" fill="none" xmlns="http://www.w3.org/2000/svg">
<path d="M8.90491 9.3458V10.6558L10.0952 11.3107L11.2855 10.6558V9.3458L10.0952 8.69092L8.90491 9.3458Z" fill="black"/>
<path d="M19.32 12.7808L17.3143 13.2905L15.9758 12.5533L17.9115 12.0591C17.9898 12.0391 18.0632 12.0047 18.1276 11.9577C18.1919 11.9107 18.2458 11.8521 18.2863 11.7852C18.3268 11.7183 18.353 11.6445 18.3635 11.568C18.374 11.4914 18.3685 11.4137 18.3474 11.3392C18.3263 11.2646 18.2899 11.1948 18.2404 11.1337C18.1909 11.0726 18.1292 11.0213 18.0589 10.9829C17.9886 10.9445 17.911 10.9197 17.8306 10.9099C17.7502 10.9001 17.6686 10.9055 17.5904 10.9258L14.4603 11.7218L14.3739 11.6749V8.32569L14.4603 8.27858L17.5904 9.07462C17.6423 9.09009 17.6964 9.09803 17.7508 9.09817C17.8871 9.09722 18.0193 9.05374 18.1272 8.9744C18.2351 8.89505 18.3127 8.78422 18.3481 8.65888C18.369 8.58446 18.3742 8.50684 18.3636 8.43047C18.353 8.3541 18.3266 8.28048 18.2861 8.21382C18.2455 8.14716 18.1916 8.08876 18.1273 8.04198C18.063 7.99519 17.9897 7.96094 17.9115 7.94116L15.9758 7.44711L17.3143 6.70986L19.32 7.21962C19.3722 7.23381 19.4263 7.2404 19.4806 7.23915C19.6299 7.23872 19.774 7.18665 19.886 7.09262C19.9979 6.9986 20.0702 6.86903 20.0894 6.72804C20.1085 6.58704 20.0732 6.44423 19.99 6.32619C19.9068 6.20814 19.7814 6.12291 19.6371 6.08635L17.9857 5.66277L18.4263 4.0862C18.4684 3.9359 18.446 3.77584 18.3641 3.64124C18.2822 3.50664 18.1476 3.40853 17.9897 3.36848C17.8319 3.32844 17.6638 3.34974 17.5225 3.4277C17.3811 3.50567 17.2781 3.63391 17.236 3.78421L16.6965 5.69015L15.358 6.4274L15.877 4.58427C15.8983 4.50947 15.9038 4.4314 15.8933 4.35455C15.8828 4.2777 15.8564 4.20359 15.8157 4.13647C15.7751 4.06935 15.7208 4.01055 15.6562 3.96344C15.5916 3.91632 15.5179 3.88183 15.4392 3.86195C15.3605 3.84206 15.2785 3.83716 15.1979 3.84754C15.1172 3.85792 15.0395 3.88337 14.9692 3.92243C14.8989 3.96149 14.8375 4.01338 14.7883 4.07514C14.7391 4.1369 14.7032 4.20729 14.6827 4.28229L13.8426 7.25886L13.7561 7.30598L10.7125 5.63519V5.53715L13.0024 3.35661C13.0597 3.30201 13.1052 3.2372 13.1362 3.16587C13.1672 3.09454 13.1832 3.0181 13.1832 2.9409C13.1832 2.8637 13.1672 2.78725 13.1362 2.71593C13.1051 2.64461 13.0597 2.57981 13.0023 2.52523C12.945 2.47064 12.8769 2.42735 12.802 2.39781C12.7271 2.36828 12.6468 2.35308 12.5658 2.35309C12.4847 2.3531 12.4044 2.36831 12.3295 2.39786C12.2546 2.42742 12.1866 2.47072 12.1293 2.52532L10.7126 3.87439V2.39972L12.1788 1.00352C12.2361 0.948921 12.2815 0.88411 12.3126 0.812782C12.3436 0.741455 12.3595 0.665009 12.3595 0.587808C12.3595 0.510607 12.3435 0.434165 12.3125 0.362844C12.2815 0.291523 12.236 0.226721 12.1787 0.172138C12.1213 0.117555 12.0533 0.0742599 11.9784 0.0447244C11.9035 0.0151888 11.8232 -8.50588e-06 11.7421 3.57155e-09C11.661 8.51303e-06 11.5808 0.0152227 11.5059 0.044774C11.431 0.0743252 11.3629 0.117635 11.3056 0.17223L10.0948 1.32525L8.88399 0.172256C8.76823 0.0619968 8.61121 4.39497e-05 8.44748 2.67704e-05C8.28375 9.59114e-06 8.12672 0.0619295 8.01094 0.172165C7.89515 0.2824 7.83009 0.431921 7.83007 0.587835C7.83005 0.743749 7.89508 0.893283 8.01084 1.00354L9.47704 2.39975V3.87444L8.06031 2.52533C8.00299 2.47074 7.93494 2.42743 7.86005 2.39788C7.78515 2.36833 7.70487 2.35311 7.6238 2.3531C7.54273 2.35309 7.46245 2.36829 7.38755 2.39783C7.31265 2.42736 7.24459 2.47066 7.18726 2.52524C7.12992 2.57982 7.08444 2.64463 7.05341 2.71595C7.02238 2.78727 7.0064 2.86371 7.00639 2.94091C7.00638 3.01811 7.02234 3.09456 7.05336 3.16589C7.08437 3.23721 7.12984 3.30202 7.18716 3.35662L9.47704 5.53716V5.6352L6.43348 7.30599L6.34701 7.25888L5.50682 4.2823C5.48624 4.20736 5.45034 4.13704 5.40115 4.07535C5.35197 4.01366 5.29048 3.96183 5.22021 3.92283C5.14994 3.88382 5.07228 3.85842 4.99168 3.84806C4.91107 3.8377 4.82911 3.84261 4.7505 3.86248C4.67189 3.88236 4.59818 3.91682 4.53359 3.96389C4.469 4.01096 4.4148 4.06971 4.37411 4.13677C4.33342 4.20383 4.30703 4.27788 4.29646 4.35468C4.28589 4.43147 4.29135 4.5095 4.31252 4.58428L4.83134 6.42741L4.53895 6.26675L3.49286 5.69016L2.95755 3.78422C2.91503 3.6339 2.81168 3.50575 2.67014 3.42785C2.5286 3.34994 2.3604 3.32863 2.2024 3.36859C2.04439 3.40854 1.90945 3.5065 1.82714 3.64101C1.74483 3.77552 1.72185 3.93561 1.76325 4.08621L2.20386 5.66277L0.552479 6.08233C0.40799 6.11924 0.282464 6.2048 0.199193 6.32314C0.115922 6.44149 0.0805596 6.58458 0.0996679 6.72586C0.118776 6.86715 0.191058 6.99704 0.3031 7.09143C0.415142 7.18583 0.559338 7.23831 0.708932 7.23915C0.763217 7.24039 0.817387 7.2338 0.869604 7.21962L2.87511 6.70986L3.9212 7.28625L4.2136 7.44711L2.27806 7.94116C2.19986 7.96092 2.12652 7.99516 2.06224 8.04195C1.99796 8.08873 1.94399 8.14712 1.90344 8.21379C1.86289 8.28046 1.83654 8.35408 1.82591 8.43046C1.81528 8.50683 1.82058 8.58446 1.84149 8.65888C1.8769 8.78422 1.95448 8.89506 2.06235 8.9744C2.17023 9.05374 2.30244 9.09722 2.43874 9.09817C2.49317 9.09803 2.54727 9.09009 2.59921 9.07462L5.72924 8.27858L5.81571 8.32568V11.6749L5.72924 11.7218L2.5992 10.9218C2.44031 10.8828 2.2717 10.905 2.12987 10.9836C1.98805 11.0621 1.88444 11.1907 1.84148 11.3415C1.82057 11.4159 1.81528 11.4935 1.82591 11.5699C1.83654 11.6463 1.86289 11.7199 1.90344 11.7865C1.944 11.8532 1.99796 11.9116 2.06224 11.9583C2.12652 12.0051 2.19986 12.0393 2.27805 12.0591L4.21359 12.5533L2.87511 13.2905L0.869594 12.7808C0.711754 12.7407 0.543672 12.762 0.402326 12.84C0.26098 12.918 0.157947 13.0462 0.115893 13.1965C0.0738402 13.3468 0.0962112 13.5069 0.178085 13.6415C0.259959 13.7761 0.394629 13.8742 0.55247 13.9142L2.20386 14.3376L1.76327 15.9104C1.74161 15.9851 1.73576 16.0631 1.74603 16.1399C1.75631 16.2168 1.78252 16.2909 1.82313 16.3581C1.86375 16.4252 1.91797 16.484 1.98263 16.531C2.0473 16.578 2.12113 16.6123 2.19984 16.6319C2.25199 16.6461 2.30609 16.6527 2.36031 16.6515C2.49574 16.6513 2.62733 16.6086 2.73461 16.5298C2.8419 16.4511 2.91886 16.3409 2.95355 16.2162L3.49288 14.3103L4.83136 13.573L4.31254 15.4161C4.29162 15.4906 4.28631 15.5682 4.29694 15.6446C4.30756 15.721 4.33391 15.7946 4.37446 15.8613C4.41501 15.9279 4.46898 15.9863 4.53327 16.0331C4.59756 16.0799 4.67091 16.1141 4.74912 16.1339C4.80113 16.1494 4.8553 16.1573 4.90979 16.1574C5.04606 16.1564 5.17823 16.1129 5.28607 16.0336C5.3939 15.9543 5.47145 15.8434 5.50684 15.7181L6.34701 12.7416L6.43348 12.6944L9.47703 14.3652V14.4633L7.18715 16.6438C7.07139 16.7541 7.00637 16.9036 7.00639 17.0595C7.0064 17.2155 7.07146 17.365 7.18725 17.4752C7.30304 17.5854 7.46007 17.6474 7.6238 17.6473C7.78753 17.6473 7.94455 17.5854 8.06031 17.4751L9.47701 16.126V17.6007L8.01084 18.9969C7.95352 19.0515 7.90805 19.1163 7.87704 19.1876C7.84602 19.2589 7.83006 19.3354 7.83007 19.4126C7.83008 19.4898 7.84606 19.5662 7.87709 19.6375C7.90812 19.7089 7.9536 19.7737 8.01094 19.8282C8.06827 19.8828 8.13633 19.9261 8.21123 19.9557C8.28613 19.9852 8.36641 20.0004 8.44748 20.0004C8.52855 20.0004 8.60883 19.9852 8.68373 19.9556C8.75862 19.9261 8.82667 19.8827 8.88399 19.8282L10.0948 18.6752L11.3056 19.8281C11.3628 19.8828 11.4309 19.9262 11.5058 19.9558C11.5807 19.9854 11.661 20.0007 11.7421 20.0007C11.8232 20.0007 11.9036 19.9854 11.9785 19.9558C12.0534 19.9262 12.1214 19.8828 12.1787 19.8281C12.2364 19.7738 12.2823 19.7091 12.3135 19.6377C12.3448 19.5664 12.3609 19.4898 12.3609 19.4125C12.3609 19.3352 12.3448 19.2587 12.3135 19.1873C12.2823 19.116 12.2364 19.0512 12.1787 18.9969L10.7125 17.6007V16.126L12.1292 17.4751C12.1865 17.5298 12.2546 17.5732 12.3295 17.6028C12.4044 17.6324 12.4847 17.6476 12.5658 17.6476C12.6469 17.6476 12.7272 17.6324 12.8022 17.6028C12.8771 17.5732 12.9451 17.5298 13.0024 17.4751C13.0601 17.4207 13.1059 17.356 13.1372 17.2846C13.1685 17.2133 13.1846 17.1367 13.1846 17.0594C13.1846 16.9821 13.1685 16.9056 13.1372 16.8342C13.1059 16.7629 13.0601 16.6982 13.0024 16.6438L10.7125 14.4632V14.3652L13.7561 12.6944L13.8425 12.7415L14.6827 15.7181C14.7181 15.8434 14.7956 15.9543 14.9034 16.0336C15.0113 16.113 15.1435 16.1564 15.2798 16.1574C15.3339 16.1566 15.3878 16.1501 15.4405 16.1379C15.5984 16.0966 15.7329 15.9976 15.8146 15.8625C15.8964 15.7273 15.9188 15.5669 15.8771 15.4161L15.358 13.573L16.6965 14.3103L17.236 16.2162C17.2702 16.3411 17.3469 16.4517 17.4543 16.5305C17.5617 16.6093 17.6935 16.6519 17.8291 16.6515C17.8834 16.6527 17.9375 16.6461 17.9897 16.6319C18.0682 16.6125 18.1418 16.5785 18.2063 16.5318C18.2708 16.4851 18.3249 16.4267 18.3655 16.3599C18.4062 16.2932 18.4324 16.2194 18.4429 16.1429C18.4533 16.0664 18.4477 15.9886 18.4263 15.9142L17.9857 14.3376L19.6371 13.9143C19.7949 13.8742 19.9296 13.7761 20.0115 13.6415C20.0933 13.5069 20.1157 13.3468 20.0737 13.1965C20.0316 13.0462 19.9286 12.918 19.7872 12.84C19.6459 12.7621 19.4778 12.7408 19.32 12.7808V12.7808ZM12.5206 10.9963C12.5212 11.0992 12.4928 11.2003 12.4385 11.2893C12.3842 11.3782 12.3059 11.4518 12.2117 11.5022L10.4037 12.4983C10.3097 12.5498 10.2032 12.5768 10.0948 12.5768C9.98638 12.5768 9.87988 12.5498 9.7859 12.4983L7.97786 11.5022C7.88367 11.4517 7.80536 11.3782 7.75105 11.2893C7.69674 11.2003 7.66841 11.0992 7.66898 10.9963V9.00396C7.6689 8.90064 7.6974 8.79912 7.75163 8.70963C7.80585 8.62014 7.88388 8.54584 7.97786 8.4942L9.7859 7.50207C9.87967 7.45006 9.98625 7.42265 10.0948 7.42265C10.2033 7.42265 10.3099 7.45006 10.4037 7.50207L12.2117 8.4942C12.3057 8.54584 12.3837 8.62014 12.4379 8.70963C12.4922 8.79912 12.5207 8.90064 12.5206 9.00396V10.9963Z" fill="black"/>
</svg>
