<svg width="21" height="18" viewBox="0 0 21 18" fill="none" xmlns="http://www.w3.org/2000/svg">
<path d="M18.5869 6.75133C18.5225 5.73583 18.074 4.7829 17.3325 4.0861C16.591 3.3893 15.612 3.00086 14.5945 2.99969C14.4072 2.99969 14.2202 3.01263 14.0348 3.03842C13.5874 2.17164 12.8962 1.45471 12.0463 0.976058C11.1964 0.497403 10.225 0.277944 9.25188 0.344741C8.27875 0.411538 7.34645 0.761671 6.56993 1.35197C5.79341 1.94226 5.20662 2.74691 4.88192 3.66669C4.183 3.67958 3.517 3.96606 3.02698 4.4646C2.53696 4.96314 2.262 5.63398 2.26116 6.33302C2.26121 6.43506 2.26719 6.53701 2.27906 6.63836C1.77568 6.88671 1.35144 7.27038 1.05389 7.74633C0.756348 8.22229 0.597268 8.77172 0.59449 9.33302C0.593316 9.86118 0.733597 10.38 1.00076 10.8356C1.03018 10.8856 1.07214 10.927 1.12249 10.9558C1.17284 10.9846 1.22983 10.9997 1.28782 10.9997H19.8412C19.8948 10.9997 19.9476 10.9868 19.9952 10.962C20.0427 10.9373 20.0836 10.9014 20.1143 10.8574C20.4276 10.4109 20.5953 9.8785 20.5945 9.33302C20.5923 8.7413 20.3941 8.16698 20.0309 7.69987C19.6676 7.23276 19.1598 6.89919 18.5869 6.75133Z" fill="white"/>
<path d="M5.59421 13.3328H4.35448L4.58428 12.4137C4.59658 12.3646 4.59751 12.3133 4.587 12.2637C4.5765 12.2142 4.55483 12.1677 4.52366 12.1277C4.49248 12.0878 4.45261 12.0555 4.40708 12.0333C4.36154 12.0111 4.31154 11.9995 4.26088 11.9995H2.59421C2.52179 11.9995 2.45134 12.0231 2.39352 12.0667C2.3357 12.1103 2.29366 12.1716 2.27375 12.2412L1.60708 14.5745C1.5929 14.6242 1.59042 14.6764 1.59985 14.7271C1.60928 14.7778 1.63036 14.8257 1.66143 14.8669C1.6925 14.9081 1.7327 14.9415 1.77888 14.9645C1.82506 14.9875 1.87595 14.9995 1.92755 14.9995H2.50061L1.93755 17.2519C1.9195 17.324 1.92604 17.4 1.95611 17.4679C1.98618 17.5358 2.03807 17.5917 2.10355 17.6268C2.16902 17.6618 2.24433 17.674 2.31752 17.6614C2.39071 17.6488 2.45759 17.6121 2.50755 17.5571L5.84088 13.8905C5.88435 13.8427 5.91299 13.7833 5.92334 13.7196C5.93368 13.6558 5.92527 13.5904 5.89914 13.5313C5.87301 13.4723 5.83028 13.4221 5.77615 13.3868C5.72201 13.3516 5.65881 13.3328 5.59421 13.3328Z" fill="white"/>
<path d="M12.5949 13.3328H11.3552L11.585 12.4137C11.5973 12.3646 11.5982 12.3133 11.5877 12.2637C11.5772 12.2142 11.5556 12.1677 11.5244 12.1277C11.4932 12.0878 11.4533 12.0555 11.4078 12.0333C11.3623 12.0111 11.3123 11.9995 11.2616 11.9995H9.59495C9.52252 11.9995 9.45207 12.0231 9.39425 12.0667C9.33643 12.1103 9.29439 12.1716 9.27448 12.2412L8.60781 14.5745C8.59363 14.6242 8.59116 14.6764 8.60059 14.7271C8.61002 14.7778 8.6311 14.8257 8.66216 14.8669C8.69323 14.9081 8.73343 14.9415 8.77961 14.9645C8.82579 14.9875 8.87668 14.9995 8.92828 14.9995H9.50135L8.93828 17.2519C8.92024 17.324 8.92677 17.4 8.95684 17.4679C8.98692 17.5358 9.03881 17.5917 9.10428 17.6268C9.16976 17.6618 9.24506 17.674 9.31825 17.6614C9.39144 17.6488 9.45832 17.6121 9.50828 17.5571L12.8416 13.8905C12.8851 13.8427 12.9137 13.7833 12.9241 13.7196C12.9344 13.6558 12.926 13.5904 12.8999 13.5313C12.8737 13.4723 12.831 13.4221 12.7769 13.3868C12.7227 13.3516 12.6595 13.3328 12.5949 13.3328Z" fill="white"/>
<path d="M19.5661 13.5312C19.5399 13.4722 19.4972 13.422 19.4431 13.3868C19.389 13.3516 19.3258 13.3328 19.2612 13.3328H18.0215L18.2513 12.4137C18.2636 12.3646 18.2645 12.3133 18.254 12.2637C18.2435 12.2142 18.2218 12.1677 18.1906 12.1277C18.1595 12.0878 18.1196 12.0555 18.0741 12.0333C18.0285 12.0111 17.9785 11.9995 17.9279 11.9995H16.2612C16.1888 11.9995 16.1183 12.0231 16.0605 12.0667C16.0027 12.1103 15.9606 12.1716 15.9407 12.2412L15.2741 14.5745C15.2599 14.6242 15.2574 14.6764 15.2668 14.7271C15.2763 14.7778 15.2974 14.8257 15.3284 14.8669C15.3595 14.9081 15.3997 14.9415 15.4459 14.9645C15.4921 14.9875 15.5429 14.9995 15.5945 14.9995H16.1676L15.6045 17.2519C15.5865 17.324 15.593 17.4 15.6231 17.4679C15.6532 17.5358 15.7051 17.5917 15.7705 17.6268C15.836 17.6618 15.9113 17.674 15.9845 17.6614C16.0577 17.6488 16.1246 17.6121 16.1745 17.5571L19.5079 13.8905C19.5513 13.8427 19.58 13.7833 19.5903 13.7195C19.6007 13.6557 19.5922 13.5903 19.5661 13.5312Z" fill="white"/>
</svg>
