<svg width="20" height="20" viewBox="0 0 20 20" fill="none" xmlns="http://www.w3.org/2000/svg">
<path d="M16.0712 8.19143V6.15143C16.0712 2.75429 13.3169 0 9.91976 0C7.20261 0 4.99976 2.20286 4.99976 4.92C4.99976 7.09286 6.76118 8.85429 8.93404 8.85714C9.77547 8.85714 10.5955 8.48 11.1883 7.82429C12.0598 6.85714 12.314 5.68429 11.8698 4.68571C11.4655 3.77714 10.5612 3.19 9.5669 3.19C8.45547 3.19 7.55118 4.09429 7.55118 5.20571C7.55118 5.40286 7.39118 5.56286 7.19404 5.56286C6.9969 5.56286 6.8369 5.40286 6.8369 5.20571C6.8369 3.7 8.06118 2.47571 9.5669 2.47571C10.8426 2.47571 12.0026 3.22857 12.5226 4.39571C13.0855 5.66 12.784 7.12143 11.7183 8.30286C11.5283 8.51286 11.3198 8.69857 11.0955 8.86C10.6012 11.8457 8.01261 14.1257 4.8869 14.1257H-0.000244141V18.5714C0.441184 19.4157 1.39547 20 2.49976 20C3.60404 20 4.55833 19.4157 4.99976 18.5714C5.44118 19.4157 6.39547 20 7.49976 20C8.60404 20 9.55833 19.4157 9.99976 18.5714C10.4412 19.4157 11.3955 20 12.4998 20C13.604 20 14.5583 19.4157 14.9998 18.5714C15.4412 19.4157 16.3955 20 17.4998 20C18.604 20 19.5583 19.4157 19.9998 18.5714V14.1243C17.6183 13.1143 16.0712 10.7786 16.0712 8.19143Z" fill="white"/>
</svg>
